<?xml version="1.0" encoding="UTF-8"?><svg id="Layer_2" xmlns="http://www.w3.org/2000/svg" viewBox="0 0 29.58 28.93"><defs><style>.cls-1{fill:#fff;fill-rule:evenodd;}</style></defs><g id="Layer_1-2"><g id="Page_1"><g id="_Õ_1"><path class="cls-1" d="m6.76,26.9c1.1-.3,2.1-.6,3.3-.8.1.7.3,1.4.4,2.1s.5.8,1.1.7c1.6-.2,2.8-1,3.5-2.4,1.7-3.2,1.7-6.5.6-9.9-.1-.2-.5-.5-.8-.5-4.4.2-9.1,6-8.3,10.3,0,.1,0,.2.2.5h0Z"/><path class="cls-1" d="m2.36,12.9c-.6.4-1.1.8-1.6,1.2-1,.8-1,1.1-.1,2,1.4,1.4,3.1,1.9,5,1.9,2.9,0,5.5-1.2,7.7-3,.2-.2.3-.8.1-1-2.9-3.7-6.4-5.7-11.2-4.7-1.4.3-1.7,1-.9,2.2.3.4.6.9,1,1.4h0Z"/><path class="cls-1" d="m26.26,22.5c.7,0,1.1,0,1.6-.1,1.3-.1,1.7-.4,1.4-1.7-.2-.9-.7-2-1.4-2.6-3-2.7-6.5-3.3-10.3-2.6-.2,0-.5.5-.5.7,0,3.2,3.1,7.9,6.1,9.1.8.3,1.7.4,2.6.5s1.2-.4,1.1-1.2c-.2-.7-.4-1.3-.6-2.1h0Z"/><path class="cls-1" d="m12.56,2.6c-.4-.4-.6-.7-.8-.9-1.4-1.2-2.75-.49-2.95,1.41-.2,1.4-.1,2.9.2,4.3.9,3,3.25,4.49,5.85,5.99.2.1.8-.1,1-.3,2.3-3.1,2.5-8.3.5-11.6-.1-.2-.3-.4-.4-.6-1.1-1.3-1.9-1.2-2.6.4-.2.2-.4.6-.8,1.3h0Z"/><path class="cls-1" d="m26.36,7.1c.1-.6.3-1.2.4-1.8.2-.9-.2-1.4-1.1-1.5h-1.1c-4.3.9-7.9,6-7.2,10.2,4.7,1.2,9.1-.9,11.7-4.2,1-1.2.5-2.2-1-2.5-.6,0-1.1-.1-1.7-.2h0Z"/></g></g></g></svg>