<?xml version="1.0" encoding="utf-8"?>
<!-- Generator: Adobe Illustrator 27.6.1, SVG Export Plug-In . SVG Version: 6.00 Build 0)  -->
<svg version="1.1" id="Layer_1" xmlns="http://www.w3.org/2000/svg" xmlns:xlink="http://www.w3.org/1999/xlink" x="0px" y="0px"
	 viewBox="0 0 208.3 160.9" style="enable-background:new 0 0 208.3 160.9;" xml:space="preserve">
<style type="text/css">
	.st0{display:none;}
	.st1{fill-rule:evenodd;clip-rule:evenodd;fill:#ED1C24;}
	.st2{fill-rule:evenodd;clip-rule:evenodd;fill:#FFFFFF;}
	.st3{fill:#FFFFFF;}
</style>
<g id="Õ_xAF__x220F_Ò">
</g>
<g id="Õ_xBA__x2264__x201E__1" class="st0">
</g>
<g id="_x25CA__xBF__x221A_Ê" class="st0">
</g>
<g id="_xB5__xBA_œ_xFB02_" class="st0">
</g>
<g id="Page_1">
	<g id="Õ_xBA__x2264__x201E__1_00000068673044611102557270000003618468154008299437_">
		<g>
			<path class="st1" d="M176.1,129.5l0.1,0.2l0.2,0.2l0.4,0.1l0.2-0.1l0.2-0.6l-0.1-0.2l-0.1-0.2l0.2-0.1h0.4l0.2-0.1l0.2-0.2
				l0.2-0.2l0.2-0.2l0.3-0.5l0.4-0.6l0.5-0.8l0.5-1l0.4-0.7l0.3-0.3l0.3-0.3l0.2-0.2l0.2-0.2l0.2-0.2l0.2-0.1l0.2-0.2l0.2-0.1
				l0.2-0.1h0.3l0.2-0.1l0.2-0.1l0.8-2l-0.1-0.2V120l0.1-0.6l-0.1-0.2l-0.2-0.2l-0.3-0.1l-0.2,0.2l-0.2,0.2l-0.2,0.1l-0.2,0.1
				l-0.2,0.1l-0.2,0.1l-0.2,0.1l-0.2,0.1l-0.2,0.1l-0.2,0.1l-0.2,0.1l-0.2,0.1l-0.2,0.1l-0.2,0.1l-0.1,0.4l-0.1,0.6l-0.2,0.5
				l-0.3,0.5l-0.3,0.3l-0.2,0.2l-0.2,0.2l-0.2,0.1l-0.2,0.2l-0.2,0.1l-0.2,0.2l-0.2,0.1L178,124l-0.2,0.1l-0.2,0.2l-0.2,0.1
				l-0.2,0.1l-0.2,0.1l-0.2,0.1l-0.3,0.5l-0.2,0.2H176l-0.2,0.2l-0.3,0.5l-0.3,0.3l-0.3,0.3l-0.3,0.3l-0.2,0.2l-0.3,0.3l-0.2,0.2
				l-0.2,0.2l-0.2,0.2l-0.2,0.2l-0.2,0.2l-0.2,0.2l-0.2,0.2l-0.2,0.2l-0.2,0.1l-0.2,0.2l-0.2,0.1l-0.2,0.2l-0.2,0.1l-0.2,0.2
				l-0.4-0.1l-0.1-0.2l0.1-0.4l0.2-0.2l0.2-0.1l0.2-0.2l0.2-0.1l0.2-0.2l0.2-0.2l0.3-0.9l-0.1-0.2v-0.3l0.1-0.3l0.2-0.2l0.2-0.1
				l0.2-0.1l0.2-0.1l0.2-0.1l0.2-0.1l0.2-0.1l0.2-0.1l0.3-0.3l0.4-1.1V124v-0.3l-0.1-0.2l0.1-0.7l0.1-0.3l0.2-0.1l0.2-0.6v-0.3v-0.3
				l0.1-0.4l0.2-0.1l0.1-0.3l-0.2-0.2l-0.1-0.2v-0.3l0.1-0.3l0.2-0.1l0.2-0.1l0.2-0.1l0.2-0.1l0.2-0.1l0.2-0.1l0.2-0.1l0.2-0.1
				l0.2-0.1l0.2-0.1l0.2-0.2l0.3-0.9v-0.4l0.2-0.8l0.2-0.8l0.1-0.6v-0.3v-0.3l-0.1-0.2v-0.3l-0.2-0.2l-0.1-0.2l-0.2-0.2l-0.2-0.2
				v-0.4l-0.1-0.2l-0.1-0.2l-0.3-0.1h-0.4h-0.4l-0.3-0.1l-0.3-0.1l0.1-0.3h-0.1h-0.3l-0.3-0.1V111v-0.3l-0.1-0.2l-0.8-0.3l-0.2,0.2
				l-0.2,0.1l-0.3,0.3l-0.3,0.3l-0.2,0.1l0.3-1.3l-0.5-0.3l-0.2-0.2l-0.1-0.2l-0.2-0.2l-0.1-0.2l-0.1-0.2l-0.1-0.2l-0.2-0.2
				l-0.2-0.2h-0.1h-0.3h-0.3l-0.2,0.1l-0.2,0.1h-0.3h-0.3l0.2-0.5l-0.3-0.1l-0.2,0.1h-0.3v0.7h-0.4l0.1-0.3v-0.4v-0.3h-0.1l-0.2,0.1
				l-0.3,0.5l-0.2,0.2l-0.2,0.1l-0.2,0.1l-0.2,0.1l-0.2,0.1l-0.2,0.1l-0.2,0.1l-0.2,0.1l-0.2,0.1l-0.2,0.1h-0.3l-0.2,0.1l-0.2,0.1
				l-0.2,0.2l-0.2,0.1l-0.5,1.4v0.4l-0.4,1l-0.2,0.2l-0.3-0.1l-0.2-0.2l-0.4-0.1l-0.1,0.3l0.1,0.2l0.3,0.3l0.1,0.2l-0.2,0.1h-0.3
				l-0.2,0.1l-0.2,0.1l-0.3,0.3l-0.2,0.1l-0.2,0.1l-0.3,0.3l-0.3,0.3l-0.3,0.5l-0.3,0.3l-0.2,0.2l-0.2,0.1l-0.2,0.1l-0.3-0.1
				l0.2-0.2l0.3-0.3l0.9-2.4l0.5-1.8l-0.5-0.2h-0.3l-0.2,0.1h-0.3l-0.2,0.1l-0.2,0.1l-0.2,0.1l-0.2,0.1h-0.3l-0.2,0.1l-0.2,0.1
				l-0.2,0.1h-0.3h-0.3l-0.3,0.3l-0.6,1.1l-1.3,3.1l-0.2,0.1l-0.2,0.1l-0.2,0.1l-0.2,0.2l-0.2,0.1l-0.2,0.1l-0.2,0.2l-0.2,0.1
				l-0.2,0.2l-0.2,0.1l-0.2,0.1l-0.2,0.2l-0.2,0.1l-0.2,0.2l-0.2,0.1l-0.2,0.2l-0.2,0.1l-0.2,0.1l-0.2,0.2l-0.2,0.1l-0.2,0.2
				l-0.2,0.1l-0.2,0.2l-0.2,0.1l-0.2,0.2l-0.2,0.1l-0.2,0.2l-0.2,0.1l-0.2,0.2l-0.2,0.1l-0.2,0.2l-0.2,0.1l-0.2,0.2l-0.2,0.1
				l-0.2,0.2l-0.2,0.1l-0.2,0.1l-0.2,0.2l-0.2,0.1l-0.2,0.2l-0.2,0.1l-0.2,0.1l-0.2,0.2l-0.2,0.1l1-0.9l-0.2,0.2l-0.2,0.1l-0.2,0.1
				l-0.2,0.1l-0.2,0.2l-0.2,0.1l-0.2,0.1l-0.2,0.1l-0.2,0.2l-0.2,0.1l-0.2,0.1l-0.2,0.1l-0.2,0.1l-0.2,0.1l-0.2,0.1l-0.2,0.1
				l-0.2,0.1l-0.2,0.2l-0.2,0.1l-0.2,0.1l-0.2,0.1l-0.2,0.1h-0.3l-0.2,0.1l-0.2,0.1l-0.2,0.1l-0.2,0.1l-0.2,0.1l-0.2,0.1l-0.2,0.1
				l-0.2,0.1h-0.3l-0.2,0.1l-0.2,0.1l-0.2,0.1l-0.2,0.1l-0.2,0.1h-0.3l-0.2,0.1l-0.2,0.1l-0.2,0.1l-0.2,0.1h-0.3l-0.2,0.1l-0.2,0.1
				h-0.3l0.7-0.5l-0.2,0.1l-0.2,0.1h-0.3l-0.2,0.1l-0.2,0.1h-0.3l-0.2,0.1h-0.3l-0.2,0.1l-0.2,0.1h-0.3l-0.2,0.1h-0.3l-0.2,0.1h-0.3
				l-0.2,0.1h-0.3l-0.2,0.1h-0.3l-0.2,0.1h-0.3h-0.3l-0.2,0.1h-0.3l-0.2,0.1h-0.3h-0.3h-0.3l-0.2,0.1h-0.3h-0.3h-0.3h-0.3l-0.2,0.1
				h-0.3h-0.3h-0.3h-0.3h-0.3h-0.3h-0.3h-0.4h-0.3h-0.3h-0.3h-0.4h-0.3h-0.3h-0.4h-0.3h-0.4h-0.4h-0.3h-0.4h-0.4h-0.4h-0.4l-0.6-0.1
				h-0.4h-0.4h-0.4h-0.3h-0.4h-0.3h-0.4h-0.4H119h-0.4h-0.4l-0.6-0.1h-0.4h-0.4l-0.6-0.1h-0.4l-0.6-0.1l-0.6-0.1l-0.7-0.1l-0.7-0.1
				l-0.7-0.1l-0.7-0.1l-0.8-0.2l-0.7,0.5l-0.9-0.2l-1.3-0.3l-1.8-0.5l-4.4-1.7l-1.7-0.8l-1.1-0.6l-1-0.5l-0.8-0.4l-0.6-0.4l-0.7-0.4
				l-0.5-0.3L95,120l-0.5-0.3l-0.6-0.4l-0.5-0.3l-0.5-0.3l-0.5-0.3l-0.5-0.3l-0.3-0.3l-0.3-0.3l-0.3-0.3l-0.3-0.3l-0.3-0.3l-0.3-0.3
				l-0.3-0.3l-0.2-0.2l-0.3-0.3l-0.3-0.3l-0.2-0.2l-0.2-0.2l-0.3-0.3l-0.2-0.2l-0.2-0.2l-0.3-0.3l-0.2-0.2l-0.2-0.2l-0.2-0.2
				l-0.2-0.2l-0.2-0.2l-0.2-0.2l-0.2-0.2l-0.2-0.2l-0.2-0.2l-0.2-0.2l-0.2-0.2l-0.2-0.2l-0.1-0.2l-0.2-0.2l-0.2-0.2l-0.2-0.2
				l-0.1-0.2l-0.2-0.2L84,110l-0.1-0.2l-0.2-0.2l-0.2-0.2l-0.1-0.2l-0.2-0.2l-0.1-0.2l-0.2-0.2l-0.2-0.2l-0.1-0.2l-0.2-0.2l-0.1-0.2
				l-0.2-0.2l-0.1-0.2l-0.1-0.2l-0.2-0.2l-0.1-0.2l-0.2-0.2l-0.1-0.2l-0.2-0.2L81,106l-0.1-0.2l-0.2-0.2l-0.1-0.2l-0.1-0.2l-0.2-0.2
				l-0.1-0.2l-0.1-0.2l-0.1-0.2l-0.2-0.2l-0.1-0.2l-0.1-0.2l-0.1-0.2l-0.2-0.2l-0.1-0.2l-0.1-0.2l-0.1-0.2l-0.1-0.2l-0.2-0.2
				l-0.1-0.2l-0.1-0.2l-0.1-0.2l-0.1-0.2l-0.1-0.2l-0.2-0.2l-0.1-0.2l-0.1-0.2l-0.1-0.2l-0.1-0.2l-0.1-0.2l-0.1-0.2l-0.1-0.2
				l-0.1-0.2l-0.1-0.2L77,99.2L76.9,99l-0.2-0.2l-0.1-0.2l-0.1-0.2l-0.1-0.2L76.3,98l-0.1-0.2l-0.1-0.2L76,97.4l-0.1-0.2v-0.3
				l-0.1-0.2l-0.1-0.2l-0.1-0.2l-0.1-0.2l-0.1-0.2l-0.1-0.2l-0.1-0.2l-0.1-0.2L75,95.1l-0.1-0.2l-0.1-0.2v-0.3l-0.1-0.2L74.6,94
				l-0.1-0.2l-0.1-0.2l-0.1-0.2l-0.1-0.2v-0.3l-0.1-0.2L74,92.5l-0.1-0.2V92l-0.1-0.2l-0.1-0.2l-0.1-0.2v-0.3l-0.1-0.2l-0.1-0.2
				l-0.1-0.2v-0.3L73.2,90l-0.1-0.2v-0.3L73,89.3V89l-0.1-0.2l-0.1-0.2v-0.3l-0.1-0.2v-0.3l-0.1-0.2v-0.3l-0.1-0.2v-0.3l-0.1-0.2
				v-0.3l-0.1-0.2v-0.3l-0.1-0.2v-0.3V85l-0.1-0.2v-0.3v-0.3v-0.3L72,83.7v-0.3v-0.3v-0.3v-0.3l-0.1-0.2V82v-0.3v-0.3v-0.3v-0.3
				v-0.3v-0.3v-0.4v-0.3v-0.3v-0.3v-0.4v-0.3v-0.4v-0.3v-0.4v-0.3v-0.4V76v-0.4v-0.4v-0.4v-0.4l0.1-0.6v-0.4l0.1-0.6l0.1-0.6
				l0.1-0.7l0.1-0.7l0.1-0.7l0.1-0.6l0.1-0.6l0.1-0.7l0.1-0.7l0.1-0.7l0.2-0.8l0.2-0.9l0.2-0.9l0.3-1.2l0.4-1.4l2.5-6.7l0.6-1.3
				l0.6-1.1l0.5-0.8l0.5-0.8l0.4-0.6l0.4-0.7l0.4-0.6l0.3-0.5l0.4-0.6l0.3-0.5l0.3-0.5l0.3-0.5l0.3-0.3l0.3-0.5l0.3-0.3l0.3-0.5
				l0.3-0.3l0.3-0.3l0.3-0.3l0.3-0.3l0.3-0.3l0.2-0.2l0.3-0.3l0.3-0.3l0.2-0.2l0.3-0.3l0.2-0.2l0.3-0.3l0.2-0.2l0.3-0.3l0.2-0.2
				l0.2-0.2l0.3-0.3l0.2-0.2l0.2-0.2l0.2-0.2l0.2-0.2l0.2-0.2l0.2-0.2l0.2-0.2l0.2-0.2l0.2-0.2l0.2-0.2l0.2-0.2l0.2-0.2l0.2-0.2
				l0.2-0.2l0.2-0.1l0.2-0.2l0.2-0.2l0.2-0.2l0.2-0.1l0.2-0.2l0.2-0.2l0.2-0.2l0.2-0.1l0.2-0.2l0.2-0.1l0.2-0.2l0.2-0.2l0.2-0.1
				l0.2-0.2l0.2-0.1l0.2-0.2l0.2-0.1l0.2-0.2l0.2-0.1l0.2-0.2l0.2-0.1l0.2-0.2l0.2-0.1l0.2-0.2l0.2-0.1l0.2-0.1l0.2-0.2l0.2-0.1
				l0.2-0.1l0.2-0.2l0.2-0.1l0.2-0.1l0.2-0.2l0.2-0.1l0.2-0.1l0.2-0.2l0.2-0.1l0.4,1.6l0.2-0.1l0.2-0.2l0.2-0.1l0.2-0.1l0.2-0.1
				l0.2-0.1l0.2-0.2l0.2-0.1l0.2-0.1l0.2-0.1l0.2-0.1l0.2-0.1l0.2-0.2l0.2-0.1l0.2-0.1v-0.1l0.1-0.3l-0.1,0.2l0.2-0.1l0.2-0.1
				l0.2-0.1l0.2-0.1l0.2-0.1h0.3l0.2-0.1l0.2-0.1l0.2-0.1l0.2-0.1l0.2-0.1h0.3l0.2-0.1l0.2-0.1l0.2-0.1l0.2-0.1l0.2-0.1l0.2-0.1h0.3
				l0.2-0.1l0.2-0.1l0.2-0.1l0.2-0.1l0.2-0.1l0.2-0.1l0.2-0.1L107,29l0.2-0.1l0.2-0.1l0.2-0.1l0.2-0.1l0.2-0.1l0.2-0.2l0.2-0.1
				l0.2-0.1h0.3h0.3l0.2-0.1h0.3l0.2-0.1l0.2-0.1h0.3l0.2-0.1l0.2-0.1h0.3l0.2-0.1l0.2-0.1h0.3l0.2-0.1l0.2-0.1h0.3l0.2-0.1l0.2-0.1
				h0.3l-0.9,0.4h0.3l0.2-0.1h0.3l0.2-0.1h0.3l0.2-0.1h0.3l0.2-0.1h0.3h0.4h0.3l0.2-0.1l0.2-0.1l0.2-0.1l0.2-0.1l0.2-0.1h0.3
				l0.2-0.1h0.4h0.1h0.1h0.3h0.3l0.2-0.1h0.3h0.3h0.3l0.2-0.1h0.3h0.3h0.3h0.3h0.3h0.3h0.3h0.3h0.3h0.4h0.3h0.3h0.3h0.4h0.3h0.3h0.4
				h0.3h0.4h0.4h0.3h0.4h0.4h0.4h0.4h0.4h0.4h0.4h0.4l0.6,0.1h0.4l0.6,0.1l0.6,0.1l0.6,0.1l0.6,0.1l0.6,0.1l0.7,0.1l0.7,0.1l0.7,0.1
				l0.7,0.1l0.8,0.2l0.8,0.2l0.9,0.2l1.1,0.3l1.3,0.3l1.7,0.5l6.6,2.5l1.6,0.7l1.1,0.6l1,0.5l0.8,0.5l0.7,0.4l0.6,0.4l0.7,0.4
				l0.5,0.3l0.6,0.4l0.5,0.3l0.5,0.3l0.5,0.3l0.3,0.3l0.5,0.3l0.3,0.3l0.3,0.3l0.5,0.3l0.3,0.3l0.3,0.3l0.2,0.2l0.3,0.3l0.3,0.3
				l0.2,0.2l0.3,0.3l0.3,0.3l0.2,0.2l0.2,0.2l0.3,0.3l0.2,0.2l0.2,0.2l0.1,0.2l0.2,0.2l0.2,0.2l0.2,0.2l0.2,0.2l0.1,0.2l0.2,0.2
				l0.2,0.2l0.2,0.2l0.2,0.2l0.2,0.2l0.2,0.2l0.2,0.2l0.3,0.3l0.2,0.2l0.3,0.3l0.2,0.2l0.2,0.2l0.1,0.2l0.2,0.2l0.2,0.2l0.1,0.2
				l0.2,0.2l0.2,0.2l0.2,0.2l0.2,0.2l0.2,0.2l0.1,0.2l0.2,0.2l0.2,0.2l0.2,0.2l0.2,0.2l0.2,0.2l0.2,0.2l0.2,0.2l0.1,0.2l0.2,0.2
				l0.2,0.2l0.2,0.2l0.2,0.2l0.2,0.2l0.1,0.2l0.2,0.2l0.2,0.2l0.2,0.2l0.1,0.2l0.2,0.2l0.2,0.2l0.1,0.2l0.2,0.2l0.2,0.2l0.1,0.2
				l0.2,0.2l0.1,0.2l0.2,0.2l0.1,0.2l0.1,0.2l0.2,0.2l0.1,0.2l0.2,0.2l0.1,0.2l0.1,0.2l0.1,0.2l0.2,0.2l0.1,0.2l0.1,0.2l0.1,0.2
				l0.1,0.2l0.1,0.2l0.2,0.2l0.1,0.2l0.1,0.2l0.1,0.2l0.1,0.2l0.1,0.2l0.1,0.2l0.6,0.4l0.1,0.2l0.1,0.2l0.2,0.2l0.1,0.2l0.1,0.2
				l0.1,0.2l0.1,0.2v0.3l0.1,0.2l0.1,0.2l0.1,0.2l0.1,0.2v0.3l0.1,0.2l0.1,0.2l0.1,0.2v0.3l0.1,0.2l0.1,0.2l0.1,0.2l0.1,0.2v0.3
				l0.1,0.2l0.1,0.2l0.1,0.2l0.1,0.2l0.1,0.2l0.1,0.2l0.1,0.2l0.1,0.2l0.2,0.2l0.1,0.2l0.1,0.2l0.2,0.2l0.1,0.2l0.3,0.1l0.2-0.1
				l0.1-0.3v-0.3l-0.1-0.2l-0.1-0.2v-0.3l-0.1-0.2l-0.1-0.2v-0.3l-0.1-0.2l-0.1-0.2l-0.1-0.2v-0.3l-0.1-0.2l-0.1-0.2l-0.1-0.2
				l-0.1-0.2v-0.3l-0.1-0.2l-0.1-0.2l-0.1-0.2l-0.1-0.2l-0.1-0.2l-0.1-0.2l-0.1-0.2v-0.3l-0.1-0.2l-0.1-0.2l-0.1-0.2l-0.1-0.2
				l-0.1-0.2l-0.1-0.2l-0.1-0.2l-0.1-0.2l-0.1-0.2l-0.1-0.2l-0.1-0.2l-0.1-0.2l-0.1-0.2l-0.1-0.2l-0.1-0.2l-0.1-0.2l-0.1-0.2
				l-0.1-0.2l-0.1-0.2l-0.1-0.2l-0.1-0.2l-0.1-0.2l-0.1-0.2l-0.2-0.2l-0.1-0.2l-0.1-0.2l-0.1-0.2l-0.1-0.2L176,53l-0.1-0.2l-0.2-0.2
				l-0.1-0.2l-0.1-0.2l-0.1-0.2l-0.1-0.2l-0.1-0.2l-0.2-0.2l-0.1-0.2l-0.1-0.2l-0.1-0.2l-0.2-0.2l-0.1-0.2l-0.1-0.2l-0.1-0.2
				l-0.2-0.2l-0.1-0.2l-0.1-0.2l-0.2-0.2l-0.1-0.2l-0.1-0.2l-0.2-0.2l-0.1-0.2l-0.2-0.2l-0.1-0.2l-0.1-0.2l-0.2-0.2l-0.1-0.2
				l-0.2-0.2l-0.1-0.2l-0.2-0.2l-0.1-0.2l-0.2-0.2l-0.1-0.2l-0.2-0.2l-0.1-0.2l-0.2-0.2l-0.1-0.2l-0.2-0.2l-0.2-0.2l-0.1-0.2
				l-0.2-0.2l-0.1-0.2h0.2l-0.2-0.2l-0.2-0.2l-0.1-0.2l-0.2-0.2l-0.2-0.2l-0.2-0.2l-0.1-0.2l-0.2-0.2l-0.2-0.2l-0.2-0.2l-0.2-0.2
				l-0.2-0.2l-0.2-0.2l-0.2-0.2l-0.2-0.2l-0.2-0.2l-0.2-0.2l-0.2-0.2l-0.2-0.2l-0.2-0.2l-0.2-0.2l-0.2-0.2l-0.2-0.2l-0.3-0.3
				l-0.2-0.2l-0.2-0.2l-0.2-0.2l-0.2-0.2l-0.2-0.2l-0.2-0.2l-0.2-0.2l-0.2-0.2l-0.3-0.3l-0.2-0.2l-0.2-0.2l-0.2-0.2l-0.3-0.3
				l-0.2-0.2l-0.3-0.3l-0.3-0.3l-0.3-0.3l-0.2-0.2l-0.3-0.3l-0.3-0.3l-0.5-0.3l-0.3-0.3l-0.3-0.3l-0.5-0.3l-0.5-0.3l-0.5-0.3
				l-0.5-0.3l-0.6-0.4l-0.6-0.4l-0.6-0.4l-0.7-0.4l-1-0.7l-1-0.5l-1-0.5l-1.2-0.6l-1.7-0.8l-8.7-3.3l-1.6-0.4l-1.2-0.3l-0.8-0.2
				l-0.8-0.2l-0.7-0.1l-0.7-0.1h-0.6l-0.7-0.1l-0.6-0.1l-0.6-0.1l-0.6-0.1l-0.6-0.1l-0.6-0.1l-0.6-0.1l-0.6-0.1l-0.6-0.1l-0.6-0.1
				l-0.6-0.1l-0.6-0.1l-0.6-0.1l-0.6-0.1l-0.6-0.1l-0.6-0.1l-0.7-0.1l-0.7-0.1l-0.7-0.1l-0.2,0.2l-0.6-0.1l-0.2,0.1h-0.3l-0.2,0.1
				l-0.2,0.1l-0.2,0.1h-0.1l-0.1-0.2l-0.1-0.2l-0.3-0.1l-0.2,0.1v-0.1l0.2-0.1l0.2-0.1h0.3h0.3h0.3h0.4h0.3h0.3l0.6,0.1l0.2-0.1h0.3
				l0.2-0.1l0.2-0.1h0.3l0.2-0.1h0.4l0.3,0.1l0.4,0.1l0.2-0.1h0.3h0.3h0.3h0.4h0.3h0.4h0.4l0.6,0.1l0.7,0.1h0.3l0.2-0.1h0.3h0.3h0.4
				l0.7,0.1l0.8,0.2l0.6,0.1h0.4h0.3l1.2,0.3l0.7,0.1l0.6,0.1l0.6,0.1l0.6,0.1l1.2,0.1l0.6,0.1l0.8,0.2l1.7,0.5l0.2-0.1h0.3l0.6,0.2
				l1.4,0.5l0.8,0.2l1.6,0.4l1.1,0.4l2.2,1l2,0.9l2.5,0.9l0.6,0.1v-0.1l-0.6-0.4l-0.5-0.3l-0.3-0.3l-0.6-0.4l-0.4-0.1l-0.6-0.1h-0.1
				l-0.6-0.4l-0.8-0.5l-1.3-0.6l-4.2-1.6l-0.9-0.2l-0.7-0.1l-0.4-0.1l-1-0.4l-1.2-0.3l-1.1-0.3l-1.1-0.3l-0.8-0.2l-0.8-0.2l-0.7-0.1
				l-0.8-0.2l-0.6-0.1l-0.7-0.1l-0.6-0.1l-0.7-0.1h-0.4l-0.6-0.1l-0.6-0.1l-0.6-0.1H130h-0.4l-0.6-0.1h-0.4h-0.4h-0.4h-0.4h-0.3
				h-0.4h-0.4h-0.4h-0.3h-0.4h-0.3h-0.4h-0.3h-0.3h-0.3h-0.4h-0.3h-0.3h-0.3H122h-0.3h-0.3h-0.3h-0.3h-0.3h-0.3h-0.3h-0.3h-0.3H119
				l-0.2,0.1h-0.3h-0.3h-0.3l-0.2,0.1h-0.3h-0.3l-0.2,0.1h-0.3h-0.3l-0.2,0.1h-0.3l-0.2,0.1h-0.3l-0.2,0.1h-0.3l-0.2,0.1h-0.3
				l-0.2,0.1h-0.3h-0.4h-0.3h-0.3h-0.3l-0.2,0.1l-0.2,0.1h-0.3l-0.2,0.1l-0.2,0.1l-0.2,0.1l-0.2,0.1l-0.2,0.1l-0.2,0.1l-0.2,0.1
				l-0.2,0.1l-0.2,0.1l-0.2,0.1h-0.3l-0.2,0.1l-0.2,0.1l-0.2,0.1h-0.3h-0.3H108h-0.4h-0.3l-0.2,0.1h-0.3h-0.3l-0.2,0.1H106l-0.2,0.1
				l-0.2,0.1h-0.3l-0.2,0.1l-0.2,0.1l-0.2,0.1l-0.2,0.1h-0.3l-0.2,0.1l-0.2,0.1l-0.2,0.1l-0.2,0.1l-0.2,0.1l-0.2,0.1l-0.2,0.1
				l-0.2,0.1l-0.2,0.1l-0.2,0.1h-0.3l-0.2,0.1l-0.2,0.1l-0.2,0.1l-0.2,0.1l-0.2,0.1h-0.3l-0.2,0.1l-0.2,0.1h-0.3l-0.2,0.1h-0.3h-0.3
				l-0.2,0.1l-0.2,0.2L98.5,25l-0.2,0.1l-0.2,0.2l-0.2,0.1l-0.2,0.1l-0.2,0.2l-0.2,0.1l-0.2,0.1L96.9,26l-0.2,0.2l-0.2,0.1l-0.2,0.1
				l-0.2,0.1l-0.2,0.1l-0.2,0.1l-0.2,0.2L95.3,27l-0.2,0.1l-0.2,0.1l-0.2,0.1l-0.2,0.1l-0.2,0.1l-0.2,0.1l-0.2,0.2l-0.2,0.1L93.5,28
				l-0.2,0.1l-0.2,0.1l-0.2,0.1l-0.2,0.1l-0.2,0.2l-0.2,0.1l-0.2,0.1l-0.2,0.1l-0.2,0.2l-0.2,0.1l-0.2,0.1l-0.2,0.1l-0.2,0.2
				l-0.2,0.1l-0.2,0.1L90.3,30l-0.2,0.1l-0.2,0.2l-0.2,0.2l-0.2,0.1l-0.2,0.2L89.1,31l-0.2,0.1l-0.2,0.2l-0.2,0.1l-0.2,0.2l-0.2,0.1
				l-0.2,0.2l-0.2,0.2l-0.2,0.2l-0.2,0.2l-0.2,0.2l-0.2,0.2l-0.2,0.2l-0.2,0.2l-0.2,0.2l-0.2,0.2l-0.2,0.2l-0.2,0.2l-0.2,0.2
				l-0.2,0.1l-0.2,0.2l-0.2,0.2l-0.2,0.1l-0.2,0.2l-0.2,0.1l-0.2,0.1l-0.2,0.2l-0.2,0.1l-0.2,0.2l-0.3,0.3L83,36.3l-0.3,0.3
				l-0.2,0.2l-0.3,0.3L82,37.3l-0.2,0.2l-0.2,0.2L81.3,38l-0.2,0.2l-0.2,0.2l-0.2,0.2l-0.3,0.3l-0.2,0.2l-0.3,0.3l-0.2,0.2l-0.3,0.3
				l-0.3,0.3l-0.3,0.3L78.5,41l-0.4,0.6l-0.3,0.5l-0.2,0.2l-0.3,0.3L77,42.9l-0.3,0.5l-0.3,0.3L76.1,44l-0.3,0.3l-0.2,0.2l-0.3,0.3
				l-0.4,0.6L74.5,46l-0.4,0.6l-0.4,0.6l-0.4,0.6l-0.4,0.6l-0.4,0.7l-0.4,0.7l-0.5,0.8l-0.5,0.8l-0.5,1L70,53.6l-0.9,2l1.2,3.8
				l-1.3,4l-0.3,1.2l-0.2,0.8l-0.2,0.8l-0.1,0.7l-0.1,0.7L68,68.2l-0.1,0.7l-0.1,0.6l-0.1,0.7l-0.1,0.6l-0.1,0.6l-0.1,0.7l-0.1,0.7
				l-0.1,0.7v0.1l-0.6-0.2l0.1-0.3l-0.1-0.2v-0.3v-0.3l-0.1-0.2v-0.3v-0.3v-0.3v-0.4v-0.3v-0.4v-0.4v-0.4l0.2-0.8l0.5-1.4l0.2-0.6
				l-0.1-0.2V66l0.1-0.7l0.1-0.4l0.6-1.1l0.3-0.9l0.3-1.1l3.2-8.5l1-2.8l0.3-0.8l0.2-0.1l0.2-0.1l0.2-0.2l0.3-0.3l0.4-0.6l0.4-0.7
				l0.2-0.1l0.2-0.2l0.7-1.8l0.3-1.1l0.3,0.1l0.2-0.1l0.2-0.1l0.2-0.1l0.2-0.2l0.2-0.2l0.5-1l0.5-1l0.3-0.3l0.2-0.2l0.2-0.1l0.2-0.1
				l0.2-0.1l0.1-0.4l0.2-0.5l0.3-0.5l0.3-0.3l0.2-0.2L81,39l0.2-0.2l0.2-0.1l0.2-0.2l0.2-0.2l0.2-0.2l0.2-0.2l0.2-0.2l0.3-0.5
				l0.4-0.7l0.2-0.2l0.2-0.1l0.2-0.2l0.2-0.1l0.2-0.2l0.2-0.2v-0.1l0.2-0.2l0.2-0.2l0.2-0.1l0.2-0.2l0.2-0.2l0.2-0.1l0.2-0.1
				l0.2-0.2l0.2-0.2l0.3-0.3l0.2-0.2l0.2-0.2L87,33l0.2-0.2l0.2-0.2l0.2-0.2l0.2-0.1l0.2-0.2l0.2-0.2l0.2-0.2l0.2-0.2l0.2-0.1
				l0.2-0.2l0.2-0.2l0.2-0.1l0.2-0.2l0.2-0.2l0.2-0.1l0.2-0.2l0.2-0.2l0.2-0.1l0.2-0.2l0.2-0.1l0.2-0.2l0.2-0.1l0.2-0.2l0.2-0.1
				l0.2-0.1l0.2-0.2l0.2-0.1l0.2-0.2l0.2-0.1l0.2-0.1l0.2-0.2l0.2-0.1l0.2-0.2l0.2-0.1l0.2-0.1l0.3-0.1l0.2-0.1l0.2-0.1l0.2-0.1
				l0.2-0.2l0.2-0.1l0.2-0.1l0.2-0.1l0.2-0.2l0.2-0.1l0.2-0.1l0.2-0.1l0.2-0.1l0.2-0.2l0.2-0.1l0.2-0.1l0.2-0.1l0.2-0.1l0.2-0.1
				l0.2-0.2l0.2-0.1l0.2-0.1l0.2-0.1l0.2-0.1l0.2-0.1l0.2-0.1l0.2-0.1l0.2-0.2l0.2-0.1l0.2-0.1l0.2-0.1l0.2-0.1l0.2-0.1l0.2-0.1
				l0.2-0.1l0.2-0.1l0.2-0.1l0.2-0.1l0.2-0.1l0.2-0.1l0.2-0.1l0.2-0.1l0.2-0.1l0.2-0.1l0.2-0.1l0.2-0.1l0.2-0.1l0.2-0.1l0.2-0.1
				l0.2-0.1l0.2-0.1l0.2-0.1l0.2-0.1l0.2-0.1l0.2-0.1l0.2-0.1l-1,1l0.2-0.1l0.2-0.1h0.3l0.2-0.1l0.2-0.1l0.2-0.1l0.2-0.1l0.2-0.1
				l0.2-0.1l0.2-0.1l0.2-0.1h0.3l0.2-0.1l0.2-0.1l0.2-0.1l0.2-0.1l0.2-0.1h0.3l0.2-0.1l0.2-0.1l0.2-0.1l0.2-0.1l0.2-0.1h0.3l0.2-0.1
				l0.6,0.1h0.3l0.2-0.1l0.2-0.2l0.2-0.1l0.2-0.1l0.2-0.1l0.8,0.2l0.2-0.1l0.2-0.1l0.2-0.1l0.2-0.1h0.3l0.2-0.1h0.4h0.3h0.3h0.3
				l0.2-0.1h0.3l0.2-0.1l0.2-0.2V19l-0.4-0.1h-0.3h-0.3h-0.3l0.2-0.2l0.2-0.1l0.2-0.1l0.2-0.2l0.2-0.2l0.2-0.2l0.2-0.1l0.2-0.1
				l0.2-0.1l0.6,0.1l0.2-0.1l0.2-0.1l0.2-0.1h0.3l0.2-0.1l0.2-0.1h0.3l0.2-0.1L119,17h0.3l0.2-0.1h0.3l0.2-0.1l0.2-0.1h0.3l0.2-0.1
				h0.3h0.3l0.2-0.1h0.3h0.3l0.2-0.1h0.3h0.3h0.3h0.3l0.2-0.1h0.3h0.3h0.3h0.4h0.3h0.3h0.3h0.3h0.4h0.3h0.4h0.3h0.4h0.3h0.4h0.4h0.4
				h0.4h0.4l0.6,0.1h0.4l0.6,0.1h0.4l0.6,0.1l0.7,0.1l0.6,0.1l0.7,0.1l0.6,0.1l0.6,0.1l0.7,0.1l0.6,0.1l0.7,0.1l0.7,0.1l0.8,0.2
				l0.7,0.1l0.9,0.2l0.9,0.2l1.1,0.3l1.2,0.3l1.4,0.4l2.1,0.6l6.6,2.5l2,0.9l1.5,0.7l1.1,0.6l1,0.5l0.8,0.5l0.6,0.4l0.6,0.4l0.5,0.3
				l0.5,0.3l0.5,0.3l0.5,0.3l0.3,0.3l0.5,0.3l0.5,0.3l0.3,0.3l0.5,0.3l0.3,0.3l0.5,0.3l0.3,0.3l0.3,0.3l0.3,0.3l0.3,0.3l0.3,0.3
				l0.3,0.3l0.3,0.3l0.3,0.3l0.3,0.3l0.3,0.3l0.3,0.3l0.2,0.2l0.3,0.3l0.2,0.2l0.3,0.3l0.3,0.3l0.2,0.2l0.2,0.2l0.3,0.3l0.2,0.2
				l0.2,0.2l0.3,0.3l0.2,0.2l0.2,0.2l0.2,0.2l0.2,0.2l0.3,0.3l0.2,0.2l0.2,0.2l0.2,0.2l0.2,0.2l0.2,0.2l0.2,0.2l0.2,0.2l0.1,0.2
				l0.2,0.2l0.2,0.2l0.2,0.2l0.2,0.2l0.2,0.2l0.1,0.2l0.2,0.2l0.2,0.2l0.1,0.2l0.2,0.2l0.2,0.2l0.1,0.2l0.2,0.2l0.1,0.2l0.2,0.2
				l0.2,0.2l0.1,0.2l0.2,0.2l0.1,0.2l0.2,0.2l0.1,0.2l0.1,0.2l-0.9-0.3l0.1,0.2l0.2,0.2l0.1,0.2l0.1,0.2l0.2,0.2l0.1,0.2l0.1,0.2
				l0.2,0.2l0.1,0.2l0.1,0.2l0.2,0.2l0.1,0.2L180,45l0.1,0.2l0.1,0.2l0.2,0.2l0.1,0.2l0.1,0.2l0.1,0.2l0.1,0.2l0.2,0.2l0.1,0.2
				l0.1,0.2l0.1,0.2l0.1,0.2l0.1,0.2l0.1,0.2l0.1,0.2l0.1,0.2l0.1,0.2l0.1,0.2l0.1,0.2l0.1,0.2l0.1,0.2l0.1,0.2l0.1,0.2l0.1,0.2
				l0.1,0.2l0.1,0.2l0.1,0.2l0.1,0.2l0.1,0.2l0.1,0.2l0.1,0.2l0.1,0.2l0.1,0.2l0.1,0.2l0.1,0.2l0.1,0.2v0.3l0.1,0.2l0.1,0.2l0.1,0.2
				l0.1,0.2l0.1,0.2v0.3l0.1,0.2l0.2,0.2l0.2,0.2l0.1,0.2l0.1,0.2l0.2,0.2l0.1,0.2l0.1,0.2l0.1,0.2l0.1,0.2l0.2,0.2l0.1,0.2l0.1,0.2
				l0.1,0.2l0.1,0.2v0.3l0.1,0.2l0.1,0.2l0.1,0.2l0.1,0.2l0.1,0.2v0.3l0.1,0.2l0.1,0.2L187,59v0.3l0.1,0.2l0.1,0.2V60l0.1,0.2
				l0.1,0.2v0.3l0.1,0.2l0.1,0.2v0.3l0.1,0.2l0.1,0.2v0.3l0.1,0.2l0.1,0.2h0.1l0.1-0.4v-0.4v-0.3v-0.3v-0.3v-0.3l-0.1-0.2V60
				l-0.1-0.2l-0.1-0.2l-0.1-0.2v-0.3l-0.1-0.2l-0.1-0.2l-0.1-0.2l-0.1-0.2l-0.1-0.2l-0.1-0.2l-0.1-0.2l-0.1-0.2v-0.3l-0.1-0.2
				l-0.1-0.2l-0.1-0.2l-0.1-0.2l-0.1-0.2l-0.1-0.2l-0.1-0.2l-0.1-0.2v-0.3l-0.1-0.2l-0.1-0.2v-0.3l-0.1-0.2l-0.1-0.2v-0.3v-0.3
				l-0.1-0.2v-0.3l-0.1-0.2l-0.1-0.2l-0.1-0.2l-0.1-0.2l-0.1-0.2l-0.1-0.2l-0.1-0.2l-0.1-0.2l-0.1-0.2l-0.1-0.2l-0.1-0.2l-0.1-0.2
				l-0.1-0.2l-0.1-0.2l-0.1-0.2l-0.1-0.2l-0.1-0.2l-0.1-0.2l-0.1-0.2l-0.2-0.2l-0.1-0.2l-0.1-0.2l-0.1-0.2l-0.1-0.2l-0.1-0.2
				l-0.1-0.2l-0.1-0.2l-0.1-0.2l-0.1-0.2l-0.1-0.2l-0.2-0.2l-0.1-0.2l-0.1-0.2l-0.1-0.2l-0.1-0.2l-0.1-0.2l-0.1-0.2l-0.2-0.2
				l-0.1-0.2l-0.1-0.2l-0.1-0.2l-0.1-0.2l-0.1-0.2l-0.2-0.2l-0.1-0.2l-0.1-0.2l-0.1-0.2l-0.3-0.3l-0.2-0.2L180,43l-0.1-0.2l-0.1-0.2
				l-0.2-0.2l-0.1-0.2l-0.1-0.2l-0.2-0.2l-0.1-0.2l-0.1-0.2l-0.1-0.2l-0.2-0.2l-0.1-0.2l-0.1-0.2l-0.2-0.2l-0.1-0.2l-0.1-0.2
				l-0.2-0.2l-0.1-0.2l-0.2-0.2l-0.1-0.2l-0.1-0.2l-0.2-0.2l-0.1-0.2l-0.2-0.2l-0.1-0.2l-0.2-0.2l-0.1-0.2l-0.2-0.2l-0.1-0.2
				l-0.2-0.2l-0.1-0.2l-0.2-0.2l-0.1-0.2l-0.2-0.2l-0.1-0.2l-0.2-0.2l-0.2-0.2l-0.1-0.2l-0.2-0.2l-0.1-0.2l-0.2-0.2l-0.2-0.2
				l-0.2-0.2l-0.1-0.2l-0.2-0.2l-0.2-0.2l-0.2-0.2l-0.1-0.2l-0.2-0.2l-0.2-0.2l-0.2-0.2l-0.2-0.2l-0.2-0.2l-0.2-0.2l-0.2-0.2
				l-0.2-0.2l-0.2-0.2l-0.2-0.2l0.2-0.2l-0.2-0.2l-0.2-0.2l-0.2-0.2l-0.2-0.2l-0.3-0.3l-0.2-0.2l-0.2-0.2l-0.2-0.2l-0.3-0.3
				l-0.2-0.2l-0.3-0.3l-0.2-0.2l-0.3-0.3l-0.3-0.3l-0.2-0.2l-0.3-0.3l-0.3-0.3l-0.3-0.3l-0.3-0.3l-0.3-0.3l-0.3-0.3l-0.5-0.3
				l-0.3-0.3l-0.5-0.3l-0.3-0.3l-0.5-0.3l-0.5-0.3l-0.3-0.3l-0.2-0.2l-0.5-0.3l-0.7-0.4l-0.7-0.4l-0.3-0.3l-0.2-0.2l-0.1-0.2
				l-0.1-0.2l-0.1-0.2v-0.3l-0.1-0.2l-0.7-0.4l-1-0.5l-1.1-0.6l-1.2-0.6l-1.3-0.6l-1.6-0.7l-2-0.9l-2-0.8l-0.2,0.1h-0.3h-0.1
				l-0.1-0.2l-5.3-2.1l0.2-0.1h0.3l0.8,0.2l1.4,0.4l0.3,0.1l0.1,0.2l0.3,0.1l0.2-0.1l0.2-0.1h0.1l0.3,0.1h0.1l0.2,0.2l0.5,0.2
				l0.2-0.2l0.8,0.3l0.1,0.2h0.1h0.3h0.1l0.1,0.2l0.2,0.2l0.5,0.2l0.2-0.1l0.2-0.1l1.1,0.4l0.1,0.2l0.4,0.1l0.5,0.2l0.1,0.2l0.6,0.2
				l2.4,0.9l1,0.5l1,0.5l1.1,0.6l1.3,0.6l0.5,0.3l0.6,0.4l0.7,0.4l0.5,0.3l0.3,0.3l0.2,0.2l0.1,0.2l0.5,0.2l0.9,0.3l0.2,0.2l0.2,0.2
				l0.2,0.2l0.2,0.2l0.1,0.2l0.5,0.2l0.4,0.1l0.1,0.2l0.3,0.3l1.6,0.7l0.2,0.2l0.3,0.3l0.3,0.3l0.2,0.2l0.3,0.3l0.3,0.3l0.2,0.2
				l0.2,0.2l0.3,0.3l0.2,0.2l0.3,0.3l0.2,0.2l0.2,0.2l0.2,0.2l0.3,0.3l0.2,0.2l0.2,0.2l0.2,0.2l0.2,0.2l0.2,0.2l0.2,0.2l0.2,0.2
				l0.2,0.2l0.2,0.2l0.2,0.2l0.2,0.2l0.2,0.2l0.2,0.2l0.2,0.2l0.1,0.2l0.2,0.2l0.2,0.2l0.2,0.2l0.2,0.2l0.1,0.2l0.2,0.2l0.2,0.2
				l0.1,0.2l0.2,0.2l0.2,0.2l0.1,0.2l0.2,0.2l0.2,0.2l0.1,0.2l0.2,0.2l0.2,0.2l0.1,0.2l0.2,0.2l0.1,0.2l0.2,0.2l0.1,0.2l0.2,0.2
				l0.1,0.2l0.2,0.2l0.1,0.2l0.2,0.2l0.1,0.2l0.2,0.2l0.1,0.2l0.2,0.2l0.1,0.2l0.1,0.2l0.2,0.2l-0.3,0.9l0.2,0.2l0.1,0.2l0.1,0.2
				l0.2,0.2l0.1,0.2l0.1,0.2l0.2,0.2l0.1,0.2l0.1,0.2l0.2,0.2l0.1,0.2l0.1,0.2l0.2,0.2l0.1,0.2l0.1,0.2l0.1,0.2l0.2,0.2l0.1,0.2
				l0.1,0.2l0.1,0.2l0.2,0.2l0.1,0.2l0.1,0.2l0.1,0.2l0.2,0.2l0.1,0.2l0.1,0.2l0.1,0.2l0.1,0.2l0.1,0.2l0.2,0.2l0.1,0.2l0.1,0.2
				l0.1,0.2l0.1,0.2l0.1,0.2l0.2,0.2l0.1,0.2l0.1,0.2l0.1,0.2l0.1,0.2l0.1,0.2l0.1,0.2l0.1,0.2l0.2,0.2l0.1,0.2l0.1,0.2l0.1,0.2
				l0.1,0.2l0.1,0.2l0.1,0.2l0.1,0.2l0.1,0.2l0.1,0.2l0.1,0.2l0.1,0.2l0.1,0.2l0.1,0.2l0.1,0.2l0.1,0.2l0.1,0.2l0.1,0.2l0.1,0.2
				l0.1,0.2l0.1,0.2l0.1,0.2l0.2,0.2v0.3l0.1,0.2l0.1,0.2l0.1,0.2l0.1,0.2l0.1,0.2h0.1l0.1-0.4l-0.1-0.2l-0.1-0.2l-0.1-0.2v-0.3
				l-0.1-0.2l-0.1-0.2l-0.1-0.2l-0.1-0.2v-0.3l-0.1-0.2l-0.1-0.2l-0.1-0.2l-0.1-0.2l-0.1-0.2v-0.3l-0.1-0.2l-0.1-0.2l-0.1-0.2
				l-0.1-0.2l-0.1-0.2l-0.9-1l-0.1-0.2l-0.1-0.2l-0.1-0.2l-0.1-0.2l-0.1-0.2l-0.1-0.2v-0.3l-0.1-0.2l-0.1-0.2l-0.1-0.2l-0.1-0.2
				l-0.1-0.2l-0.1-0.2l-0.1-0.2l-0.1-0.2l-0.2-0.2l-0.1-0.2l-0.1-0.2l-0.1-0.2l-0.1-0.2l-0.1-0.2l-0.1-0.2l-0.1-0.2l-0.1-0.2
				l-0.1-0.2l-0.1-0.2l-0.1-0.2l-0.2-0.2l-0.1-0.2l-0.1-0.2l-0.1-0.2l-0.1-0.2l-0.1-0.2l-0.1-0.2l-0.2-0.2l-0.1-0.2l-0.1-0.2
				l-0.1-0.2l-0.1-0.2l-0.2-0.2l-0.1-0.2l-0.1-0.2l-0.1-0.2l-0.2-0.2l-0.1-0.2l-0.1-0.2l-0.2-0.2l-0.1-0.2l-0.1-0.2l-0.2-0.2
				l-0.1-0.2l-0.1-0.2l-0.2-0.2l-0.1-0.2l-0.1-0.2l-0.2-0.2l-0.1-0.2l-0.2-0.2l-0.1-0.2l-0.2-0.2l-0.1-0.2l-0.2-0.2l-0.1-0.2
				l-0.2-0.2l-0.1-0.2l-0.2-0.2l-0.1-0.2l-0.2-0.2l-0.1-0.2l-0.2-0.2l-0.2-0.2l-0.1-0.2l-0.2-0.2l-0.1-0.2l-0.2-0.2l-0.2-0.2
				l-0.2-0.2l-0.1-0.2l-0.2-0.2l-0.2-0.2l-0.2-0.2l-0.1-0.2l-0.2-0.2l-0.2-0.2l-0.2-0.2l-0.2-0.2l-0.2-0.2l-0.2-0.2l-0.2-0.2
				l-0.2-0.2l-0.2-0.2l-0.2-0.2l-0.2-0.2l-0.2-0.2l-0.2-0.2l-0.2-0.2l-0.2-0.2l-0.2-0.2l-0.2-0.2l-0.3-0.3l-0.2-0.2l-0.2-0.2
				l-0.3-0.3l-0.2-0.2l-0.2-0.2l-0.3-0.3l-0.2-0.2l-0.3-0.3l-0.2-0.2l-0.3-0.3l-0.3-0.3l-0.2-0.2l-0.3-0.3l-0.3-0.3l-0.3-0.3
				l-0.2-0.2l-0.3-0.3l-0.3-0.3l-0.3-0.3l-0.3-0.3l-0.5-0.3l-0.3-0.3l-0.3-0.3l-0.5-0.3l-0.3-0.3l-0.5-0.3l-0.2-0.2l-0.2-0.2
				l-0.1-0.2l-0.1-0.2l-0.1-0.2l-0.1-0.2l-0.1-0.2l-0.1-0.2l-0.3-0.3l-0.5-0.3l-0.7-0.4l-1-0.5l-0.3-0.3l-0.2-0.2l-0.6-0.4l-0.7-0.4
				l-0.7-0.4l-0.8-0.5l-1-0.5l-1.2-0.6l-1.5-0.7l-3-1.3l-2.5-0.9l-3.1-1l-1.7-0.5l-1.3-0.3l-1.1-0.3l-0.9-0.2l-0.9-0.2l-0.8-0.2
				L137.9,9l-0.7-0.1l-0.7-0.1l-0.7-0.1l-0.7-0.1l-0.6-0.1l-0.6-0.1l-0.6-0.1l-0.6-0.1l-0.6-0.1h-0.4L131.1,8h-0.4l-0.6-0.1h-0.4
				h-0.1l-0.2-0.2l-0.1-0.2l-0.1-0.2V7h-0.1h-0.4h-0.3H128h-0.4h-0.3h-0.4h-0.4h-0.3h-0.4h-0.3h-0.4h-0.3h-0.4h-0.3h-0.4h-0.3h-0.3
				h-0.4h-0.3h-0.3h-0.3h-0.4h-0.3h-0.3h-0.3h-0.3h-0.3h-0.3h-0.4h-0.3h-0.3h-0.3H118h-0.3h-0.3h-0.3l-0.2,0.1h-0.3h-0.3H116h-0.3
				h-0.3h-0.3h-0.3l-0.2,0.1h-0.3H114h-0.3l-0.2,0.1h-0.3h-0.3h-0.3l-0.2,0.1h-0.3h-0.3l-0.2,0.1h-0.3H111l-0.2,0.1h-0.3l-0.2,0.1
				H110h-0.3l-0.2,0.1h-0.3L109,7.9h-0.3L108.5,8h-0.3L108,8.1h-0.3l-0.2,0.1h-0.3L107,8.3h-0.3l-0.2,0.1l-0.2,0.1H106l-0.2,0.1
				h-0.3l-0.2,0.1l-0.2,0.1h-0.3l-0.2,0.1h-0.3L104.1,9l-0.2,0.1h-0.3l-0.2,0.1l-0.2,0.1h-0.3l-0.2,0.1l-0.2,0.1l-0.2,0.1H102
				l-0.2,0.1l-0.2,0.1l-0.2,0.1h-0.3l-0.2,0.1l-0.2,0.1l-0.2,0.1h-0.3l-0.2,0.1l-0.2,0.1l-0.2,0.1l-0.2,0.1h-0.3l-0.2,0.1l-0.2,0.1
				l-0.2,0.1L98.3,11l-0.2,0.1l-0.2,0.1h-0.3l-0.2,0.1l-0.2,0.1L97,11.5l-0.2,0.1l-0.2,0.1l-0.2,0.1l-0.2,0.1L96,12l-0.2,0.1h-0.3
				l-0.2,0.1l-0.2,0.1l-0.2,0.1l-0.2,0.1l-0.2,0.1l-0.2,0.1l-0.2,0.1l-0.2,0.1L93.7,13l-0.2,0.1l-0.2,0.1l-0.2,0.1l-0.2,0.1
				l-0.2,0.1l-0.2,0.1l-0.2,0.1l-0.2,0.1l-0.2,0.1L91.7,14l-0.2,0.1l-0.2,0.1l-0.2,0.1l-0.2,0.1l-0.2,0.1l-0.2,0.2l-0.2,0.1
				l-0.2,0.1L89.9,15l-0.2,0.1l-0.2,0.1l-0.2,0.1l-0.2,0.1l-0.2,0.1l-0.2,0.1l-0.2,0.2l-0.2,0.1L88.1,16l-0.2,0.1l-0.2,0.1l-0.2,0.1
				l-0.2,0.2l-0.2,0.1l-0.2,0.1l-0.2,0.1L86.5,17l-0.2,0.1l-0.2,0.1l-0.2,0.1l-0.2,0.2l-0.2,0.1l-0.2,0.1l-0.2,0.2L84.9,18l-0.2,0.1
				l-0.2,0.2l-0.2,0.1l-0.2,0.1l-0.2,0.2l-0.2,0.1L83.5,19l-0.2,0.1l-0.2,0.1l-0.2,0.2l-0.2,0.1l-0.2,0.2l-0.2,0.1L82.1,20l-0.2,0.1
				l-0.2,0.2l-0.2,0.1l-0.2,0.2l-0.2,0.1l-0.2,0.2L80.7,21l-0.2,0.2l-0.2,0.1l-0.2,0.2l-0.2,0.1l-0.2,0.2L79.5,22l-0.2,0.1l-0.2,0.2
				l-0.2,0.2l-0.2,0.1l-0.2,0.2L78.3,23l-0.2,0.1l-0.2,0.2l-0.2,0.2l-0.2,0.2l-0.2,0.2L77.1,24l-0.2,0.2l-0.2,0.2l-0.2,0.2l-0.2,0.2
				L76.1,25l-0.2,0.2l-0.2,0.2l2.6,1l-0.2,0.2l-0.2,0.2L77.7,27l-0.3,0.3l-0.2,0.2L77,27.7l-0.2,0.2l-0.2,0.2l-0.2,0.2l-0.2,0.2
				l-0.3,0.3L75.7,29l-0.2,0.2l-0.2,0.2L75,29.7l-0.2,0.2l-0.5,0.5l-0.2,0.2l-0.2,0.2l-0.3,0.3l-0.3,0.3l-0.2,0.2l-0.3,0.3l-0.3,0.3
				l-0.2,0.2L72,32.7L71.7,33l-0.3,0.3l-0.3,0.3l-0.3,0.3l-0.3,0.3l-0.3,0.3l-0.3,0.3l-0.3,0.5l-0.3,0.3L69,35.9l-0.3,0.5l-0.3,0.5
				l-0.3,0.3l-0.3,0.5l-0.3,0.5l-0.3,0.5l-0.4,0.6l-0.3,0.5l-0.4,0.6L65.7,41l-0.4,0.6l-0.4,0.6l-0.4,0.7l-0.4,0.7l-0.5,0.8
				l-0.5,0.8l-0.5,1L62,47.3l-0.6,1.3l-0.5,1l-0.5,0.8l-2.7,7.3l-0.2,0.8l-0.7,2.3l-0.4,1.6l-0.3,1.2l-0.3,1.1l-0.2,0.9l-0.2,0.8
				l-0.2,0.8l-0.1,0.7l-0.2,0.8l-0.1,0.6L54.7,70l-0.1,0.6l0.7,0.8L55.2,72l-0.1,0.6L55,73.2v0.4l-0.1,0.6v0.4l-0.1,0.6v0.4V76v0.4
				L54.7,77v0.4v0.3v0.4v0.4v0.4v0.4v0.3V80v0.4v0.3v0.4v0.3v0.4v0.3v0.3v0.4v0.3v0.3v0.4v0.3v0.3v0.3V85v0.4v0.3V86v0.3v0.3v0.3
				v0.3v0.3v0.3v0.3l0.1,0.2v0.3v0.3v0.3v0.3v0.3l0.1,0.2v0.3v0.3v0.3v0.3l0.1,0.2v0.3V92l0.1,0.2v0.3v0.3l0.1,0.2v0.3l0.1,0.2v0.3
				v0.3l0.1,0.2v0.3l0.1,0.2v0.3l0.1,0.2v0.3l0.1,0.2v0.3l0.1,0.2v0.3l0.1,0.2v0.3l0.1,0.2v0.3l0.1,0.2v0.3l0.1,0.2l0.1,0.2v0.3
				l0.1,0.2l0.1,0.2v0.3l0.1,0.2v0.3l0.1,0.2l0.1,0.2l0.1,0.2v0.3l0.1,0.2l0.1,0.2v0.3l0.1,0.2l0.1,0.2l0.1,0.2v0.3l0.1,0.2l0.1,0.2
				l0.1,0.2v0.3l0.1,0.2l0.1,0.2L58,104v0.3l0.1,0.2l0.1,0.2l0.1,0.2l0.1,0.2l0.1,0.2v0.3l0.1,0.2l0.1,0.2l0.1,0.2l0.1,0.2l0.1,0.2
				l0.1,0.2v0.3l0.1,0.2l0.1,0.2l0.1,0.2l0.1,0.2l0.1,0.2l0.1,0.2l0.1,0.2l0.1,0.2l0.1,0.2l0.1,0.2l0.1,0.2l0.1,0.2v0.3l0.1,0.2
				l0.1,0.2l0.1,0.2l0.1,0.2l0.1,0.2l0.1,0.2l0.1,0.2l0.1,0.2l0.1,0.2l0.1,0.2l0.1,0.2l0.1,0.2l0.1,0.2l0.1,0.2l0.1,0.2l0.1,0.2
				l0.1,0.2l0.2,0.2l0.1,0.2l0.1,0.2l0.1,0.2l0.1,0.2l0.1,0.2l0.1,0.2l0.1,0.2L63,115l0.1,0.2l0.1,0.2l0.1,0.2l0.2,0.2l0.1,0.2
				l0.1,0.2l0.1,0.2l0.1,0.2l0.1,0.2l0.1,0.2l0.1,0.2l0.2,0.2l0.1,0.2l0.1,0.2l0.1,0.2l0.1,0.2l0.2,0.2l0.1,0.2l0.1,0.2l0.1,0.2
				l0.1,0.2l0.2,0.2l0.1,0.2l0.1,0.2l0.1,0.2l0.2,0.2l0.1,0.2l0.1,0.2l0.1,0.2l0.2,0.2l0.1,0.2l0.1,0.2l0.2,0.2l0.1,0.2l0.1,0.2
				l0.1,0.2l0.2,0.2l0.1,0.2l0.2,0.2l0.1,0.2l0.1,0.2l0.2,0.2l0.1,0.2l0.1,0.2l0.2,0.2l0.1,0.2l0.2,0.2l0.1,0.2l0.1,0.2l0.2,0.2
				l0.1,0.2l0.2,0.2l0.1,0.2l0.2,0.2L70,126l0.2,0.2l0.1,0.2l0.2,0.2l0.1,0.2l0.2,0.2l0.1,0.2l0.2,0.2l0.2,0.2l0.1,0.2l0.2,0.2
				l0.1,0.2l0.2,0.2l0.2,0.2l0.1,0.2l0.2,0.2l0.2,0.2l0.2,0.2l0.1,0.2l0.2,0.2l0.2,0.2l0.2,0.2l0.2,0.2l0.2,0.2l0.2,0.2l0.2,0.2
				l0.2,0.2l0.2,0.2l0.2,0.2l0.2,0.2l0.3,0.3l0.2,0.2l0.2,0.2l0.2,0.2l0.3,0.3l0.2,0.2l0.3,0.3l0.2,0.2l0.3,0.3l0.3,0.3l0.2,0.2
				l0.3,0.3l0.3,0.3l0.3,0.3l0.3,0.3l0.3,0.3l0.3,0.3l0.3,0.3l0.3,0.3l0.5,0.3l0.3,0.3l0.5,0.3l0.3,0.3l0.5,0.3l0.5,0.3l0.3,0.3
				l0.5,0.3l0.5,0.3l0.5,0.3l0.5,0.3l0.5,0.3l0.6,0.4l0.5,0.3l0.5,0.3l0.6,0.4l0.5,0.3l0.6,0.4l0.5,0.3l0.6,0.4l0.6,0.4l0.5,0.3
				l0.6,0.4l0.5,0.3l0.6,0.4l0.6,0.4l0.5,0.3l0.6,0.4l0.5,0.3l0.5,0.3l0.6,0.4l0.1,0.2l0.2,0.2l0.3,0.3l0.3,0.3l0.5,0.3l0.8,0.5
				l1.2,0.6l1,0.5l0.5,0.3l-0.8-0.3l-2.4-1l-1.6-0.7l-1.3-0.6l-1.1-0.6l-1-0.5l-0.8-0.5l-0.7-0.4l-0.8-0.5l-0.6-0.4l-0.7-0.4
				l-0.6-0.4l-0.6-0.4l-0.6-0.4l-0.6-0.4l-0.5-0.3l-0.5-0.3l-0.6-0.4l-0.5-0.3l-0.5-0.3l-0.3-0.3l-0.5-0.3l-0.5-0.3l-0.3-0.3
				l-0.5-0.3l-0.3-0.3l-0.5-0.3l-0.3-0.3l-0.3-0.3l-0.3-0.3l-0.3-0.3l-0.3-0.3l-0.3-0.3l-0.3-0.3l-0.3-0.3l-0.3-0.3l-0.3-0.3
				l-0.3-0.3l-0.2-0.2l-0.3-0.3l-0.3-0.3l-0.2-0.2l-0.3-0.3l-0.2-0.2l-0.3-0.3l-0.2-0.2l-0.3-0.3l-0.2-0.2l-0.3-0.3l-0.2-0.2
				l-0.2-0.2l-0.3-0.3l-0.2-0.2l-0.2-0.2l-0.3-0.3l-0.2-0.2l-0.2-0.2l-0.2-0.2l-0.2-0.2l-0.3-0.3l-0.2-0.2l-0.2-0.2l-0.2-0.2
				l-0.2-0.2l-0.2-0.2l-0.2-0.2l-0.2-0.2l-0.2-0.2l-0.2-0.2l-0.2-0.2l-0.2-0.2l-0.2-0.2l-0.2-0.2l-0.2-0.2l-0.1-0.2l-0.1-0.2
				l-0.1-0.2l-0.1-0.2l-0.1-0.2l-0.1-0.2v-0.3l-0.1-0.2l-0.1-0.2l-0.1-0.2l-0.1-0.2l-0.1-0.2l-0.2-0.2l-0.8-0.3h-0.3h-0.1l-0.2-0.2
				l-0.2-0.2l-0.1-0.2l-0.2-0.2l-0.2-0.2l-0.2-0.2l-0.1-0.2l-0.2-0.2l-0.2-0.2l-0.1-0.2l-0.2-0.2l-0.2-0.2l-0.1-0.2L65,122l-0.2-0.2
				l-0.1-0.2l-0.2-0.2l-0.1-0.2l-0.2-0.2l-0.1-0.2l-0.2-0.2l-0.1-0.2l-0.2-0.2l-0.1-0.2l-0.1-0.2l-0.2-0.2l-0.1-0.2l-0.2-0.2
				l-0.1-0.2l-0.1-0.2l-0.2-0.2l-0.1-0.2l-0.1-0.2l-0.2-0.2l-0.1-0.2l-0.1-0.2l-0.2-0.2l-0.1-0.2l-0.1-0.2l-0.2-0.2l-0.1-0.2
				l-0.1-0.2l-0.1-0.2l-0.2-0.2l-0.1-0.2l-0.1-0.2l-0.1-0.2l-0.1-0.2l-0.2-0.2l-0.1-0.2l-0.1-0.2l-0.1-0.2l-0.1-0.2l-0.1-0.2
				l-0.2-0.2l-0.1-0.2l-0.1-0.2l-0.1-0.2l-0.1-0.2l-0.1-0.2l-0.1-0.2l-0.1-0.2l-0.1-0.2l-0.2-0.2l-0.1-0.2l-0.1-0.2l-0.1-0.2
				l-0.1-0.2L58,111l-0.1-0.2l-0.1-0.2l-0.1-0.2l-0.1-0.2l-0.1-0.2l-0.1-0.2l-0.1-0.2l-0.1-0.2l-0.1-0.2L57,109l-0.1-0.2l-0.1-0.2
				l-0.1-0.2l-0.1-0.2l-0.1-0.2l-0.1-0.2l-0.1-0.2l-0.1-0.2l-0.1-0.2L56,107l-0.1-0.2v-0.3l-0.1-0.2l-0.1-0.2l-0.1-0.2l-0.1-0.2
				l-0.2-1.3l-0.1-0.2l-0.1-0.2l-0.1-0.2l-0.1-0.2v-0.3l-0.1-0.2l-0.1-0.2l-0.1-0.2l-0.1-0.2l-0.1-0.2V102l-0.1-0.2l-0.1-0.2
				l-0.1-0.2l-0.1-0.2v-0.3l-0.1-0.2l-0.1-0.2l-0.1-0.2l-0.1-0.2v-0.3l-0.1-0.2l-0.1-0.2l-0.1-0.2v-0.3l-0.1-0.2l-0.1-0.2v-0.3
				L53,98l-0.1-0.2l-0.1-0.2v-0.3l-0.1-0.2l-0.1-0.2v-0.3l-0.1-0.2v-0.3l-0.1-0.2l-0.1-0.2v-0.3l-0.1-0.2L52.1,95v-0.3l0.2,0.7v-0.3
				l-0.1-0.2v-0.3l-0.1-0.2v-0.3L52,93.9v-0.3l-0.1-0.2v-0.3l-0.1-0.2v-0.3l-0.1-0.2v-0.3l-0.1-0.2v-0.3l-0.1-0.2v-0.3v-0.3
				l-0.1-0.2v-0.3l-0.1-0.2v-0.3v-0.3v-0.3L51.2,89v-0.3v-0.3l-0.1-0.2v-0.3v-0.3v-0.3L51,87.1v-0.3v-0.3v-0.3v-0.3v-0.3v-0.3
				l-0.1-0.2v-0.3v-0.3v-0.3v-0.3v-0.3v-0.3V83v-0.4v-0.3V82v-0.3v-0.3v-0.3l-0.1-0.2h-0.1l-0.1,0.3v0.3v0.4v0.3v0.3v0.4v0.3v0.3
				v0.3v0.3v0.4v0.3v0.3v0.3v0.3V86v0.3v0.3v0.3v0.3v0.3l0.1,0.2V88v0.3v0.3v0.3l0.1,0.2v0.3v0.3V90l0.1,0.2v0.3v0.3L51,91v0.3v0.3
				l0.1,0.2v0.3v0.3l0.1,0.2v0.3l0.1,0.2v0.3l0.1,0.2v0.3l0.1,0.2v0.3l0.1,0.2v0.3l0.1,0.2v0.3l0.1,0.2v0.3l0.1,0.2v0.3l0.1,0.2
				l0.1,0.2v0.3l0.1,0.2v0.3l0.1,0.2l0.1,0.2v0.3l0.1,0.2l0.1,0.2V99l0.1,0.2l0.1,0.2v0.3l0.1,0.2l0.1,0.2l0.1,0.2v0.3l0.1,0.2
				l0.1,0.2l0.1,0.2v0.3l0.1,0.2l0.1,0.2l0.1,0.2v0.3l0.1,0.2l0.1,0.2L54,103l0.1,0.2v0.3l0.1,0.2l0.1,0.2l0.1,0.2l0.1,0.2l0.1,0.2
				l0.1,0.2v0.3l0.1,0.2l0.1,0.2l0.1,0.2l0.1,0.2l0.1,0.2l0.1,0.2l0.1,0.2l0.1,0.2l0.1,0.2v0.3l0.1,0.2l0.1,0.2l0.1,0.2l0.1,0.2
				l0.1,0.2l0.1,0.2l0.1,0.2l0.1,0.2l0.1,0.2l0.1,0.2l0.1,0.2l0.1,0.2l0.1,0.2l0.1,0.2l0.1,0.2l0.1,0.2l0.1,0.2l0.1,0.2l0.1,0.2
				l0.1,0.2l0.1,0.2l0.1,0.2l0.1,0.2l0.1,0.2l0.1,0.2l0.1,0.2l0.2,0.2l0.1,0.2l0.1,0.2l0.1,0.2l0.1,0.2l0.1,0.2l0.1,0.2l0.1,0.2
				l0.1,0.2l0.1,0.2l0.2,0.2l0.1,0.2l0.1,0.2l0.1,0.2l0.1,0.2l0.1,0.2l0.2,0.2l0.1,0.2l0.1,0.2l0.1,0.2l0.1,0.2l0.2,0.2l0.1,0.2
				l0.1,0.2l0.1,0.2l0.1,0.2l0.2,0.2l0.1,0.2l0.1,0.2l0.1,0.2l0.2,0.2l0.1,0.2l0.1,0.2l0.2,0.2l0.1,0.2l0.1,0.2l0.2,0.2l0.1,0.2
				l0.1,0.2l0.2,0.2l0.1,0.2l0.1,0.2l0.2,0.2l0.1,0.2l0.2,0.2l0.1,0.2l0.1,0.2l0.2,0.2l0.1,0.2l0.2,0.2l0.1,0.2l0.2,0.2l0.1,0.2
				l0.2,0.2l0.1,0.2l0.2,0.2l0.1,0.2l0.2,0.2l0.2,0.2l0.1,0.2l0.3,0.1l-0.4,1v0.3l0.1,0.2l0.1,0.2l0.1,0.2l0.2,0.2l0.5,0.3l0.6,0.4
				l0.3,0.3l0.2,0.2l0.2,0.2l0.1,0.2v0.3v0.3l0.1,0.2l0.3,0.3l0.2,0.2l0.2,0.2l0.2,0.2l0.2,0.2l0.2,0.2l0.1,0.2l0.2,0.2l0.2,0.2
				l0.1,0.2l0.2,0.2l0.2,0.2l0.1,0.2l0.2,0.2l0.2,0.2l0.2,0.2l0.1,0.2l0.2,0.2l0.3,0.3l0.2,0.2l0.3,0.3l0.6,0.2v-0.1l-0.1-0.2
				l-0.1-0.2l-0.2-0.2l-0.1-0.2l-0.2-0.2l-0.2-0.2l-0.2-0.2l-0.2-0.2l-0.2-0.2l-0.2-0.2l-0.2-0.2l-0.2-0.2l-0.1-0.2l-0.2-0.2
				l-0.1-0.2l-0.1-0.2l-0.2-0.2l0.5,0.3l0.3,0.3l0.2,0.2l0.2,0.2l0.2,0.2l0.2,0.2l0.2,0.2l0.2,0.2l0.2,0.2l0.2,0.2l0.2,0.2l0.2,0.2
				l0.4,0.1h0.3h0.3l-0.1,0.3v0.3l0.1,0.2l0.1,0.2l0.8,0.3l0.6,0.2l0.2,0.2l0.1,0.2l-0.1,0.6l0.2,0.2h0.1l0.2-0.2l0.3,0.3l0.3,0.1
				l-0.2,0.2v0.1l0.6,0.4l-0.1,0.3l0.4,0.1h0.3l0.3,0.1l-0.1,0.3v0.1l0.1,0.2l0.3,0.3l0.3,0.3l0.5,0.3l0.8,0.3l0.4,0.1l0.3,0.3
				l0.5,0.3l0.3,0.3l0.5,0.3l0.3,0.3l0.5,0.3l0.5,0.3l0.3,0.3l0.5,0.3l0.3,0.3l0.4,0.1l-0.2,0.5h0.1l0.2-0.1l0.8,0.3l0.2,0.2
				l-0.1,0.4l0.1,0.2l0.5,0.2l0.2-0.1l0.2-0.1l0.2-0.1l0.3,0.1l0.5,0.3l0.6,0.4l0.2,0.2v0.3l0.1,0.2l0.3,0.1l0.8,0.3l0.6,0.4
				l0.8,0.5l0.3,0.3l1,0.5l1.1,0.6l0.6,0.4l1,0.5l0.6,0.4l1,0.5l2.7,1.2l2.1,0.9l0.6,0.4l-0.2,0.1l-6.2-2.3l-1.3-0.6l-1.1-0.4
				l-0.4-0.1l-0.1-0.2l-0.1-0.2h-0.1l-1-0.4l-0.5-0.3l-0.5-0.3l-0.6-0.2l-0.2,0.2l-0.1,0.4l0.3,0.1h0.4h0.1l0.1,0.2l0.1,0.2l0.8,0.5
				l1.3,0.6l1.2,0.6l1.2,0.6l0.6,0.4l0.8,0.5l1.8,0.7l1.3,0.3l1.1,0.3l1.1,0.3l1.7,0.5l0.6,0.2l0.6,0.4l0.1,0.2v0.3l0.1,0.2v0.3
				l0.9,0.3l1.8,0.5l0.9,0.2l0.7,0.1l0.6,0.1l0.7,0.1h0.4l0.6,0.1h0.4l0.6,0.1h0.4h0.4h0.4h0.4h0.3h0.4h0.4h0.4h0.4h0.4h0.4h0.4h0.4
				h0.4h0.4h0.4l0.6,0.1h0.4l0.6,0.1l0.6,0.1l0.7,0.1l0.8,0.2l1.1,0.3l2.2,0.8l0.2,0.2l0.6,0.2h0.3l0.2-0.1l0.2-0.1l0.2-0.1l0.2-0.1
				l0.2-0.1h0.3l0.2-0.1l0.1-0.4v-0.3l-0.2-0.2l-0.1-0.2l-0.3-0.3l-0.2-0.2l-0.1-0.2V156l0.2-0.2l0.2-0.1l0.2-0.1l0.2-0.1h0.3
				l0.2-0.1h0.3h0.3h0.3h0.4h0.3h0.3h0.3l0.2-0.1h0.3l0.2-0.1l0.2-0.1l0.1-0.3v-0.3v-0.3l0.3,0.1l0.2-0.1h0.3h0.3h0.3l0.2-0.1h0.3
				h0.3h0.3l0.2-0.1h0.3h0.3l0.2-0.1h0.3h0.3l0.2-0.1h0.3h0.3l0.2-0.1h0.3l0.2-0.1h0.3h0.3l0.2-0.1h0.3l0.2-0.1h0.3l0.2-0.1h0.3
				l0.2-0.1h0.3l0.2-0.1h0.3h0.3l0.2-0.1h0.3l0.2-0.1l0.2-0.1h0.3l0.2-0.1h0.3l0.2-0.1h0.3l0.2-0.1h0.3l0.2-0.1l0.2-0.1h0.3l0.2-0.1
				h0.3l0.2-0.1l0.2-0.1h0.3l0.2-0.1l0.2-0.1h0.3l0.2-0.1l0.2-0.1h0.3l0.2-0.1l0.2-0.1h0.3l0.2-0.1l0.2-0.1h0.3l0.2-0.1l0.2-0.1
				l0.2-0.1h0.3l0.2-0.1l0.2-0.1l0.2-0.1h0.3l0.2-0.1l0.2-0.1l0.2-0.1h0.3l0.2-0.1l0.2-0.1l0.2-0.1l0.2-0.1h0.3l0.2-0.1l0.2-0.1
				l0.2-0.1l0.2-0.1l0.2-0.1l0.2-0.1h0.3l0.2-0.1l0.2-0.1l0.2-0.1l0.2-0.1l0.2-0.1l0.2-0.1l0.2-0.1l0.2-0.1h0.3l0.2-0.1l0.2-0.1
				l0.2-0.1l0.2-0.1l0.2-0.1l0.2-0.1l0.2-0.1l0.2-0.1l0.2-0.1l0.2-0.1l0.2-0.1l0.2-0.1l0.2-0.1l0.2-0.1l0.2-0.1l0.2-0.1l0.2-0.1
				l0.2-0.1l0.2-0.1l0.2-0.1l0.2-0.1l0.2-0.1l0.2-0.1l0.2-0.1l0.2-0.1l0.2-0.1l0.2-0.1l0.2-0.1l0.2-0.1l0.2-0.2l0.2-0.1l0.2-0.1
				l0.2-0.1l0.2-0.1l0.2-0.1l0.2-0.1l0.2-0.1l0.2-0.2l0.2-0.1l0.2-0.1l0.2-0.1l0.2-0.1l0.2-0.1l0.2-0.2l0.2-0.1l0.2-0.1l0.2-0.1
				l0.2-0.2l0.2-0.1l0.2-0.1l0.2-0.1l0.2-0.2l0.2-0.1l0.2-0.1l0.2-0.1l0.2-0.2l0.2-0.1l0.2-0.1l0.2-0.2l0.2-0.1l0.2-0.2l0.2-0.1
				l0.2-0.1l0.2-0.2l0.2-0.1l0.2-0.2l0.2-0.1l0.2-0.1l0.2-0.2l0.2-0.1l0.2-0.2l0.2-0.2l0.2-0.1l0.2-0.2l0.2-0.1l0.2-0.1l0.2-0.2
				l0.2-0.1l0.2-0.1l0.2-0.1h0.4l0.2-0.5l0.3,0.1l0.3-0.5l0.1-0.3l0.3,0.1l0.1-0.4v-0.3l0.3,0.1h0.3l0.2-0.1l0.2-0.1l0.2-0.2
				l0.2-0.2l0.2-0.2l0.2-0.2l0.2-0.2l0.3-0.3l0.2-0.2l0.2-0.2l0.2-0.2l0.2-0.2l0.2-0.2l0.3-0.3l0.2-0.2l0.2-0.2l0.2-0.2l0.2-0.2
				l0.2-0.2l0.3-0.3l0.2-0.2l0.2-0.2l0.2-0.2l0.2-0.2l0.2-0.2l0.2-0.2l0.2-0.2l0.2-0.2l0.2-0.2l0.2-0.2l0.2-0.2l0.2-0.2l0.2-0.1
				l0.4-0.4L176.1,129.5L176.1,129.5z M147.7,145.9c2.8-0.7,10.1-4.7,12.8-6.4c2.1-1.3,4-2.5,6.1-4c1-0.7,1.9-1.4,2.9-2.1
				c0.5-0.4,1-0.7,1.5-1.1c0.3-0.2,0.4-0.3,0.7-0.5c0.2-0.1,0.2-0.1,0.4-0.3l0.1-0.1c0,0,0.1-0.2,0.1-0.1l0.1,0.2
				c-0.7,0.4-2,2-2.8,2.7c-1,0.8-1.9,1.6-2.8,2.3c-1.3,1-4.5,3.2-6,3.9c-2.2,1.1-4.1,2.2-6.4,3.2c-1.1,0.5-2.2,1-3.3,1.4
				c-0.6,0.2-1.2,0.3-1.7,0.6c-0.2,0.1-1.6,0.7-1.6,0.7L147.7,145.9L147.7,145.9z M168.5,132.5c-0.6,0.9-5.8,4.5-6.9,5.2
				c-2.2,1.4-5,3.1-7.3,4.2c-5.9,2.7-9.5,4.1-16.1,5.5c-5.9,1.2-11.2,2-17.4,2.5c-2.7,0.2-6.4,0.1-9.4-0.4c-3.6-0.6-6.9-2-10.6-3.4
				V146c3.1,1.2,6.3,1,9,2.8l0.7-0.3l0.2,0.4c2.1-1.4,6.4,0.4,9.4,0.7c2,0.2,2.6,0.1,4.3-0.5c0.6-0.2,1.4-0.4,2-0.6
				c0.8-0.3,1.1-0.3,2.3,0.2l0.1,0.1l1.8-1.7l1,0.5c0.8-0.2,4-0.8,5.1-1c1.5-0.3,3.4-0.8,4.9-1.2c2.8-0.8,6.8-2.1,9.4-3.3
				c3.1-1.4,5.9-2.7,8.9-4.5c1.5-0.8,2.7-1.9,4.4-2.4C165.8,134.7,167.6,132.7,168.5,132.5L168.5,132.5z M129.5,151.6l-0.7-0.1
				l-0.2,0.2h-0.1v-0.3l0.3,0.1l0.6-0.1l0.2-0.1h0.3l-0.1,0.6L129.5,151.6L129.5,151.6z M110.7,152.1c-0.7,0.4-4.7-0.5-6-0.9
				L110.7,152.1L110.7,152.1z M139.4,13.3c0.8,0.3,0.6,0,1.2,0.2c0.2,0.1,0.1,0.2,0.2,0.4l-1.5-0.2L139.4,13.3L139.4,13.3z
				 M97.1,130.4c-1,0.1-0.9-0.7-1.8-1.1c-0.8-0.4-1.3-0.6-2-1.1c-0.7-0.5-2.8-2-3.2-2.5c1.1,0.5,3.3,1.9,4.3,2.7
				c0.5,0.4,1.6,1,2.2,1.3c0.4,0.2,0.8,0.5,1.1,0.7c0.8,0.5,0.5,0.1,0.3,0.7l-0.4,1l-0.3-0.1l0.3-0.4L97,131L97.1,130.4L97.1,130.4z
				 M81.9,118.5c-0.7-1.3-5.1-4.9-4.9-6.6l5.1,6.5L81.9,118.5L81.9,118.5z M114.4,17.9c-0.5,0.8-7.4,2.6-8.3,2.5
				C106.9,20,113.4,17.8,114.4,17.9L114.4,17.9z M64.2,113c-0.1-0.3-2.4-4.7-2.8-5.5c-0.9-2-1.4-3.8-2.3-5.7
				c-0.7-1.6-2.9-10.5-2.8-12.2c0,0,1.2,5.6,1.3,6.2c0.5,2.1,1.2,3.9,1.8,5.9c0.5,1.7,1.5,4,2.2,5.7c0.4,1,0.8,1.8,1.3,2.8
				c0.2,0.5,0.4,0.9,0.6,1.4c0.1,0.3,0.2,0.4,0.3,0.7c0.1,0.1,0.1,0.2,0.2,0.3c0,0,0.1,0.1,0.1,0.2C64.1,112.8,64.3,112.9,64.2,113
				L64.2,113L64.2,113z M76.4,111.7c-1.6-1.1-4.4-6.3-5.2-8c-1.1-2.5-2.5-6.2-3.1-8.9c-0.3-1.4-0.7-3.3-1.1-4.7
				c-0.2-0.7-0.4-1.7-0.5-2.4c-0.2-1.1,0.1-1.7,0-2.5c-0.4-2-0.5-2.6-0.6-4.9c0-0.5-0.1-5.1-0.1-5.1l0.2-0.1c0.7,3.1,1,6.7,1.4,9.9
				c0.2,1.6,0.4,3.3,0.7,4.9c0.2,0.9,0.3,1.6,0.5,2.4c0.1,0.4,0.2,0.8,0.3,1.1S69,93.6,69,94c0,0.1,0,0.2,0,0.3l0.1,0.2l0.1,0.1
				L69,94.7l-0.9-2.1c-0.4,1.4,2.7,8.5,3.4,10c0.5,1.1,1.9,3.7,2.5,4.6C74.2,107.7,76.3,111.3,76.4,111.7L76.4,111.7z M67.2,89.6H67
				l0.8,1.7L67.2,89.6L67.2,89.6z"/>
			<polygon class="st1" points="164.1,34.6 164.5,34.9 164.7,35.1 165,35.4 165.2,35.6 165.4,35.8 165.8,36.1 166,36.3 166.2,36.5 
				166.4,36.8 166.6,37 166.8,37.2 167,37.4 167.2,37.7 167.4,37.9 167.6,38.1 167.8,38.3 168,38.5 168.2,38.8 168.4,39 168.6,39.2 
				168.8,39.4 169,39.6 169.3,39.9 169.3,40 169.5,40.3 169.7,40.5 169.9,40.7 170,40.9 170.2,41.1 170.4,41.3 170.5,41.5 
				170.7,41.7 170.9,41.9 171,42.1 171.2,42.3 171.4,42.5 171.5,42.7 171.7,42.9 171.8,43.1 172,43.3 172.1,43.5 172.3,43.7 
				172.4,43.9 172.6,44.1 172.6,44.3 172.8,44.5 172.9,44.7 173.1,44.9 173.2,45.1 173.3,45.3 173.5,45.5 173.6,45.7 173.8,45.9 
				173.9,46.1 173.9,46.2 174.1,46.4 174.2,46.6 174.3,46.8 174.5,47 174.6,47.2 174.7,47.4 174.9,47.6 175,47.8 175,47.9 
				175.1,48.1 175.3,48.3 175.4,48.5 175.5,48.7 175.6,48.8 175.6,49 175.8,49.2 175.9,49.4 176,49.6 176.1,49.8 176.2,49.9 
				176.4,50.2 176.4,50.3 176.5,50.5 176.6,50.7 176.7,50.9 176.8,51 176.8,51.2 176.9,51.4 177,51.6 177.2,51.8 177.3,51.9 
				177.4,52.1 177.4,52.3 177.5,52.5 177.6,52.6 177.7,52.8 177.8,53 177.8,53.2 177.9,53.3 178,53.5 178.1,53.7 178.2,53.9 
				178.2,54 178.3,54.2 178.4,54.4 178.5,54.6 178.5,54.7 178.6,54.9 178.7,55.1 178.8,55.2 178.9,55.4 178.9,55.7 179.2,55.8 
				179.2,55.6 179.2,55.4 179.1,55.2 179,55 178.9,54.9 178.8,54.7 178.8,54.4 178.7,54.2 178.7,54 178.6,53.9 178.5,53.7 
				178.4,53.5 178.3,53.4 178.3,53.2 178.2,53 178.1,52.8 178.1,52.5 178,52.4 177.9,52.2 177.8,52 177.8,51.8 177.7,51.7 
				177.6,51.5 177.5,51.3 177.4,51.1 177.4,51 177.3,50.8 177.1,50.6 177,50.4 176.9,50.2 176.8,50 176.8,49.9 176.7,49.7 
				176.6,49.5 176.5,49.4 176.4,49.2 176.4,49 176.2,48.8 176.1,48.6 176,48.4 175.9,48.3 175.8,48.1 175.8,47.9 175.6,47.7 
				175.5,47.5 175.4,47.3 175.3,47.2 175.1,47 175,46.8 175,46.6 174.9,46.4 174.7,46.2 174.6,46 174.5,45.9 174.3,45.6 174.2,45.5 
				174.1,45.3 173.9,45.1 173.9,44.9 173.8,44.7 173.6,44.5 173.5,44.3 173.3,44.1 173.2,43.9 173,43.7 172.9,43.5 172.7,43.3 
				172.6,43.1 172.4,42.9 172.4,42.8 172.1,42.5 172.1,42.4 171.9,42.1 171.8,42 171.6,41.7 171.4,41.5 171.3,41.3 171.1,41.1 
				170.9,40.9 170.8,40.7 170.6,40.5 170.4,40.3 170.2,40.1 170.1,39.9 169.9,39.7 169.7,39.5 169.5,39.2 169.3,39 169.1,38.8 
				169,38.6 168.8,38.4 168.6,38.2 168.4,38 168.2,37.7 168,37.5 167.8,37.3 167.6,37.1 167.3,36.8 167.1,36.6 166.9,36.4 
				166.6,36.1 166.4,35.9 166.2,35.7 166,35.5 165.8,35.3 165.5,35 164.9,34.6 164.1,34.3 164.1,34.5 			"/>
			<path class="st1" d="M160.6,141.9l-0.2,0.1l-0.2,0.1l-0.2,0.1l-0.3,0.5l-0.1,0.3l-0.3-0.1l-0.2,0.1h-0.3h-0.3l-0.2,0.1l-0.2,0.1
				l-0.2,0.1v0.1l0.5-0.1l0.1,0.2l-0.6,0.1h-0.4l-0.2,0.1l-0.2,0.1l-0.2,0.1l-0.2,0.1l-0.2,0.1l-0.2,0.2l-0.2,0.6h0.1l0.2-0.1
				l0.2-0.1h0.3l0.2-0.1l0.2-0.1l0.2-0.1l0.2-0.1l0.2-0.1l0.2-0.1l0.2-0.1l0.2-0.1l0.2-0.1l0.2-0.1l0.2-0.1l0.2-0.1l0.2-0.1l0.2-0.1
				l0.2-0.1l0.2-0.1l0.2-0.1l0.2-0.1l0.2-0.1l0.2-0.2l0.2-0.1l0.2-0.1l0.2-0.1l0.2-0.1l0.2-0.1l0.2-0.2l0.2-0.1l0.2-0.1l0.2-0.1
				l0.2-0.1l0.2-0.2l0.2-0.1l0.2-0.1l0.2-0.2l0.2-0.1l0.2-0.1l0.2-0.2l0.2-0.1l0.2-0.1l0.2-0.2l0.2-0.1l0.2-0.2l0.2-0.1l0.2-0.2
				l0.2-0.1l0.2-0.2l0.2-0.1l0.2-0.2l0.2-0.1l0.2-0.2l0.2-0.1l0.2-0.2l0.2-0.2l0.2-0.1l0.2-0.2l0.2-0.2l0.2-0.1l0.2-0.2l0.2-0.2
				l0.2-0.1l0.2-0.2l0.2-0.2l0.2-0.2l0.2-0.2l0.2-0.2l0.2-0.1l0.2-0.2l0.2-0.2l0.2-0.2l0.2-0.2l0.2-0.2l0.2-0.2l0.2-0.2l0.2-0.2
				l0.3-0.3l0.2-0.2l0.2-0.2l0.2-0.2l0.2-0.2l0.3-0.3l0.2-0.2l0.2-0.2l0.2-0.2l0.3-0.3l0.2-0.2l0.3-0.3l0.2-0.2l0.3-0.3l0.2-0.2
				l0.3-0.3l0.2-0.2l0.3-0.3l0.3-0.3l0.1-0.3h-0.1l-0.2,0.1l-0.3,0.3l-0.2,0.2l-0.3,0.3l-0.2,0.2l-0.3,0.3l-0.2,0.2l-0.3,0.3
				l-0.2,0.2l-0.3,0.3l-0.2,0.2l-0.2,0.2l-0.2,0.2l-0.3,0.3l-0.2,0.2l-0.2,0.2l-0.2,0.2l-0.2,0.2l-0.2,0.2l-0.2,0.2l-0.2,0.2
				l-0.2,0.2l-0.2,0.2l-0.2,0.2l-0.2,0.2l-0.2,0.2l-0.2,0.2l-0.2,0.2l-0.2,0.1l-0.2,0.2l-0.2,0.2l-0.2,0.2l-0.2,0.1l-0.2,0.2
				l-0.2,0.2l-0.2,0.2l-0.2,0.1l-0.2,0.2l-0.2,0.2l-0.2,0.1l-0.2,0.2l-0.2,0.1l-1,0.6l-0.2,0.1l-0.2,0.2l-0.2,0.1l-0.2,0.2l-0.2,0.1
				l-0.2,0.2l-0.2,0.1l-0.2,0.2l-0.2,0.1l-0.2,0.1l-0.2,0.2l-0.2,0.1l-0.2,0.2l-0.2,0.1l-0.2,0.2l-0.2,0.1l-0.2,0.1l-0.2,0.2
				l-0.2,0.1l-0.2,0.1l-0.2,0.1l-0.2,0.1l-0.2,0.2l-0.2,0.1l-0.2,0.1l-0.2,0.1l-0.2,0.1L160.6,141.9L160.6,141.9z M161.2,141.2h-0.1
				l-0.2,0.1l-0.2,0.2l-0.1,0.3L161.2,141.2L161.2,141.2z"/>
			<polygon class="st1" points="81.7,140.7 82.3,141 82.8,141.4 83.3,141.7 83.8,142 84.4,142.4 85,142.8 85.8,143.2 87.2,143.9 
				87.7,144 87.8,143.8 87.5,143.6 87,143.2 86.8,143 85.4,142.3 85,142 84.6,141.8 84.2,141.4 83.8,141.2 83.4,140.9 82.7,140.5 
				81.9,140.2 81.3,140.1 81.3,140.4 			"/>
			<polygon class="st1" points="162.4,142.8 162.6,142.6 162.8,142.5 163,142.3 163.2,142.3 163.4,142.1 163.6,142 163.8,141.8 
				164,141.6 164.2,141.5 164.4,141.3 164.6,141.2 164.8,141 165,140.9 165.2,140.7 165.4,140.6 165.6,140.4 165.7,140.3 166,140.1 
				166.1,140.1 166.4,139.9 166.5,139.8 166.8,139.6 166.9,139.5 167.2,139.3 167.3,139.2 167.5,139 167.7,138.9 167.9,138.7 
				168.2,138.5 168.3,138.4 168.6,138.2 168.7,138.1 168.8,137.9 168.7,137.8 168.5,137.9 168.4,138 168.1,138.2 168,138.3 
				167.7,138.5 167.6,138.6 167.4,138.6 167.2,138.9 167,138.9 166.8,139.1 166.6,139.2 166.4,139.4 166.2,139.5 166,139.6 
				165.8,139.8 165.6,139.9 165.4,140.1 165.2,140.2 165,140.4 164.8,140.4 164.7,140.5 164.4,140.7 164.3,140.8 164.1,141 
				163.9,141.1 163.7,141.3 163.5,141.4 163.3,141.5 163.1,141.7 162.9,141.7 162.7,141.9 162.5,142 162.3,142.2 162.1,142.3 
				162,142.4 161.9,142.6 			"/>
			<polygon class="st1" points="158.2,30.1 158.3,30.3 158.3,30.5 159.6,31.1 159.9,31.3 160.2,31.6 160.6,31.9 160.8,32.1 
				161,32.3 161.3,32.6 162.8,33.1 162.9,32.9 162.2,32.6 162,32.6 161.8,32.3 161.7,32.2 161.5,31.9 161.3,31.7 161.1,31.5 
				160.9,31.3 160.6,31 160.1,30.7 159.7,30.4 158.8,29.9 158.2,29.7 158.1,29.9 			"/>
			<polygon class="st1" points="130.9,9 131.5,9 131.9,9 132.4,9.1 133,9.2 133.5,9.2 134.1,9.3 134.5,9.3 135.1,9.4 135.6,9.4 
				136.1,9.4 136.6,9.5 136.8,9.4 136.8,9.3 136.5,9.2 135.8,9 135.1,8.9 134.4,8.8 133.7,8.7 133.1,8.6 132.4,8.5 132.2,8.6 
				132,8.7 131.2,8.5 130.8,8.5 130.6,8.6 130.4,8.6 130.4,8.8 			"/>
			<polygon class="st1" points="137.1,151 137.4,151 137.7,150.9 138,150.9 138.2,150.8 138.5,150.8 138.8,150.7 139.1,150.7 
				139.3,150.6 139.6,150.6 139.7,150.5 140,150.5 140.2,150.4 140.5,150.4 140.7,150.3 141,150.3 141.2,150.2 141.3,150.1 
				141.6,150.1 141.8,150 142,149.9 142.1,149.7 141.6,149.5 141.3,149.5 141.1,149.6 140.9,149.7 140.7,149.7 140.6,149.8 
				140.4,150 140.1,150.1 139.8,150.1 139.5,150.1 139.2,150.2 138.9,150.2 138.7,150.3 138.4,150.3 138.1,150.3 137.9,150.4 
				137.6,150.4 137.4,150.5 137.1,150.6 137,150.6 136.8,150.7 136.7,151 136.8,151 			"/>
			<polygon class="st1" points="154.1,146.8 154.3,146.6 154.5,146.5 154.7,146.4 154.8,146.4 155,146.3 155.2,146.2 155.4,146.1 
				155.5,146 155.7,146 155.9,145.9 156.1,145.8 156.2,145.7 156.4,145.7 156.6,145.6 156.8,145.5 156.9,145.4 157.1,145.3 
				157.3,145.3 157.5,145.2 157.6,145.1 157.8,145 158,144.9 158.1,144.9 158.3,144.8 158.5,144.7 158.7,144.6 158.8,144.5 
				159.1,144.3 159.3,144.1 159.3,144 159.1,143.9 158.9,144 158.7,144.1 158.6,144.1 158.4,144.2 158.2,144.4 158,144.5 
				157.8,144.6 157.6,144.7 157.5,144.7 157.3,144.8 157.1,144.9 156.9,145 156.8,145.1 156.6,145.1 156.4,145.2 156.3,145.3 
				156,145.5 155.9,145.6 155.7,145.7 155.4,145.7 155.2,145.8 155,145.9 154.9,145.9 154.7,146 154.5,146.2 154.3,146.3 
				154.1,146.4 153.9,146.5 153.9,146.7 			"/>
			<polygon class="st1" points="174.5,132.8 174.7,132.6 174.9,132.4 175.1,132.3 175.3,132.1 175.6,131.8 175.8,131.6 176.1,131.2 
				176.4,130.6 176.6,130.3 176.3,130.2 176.1,130.2 176,130.3 175.8,130.4 175.6,130.6 175.3,130.9 175,131.3 174.7,131.9 
				174.4,132.3 174.2,132.8 174.3,132.9 			"/>
			<polygon class="st1" points="155,28.2 155.2,28.4 155.7,28.7 156.6,29.2 157.3,29.7 157.6,29.7 157.8,29.2 157.2,28.9 157,28.7 
				156.8,28.4 155.9,28.1 155.6,28.1 155.4,28 155.2,27.8 155,27.8 154.9,28 			"/>
			<polygon class="st1" points="142.6,149.7 142.8,149.7 143,149.6 143.3,149.5 143.6,149.5 143.9,149.5 144.2,149.4 144.5,149.4 
				144.8,149.4 145,149.3 145.1,149.2 145.3,149.1 145.5,148.9 145.6,148.8 145.2,148.7 144.9,148.7 144.6,148.7 144.3,148.8 
				144.1,148.8 143.9,148.9 143.6,149 143.5,149 143.3,149.1 143.1,149.2 142.9,149.3 142.8,149.4 142.6,149.4 142.4,149.5 
				142.3,149.8 142.5,149.8 			"/>
			<polygon class="st1" points="141.6,10.4 142.6,10.6 143,10.6 143.2,10.5 143.2,10.4 141.7,9.8 141.1,9.8 140.6,9.7 140.5,9.9 			
				"/>
			<polygon class="st1" points="172,135.2 172.2,135 172.4,134.8 172.6,134.7 172.8,134.5 173.1,134.3 173.3,134.1 173.5,133.9 
				173.7,133.2 173.5,133.1 173.2,133.5 173,133.7 172.8,133.9 172.5,134.2 172.3,134.4 172.1,134.6 171.8,135 171.7,135.1 			"/>
			<polygon class="st1" points="146.1,149.6 146.4,149.6 146.6,149.5 146.8,149.4 147.1,149.4 147.3,149.3 147.4,149.2 147.6,149.1 
				147.8,149.1 148,149 148.1,148.9 148.3,148.5 148,148.4 147.8,148.5 147.7,148.6 147.5,148.7 147.3,148.7 147.2,148.8 147,148.9 
				146.8,149 146.6,149.1 146.5,149.1 146.3,149.2 146.1,149.3 145.9,149.4 145.9,149.5 			"/>
			<polygon class="st1" points="132.5,151.8 132.8,151.8 133.1,151.8 133.4,151.8 133.5,151.7 133.7,151.6 133.9,151.5 133.9,151.4 
				133.7,151.3 133.3,151.3 132.8,151.3 132.5,151.3 132.2,151.3 132.1,151.4 132,151.7 			"/>
			<polygon class="st1" points="134.7,151.4 135,151.3 135.3,151.3 135.6,151.3 135.9,151.2 136.2,151.2 136.3,151 135.4,150.6 
				135.1,151 134.8,151 134.6,151.1 134.5,151.1 134.4,151.3 			"/>
			<polygon class="st1" points="153.8,145.6 154.2,145.7 154.4,145.6 154.6,145.5 154.7,145.5 155,145.4 155.1,145.2 155.1,145 
				154.7,144.9 154.5,144.9 154.3,145 154,145.1 153.9,145.1 153.8,145.4 			"/>
			<polygon class="st1" points="169.8,137.1 170,137 170.2,137 170.4,136.7 170.6,136.7 170.8,136 170.6,135.9 170.4,136 
				170.2,136.2 169.9,136.6 169.6,136.9 169.5,137.1 169.7,137.2 			"/>
			<polygon class="st1" points="71.9,131.9 71.9,132.1 72.1,132.3 72.2,132.5 72.4,132.7 72.5,132.9 72.8,133 72.9,132.6 
				72.8,132.4 72.6,132.2 72.5,132.1 72.3,131.8 71.8,131.6 71.8,131.8 			"/>
			<polygon class="st1" points="105,156.6 105.4,156.7 105.5,156.6 105.5,156.5 105.7,156.3 105.9,155.9 105.8,155.7 105.4,155.6 
				105.1,155.9 105,156.4 			"/>
			<polygon class="st1" points="175.6,111.2 175.9,111 176.1,110.3 176,110.2 175.9,110.1 175.7,110.2 175.5,110.3 175.2,111.1 
				175.3,111.2 			"/>
			<polygon class="st1" points="163,33.5 163.1,33.7 163.3,33.9 163.6,34 163.8,33.9 163.9,33.7 163.6,33.4 163.3,33.2 163,33.1 
				162.9,33.3 			"/>
			<polygon class="st1" points="130.8,152.1 131.1,152.1 131.3,152 131.4,151.9 131.6,151.8 131.7,151.6 131.5,151.5 131.2,151.5 
				130.7,151.5 130.5,152 			"/>
			<polygon class="st1" points="161.5,16.6 161.6,16.4 159.8,15.7 159.7,16 			"/>
			<polygon class="st1" points="149.5,147.5 149.7,147.5 149.9,147.4 150,147.3 150.2,147.2 150.4,147.1 150.5,147.1 150.7,147 
				150.9,146.9 150.9,146.8 150.7,146.7 150.5,146.8 150.3,146.8 150.2,146.9 150,147 149.8,147.1 149.6,147.2 149.5,147.2 
				149.3,147.3 149.2,147.6 149.3,147.6 			"/>
			<polygon class="st1" points="139.5,151.3 139.6,151.2 139.9,151.2 140.1,151.1 140.4,151.1 140.6,151 140.7,150.7 140.5,150.7 
				140.4,150.8 140.1,150.8 139.9,150.9 139.6,150.9 139.4,151 139.1,151 139,151.3 139.2,151.3 			"/>
			<polygon class="st1" points="128.5,152.8 128.8,152.9 129.1,152.9 129.2,152.8 129.4,152.7 129.5,152.5 129.1,152.3 128.8,152.4 
				128.5,152.4 128.4,152.6 			"/>
			<polygon class="st1" points="126.7,152.9 127,152.8 127.3,152.8 127.6,152.8 127.9,152.8 128,152.5 127.9,152.5 127.6,152.5 
				127.3,152.5 127,152.5 126.7,152.6 126.5,152.7 126.5,152.8 			"/>
			<polygon class="st1" points="80.2,139.7 80.8,139.9 81,139.5 80,139.2 79.9,139.4 			"/>
			<polygon class="st1" points="145,11 145.2,11 145.2,10.8 145.1,10.7 144.7,10.5 144.3,10.5 144,10.5 144,10.7 			"/>
			<polygon class="st1" points="148.4,148.1 148.6,148.1 148.8,148 148.9,147.7 148.8,147.6 148.5,147.5 148.4,147.5 148.2,147.6 
				148,148 			"/>
			<polygon class="st1" points="132.1,152.4 132.4,152.4 132.7,152.4 132.8,152.1 132.2,151.9 132,152 131.9,152.3 			"/>
			<polygon class="st1" points="138,9.7 138.3,9.7 138.4,9.3 138.3,9.3 137.7,9.2 137.6,9.3 137.5,9.5 			"/>
			<polygon class="st1" points="81.1,138.6 81.4,138.8 81.7,139.1 82,139.2 82,139.1 81.9,138.9 81.6,138.6 81.3,138.3 81,138.3 
				81,138.4 			"/>
			<polygon class="st1" points="76.8,136.9 77.2,137.3 77.6,137.4 77.7,137.2 77,136.7 76.7,136.6 76.7,136.8 			"/>
			<polygon class="st1" points="152.5,147.3 152.7,147.1 152.9,147.1 153,147 153.1,146.7 153,146.7 152.8,146.8 152.6,146.8 
				152.5,146.9 152.3,147 152.2,147.4 152.3,147.4 			"/>
			<polygon class="st1" points="153.1,146.1 153.3,146.2 153.5,146.1 153.6,145.8 153.1,145.6 153,146 			"/>
			<polygon class="st1" points="161.1,143.2 161.3,143 161.5,142.8 161.6,142.7 161.3,142.6 161.1,142.8 160.9,143 160.8,143.2 
				160.9,143.3 			"/>
			<polygon class="st1" points="151.5,146.7 151.7,146.6 151.9,146.6 152,146.3 151.6,146.2 151.3,146.5 151.3,146.6 			"/>
			<polygon class="st1" points="146.8,11.5 146.9,11.2 146.2,10.9 146.1,11.2 			"/>
			<polygon class="st1" points="144.7,149.9 145,149.9 145.2,149.8 145.2,149.7 144.7,149.5 144.6,149.6 144.5,149.8 			"/>
			<polygon class="st1" points="130.3,152.9 130.5,152.4 130.1,152.3 130,152.8 			"/>
			<polygon class="st1" points="80.1,137.8 80.3,138 80.4,138 80.5,137.8 80.3,137.5 79.8,137.4 79.7,137.5 			"/>
			<polygon class="st1" points="73.2,133.6 73.6,133.8 73.7,133.6 73.6,133.5 73.5,133.3 73.3,133.2 73.2,133.4 			"/>
			<polygon class="st1" points="131,152.6 131.2,152.5 131.3,152.3 131,152.2 130.9,152.3 130.7,152.6 130.9,152.7 			"/>
			<polygon class="st1" points="133.3,152.3 133.5,152.2 133.6,152 133.4,151.9 133.3,152 133.1,152.1 133,152.3 133.1,152.4 			"/>
			<polygon class="st1" points="76.4,136.4 76.5,136.1 76,135.9 75.9,136.2 			"/>
			<polygon class="st1" points="146.2,148.6 146.4,148.5 146.4,148.4 146.1,148.3 145.9,148.7 146,148.7 			"/>
			<polygon class="st1" points="170.5,22.6 170.8,22.7 170.8,22.6 170.7,22.4 170.4,22.3 170.3,22.4 			"/>
			<polygon class="st1" points="175.1,34.3 175.5,34.4 175.5,34.3 175.3,34.1 175.1,34 175,34.1 			"/>
			<polygon class="st1" points="165.2,25.2 165.3,25 164.9,24.8 164.8,25.1 			"/>
			<polygon class="st1" points="75,135 75.1,134.9 75,134.7 74.7,134.6 74.7,134.9 			"/>
			<polygon class="st1" points="162.6,23.3 162.7,23.1 162,22.9 162,23 			"/>
			<path class="st2" d="M176.5,64.7c1.1-0.3,2.1-0.6,3.3-0.8c0.1,0.7,0.3,1.4,0.4,2.1s0.5,0.8,1.1,0.7c1.6-0.2,2.8-1,3.5-2.4
				c1.7-3.2,1.7-6.5,0.6-9.9c-0.1-0.2-0.5-0.5-0.8-0.5c-4.4,0.2-9.1,6-8.3,10.3C176.3,64.3,176.3,64.4,176.5,64.7L176.5,64.7z"/>
			<path class="st2" d="M157,136.5c0.7,0.8,1.4,1.7,2.2,2.6c-0.6,0.4-1.1,0.9-1.7,1.3c-0.6,0.4-0.5,0.8-0.2,1.3
				c0.9,1.3,2.1,2.1,3.7,2.1c3.6,0.1,6.6-1.4,9.2-3.8c0.2-0.2,0.2-0.7,0.1-0.9c-2.1-3.9-9.3-5.5-12.9-3
				C157.3,136.2,157.2,136.3,157,136.5L157,136.5z"/>
			<path class="st2" d="M178.5,126.4c0.9,0,1.7,0,2.6,0c0,0.5,0,1.1-0.1,1.6c-0.1,0.5,0.2,0.7,0.7,0.8c1.2,0.1,2.3-0.2,3.1-1.1
				c1.9-2.1,2.5-4.6,2.3-7.3c0-0.2-0.3-0.5-0.5-0.5c-3.3-0.7-7.9,2.7-8.2,6.1C178.5,126,178.5,126.1,178.5,126.4L178.5,126.4z"/>
			<path class="st2" d="M191.1,112.3c0.4-0.4,0.7-0.8,1.1-1.3c0.3,0.2,0.5,0.5,0.8,0.7c0.2,0.3,0.4,0.2,0.7,0c0.6-0.6,0.9-1.2,0.8-2
				c-0.2-1.8-1.2-3.2-2.7-4.3c-0.1-0.1-0.3-0.1-0.4,0c-1.8,1.4-2,5.1-0.5,6.7C190.9,112.2,191,112.2,191.1,112.3L191.1,112.3z"/>
			<path class="st2" d="M194.9,97.8c0.2-0.3,0.4-0.5,0.7-0.8c0.2,0.2,0.3,0.3,0.5,0.5s0.3,0.1,0.4,0c0.4-0.3,0.6-0.8,0.5-1.3
				c-0.2-1.1-0.8-2-1.7-2.7c-0.1,0-0.2,0-0.3,0c-1.1,0.9-1.3,3.2-0.3,4.2C194.8,97.7,194.8,97.7,194.9,97.8L194.9,97.8z"/>
			<path class="st2" d="M172.1,50.7c-0.6,0.4-1.1,0.8-1.6,1.2c-1,0.8-1,1.1-0.1,2c1.4,1.4,3.1,1.9,5,1.9c2.9,0,5.5-1.2,7.7-3
				c0.2-0.2,0.3-0.8,0.1-1c-2.9-3.7-6.4-5.7-11.2-4.7c-1.4,0.3-1.7,1-0.9,2.2C171.4,49.7,171.7,50.2,172.1,50.7L172.1,50.7z"/>
			<path class="st2" d="M196,60.3c0.7,0,1.1,0,1.6-0.1c1.3-0.1,1.7-0.4,1.4-1.7c-0.2-0.9-0.7-2-1.4-2.6c-3-2.7-6.5-3.3-10.3-2.6
				c-0.2,0-0.5,0.5-0.5,0.7c0,3.2,3.1,7.9,6.1,9.1c0.8,0.3,1.7,0.4,2.6,0.5s1.2-0.4,1.1-1.2C196.4,61.7,196.2,61.1,196,60.3
				L196,60.3z"/>
			<path class="st2" d="M182.3,40.4c-0.4-0.4-0.6-0.7-0.8-0.9c-1.4-1.2-2.7-0.9-2.9,1c-0.2,1.4-0.1,2.9,0.2,4.3
				c0.9,3,3.2,4.9,5.8,6.4c0.2,0.1,0.8-0.1,1-0.3c2.3-3.1,2.5-8.3,0.5-11.6c-0.1-0.2-0.3-0.4-0.4-0.6c-1.1-1.3-1.9-1.2-2.6,0.4
				C182.9,39.3,182.7,39.7,182.3,40.4L182.3,40.4z"/>
			<path class="st2" d="M196.1,44.9c0.1-0.6,0.3-1.2,0.4-1.8c0.2-0.9-0.2-1.4-1.1-1.5c-0.4,0-0.8,0-1.1,0c-4.3,0.9-7.9,6-7.2,10.2
				c4.7,1.2,9.1-0.9,11.7-4.2c1-1.2,0.5-2.2-1-2.5C197.2,45.1,196.7,45,196.1,44.9L196.1,44.9z"/>
			<path class="st2" d="M192.6,88.5c0.5-0.1,1-0.3,1.6-0.4c0.1,0.3,0.1,0.7,0.2,1s0.2,0.4,0.5,0.4c0.8-0.1,1.4-0.5,1.7-1.2
				c0.8-1.6,0.8-3.2,0.3-4.9c0-0.1-0.2-0.2-0.4-0.2c-2.2,0.1-4.4,2.9-4.1,5C192.5,88.4,192.5,88.4,192.6,88.5L192.6,88.5z"/>
			<path class="st2" d="M190.4,81.7c-0.3,0.2-0.5,0.4-0.8,0.6c-0.5,0.4-0.5,0.6-0.1,1c0.7,0.7,1.5,0.9,2.4,0.9
				c1.4,0,2.7-0.6,3.8-1.5c0.1-0.1,0.1-0.4,0.1-0.5c-1.4-1.8-3.1-2.8-5.5-2.3c-0.7,0.1-0.8,0.5-0.4,1.1
				C190.1,81.2,190.3,81.4,190.4,81.7L190.4,81.7z"/>
			<path class="st2" d="M202.2,86.4c0.3,0,0.6,0,0.8,0c0.7-0.1,0.8-0.2,0.7-0.9c-0.1-0.5-0.4-1-0.7-1.3c-1.4-1.3-3.2-1.6-5.1-1.3
				c-0.1,0-0.2,0.2-0.2,0.3c0,1.6,1.5,3.9,3,4.4c0.4,0.2,0.8,0.2,1.3,0.2c0.4,0.1,0.6-0.2,0.5-0.6C202.3,87.1,202.2,86.8,202.2,86.4
				L202.2,86.4z"/>
			<path class="st2" d="M195.4,76.6c-0.2-0.2-0.3-0.4-0.4-0.5c-0.7-0.6-1.3-0.4-1.4,0.5c-0.1,0.7-0.1,1.4,0.1,2.1
				c0.4,1.5,1.6,2.4,2.9,3.1c0.1,0.1,0.4,0,0.5-0.1c1.1-1.5,1.2-4.1,0.2-5.7c-0.1-0.1-0.1-0.2-0.2-0.3c-0.6-0.6-0.9-0.6-1.3,0.2
				C195.7,76.1,195.6,76.3,195.4,76.6L195.4,76.6z"/>
			<path class="st2" d="M202.2,78.8c0.1-0.3,0.1-0.6,0.2-0.9c0.1-0.4-0.1-0.7-0.6-0.7c-0.2,0-0.4,0-0.6,0c-2.1,0.4-3.9,2.9-3.5,5
				c2.3,0.6,4.5-0.4,5.7-2.1c0.5-0.6,0.3-1.1-0.5-1.2C202.7,78.9,202.5,78.9,202.2,78.8L202.2,78.8z"/>
			<path class="st2" d="M150.6,47.6c1.4-1,2.8-2,4.4-3.1c0.6,0.9,1.2,1.9,1.8,2.9c0.5,1,1.2,1,2.1,0.5c2.2-1.3,3.6-3.1,3.9-5.6
				c0.6-5.7-1.3-10.7-4.8-15.1c-0.2-0.3-1-0.4-1.4-0.3c-6.5,2.8-10.1,14-6.5,20.1C150.1,47.1,150.3,47.2,150.6,47.6L150.6,47.6z"/>
			<path class="st2" d="M136.1,29.1c-0.6,1-1.2,1.8-1.7,2.6c-1,1.7-0.8,2.3,1,3.1c2.8,1.2,5.7,1.1,8.5,0c4.4-1.6,7.5-4.8,9.7-8.8
				c0.2-0.4,0-1.4-0.4-1.6c-6.4-3.9-12.8-4.8-19.4-0.6c-2,1.2-1.9,2.5,0,3.8C134.6,28.1,135.3,28.6,136.1,29.1L136.1,29.1z"/>
			<path class="st2" d="M177.2,29.8c1-0.4,1.7-0.7,2.4-1c1.9-0.9,2.3-1.6,1-3.4c-0.9-1.3-2.2-2.5-3.6-3.1
				c-5.9-2.3-11.5-1.2-16.8,2.1c-0.3,0.2-0.5,1-0.4,1.3c1.8,4.8,9.1,10,14.2,10c1.4,0,2.7-0.4,4.1-0.7c1.4-0.3,1.5-1.3,0.9-2.4
				C178.5,31.7,177.9,30.8,177.2,29.8L177.2,29.8z"/>
			<path class="st2" d="M145.4,8c-0.8-0.4-1.3-0.7-1.8-0.9c-2.8-1-4.5,0.2-3.8,3.1c0.5,2.2,1.5,4.4,2.8,6.2c3,4,7.5,5.4,12.3,6.1
				c0.4,0.1,1.2-0.6,1.3-1c1.6-5.9-1.1-13.8-5.9-17.5c-0.3-0.2-0.6-0.4-1-0.6c-2.4-1.2-3.4-0.7-3.6,2C145.6,6,145.6,6.8,145.4,8
				L145.4,8z"/>
			<path class="st2" d="M168.6,6.9c-0.1-1-0.2-1.9-0.4-2.8c-0.3-1.4-1.1-2-2.5-1.6c-0.6,0.2-1.2,0.4-1.7,0.7
				c-5.9,3.8-8.3,13.4-4.8,19.3c7.8-0.9,13-6.5,14.9-12.9c0.7-2.4-0.4-3.6-2.9-3.2C170.3,6.5,169.5,6.7,168.6,6.9L168.6,6.9z"/>
			<path class="st3" d="M75.5,41.1c1.9,0.1,3.4,0.5,4.3,1.2c1,0.7,1.6,1.4,1.9,2.3c0.3,0.9,0.2,1.7-0.3,2.6
				c-0.4,0.9-1.1,1.6-2.1,2.2c-0.6,0.3-1.9,0.6-4,0.8c-2.1,0.2-4.7,0.4-7.8,0.5s-6.5,0.2-10.3,0.2s-7.5,0-11.4-0.1
				c0,1.6,0,3.8,0,6.7c0,2.8,0,6,0,9.6c0,3.6,0,7.4,0,11.4c0,4.1,0,8.1,0,12.1s0,7.9,0.1,11.7c0,3.8,0,7.1,0.1,10.1
				c0,3,0.1,5.4,0.1,7.4c0.1,1.9,0.1,3.1,0.2,3.5c0.2,0.9,0.1,1.6-0.1,2.3c-0.2,0.6-0.5,1-0.9,1s-0.8-0.3-1.2-1.1s-0.7-2.1-1-4
				c-0.1-0.8-0.2-2.3-0.3-4.5s-0.1-4.8-0.1-7.8s-0.1-6.3-0.1-10s0-7.4,0-11.3c0-3.9,0-7.7,0-11.5s0-7.4,0.1-10.7
				c0-3.3,0.1-6.3,0.1-8.9s0.1-4.7,0.1-6.1c-2.5,0-5-0.1-7.3-0.2c-2.4-0.1-4.6-0.2-6.6-0.3c-2.1-0.1-3.9-0.3-5.6-0.4
				c-1.7-0.1-3-0.3-4.1-0.5c-2.9-0.5-5.3-1.1-7.3-2.1c-2-0.9-3.6-1.8-4.8-2.7c-1.4-1.1-2.6-2.2-3.5-3.4c2.5,0.5,5.3,0.9,8.5,1.2
				c3.2,0.3,6.5,0.4,10.1,0.5c3.5,0.1,7.2,0.1,10.9,0s7.4-0.2,11-0.3c3.6-0.1,7.1-0.3,10.4-0.5c3.4-0.2,6.4-0.4,9.2-0.5
				c2.8-0.2,5.1-0.3,7.2-0.3C73.1,41.1,74.6,41,75.5,41.1L75.5,41.1z M76.2,67.2c1.8,0,3.5,0.4,5.1,1.1s3,1.7,4.2,3s2.2,2.7,2.9,4.4
				c0.7,1.7,1.1,3.5,1.1,5.5c0,1.9-0.4,3.8-1.1,5.5c-0.7,1.7-1.7,3.2-2.9,4.4c-1.2,1.3-2.6,2.3-4.2,3c-1.6,0.7-3.3,1.1-5.1,1.1
				s-3.5-0.4-5.1-1.1c-1.6-0.7-3-1.7-4.2-3s-2.1-2.7-2.8-4.4s-1-3.5-1-5.5c0-1.9,0.3-3.8,1-5.5s1.6-3.2,2.8-4.4
				c1.2-1.3,2.6-2.3,4.2-3C72.7,67.6,74.4,67.2,76.2,67.2L76.2,67.2z M82.3,90.6c1.1-0.3,2-0.8,2.8-1.6s1.5-1.7,1.9-2.9
				c0.5-1.1,0.8-2.4,0.9-3.8c0.1-1.4,0-2.8-0.3-4.3c-0.3-1.4-0.9-2.8-1.6-3.9c-0.7-1.2-1.6-2.2-2.5-3s-1.9-1.4-3-1.7
				c-1.1-0.3-2.2-0.4-3.2-0.1c-1.1,0.3-2.1,0.8-2.9,1.6c-0.8,0.8-1.5,1.7-1.9,2.8c-0.5,1.1-0.8,2.4-0.9,3.7c-0.1,1.4,0,2.8,0.4,4.3
				s0.9,2.8,1.6,4c0.7,1.2,1.5,2.2,2.5,3s2,1.3,3,1.7S81.2,90.9,82.3,90.6L82.3,90.6z M115.2,65.7c2.3-0.4,4.1-0.2,5.4,0.5
				c1.3,0.8,2.2,1.9,2.7,3.3c0.4,1.4,0.4,3,0,4.7c-0.4,1.8-1.2,3.4-2.4,4.9c-0.9,1.2-2,2.2-3.3,3s-2.7,1.4-4.1,1.8
				c-1.4,0.4-2.9,0.6-4.4,0.7c-1.5,0.1-2.8,0-4.1-0.3c0.3,0.8,0.8,1.8,1.6,3.1c0.8,1.3,1.8,2.6,3.1,4.1c1.3,1.4,2.9,2.8,4.9,4.1
				c1.9,1.3,4.2,2.3,6.9,3c2.7,0.7,5.7,1.1,9.2,1s7.4-0.8,11.8-2.1c0.5-0.4,0.9-0.6,1.2-0.7c0.3-0.1,0.5,0,0.6,0.1s0.1,0.3,0,0.6
				s-0.2,0.5-0.5,0.8c-0.2,0.3-0.8,0.9-1.7,1.8s-2,1.8-3.4,2.9c-1.4,1-3,2-4.8,3c-1.8,0.9-3.7,1.6-5.7,2s-4.1,0.4-6.3,0
				c-2.2-0.4-4.4-1.4-6.6-3s-4.3-4-6.4-7c-2.1-3.1-4-7.1-5.8-12.2c0,1.5,0.1,2.8,0.1,3.9c0,1.1,0,1.9-0.1,2.4
				c-0.2,1.7-0.4,3.3-0.8,4.7c-0.4,1.4-0.9,2.5-1.5,3.4s-1.3,1.5-2.1,1.9s-1.6,0.4-2.5,0c-0.5-0.2-0.9-1.2-1.3-3.1
				c-0.4-1.9-0.7-4.4-1-7.3c-0.2-3-0.3-6.4-0.3-10.2s0.2-7.6,0.6-11.5c0.4-3.9,1-7.7,1.8-11.4c0.8-3.7,1.9-7,3.3-10
				c1.4-2.9,3.1-5.3,5.1-7c2-1.8,4.4-2.7,7.3-2.7c1.6,0,2.6,0.6,3.1,1.9c0.5,1.2,0.6,2.9,0.3,4.9c-0.3,2-0.9,4.3-1.8,6.9
				s-1.9,5.2-3.1,7.9c-1.2,2.7-2.4,5.3-3.7,7.8c-1.3,2.5-2.4,4.8-3.5,6.7v1.3c0.6-1,1.3-2.1,2.1-3.2s1.7-2.1,2.7-3.1
				s2.1-1.8,3.3-2.5C112.6,66.4,113.9,65.9,115.2,65.7L115.2,65.7z M111.9,41c-1.2,0-2.2,0.4-3.1,1.2c-0.9,0.8-1.6,1.9-2.3,3.3
				c-0.6,1.4-1.2,3.1-1.6,5c-0.4,1.9-0.8,4-1,6.2c-0.3,2.2-0.4,4.5-0.6,6.9c-0.1,2.4-0.2,4.7-0.3,7.1c1.1-2.1,2.2-4.3,3.3-6.6
				c1.1-2.3,2.1-4.5,3-6.7s1.7-4.3,2.4-6.2c0.7-2,1.2-3.7,1.4-5.2c0.3-1.5,0.3-2.7,0.1-3.6C113.2,41.4,112.7,41,111.9,41L111.9,41z
				 M113.4,77.2c0.4-0.9,0.6-1.9,0.7-2.9c0.1-1,0-1.8-0.3-2.5s-0.8-1.1-1.5-1.3c-0.7-0.2-1.6,0-2.7,0.6c-0.9,0.5-1.7,1.1-2.3,2
				c-0.7,0.9-1.3,1.8-1.8,2.7c-0.5,1-1,1.9-1.3,2.8c-0.4,0.9-0.7,1.7-0.9,2.4c0,0.3,0,0.5,0,0.8s0,0.5,0,0.8l0.5,0.1
				c0.7,0.2,1.5,0.1,2.4-0.1c0.9-0.2,1.9-0.5,2.8-1c1-0.5,1.8-1.1,2.6-1.8C112.4,78.9,113,78.1,113.4,77.2L113.4,77.2z M155.7,85.4
				c1,4.4,1.3,8.2,1,11.4s-1,5.8-2.1,7.9c-1.1,2.1-2.6,3.7-4.3,4.8c-1.8,1.1-3.7,1.8-5.7,2.1s-4.1,0.3-6.2-0.1c-2.1-0.4-4-1.1-5.8-2
				s-3-2-3.7-3.1c-0.7-1.2-1.1-2.4-1-3.7c0-1.3,0.4-2.6,1.1-4s1.6-2.8,2.8-4.2c1.1-1.4,2.4-2.8,3.9-4.2s3-2.7,4.5-3.9
				c0.8-0.7,1.5-1.2,2-1.5s0.8-0.5,1.1-0.6c0.2-0.1,0.4-0.1,0.4,0s0,0.3-0.1,0.5c-0.3,0.5-0.8,1.3-1.7,2.3L145,85
				c0.1,0,0,0.2-0.5,0.7c-0.4,0.5-0.9,1.1-1.5,1.7c-0.7,0.7-1.5,1.5-2.3,2.4c-1.4,0.7-2.7,1.6-4,2.6c-1.3,1.1-2.3,2.2-3.2,3.4
				c-0.9,1.2-1.5,2.4-2,3.6c-0.4,1.2-0.5,2.3-0.3,3.3s0.9,1.8,1.9,2.4c1,0.6,2.5,0.9,4.4,0.9c2,0,3.7-0.3,5.1-1
				c1.4-0.6,2.5-1.6,3.3-2.7c0.8-1.2,1.5-2.5,1.9-4.1s0.7-3.3,0.9-5.1c0.2-1.8,0.2-3.7,0.1-5.7s-0.1-4-0.3-6c-0.9,1.7-1.9,3.2-3,4.6
				c-1,1.1-2.1,2.2-3.4,3.1c-1.3,0.9-2.8,1.4-4.4,1.4c-2.5,0-4.5-0.6-5.9-1.8s-2.3-2.8-2.7-4.8c-0.4-2-0.2-4.3,0.3-6.7
				c0.6-2.5,1.6-5,3.1-7.6c0.6-1,1.1-1.6,1.7-2c0.5-0.4,1-0.4,1.3-0.3c0.4,0.2,0.6,0.6,0.7,1.4c0.1,0.7-0.1,1.7-0.5,2.9
				c-0.8,2.4-1,4.4-0.8,6s0.7,3,1.5,4c0.7,1,1.6,1.7,2.6,2.2s1.8,0.7,2.5,0.7c1.3,0,2.3-0.4,3.1-1.2c0.8-0.8,1.5-1.9,2.1-3.1
				c0.6-1.2,1-2.6,1.3-4s0.6-2.8,0.9-4s0.6-2.3,0.9-3.1c0.3-0.8,0.7-1.2,1.2-1.2c0.3,0,0.7,0.3,1,0.8s0.7,1.2,0.9,2
				c0.3,0.8,0.6,1.8,0.8,2.9c0.3,1.1,0.5,2.2,0.7,3.3C154.9,79.1,155.3,82.1,155.7,85.4L155.7,85.4z M174.2,67.2
				c1.8,0,3.5,0.4,5.1,1.1s3,1.7,4.2,3s2.2,2.7,2.9,4.4c0.7,1.7,1.1,3.5,1.1,5.5c0,1.9-0.4,3.8-1.1,5.5s-1.7,3.2-2.9,4.4
				c-1.2,1.3-2.6,2.3-4.2,3s-3.3,1.1-5.1,1.1c-1.8,0-3.5-0.4-5.1-1.1c-1.6-0.7-3-1.7-4.2-3s-2.1-2.7-2.8-4.4c-0.7-1.7-1-3.5-1-5.5
				c0-1.9,0.3-3.8,1-5.5s1.6-3.2,2.8-4.4c1.2-1.3,2.6-2.3,4.2-3C170.7,67.6,172.4,67.2,174.2,67.2L174.2,67.2z M180.3,90.6
				c1.1-0.3,2-0.8,2.8-1.6s1.5-1.7,1.9-2.9c0.5-1.1,0.8-2.4,0.9-3.8c0.1-1.4,0-2.8-0.3-4.3c-0.3-1.4-0.9-2.8-1.6-3.9
				c-0.7-1.2-1.6-2.2-2.5-3s-1.9-1.4-3-1.7c-1.1-0.3-2.2-0.4-3.2-0.1c-1.1,0.3-2.1,0.8-2.9,1.6c-0.8,0.8-1.5,1.7-1.9,2.8
				c-0.5,1.1-0.8,2.4-0.9,3.7c-0.1,1.4,0,2.8,0.4,4.3c0.3,1.4,0.9,2.8,1.6,4s1.5,2.2,2.5,3s2,1.3,3,1.7S179.2,90.9,180.3,90.6
				L180.3,90.6z"/>
			<path class="st3" d="M67.6,116.1c0-0.7-0.2-1.4-0.7-2c-0.2-0.3-0.5-0.5-0.8-0.7s-0.8-0.4-1.3-0.6s-1.1-0.3-1.8-0.5
				c-0.7-0.1-1.5-0.2-2.5-0.2c-0.9,0-1.8,0.1-2.7,0.3s-1.7,0.4-2.4,0.7s-1.4,0.7-1.9,1.1c-0.5,0.4-0.9,0.8-1.1,1.3
				c-0.2,0.5-0.3,0.9-0.2,1.4s0.4,1,1,1.5c0.5,0.5,1.3,1,2.4,1.4c1,0.4,2.3,0.9,4,1.2c1.5,0.3,2.8,0.7,4,1c1.2,0.4,2.3,0.8,3.1,1.3
				c0.9,0.5,1.5,1.1,2,1.8s0.7,1.6,0.7,2.6c0,1-0.2,1.9-0.7,2.7s-1.1,1.4-1.9,1.9c-0.8,0.5-1.7,0.8-2.8,1.1
				c-1.1,0.2-2.3,0.3-3.6,0.3s-2.5-0.1-3.7-0.4c-1.2-0.2-2.3-0.6-3.2-1s-1.7-1-2.3-1.6s-0.8-1.3-0.8-2c0-0.4,0.1-0.7,0.3-1
				c0.2-0.2,0.4-0.4,0.7-0.5s0.6-0.1,0.9-0.1c0.3,0,0.6,0.1,0.9,0.3c0.2,0.1,0.4,0.4,0.5,0.7c0.1,0.3,0.1,0.6,0.1,1
				c-0.1,0.3-0.2,0.6-0.5,0.9c-0.3,0.3-0.6,0.5-1.1,0.6c0.2,0.3,0.5,0.6,1.1,0.9c0.5,0.3,1.2,0.6,1.9,0.8s1.5,0.4,2.3,0.6
				c0.8,0.1,1.5,0.2,2.2,0.2c1.1,0,2.2-0.2,3.2-0.5s1.8-0.7,2.5-1.2s1.1-1.1,1.3-1.7c0.2-0.6,0.2-1.3-0.1-2c-0.3-0.7-1-1.3-2-2
				c-1-0.6-2.4-1.2-4.2-1.7c-1.7-0.5-3.2-0.9-4.5-1.2c-1.3-0.4-2.4-0.7-3.3-1.2c-0.9-0.4-1.6-1-2-1.6c-0.5-0.6-0.7-1.5-0.7-2.5
				c0-0.7,0.2-1.3,0.5-1.9c0.3-0.6,0.8-1.1,1.3-1.5c0.6-0.5,1.2-0.8,2-1.2c0.7-0.3,1.5-0.6,2.3-0.8s1.6-0.4,2.5-0.5
				c0.8-0.1,1.6-0.2,2.4-0.2c1.1,0,2.2,0.1,3.1,0.3c0.9,0.2,1.7,0.5,2.4,0.8c0.7,0.4,1.2,0.8,1.6,1.2c0.4,0.5,0.6,1,0.7,1.5
				c0.1,0.5,0.1,1-0.1,1.3c-0.1,0.4-0.3,0.7-0.5,0.9s-0.5,0.4-0.8,0.5s-0.6,0.2-0.9,0.2c-0.2,0-0.4,0-0.6-0.1
				c-0.2-0.1-0.4-0.2-0.5-0.3s-0.2-0.3-0.3-0.5s-0.1-0.4-0.1-0.5s0-0.4,0.1-0.6c0.1-0.2,0.2-0.3,0.3-0.5c0.1-0.1,0.3-0.3,0.5-0.3
				c0.2-0.1,0.4-0.1,0.7-0.1c0.2,0,0.3,0,0.5,0.1s0.4,0.1,0.5,0.2C67.2,115.9,67.4,116,67.6,116.1L67.6,116.1z M83.5,125.1
				c0.2,0,0.2,0.1,0.2,0.3c0,0,0,0.1-0.1,0.3s-0.2,0.3-0.4,0.6c-0.2,0.2-0.4,0.5-0.7,0.8s-0.5,0.5-0.8,0.7s-0.6,0.4-1,0.6
				c-0.4,0.2-0.7,0.2-1.2,0.2c-0.4,0-0.8-0.1-1.1-0.3s-0.5-0.5-0.7-0.8s-0.3-0.7-0.4-1c-0.1-0.4-0.2-0.7-0.3-1s-0.1-0.6-0.2-0.8
				c0-0.2-0.1-0.3-0.2-0.3c-0.2,0.8-0.4,1.5-0.7,2.2c-0.1,0.3-0.3,0.5-0.4,0.8c-0.2,0.3-0.3,0.5-0.5,0.7c-0.2,0.2-0.4,0.4-0.6,0.5
				c-0.2,0.1-0.4,0.2-0.7,0.2c-0.4,0-0.8-0.1-1.1-0.3s-0.6-0.5-0.9-0.9c-0.3-0.4-0.5-0.8-0.6-1.3c-0.2-0.5-0.3-1-0.4-1.5
				c-0.1-0.5-0.2-1-0.2-1.6c0-0.5,0-1,0-1.5c0-0.4,0.1-0.8,0.3-1.1s0.4-0.6,0.6-0.7c0.2-0.2,0.4-0.2,0.6-0.2c0.2,0,0.3,0.1,0.3,0.3
				c0,0.4,0,0.8,0.1,1.3c0,0.5,0.1,0.9,0.2,1.4c0.1,0.5,0.2,0.9,0.3,1.4c0.1,0.4,0.3,0.8,0.4,1.2c0.1,0.3,0.3,0.6,0.5,0.8
				s0.4,0.3,0.6,0.3c0.4,0,0.7-0.2,1-0.5s0.5-0.7,0.7-1.2s0.3-1,0.5-1.6c0.1-0.6,0.2-1.1,0.4-1.6c0.1-0.5,0.2-0.9,0.3-1.2
				s0.2-0.5,0.4-0.5c0.3,0,0.5,0.2,0.7,0.6c0.2,0.4,0.4,0.8,0.5,1.4c0.2,0.6,0.3,1.2,0.4,1.8c0.1,0.7,0.3,1.3,0.5,1.8
				c0.2,0.6,0.4,1,0.6,1.4c0.2,0.4,0.5,0.6,0.8,0.6c0.2,0,0.5-0.1,0.7-0.2c0.2-0.1,0.4-0.2,0.5-0.3c0.2-0.1,0.3-0.3,0.5-0.5l0.5-0.7
				l0.1-0.1C83.4,125.1,83.4,125.1,83.5,125.1L83.5,125.1z M87.9,125.1c0.1,0.1,0.3,0.4,0.4,0.7c0.2,0.3,0.3,0.7,0.4,1.2
				c0.1,0.4,0,0.9-0.1,1.4c-0.2,0.5-0.5,1-1,1.4s-1.1,0.7-1.6,0.8s-1,0-1.4-0.1s-0.8-0.4-1.1-0.7s-0.6-0.6-0.8-0.9
				c-0.1-0.1-0.1-0.2-0.1-0.3s0.1-0.1,0.1-0.1c0.1,0,0.1,0,0.2,0c0.1,0,0.1,0.1,0.2,0.2c0.2,0.4,0.4,0.6,0.6,0.8
				c0.2,0.1,0.4,0.2,0.6,0.2c0.2,0,0.4,0,0.5-0.1s0.2-0.1,0.3-0.2c0,0,0.1-0.1,0.2-0.2c0.1-0.1,0.2-0.2,0.3-0.4s0.2-0.4,0.2-0.7
				c0-0.3,0-0.6-0.1-1.1s-0.4-0.9-0.7-1.3c-0.3-0.4-0.6-0.8-1-1.1l-0.6,0.8c-0.1,0.1-0.2,0.2-0.4,0.1c-0.1-0.1-0.2-0.2-0.1-0.4
				l0.6-1c-0.2-0.2-0.4-0.4-0.6-0.6c-0.2-0.2-0.3-0.4-0.4-0.6c-0.2-0.3-0.3-0.7-0.4-1.1c-0.1-0.4-0.1-0.8,0.1-1.2
				c0.1-0.4,0.4-0.7,0.8-0.9c0.4-0.3,1.1-0.4,2-0.4c0.5,0,0.8,0.1,1,0.3s0.3,0.4,0.3,0.7s-0.1,0.6-0.3,1s-0.4,0.8-0.6,1.3
				c0.2,0.2,0.4,0.4,0.6,0.7c0.2,0.2,0.4,0.5,0.6,0.7c0.2,0.2,0.4,0.4,0.5,0.6C87.6,124.8,87.8,125,87.9,125.1L87.9,125.1z
				 M85.2,119.8c-0.2,0-0.4,0.1-0.5,0.2c-0.1,0.1-0.2,0.3-0.2,0.6c0,0.2,0.1,0.5,0.2,0.8c0.1,0.3,0.3,0.6,0.6,0.8
				c0.2-0.3,0.4-0.7,0.5-1s0.2-0.5,0.2-0.8c0-0.2,0-0.4-0.1-0.5C85.7,119.8,85.5,119.8,85.2,119.8L85.2,119.8z M93.4,125.4
				c0.3-0.6,0.6-1.3,0.9-2c0.3-0.7,0.7-1.4,1-1.9c0.3-0.6,0.7-1.1,1-1.5s0.6-0.6,0.8-0.6c0.3,0,0.5,0.2,0.7,0.6
				c0.2,0.4,0.4,0.8,0.5,1.4c0.1,0.6,0.3,1.2,0.4,1.8c0.1,0.7,0.3,1.3,0.5,1.8c0.2,0.6,0.4,1,0.6,1.4c0.2,0.4,0.5,0.6,0.8,0.6
				c0.2,0,0.5-0.1,0.7-0.2c0.2-0.1,0.4-0.2,0.5-0.3c0.2-0.1,0.3-0.3,0.5-0.5c0.1-0.1,0.2-0.2,0.3-0.3s0.1-0.2,0.2-0.3
				c0.1-0.1,0.1-0.1,0.1-0.1s0-0.1,0.1-0.1s0.1,0,0.2,0c0.1,0,0.1,0,0.2,0.1c0.1,0,0.1,0.1,0.1,0.2c0,0,0,0.1-0.1,0.3
				s-0.2,0.3-0.4,0.6c-0.2,0.2-0.4,0.5-0.7,0.8s-0.5,0.5-0.8,0.7c-0.3,0.2-0.7,0.4-1,0.6c-0.4,0.2-0.8,0.2-1.2,0.2s-0.8-0.1-1.2-0.4
				c-0.3-0.3-0.6-0.6-0.8-1s-0.4-0.8-0.6-1.3c-0.2-0.5-0.3-0.9-0.4-1.3c-0.1-0.4-0.2-0.7-0.3-1s-0.2-0.4-0.2-0.4
				c-0.2,0-0.3,0.1-0.5,0.3s-0.3,0.6-0.5,1s-0.3,0.8-0.5,1.3c-0.1,0.5-0.3,0.9-0.4,1.3c-0.1,0.4-0.2,0.8-0.3,1.1
				c-0.1,0.3-0.1,0.5-0.1,0.5c-0.1,0.5-0.2,0.9-0.3,1.3c-0.1,0.4-0.3,0.7-0.5,0.9s-0.4,0.4-0.6,0.5c-0.2,0.1-0.5,0.1-0.7,0
				c-0.1,0-0.3-0.4-0.4-1c-0.1-0.6-0.2-1.4-0.3-2.3c-0.1-0.9-0.1-2-0.1-3.2s0.1-2.4,0.2-3.6c0.1-1.2,0.3-2.4,0.6-3.6
				c0.3-1.2,0.6-2.2,1-3.1c0.4-0.9,1-1.6,1.6-2.2c0.6-0.6,1.4-0.8,2.3-0.8c0.5,0,0.8,0.2,1,0.6c0.2,0.4,0.2,0.9,0.1,1.5
				c-0.1,0.6-0.3,1.3-0.6,2.1s-0.6,1.6-1,2.5c-0.4,0.8-0.8,1.6-1.2,2.4c-0.4,0.8-0.8,1.5-1.1,2.1c0,0.5,0,1,0,1.4
				C93.4,124.5,93.4,125,93.4,125.4L93.4,125.4z M96.1,112.1c-0.4,0-0.7,0.1-1,0.4c-0.3,0.3-0.5,0.6-0.7,1s-0.4,1-0.5,1.6
				s-0.2,1.2-0.3,1.9s-0.1,1.4-0.2,2.1c0,0.7-0.1,1.5-0.1,2.2c0.3-0.7,0.7-1.3,1-2s0.7-1.4,0.9-2.1c0.3-0.7,0.5-1.3,0.8-2
				c0.2-0.6,0.4-1.2,0.4-1.6c0.1-0.5,0.1-0.8,0-1.1C96.5,112.2,96.3,112.1,96.1,112.1L96.1,112.1z M106.6,118
				c-0.4,0-0.8-0.1-1.1-0.4c-0.3-0.3-0.4-0.6-0.4-1.1c0-0.4,0.1-0.8,0.4-1c0.3-0.3,0.6-0.4,1.1-0.4c0.4,0,0.8,0.1,1.1,0.4
				c0.3,0.3,0.4,0.6,0.4,1s-0.1,0.8-0.4,1.1C107.4,117.8,107,118,106.6,118L106.6,118z M111.6,125.1c0.2,0,0.3,0.1,0.3,0.3
				c0,0-0.1,0.1-0.2,0.3s-0.3,0.3-0.5,0.6c-0.2,0.2-0.4,0.5-0.7,0.8c-0.3,0.3-0.6,0.5-0.9,0.7s-0.7,0.4-1.1,0.6
				c-0.4,0.2-0.8,0.2-1.2,0.2c-0.6,0-1-0.2-1.4-0.5c-0.3-0.3-0.6-0.7-0.7-1.1c-0.2-0.4-0.2-0.9-0.3-1.5c0-0.5,0-1,0-1.5
				c0-0.4,0-0.8,0-1.1s0-0.5-0.1-0.5c-0.1,0.3-0.3,0.6-0.5,1s-0.4,0.7-0.6,1.1c-0.2,0.3-0.4,0.6-0.5,0.9c-0.1,0.3-0.2,0.4-0.3,0.4
				c-0.1,0.1-0.1,0.1-0.2,0.2c-0.1,0-0.2,0-0.2,0c-0.1,0-0.1-0.1-0.1-0.1c0-0.1,0-0.1,0.1-0.2c0.5-0.7,0.9-1.3,1.2-2.1
				c0.4-0.7,0.7-1.4,1-2s0.6-1.1,1-1.5c0.3-0.4,0.7-0.6,1.2-0.6c0.2,0,0.3,0.1,0.4,0.3s0.2,0.5,0.2,0.9s0.1,0.8,0.1,1.2s0,0.9,0,1.4
				s0,0.9,0,1.4c0,0.4,0.1,0.8,0.1,1.2c0.1,0.4,0.2,0.6,0.3,0.9c0.1,0.2,0.3,0.3,0.6,0.3s0.5-0.1,0.7-0.2c0.3-0.1,0.5-0.2,0.7-0.3
				s0.5-0.3,0.7-0.5l0.5-0.7C111.4,125.1,111.5,125.1,111.6,125.1L111.6,125.1z M132.6,120c1.7,0.9,3,1.9,3.9,3.1
				c0.4,0.5,0.7,1,0.9,1.6c0.2,0.6,0.3,1.2,0.2,1.9c-0.1,0.7-0.3,1.4-0.8,2.1c-0.4,0.7-1.1,1.5-2.1,2.3c-0.8,0.7-1.6,1.3-2.4,1.7
				s-1.6,0.7-2.3,0.9c-0.7,0.2-1.5,0.3-2.1,0.3s-1.3-0.1-1.9-0.2c-0.6-0.1-1.2-0.3-1.7-0.6c-0.5-0.2-1-0.5-1.5-0.8
				c0,0.9,0,1.7,0,2.4s0,1.4,0,2s0,1,0,1.4s0,0.6,0.1,0.7c0,0.3,0,0.6,0,0.8c-0.1,0.2-0.2,0.3-0.3,0.3c-0.1,0-0.3-0.1-0.4-0.4
				c-0.1-0.3-0.2-0.7-0.3-1.3c0-0.2,0-0.5-0.1-0.9c0-0.4,0-0.9,0-1.5s0-1.2,0-1.9s0-1.5,0-2.3c-0.6-0.4-1-0.8-1.4-1.2
				s-0.7-0.6-0.8-0.8c-0.3-0.3-0.6-0.5-0.9-0.8s-0.6-0.5-0.9-0.8c-0.3-0.2-0.4-0.5-0.6-0.7c-0.1-0.2-0.1-0.4,0-0.5s0.3-0.1,0.6,0
				c0.3,0.1,0.6,0.3,1,0.5c0.4,0.3,0.9,0.6,1.4,1c0.5,0.4,1.1,0.8,1.7,1.3c0-1.1,0-2.1,0-3.2c0-1.1,0-2.2,0-3.2c0-1.1,0-2.1,0-3
				c0-1,0-1.8,0-2.6c-0.6,0.3-1.2,0.6-1.8,0.9c-0.6,0.3-1.2,0.5-1.7,0.8c-0.6,0.2-1.1,0.4-1.7,0.6c-0.5,0.2-1.1,0.3-1.5,0.3
				c-1,0.1-1.8,0.1-2.5,0c-0.7-0.2-1.3-0.4-1.8-0.7s-0.9-0.6-1.2-1c-0.3-0.4-0.5-0.8-0.7-1.1c-0.1-0.4-0.2-0.7-0.2-0.9
				c0-0.3,0.1-0.4,0.2-0.5c0.1,0,0.1,0,0.2,0s0.2,0.1,0.3,0.2c0.1,0.1,0.3,0.3,0.5,0.5c0.3,0.3,0.8,0.5,1.3,0.5
				c0.5,0.1,1.1,0.1,1.7,0s1.3-0.3,2-0.5s1.4-0.5,2-0.7c0.7-0.3,1.3-0.6,1.9-0.9c0.6-0.3,1.1-0.6,1.6-0.8c0.5-0.3,1-0.5,1.5-0.9
				c0.5-0.3,1.1-0.6,1.8-0.9c0.6-0.3,1.3-0.5,2-0.7s1.4-0.3,2.1-0.3s1.4,0.1,2.2,0.4c0.7,0.2,1.5,0.7,2.3,1.3c0.6,0.5,1,0.9,1.3,1.3
				s0.5,0.9,0.7,1.3c0.1,0.4,0.2,0.8,0.2,1.2s-0.1,0.7-0.2,1.1C133.9,118.6,133.3,119.3,132.6,120L132.6,120z M132,114.2
				c-0.3-0.4-0.8-0.6-1.4-0.6s-1.3,0.2-2.2,0.5c-0.8,0.3-1.8,0.7-2.8,1.3c-1,0.5-2,1.1-3.1,1.6c0,0.5,0,1.2,0,1.8c0,0.7,0,1.3,0,2.1
				c0.3,0,0.7-0.1,1.2-0.3c0.5-0.1,1-0.3,1.6-0.5s1.2-0.4,1.8-0.7c0.6-0.3,1.2-0.6,1.8-0.9c0.6-0.3,1.1-0.6,1.6-1s0.9-0.7,1.2-1.1
				c0.3-0.4,0.5-0.7,0.5-1.1C132.4,115,132.3,114.6,132,114.2L132,114.2z M122.7,130.5c0.7,0.4,1.5,0.7,2.4,0.9s1.8,0.2,2.8,0.1
				c1-0.1,1.9-0.3,2.8-0.6s1.8-0.7,2.5-1.3c0.7-0.5,1.3-1.2,1.8-1.9c0.5-0.8,0.7-1.6,0.7-2.6c0-0.8-0.2-1.5-0.5-2s-0.7-0.9-1.2-1.1
				c-0.5-0.3-1.1-0.4-1.8-0.5c-0.7-0.1-1.4,0-2.1,0c-0.7,0.1-1.5,0.2-2.3,0.4s-1.5,0.4-2.1,0.6c-0.7,0.2-1.3,0.4-1.8,0.6
				s-0.9,0.3-1.2,0.5c0,1.1,0,2.3,0,3.4C122.6,128.2,122.7,129.4,122.7,130.5L122.7,130.5z M152.7,125.1c0.2,0,0.3,0.1,0.3,0.3
				c0,0,0,0.1-0.1,0.3s-0.2,0.3-0.4,0.6c-0.2,0.2-0.4,0.5-0.7,0.8c-0.3,0.3-0.5,0.5-0.8,0.7s-0.7,0.4-1,0.6
				c-0.4,0.2-0.8,0.2-1.2,0.2c-0.4,0-0.8-0.1-1.2-0.4c-0.3-0.3-0.6-0.6-0.9-0.9c-0.2-0.3-0.4-0.7-0.6-1c-0.1-0.3-0.2-0.5-0.2-0.5
				s-0.1,0.2-0.3,0.5c-0.2,0.3-0.4,0.6-0.7,1c-0.3,0.3-0.7,0.7-1.1,0.9c-0.4,0.3-0.9,0.4-1.3,0.4c-0.5,0-1-0.1-1.4-0.3
				s-0.7-0.5-0.9-0.9c-0.2-0.4-0.4-0.8-0.5-1.2c-0.1-0.5-0.1-1,0-1.5s0.3-1,0.5-1.6c0.3-0.5,0.6-1,1.1-1.5s1-0.9,1.5-1.2
				s1-0.4,1.5-0.5s0.9-0.1,1.3-0.1s0.7,0.1,1,0.2c0.3,0.1,0.5,0.2,0.6,0.3s0.2,0.2,0.1,0.3s-0.1,0.1-0.2,0.1s-0.2,0-0.3-0.1
				c-0.1-0.1-0.3-0.1-0.5-0.2c-0.2-0.1-0.5-0.1-0.8-0.1s-0.7,0.1-1,0.2c-0.3,0.1-0.7,0.4-1,0.6c-0.3,0.3-0.6,0.6-0.8,0.9
				c-0.2,0.3-0.4,0.7-0.5,1.1c-0.2,0.6-0.2,1.1-0.2,1.5s0.2,0.8,0.3,1.1c0.2,0.3,0.4,0.5,0.6,0.7s0.5,0.2,0.7,0.2
				c0.4,0,0.7-0.1,1-0.4c0.3-0.2,0.5-0.5,0.7-0.9s0.3-0.7,0.4-1.1c0.1-0.4,0.2-0.8,0.3-1.1c0.1-0.4,0.2-0.6,0.3-0.9
				c0.1-0.2,0.2-0.3,0.4-0.3c0.2,0,0.3,0.1,0.4,0.4c0.1,0.3,0.3,0.6,0.4,1c0.2,0.4,0.3,0.8,0.5,1.2s0.4,0.9,0.6,1.2
				c0.2,0.4,0.4,0.7,0.7,1c0.3,0.3,0.5,0.4,0.9,0.4c0.2,0,0.5-0.1,0.7-0.2c0.2-0.1,0.4-0.2,0.5-0.3c0.2-0.1,0.3-0.3,0.5-0.5l0.6-0.7
				C152.5,125.1,152.5,125.1,152.7,125.1L152.7,125.1z M165,125.1c0.2,0,0.3,0.1,0.3,0.3c0,0-0.1,0.1-0.2,0.3s-0.3,0.3-0.5,0.6
				c-0.2,0.2-0.4,0.5-0.7,0.8c-0.3,0.3-0.6,0.5-0.9,0.7s-0.7,0.4-1.1,0.6c-0.4,0.2-0.8,0.2-1.2,0.2c-0.6,0-1.2-0.2-1.6-0.5
				c-0.4-0.3-0.7-0.7-1-1.2s-0.4-1-0.6-1.6c-0.1-0.6-0.2-1.1-0.3-1.6c-0.1-0.5-0.1-1-0.2-1.4s-0.1-0.7-0.2-0.8s-0.2-0.2-0.3-0.2
				c-0.1-0.1-0.3-0.1-0.5-0.1s-0.3-0.1-0.5-0.1s-0.3-0.1-0.4-0.1s-0.1,0-0.2-0.1c-0.1,0.3-0.2,0.6-0.4,1.1c-0.2,0.4-0.4,0.9-0.6,1.3
				c-0.2,0.5-0.5,0.9-0.7,1.3c-0.3,0.4-0.5,0.8-0.7,1.1c-0.1,0.1-0.1,0.1-0.2,0.2c-0.1,0-0.1,0-0.2,0c0,0-0.1-0.1-0.1-0.2
				c0-0.1,0-0.2,0.1-0.3c0.5-0.7,0.9-1.3,1.2-1.9c0.3-0.5,0.5-1,0.7-1.4s0.3-0.7,0.3-0.9c0.1-0.2,0.1-0.4,0.1-0.5
				c-0.2-0.1-0.4-0.1-0.5-0.2c-0.2,0-0.3-0.1-0.3-0.2c-0.3-0.2-0.5-0.5-0.5-0.9c0-0.3,0.1-0.5,0.3-0.7c0.2-0.2,0.4-0.3,0.7-0.3
				c0.3,0,0.5,0.1,0.7,0.3s0.3,0.4,0.3,0.6c0,0.1,0,0.1,0,0.2c0,0.1,0,0.2,0,0.4c0.3,0.1,0.6,0.1,1,0.2c0.4,0,0.8,0.1,1.3,0.1
				c0.4,0,0.8,0.1,1.2,0.1c0.3,0.1,0.6,0.2,0.7,0.3c0.1,0.2,0.2,0.4,0.3,0.8c0.1,0.4,0.2,0.8,0.3,1.3c0.1,0.5,0.2,0.9,0.3,1.4
				c0.1,0.5,0.2,0.9,0.4,1.4c0.2,0.4,0.3,0.8,0.6,1c0.2,0.3,0.5,0.4,0.8,0.4c0.2,0,0.5-0.1,0.7-0.2c0.3-0.1,0.5-0.2,0.7-0.3
				s0.5-0.3,0.7-0.5l0.5-0.7l0.1-0.1C164.9,125.1,164.9,125.1,165,125.1L165,125.1z"/>
		</g>
	</g>
</g>
</svg>
