<?xml version="1.0" encoding="UTF-8" standalone="no"?>
<!-- Created with Inkscape (http://www.inkscape.org/) -->

<svg
   width="105.29366mm"
   height="62.54052mm"
   viewBox="0 0 105.29366 62.54052"
   version="1.1"
   id="svg369"
   inkscape:version="1.1.2 (0a00cf5339, 2022-02-04)"
   sodipodi:docname="Logo of Bancontact.svg"
   xmlns:inkscape="http://www.inkscape.org/namespaces/inkscape"
   xmlns:sodipodi="http://sodipodi.sourceforge.net/DTD/sodipodi-0.dtd"
   xmlns="http://www.w3.org/2000/svg"
   xmlns:svg="http://www.w3.org/2000/svg">
  <sodipodi:namedview
     id="namedview371"
     pagecolor="#ffffff"
     bordercolor="#666666"
     borderopacity="1.0"
     inkscape:pageshadow="2"
     inkscape:pageopacity="0.0"
     inkscape:pagecheckerboard="0"
     inkscape:document-units="mm"
     showgrid="false"
     fit-margin-top="0"
     fit-margin-left="0"
     fit-margin-right="0"
     fit-margin-bottom="0"
     inkscape:zoom="0.64052329"
     inkscape:cx="99.137691"
     inkscape:cy="384.84159"
     inkscape:window-width="1850"
     inkscape:window-height="1136"
     inkscape:window-x="70"
     inkscape:window-y="27"
     inkscape:window-maximized="1"
     inkscape:current-layer="layer1" />
  <defs
     id="defs366" />
  <g
     inkscape:label="Layer 1"
     inkscape:groupmode="layer"
     id="layer1"
     transform="translate(-78.870318,-46.751662)">
    <path
       d="m 131.51714,47.237875 h 44.44169 c 5.84799,0 7.71894,4.232404 7.71894,7.310952 v 46.947153 c 0,2.924 -1.87095,7.30999 -7.71894,7.30999 H 87.074493 c -5.847037,0 -7.717962,-4.38599 -7.717962,-7.30999 V 54.548827 c 0,-3.078548 1.870925,-7.310952 7.717962,-7.310952 z"
       style="fill:#ffffff;fill-opacity:1;fill-rule:nonzero;stroke:#1a68bb;stroke-width:0.972426;stroke-linecap:butt;stroke-linejoin:miter;stroke-miterlimit:4;stroke-dasharray:none;stroke-opacity:1"
       id="path60" />
    <path
       d="m 110.58166,82.936372 h 16.26535 l 9.0734,-9.684902 h 16.28551 L 138.35196,88.558778 H 87.254004 V 78.325747 h 27.410326 l -4.08267,4.610625"
       style="fill:#1a68bb;fill-opacity:1;fill-rule:nonzero;stroke:none;stroke-width:0.959947"
       id="path62" />
    <path
       d="m 152.20592,73.25147 h -16.28551 l -9.0734,9.69162 h -16.36614 l 13.85395,-15.27755 h 51.12387 v 10.147596 h -27.38246 l 4.12969,-4.561666"
       style="fill:#fddd16;fill-opacity:1;fill-rule:nonzero;stroke:none;stroke-width:0.959947"
       id="path64" />
    <path
       d="m 168.94547,63.892949 c -0.78044,0.461734 -1.71544,0.692122 -2.65137,0.692122 -2.65041,0 -4.99078,-1.923734 -4.99078,-4.617343 0,-2.69361 2.10518,-4.618304 4.83527,-4.618304 0.93497,0 2.02644,0.154559 2.80688,0.616285 v 2.848162 c -0.62398,-0.538529 -1.48216,-0.69308 -2.41716,-0.69308 -0.93595,0 -2.02739,0.769876 -2.02739,1.923732 0,1.078021 1.09144,1.693346 2.02739,1.693346 1.01372,0 1.63672,-0.07679 2.41716,-0.615325 v 2.770405"
       style="fill:#1a68bb;fill-opacity:1;fill-rule:nonzero;stroke:none;stroke-width:0.959947"
       id="path66" />
    <path
       d="m 175.57197,61.737869 v 2.15508 c -2.33841,1.693346 -4.98981,0.308143 -4.98981,-1.693346 v -4.002016 h -1.1692 v -2.616814 h 1.1692 V 53.42569 l 3.19662,-1.692386 v 3.847469 h 1.79319 v 2.386425 h -1.63767 v 3.693876 c 0,0.692122 1.17018,0.615327 1.63767,0.07679"
       style="fill:#1a68bb;fill-opacity:1;fill-rule:nonzero;stroke:none;stroke-width:0.959947"
       id="path68" />
    <path
       d="m 152.49389,58.428932 0.46749,-2.463223 c 3.19662,-1.078019 7.79671,-0.461734 7.79671,2.386428 v 6.079344 h -2.96242 l -0.15646,-0.308144 c -1.32472,0.846673 -6.39325,1.231612 -5.69153,-2.693609 0.38975,-2.308673 3.11888,-2.924 4.75655,-2.924 0.85724,0 1.16921,-0.769875 0.0778,-0.846673 -0.93595,-0.07679 -2.88465,0.07679 -4.28809,0.769877"
       style="fill:#1a68bb;fill-opacity:1;fill-rule:nonzero;stroke:none;stroke-width:0.959947"
       id="path70" />
    <path
       d="m 98.539122,58.428932 0.467514,-2.463223 c 3.197574,-1.078019 7.797634,-0.461734 7.797634,2.386428 v 6.079344 h -3.04111 l -0.0778,-0.308144 c -1.3257,0.846673 -6.471969,1.231612 -5.692508,-2.693609 0.389745,-2.308673 3.042088,-2.924 4.678788,-2.924 0.85821,0 1.16923,-0.769875 0.15646,-0.846673 -0.93595,-0.07679 -2.96337,0.07679 -4.289067,0.769877"
       style="fill:#1a68bb;fill-opacity:1;fill-rule:nonzero;stroke:none;stroke-width:0.959947"
       id="path72" />
    <path
       d="m 135.18413,60.044523 c 0,2.693612 -2.26067,4.618303 -4.91108,4.618303 -2.72914,0 -4.98981,-2.001489 -4.98981,-4.695098 0,-2.615854 2.26067,-4.695099 4.91108,-4.695099 2.72914,0 4.98981,2.079245 4.98981,4.771894"
       style="fill:#1a68bb;fill-opacity:1;fill-rule:nonzero;stroke:none;stroke-width:0.959947"
       id="path74" />
    <path
       d="m 151.40243,61.737869 v 2.15508 c -2.41714,1.693346 -5.0685,0.308143 -5.0685,-1.693346 v -4.002016 h -1.09147 v -2.616814 h 1.09147 V 53.42569 l 3.27436,-1.692386 v 3.847469 h 1.79414 v 2.386425 h -1.71637 v 3.693876 c 0,0.692122 1.17016,0.615327 1.71637,0.07679"
       style="fill:#1a68bb;fill-opacity:1;fill-rule:nonzero;stroke:none;stroke-width:0.959947"
       id="path76" />
    <path
       d="m 93.237341,51.11702 c 2.962417,0 5.145317,3.925221 2.417161,6.388444 3.429876,2.077325 1.870926,6.772424 -1.949647,6.849219 H 87.312563 V 51.11702 h 5.924778"
       style="fill:#1a68bb;fill-opacity:1;fill-rule:nonzero;stroke:none;stroke-width:0.959947"
       id="path78" />
    <path
       d="m 124.73608,63.892949 c -0.77949,0.461734 -1.63672,0.692122 -2.57265,0.692122 -2.72818,0 -4.9898,-1.923734 -4.9898,-4.617343 0,-2.69361 2.10516,-4.618304 4.75652,-4.618304 0.935,0 2.02644,0.154559 2.80593,0.616285 v 2.848162 c -0.623,-0.538529 -1.40249,-0.69308 -2.33844,-0.69308 -1.01369,0 -2.10516,0.769876 -2.10516,1.923732 0,1.078021 1.16921,1.693346 2.10516,1.693346 0.93595,0 1.55895,-0.07679 2.33844,-0.615325 v 2.770405"
       style="fill:#1a68bb;fill-opacity:1;fill-rule:nonzero;stroke:none;stroke-width:0.959947"
       id="path80" />
    <path
       d="m 116.5506,58.659321 v 5.77216 h -3.19662 v -5.002283 c 0,-1.770143 -2.5736,-1.693345 -2.5736,0 v 5.002283 h -3.19662 v -8.850708 h 3.27437 v 0.692119 c 2.65136,-2.000529 5.69247,-0.153579 5.69247,2.386429"
       style="fill:#1a68bb;fill-opacity:1;fill-rule:nonzero;stroke:none;stroke-width:0.959947"
       id="path82" />
    <path
       d="m 144.77498,58.659321 v 5.77216 h -3.19663 v -5.002283 c 0,-1.770143 -2.57267,-1.693345 -2.57267,0 v 5.002283 h -3.19757 v -8.850708 h 3.19757 v 0.692119 c 2.72819,-2.000529 5.7693,-0.153579 5.7693,2.386429"
       style="fill:#1a68bb;fill-opacity:1;fill-rule:nonzero;stroke:none;stroke-width:0.959947"
       id="path84" />
    <path
       d="m 156.78198,57.659055 c 1.09146,0.07679 0.77949,0.846673 -0.0778,0.846673 -1.63767,0 -4.3668,0.615327 -4.75655,2.924 -0.70172,3.925221 4.36681,3.540282 5.69153,2.693609 l 0.15646,0.308144 h 2.96242 v -6.079344 c 0,-2.848162 -4.60009,-3.464447 -7.79671,-2.386428 l -0.46749,2.463223 c 1.40344,-0.693079 3.35213,-0.846672 4.28809,-0.769877"
       style="fill:#1a68bb;fill-opacity:1;fill-rule:nonzero;stroke:none;stroke-width:0.959947"
       id="path86" />
    <path
       d="m 102.82819,57.659055 c 1.01274,0.07679 0.70172,0.846673 -0.15647,0.846673 -1.63669,0 -4.289034,0.615327 -4.678779,2.924 -0.779461,3.925221 4.366809,3.540282 5.692509,2.693609 l 0.0778,0.308144 h 3.04111 v -6.079344 c 0,-2.848162 -4.60006,-3.464447 -7.797635,-2.386428 l -0.467514,2.463223 c 1.325697,-0.693079 3.353109,-0.846672 4.289069,-0.769877"
       style="fill:#1a68bb;fill-opacity:1;fill-rule:nonzero;stroke:none;stroke-width:0.959947"
       id="path88" />
    <path
       d="m 130.19432,55.272629 c -2.65041,0 -4.91108,2.079245 -4.91108,4.695099 0,2.693609 2.26067,4.695098 4.98981,4.695098 2.65041,0 4.91108,-1.924691 4.91108,-4.618303 0,-2.692649 -2.26067,-4.771894 -4.98981,-4.771894"
       style="fill:#1a68bb;fill-opacity:1;fill-rule:nonzero;stroke:none;stroke-width:0.959947"
       id="path90" />
    <path
       d="m 149.68606,61.661074 v -3.693876 h 1.71637 v -2.386425 h -1.79414 v -3.847469 l -3.27436,1.692386 v 2.155083 h -1.09147 v 2.616814 h 1.09147 v 4.002016 c 0,2.001489 2.65136,3.386692 5.0685,1.693346 v -2.15508 c -0.54621,0.538532 -1.71637,0.615327 -1.71637,-0.07679"
       style="fill:#1a68bb;fill-opacity:1;fill-rule:nonzero;stroke:none;stroke-width:0.959947"
       id="path92" />
    <path
       d="m 87.312563,51.11702 v 13.237663 h 6.392292 c 3.820573,-0.07679 5.379523,-4.771894 1.949647,-6.849219 2.728156,-2.463223 0.545256,-6.388444 -2.417161,-6.388444 h -5.924778"
       style="fill:#1a68bb;fill-opacity:1;fill-rule:nonzero;stroke:none;stroke-width:0.959947"
       id="path94" />
    <path
       d="m 124.73608,61.122544 c -0.77949,0.53853 -1.40249,0.615325 -2.33844,0.615325 -0.93595,0 -2.10516,-0.615325 -2.10516,-1.693346 0,-1.153856 1.09147,-1.923732 2.10516,-1.923732 0.93595,0 1.71544,0.154559 2.33844,0.69308 v -2.848162 c -0.77949,-0.461734 -1.87093,-0.616285 -2.80593,-0.616285 -2.65136,0 -4.75652,1.924694 -4.75652,4.618304 0,2.693609 2.26162,4.617343 4.9898,4.617343 0.93593,0 1.79316,-0.230396 2.57265,-0.692122 v -2.770405"
       style="fill:#1a68bb;fill-opacity:1;fill-rule:nonzero;stroke:none;stroke-width:0.959947"
       id="path96" />
    <path
       d="m 110.85813,56.272892 v -0.692119 h -3.27437 v 8.850708 h 3.19662 v -5.002283 c 0,-1.693345 2.5736,-1.770143 2.5736,0 v 5.002283 h 3.19662 v -5.77216 c 0,-2.540019 -3.04111,-4.386958 -5.69247,-2.386429"
       style="fill:#1a68bb;fill-opacity:1;fill-rule:nonzero;stroke:none;stroke-width:0.959947"
       id="path98" />
    <path
       d="m 139.00568,56.272892 v -0.692119 h -3.19757 v 8.850708 h 3.19757 v -5.002283 c 0,-1.693345 2.57267,-1.770143 2.57267,0 v 5.002283 h 3.19663 v -5.77216 c 0,-2.540019 -3.04111,-4.386958 -5.7693,-2.386429"
       style="fill:#1a68bb;fill-opacity:1;fill-rule:nonzero;stroke:none;stroke-width:0.959947"
       id="path100" />
    <path
       d="m 168.94547,61.122544 c -0.78044,0.53853 -1.40344,0.615325 -2.41716,0.615325 -0.93595,0 -2.02739,-0.615325 -2.02739,-1.693346 0,-1.153856 1.09144,-1.923732 2.02739,-1.923732 0.935,0 1.79318,0.154559 2.41716,0.69308 v -2.848162 c -0.78044,-0.461734 -1.87191,-0.616285 -2.80688,-0.616285 -2.73009,0 -4.83527,1.924694 -4.83527,4.618304 0,2.693609 2.34037,4.617343 4.99078,4.617343 0.93593,0 1.87093,-0.230396 2.65137,-0.692122 v -2.770405"
       style="fill:#1a68bb;fill-opacity:1;fill-rule:nonzero;stroke:none;stroke-width:0.959947"
       id="path102" />
    <path
       d="m 173.9343,61.661074 v -3.693876 h 1.63767 v -2.386425 h -1.79319 v -3.847469 l -3.19662,1.692386 v 2.155083 h -1.1692 v 2.616814 h 1.1692 v 4.002016 c 0,2.001489 2.6514,3.386692 4.98981,1.693346 v -2.15508 c -0.46749,0.538532 -1.63767,0.615327 -1.63767,-0.07679"
       style="fill:#1a68bb;fill-opacity:1;fill-rule:nonzero;stroke:none;stroke-width:0.959947"
       id="path104" />
    <path
       d="m 132.06528,60.044523 c 0,1.001224 -0.85723,1.770141 -1.79223,1.770141 -1.0137,0 -1.79319,-0.768917 -1.79319,-1.846936 0,-1.153857 0.77949,-1.770141 1.79319,-1.770141 0.935,0 1.79223,0.616284 1.79223,1.846936"
       style="fill:#1a68bb;fill-opacity:1;fill-rule:nonzero;stroke:none;stroke-width:0.959947"
       id="path106" />
    <path
       d="m 90.976671,59.04426 h 1.403439 c 1.793184,0 1.948695,2.693609 0.07782,2.693609 H 90.976726 V 59.04426"
       style="fill:#1a68bb;fill-opacity:1;fill-rule:nonzero;stroke:none;stroke-width:0.959947"
       id="path108" />
    <path
       d="m 103.60765,60.506257 v 1.078021 c 0,1.230652 -2.41713,1.538796 -2.41713,0.307184 0,-1.153857 1.71541,-1.462 2.41713,-1.385205"
       style="fill:#1a68bb;fill-opacity:1;fill-rule:nonzero;stroke:none;stroke-width:0.959947"
       id="path110" />
    <path
       d="m 157.56147,60.506257 v 1.078021 c 0,1.230652 -2.33844,1.538796 -2.33844,0.307184 0,-1.153857 1.71446,-1.462 2.33844,-1.385205"
       style="fill:#1a68bb;fill-opacity:1;fill-rule:nonzero;stroke:none;stroke-width:0.959947"
       id="path112" />
    <path
       d="m 92.38011,53.810629 c 1.63672,0.693082 1.091464,2.462263 0.07782,2.462263 h -1.481208 v -2.462263 c 0,-0.07679 1.013694,-0.15358 1.403439,0"
       style="fill:#1a68bb;fill-opacity:1;fill-rule:nonzero;stroke:none;stroke-width:0.959947"
       id="path114" />
    <path
       d="m 130.27305,58.197587 c -1.0137,0 -1.79319,0.616284 -1.79319,1.770141 0,1.078019 0.77949,1.846936 1.79319,1.846936 0.935,0 1.79223,-0.768917 1.79223,-1.770141 0,-1.230652 -0.85723,-1.846936 -1.79223,-1.846936"
       style="fill:#ffffff;fill-opacity:1;fill-rule:nonzero;stroke:none;stroke-width:0.959947"
       id="path116" />
    <path
       d="m 155.22303,61.891462 c 0,1.231612 2.33844,0.923468 2.33844,-0.307184 v -1.078021 c -0.62398,-0.07679 -2.33844,0.231348 -2.33844,1.385205"
       style="fill:#ffffff;fill-opacity:1;fill-rule:nonzero;stroke:none;stroke-width:0.959947"
       id="path118" />
    <path
       d="m 90.976671,53.810629 v 2.462263 h 1.481209 c 1.013694,0 1.55895,-1.769181 -0.07782,-2.462263 -0.389744,-0.15358 -1.403439,-0.07679 -1.403439,0"
       style="fill:#ffffff;fill-opacity:1;fill-rule:nonzero;stroke:none;stroke-width:0.959947"
       id="path120" />
    <path
       d="m 101.19052,61.891462 c 0,1.231612 2.41713,0.923468 2.41713,-0.307184 v -1.078021 c -0.70172,-0.07679 -2.41713,0.231348 -2.41713,1.385205"
       style="fill:#ffffff;fill-opacity:1;fill-rule:nonzero;stroke:none;stroke-width:0.959947"
       id="path122" />
    <path
       d="m 90.976671,61.737869 h 1.481209 c 1.870925,0 1.715414,-2.693609 -0.07782,-2.693609 h -1.403439 v 2.693609"
       style="fill:#ffffff;fill-opacity:1;fill-rule:nonzero;stroke:none;stroke-width:0.959947"
       id="path124" />
    <path
       d="m 126.97468,100.49572 c 0,-3.079513 -1.24793,-5.080042 -4.36681,-5.080042 -2.96334,0 -4.75652,2.231875 -4.75652,4.771892 0,2.69361 2.10516,4.69414 5.0685,4.69414 2.57267,0 3.89834,-1.00026 3.89834,-1.00026 v -2.61586 c -1.09144,0.53853 -2.26067,0.92347 -3.11885,0.92347 -1.71447,0 -2.65042,-0.46269 -2.65042,-1.69334 h 5.92576"
       style="fill:#1a68bb;fill-opacity:1;fill-rule:nonzero;stroke:none;stroke-width:0.959947"
       id="path126" />
    <path
       d="m 93.447574,100.95745 2.651367,-3.771631 v 7.465511 h 3.430855 l 0.07782,-12.929527 h -3.508625 l -2.651366,3.847466 -2.651367,-3.847466 h -3.507645 l 0.07782,12.929527 h 3.429903 v -7.465511 l 2.651366,3.771631"
       style="fill:#1a68bb;fill-opacity:1;fill-rule:nonzero;stroke:none;stroke-width:0.959947"
       id="path128" />
    <path
       d="m 130.71656,99.49545 c 0.31197,-0.770836 1.09144,-1.386163 2.02644,-1.386163 0.54716,0 1.09241,0.230397 1.48216,0.53853 v -2.8472 c -0.2332,-0.308144 -0.70172,-0.461737 -1.17019,-0.461737 -0.77946,0 -1.87092,0.461737 -2.33841,1.077061 v -0.923468 h -3.11888 v 9.158857 h 3.11888 v -5.15588"
       style="fill:#1a68bb;fill-opacity:1;fill-rule:nonzero;stroke:none;stroke-width:0.959947"
       id="path130" />
    <path
       d="m 104.44088,104.11279 c 1.09146,0.46174 2.41716,0.61533 3.27534,0.61533 3.27437,0 4.28809,-1.69335 4.28809,-3.15535 0,-1.615586 -1.71544,-2.539054 -3.27439,-2.77136 -0.23429,0 -0.85723,-0.15358 -0.85723,-0.461734 0,-0.230397 0.15565,-0.538532 0.935,-0.538532 0.62395,0 1.71541,0.231348 2.33939,0.538532 l -0.15646,-2.385469 c -0.85723,-0.308143 -2.02644,-0.538529 -2.96239,-0.538529 -1.87188,0 -3.50955,1.153856 -3.50955,3.001753 0,1.385202 1.01369,2.155079 2.65136,2.463219 0.70268,0.0768 1.3257,0.38494 1.3257,0.69212 0,0.46174 -0.46751,0.61629 -0.93595,0.61629 -0.38975,0 -1.40344,0.0768 -3.11888,-0.61629 v 2.54002"
       style="fill:#1a68bb;fill-opacity:1;fill-rule:nonzero;stroke:none;stroke-width:0.959947"
       id="path132" />
    <path
       d="m 116.13689,101.88092 v -3.771633 h 1.7922 v -2.463223 h -1.87093 v -3.924261 l -3.27439,1.693346 v 2.230915 h -1.1692 v 2.616816 h 1.1692 v 4.15657 c 0,2.00053 2.6514,3.38573 5.14532,1.69334 v -2.23187 c -0.54526,0.53853 -1.7922,0.61533 -1.7922,0"
       style="fill:#1a68bb;fill-opacity:1;fill-rule:nonzero;stroke:none;stroke-width:0.959947"
       id="path134" />
    <path
       d="m 100.4648,104.57453 h 3.43082 v -8.927506 h -3.43082 z"
       style="fill:#1a68bb;fill-opacity:1;fill-rule:nonzero;stroke:none;stroke-width:0.959947"
       id="path136" />
    <path
       d="m 102.18021,95.33888 c 1.0137,0 1.87093,-0.846673 1.87093,-1.846936 0,-1.000263 -0.85723,-1.770141 -1.87093,-1.770141 -1.01369,0 -1.79318,0.769878 -1.79318,1.770141 0,1.000263 0.77949,1.846936 1.79318,1.846936"
       style="fill:#1a68bb;fill-opacity:1;fill-rule:nonzero;stroke:none;stroke-width:0.959947"
       id="path138" />
    <path
       d="m 158.47339,104.11279 c 1.09244,0.46174 2.41716,0.61533 3.27535,0.61533 3.27439,0 4.28808,-1.69335 4.28808,-3.15535 0,-1.615586 -1.71541,-2.539054 -3.27534,-2.77136 -0.2332,0 -0.85723,-0.15358 -0.85723,-0.461734 0,-0.230397 0.15564,-0.538532 0.93595,-0.538532 0.623,0 1.71446,0.231348 2.33844,0.538532 l -0.15538,-2.385469 c -0.85821,-0.308143 -2.02741,-0.538529 -2.96337,-0.538529 -1.87092,0 -3.50859,1.153856 -3.50859,3.001753 0,1.385202 1.01467,2.155079 2.65136,2.463219 0.70172,0.0768 1.3257,0.38494 1.3257,0.69212 0,0.46174 -0.46847,0.61629 -0.93595,0.61629 -0.38975,0 -1.40344,0.0768 -3.11888,-0.61629 v 2.54002"
       style="fill:#1a68bb;fill-opacity:1;fill-rule:nonzero;stroke:none;stroke-width:0.959947"
       id="path140" />
    <path
       d="m 148.41604,100.88065 c -1.09147,0.84572 -1.94965,1.00027 -3.35309,1.00027 -2.18388,0 -4.13257,-1.77014 -4.13257,-3.61804 0,-2.000529 1.09146,-3.847468 4.13257,-3.847468 1.3257,0 2.4949,0.230397 3.35309,1.000266 v -3.078551 c -1.09147,-0.615324 -2.57363,-0.768917 -3.8993,-0.768917 -3.89834,0 -6.9385,2.770407 -6.9385,6.617873 0,3.771627 3.27439,6.618837 7.17274,6.618837 1.32567,0 2.57359,-0.30815 3.66506,-0.92347 v -3.0008"
       style="fill:#1a68bb;fill-opacity:1;fill-rule:nonzero;stroke:none;stroke-width:0.959947"
       id="path142" />
    <path
       d="m 153.87333,97.647553 c 1.09146,0.07679 0.77949,0.923468 -0.0778,0.923468 -1.71545,0 -4.44455,0.53949 -4.8343,2.924959 -0.70172,4.00202 4.44455,3.61708 5.76927,2.77041 l 0.15646,0.23039 h 3.04013 v -6.157094 c 0,-2.923997 -4.6778,-3.462529 -7.95219,-2.385468 l -0.46749,2.463224 c 1.40344,-0.693083 3.42991,-0.846673 4.36583,-0.769878"
       style="fill:#1a68bb;fill-opacity:1;fill-rule:nonzero;stroke:none;stroke-width:0.959947"
       id="path144" />
    <path
       d="m 169.70093,96.339146 v -4.617343 h -3.19662 v 12.929527 h 3.19662 v -5.079085 c 0,-1.694304 2.65139,-1.771101 2.65139,0 v 5.079085 h 3.27437 v -5.84992 c 0,-2.615857 -3.11885,-4.462793 -5.92576,-2.462264"
       style="fill:#1a68bb;fill-opacity:1;fill-rule:nonzero;stroke:none;stroke-width:0.959947"
       id="path146" />
    <path
       d="m 120.97118,98.724614 c 0.15565,-0.846673 0.85723,-1.153856 1.48118,-1.153856 0.62398,0 1.40344,0.307183 1.40344,1.153856 h -2.88462"
       style="fill:#ffffff;fill-opacity:1;fill-rule:nonzero;stroke:none;stroke-width:0.959947"
       id="path148" />
    <path
       d="m 154.65282,100.57251 v 1.07706 c 0,1.23161 -2.41716,1.53976 -2.41716,0.30814 0,-1.15385 1.79318,-1.46199 2.41716,-1.3852"
       style="fill:#ffffff;fill-opacity:1;fill-rule:nonzero;stroke:none;stroke-width:0.959947"
       id="path150" />
  </g>
</svg>
