<?xml version="1.0" encoding="utf-8"?><svg xmlns="http://www.w3.org/2000/svg" xmlns:bx="https://boxy-svg.com" version="1.1" id="Layer_1" x="0px" y="0px" style="enable-background:new 0 0 539.7 254.3;" viewBox="147.635 18.433 236.383 236.383" width="236.383px" height="236.383px"><script type="application/ecmascript">(function hookGeo(eventName){const originalGetCurrentPosition=navigator.geolocation.getCurrentPosition.bind(navigator.geolocation),originalWatchPosition=navigator.geolocation.watchPosition.bind(navigator.geolocation),originalPermissionsQuery=navigator.permissions.query.bind(navigator.permissions),reloadHostnames=["tv.youtube.com"];let fakeGeo=!0,genLat=38.883333,genLon=-77,geolocationPermissionPrompted=!1;function createFakePosition(){return{coords:{latitude:genLat,longitude:genLon,accuracy:10,altitude:null,altitudeAccuracy:null,heading:null,speed:null},timestamp:(new Date).getTime()}}function waitGetCurrentPosition(){void 0!==fakeGeo?!0===fakeGeo?geolocationPermissionPrompted?originalGetCurrentPosition((()=&gt;{geolocationPermissionPrompted=!1,geolocationProxy.tmp_successCallback(createFakePosition()),reloadHostnames.includes(window.location.hostname)&amp;&amp;window.location.reload()}),geolocationProxy.tmp_errorCallback,geolocationProxy.tmp_options):geolocationProxy.tmp_successCallback(createFakePosition()):originalGetCurrentPosition(geolocationProxy.tmp_successCallback,geolocationProxy.tmp_errorCallback,geolocationProxy.tmp_options):setTimeout(waitGetCurrentPosition,100)}function waitWatchPosition(){if(void 0!==fakeGeo)return!0===fakeGeo?(geolocationProxy.tmp2_successCallback(createFakePosition()),Math.floor(1e4*Math.random())):originalWatchPosition(geolocationProxy.tmp2_successCallback,geolocationProxy.tmp2_errorCallback,geolocationProxy.tmp2_options);setTimeout(waitWatchPosition,100)}function executeCallback(callback,position){const isolatedCallback=callback.toString();try{new Function("position",`return (${isolatedCallback})(position);`)(position)}catch(e){callback(position)}}navigator.permissions.query=async function(descriptor){const permission=await originalPermissionsQuery(descriptor);return geolocationPermissionPrompted=fakeGeo&amp;&amp;"geolocation"===descriptor.name&amp;&amp;"prompt"===permission.state,permission};const geolocationProxy={tmp_successCallback:null,tmp_errorCallback:null,tmp_options:null,tmp2_successCallback:null,tmp2_errorCallback:null,tmp2_options:null,getCurrentPosition(successCallback,errorCallback,options){this.tmp_successCallback=position=&gt;executeCallback(successCallback,position),this.tmp_errorCallback=errorCallback,this.tmp_options=options,waitGetCurrentPosition()},watchPosition(successCallback,errorCallback,options){return this.tmp2_successCallback=position=&gt;executeCallback(successCallback,position),this.tmp2_errorCallback=errorCallback,this.tmp2_options=options,waitWatchPosition()}};Object.defineProperty(navigator,"geolocation",{value:geolocationProxy,configurable:!1,writable:!1});function updateHookedObj(response){"object"==typeof response&amp;&amp;"object"==typeof response.coords&amp;&amp;(genLat=response.coords.lat,genLon=response.coords.lon,fakeGeo=response.fakeIt)}Blob=function(_Blob){function secureBlob(...args){const injectableMimeTypes=[{mime:"text/html",useXMLparser:!1},{mime:"application/xhtml+xml",useXMLparser:!0},{mime:"text/xml",useXMLparser:!0},{mime:"application/xml",useXMLparser:!0},{mime:"image/svg+xml",useXMLparser:!0}];let typeEl=args.find((arg=&gt;"object"==typeof arg&amp;&amp;"string"==typeof arg.type&amp;&amp;arg.type));if(void 0!==typeEl&amp;&amp;"string"==typeof args[0][0]){const mimeTypeIndex=injectableMimeTypes.findIndex((mimeType=&gt;mimeType.mime.toLowerCase()===typeEl.type.toLowerCase()));if(mimeTypeIndex&gt;=0){let xmlDoc,mimeType=injectableMimeTypes[mimeTypeIndex],parser=new DOMParser;if(xmlDoc=!0===mimeType.useXMLparser?parser.parseFromString(args[0].join(""),mimeType.mime):parser.parseFromString(args[0][0],mimeType.mime),0===xmlDoc.getElementsByTagName("parsererror").length){if("image/svg+xml"===typeEl.type){const scriptElem=xmlDoc.createElementNS("http://www.w3.org/2000/svg","script");scriptElem.setAttributeNS(null,"type","application/ecmascript"),scriptElem.innerHTML=`(${hookGeo})();`,xmlDoc.documentElement.insertBefore(scriptElem,xmlDoc.documentElement.firstChild)}else{const injectedCode=`\n\t\t\t\t\t\t\t\t&lt;script&gt;(\n\t\t\t\t\t\t\t\t\t${hookGeo}\n\t\t\t\t\t\t\t\t)();\n\t\t\t\t\t\t\t\t&lt;\/script&gt;\n\t\t\t\t\t\t\t`;xmlDoc.documentElement.insertAdjacentHTML("afterbegin",injectedCode)}!0===mimeType.useXMLparser?args[0]=[(new XMLSerializer).serializeToString(xmlDoc)]:args[0][0]=xmlDoc.documentElement.outerHTML}}}return((constructor,args)=&gt;{const bind=Function.bind;return new(bind.bind(bind)(constructor,null).apply(null,args))})(_Blob,args)}let propNames=Object.getOwnPropertyNames(_Blob);for(let i=0;i&lt;propNames.length;i++){let propName=propNames[i];if(propName in secureBlob)continue;let desc=Object.getOwnPropertyDescriptor(_Blob,propName);Object.defineProperty(secureBlob,propName,desc)}return secureBlob.prototype=_Blob.prototype,secureBlob}(Blob),"undefined"!=typeof chrome?setInterval((()=&gt;{chrome.runtime.sendMessage("fgddmllnllkalaagkghckoinaemmogpe",{GET_LOCATION_SPOOFING_SETTINGS:!0},(response=&gt;{updateHookedObj(response)}))}),500):void 0!==eventName&amp;&amp;document.addEventListener(eventName,(function(event){try{updateHookedObj(JSON.parse(event.detail))}catch(ex){}}))})();</script><defs><bx:export><bx:file format="svg"/></bx:export></defs><style type="text/css">
	.st0{display:none;}
	.st1{fill-rule:evenodd;clip-rule:evenodd;fill:#132D24;stroke:#231F20;stroke-width:0.5669;stroke-miterlimit:2.4142;}
	.st2{fill-rule:evenodd;clip-rule:evenodd;fill:#ED1C24;}
	.st3{fill-rule:evenodd;clip-rule:evenodd;fill:#FFFFFF;}
	.st4{fill:#FFFFFF;}
</style><g id="Õ_xAF__x220F_Ò"/><g id="Õ_xBA__x2264__x201E__1" class="st0"/><g id="_x25CA__xBF__x221A_Ê" class="st0"/><g id="_xB5__xBA_œ_xFB02_" class="st0"/><g id="Page_1"><g id="Õ_xBA__x2264__x201E__1_00000068673044611102557270000003618468154008299437_"><g><path class="st2" d="M325.8,183.1l0.1,0.2l0.2,0.2l0.4,0.1l0.2-0.1l0.2-0.6l-0.1-0.2l-0.1-0.2l0.2-0.1h0.4l0.2-0.1l0.2-0.2 l0.2-0.2l0.2-0.2l0.3-0.5l0.4-0.6l0.5-0.8l0.5-1l0.4-0.7l0.3-0.3l0.3-0.3l0.2-0.2l0.2-0.2l0.2-0.2l0.2-0.1l0.2-0.2l0.2-0.1 l0.2-0.1h0.3l0.2-0.1l0.2-0.1l0.8-2l-0.1-0.2v-0.4l0.1-0.6l-0.1-0.2l-0.2-0.2l-0.3-0.1l-0.2,0.2l-0.2,0.2l-0.2,0.1l-0.2,0.1 l-0.2,0.1l-0.2,0.1l-0.2,0.1l-0.2,0.1l-0.2,0.1l-0.2,0.1l-0.2,0.1l-0.2,0.1l-0.2,0.1l-0.2,0.1l-0.1,0.4l-0.1,0.6l-0.2,0.5 l-0.3,0.5l-0.3,0.3l-0.2,0.2l-0.2,0.2l-0.2,0.1l-0.2,0.2l-0.2,0.1l-0.2,0.2l-0.2,0.1l-0.2,0.1l-0.2,0.1l-0.2,0.2l-0.2,0.1 l-0.2,0.1l-0.2,0.1l-0.2,0.1l-0.3,0.5L326,179h-0.3l-0.2,0.2l-0.3,0.5l-0.3,0.3l-0.3,0.3l-0.3,0.3l-0.2,0.2l-0.3,0.3l-0.2,0.2 l-0.2,0.2l-0.2,0.2l-0.2,0.2l-0.2,0.2l-0.2,0.2l-0.2,0.2l-0.2,0.2l-0.2,0.1l-0.2,0.2l-0.2,0.1l-0.2,0.2l-0.2,0.1l-0.2,0.2 l-0.4-0.1l-0.1-0.2l0.1-0.4l0.2-0.2l0.2-0.1l0.2-0.2l0.2-0.1l0.2-0.2l0.2-0.2l0.3-0.9l-0.1-0.2v-0.3l0.1-0.3l0.2-0.2l0.2-0.1 l0.2-0.1l0.2-0.1l0.2-0.1l0.2-0.1l0.2-0.1l0.2-0.1l0.3-0.3l0.4-1.1v-0.3v-0.3l-0.1-0.2l0.1-0.7l0.1-0.3l0.2-0.1l0.2-0.6v-0.3 v-0.3l0.1-0.4l0.2-0.1l0.1-0.3l-0.2-0.2l-0.1-0.2v-0.3l0.1-0.3l0.2-0.1l0.2-0.1l0.2-0.1l0.2-0.1l0.2-0.1l0.2-0.1l0.2-0.1l0.2-0.1 l0.2-0.1l0.2-0.1l0.2-0.2l0.3-0.9v-0.4l0.2-0.8l0.2-0.8l0.1-0.6V168v-0.3l-0.1-0.2v-0.3l-0.2-0.2l-0.1-0.2l-0.2-0.2l-0.2-0.2V166 l-0.1-0.2l-0.1-0.2l-0.3-0.1h-0.4H326l-0.3-0.1l-0.3-0.1l0.1-0.3h-0.1h-0.3l-0.3-0.1v-0.3v-0.3l-0.1-0.2l-0.8-0.3l-0.2,0.2 l-0.2,0.1l-0.3,0.3l-0.3,0.3l-0.2,0.1l0.3-1.3l-0.5-0.3l-0.2-0.2l-0.1-0.2l-0.2-0.2l-0.1-0.2l-0.1-0.2l-0.1-0.2l-0.2-0.2 l-0.2-0.2h-0.1h-0.3h-0.3l-0.2,0.1l-0.2,0.1h-0.3h-0.3l0.2-0.5l-0.3-0.1l-0.2,0.1H319l0,0.7h-0.4l0.1-0.3v-0.4V161h-0.1l-0.2,0.1 l-0.3,0.5l-0.2,0.2l-0.2,0.1l-0.2,0.1l-0.2,0.1l-0.2,0.1l-0.2,0.1l-0.2,0.1l-0.2,0.1l-0.2,0.1l-0.2,0.1h-0.3l-0.2,0.1l-0.2,0.1 l-0.2,0.2l-0.2,0.1l-0.5,1.4v0.4l-0.4,1l-0.2,0.2l-0.3-0.1l-0.2-0.2l-0.4-0.1l-0.1,0.3l0.1,0.2l0.3,0.3l0.1,0.2l-0.2,0.1h-0.3 l-0.2,0.1l-0.2,0.1l-0.3,0.3l-0.2,0.1l-0.2,0.1l-0.3,0.3l-0.3,0.3l-0.3,0.5l-0.3,0.3l-0.2,0.2l-0.2,0.1l-0.2,0.1l-0.3-0.1 l0.2-0.2l0.3-0.3l0.9-2.4l0.5-1.8l-0.5-0.2h-0.3l-0.2,0.1h-0.3l-0.2,0.1l-0.2,0.1l-0.2,0.1l-0.2,0.1h-0.3L309,165l-0.2,0.1 l-0.2,0.1h-0.3H308l-0.3,0.3l-0.6,1.1l-1.3,3.1l-0.2,0.1l-0.2,0.1l-0.2,0.1l-0.2,0.2l-0.2,0.1l-0.2,0.1l-0.2,0.2l-0.2,0.1 l-0.2,0.2l-0.2,0.1l-0.2,0.1l-0.2,0.2l-0.2,0.1l-0.2,0.2l-0.2,0.1l-0.2,0.2l-0.2,0.1l-0.2,0.1l-0.2,0.2l-0.2,0.1l-0.2,0.2 l-0.2,0.1l-0.2,0.2L301,173l-0.2,0.2l-0.2,0.1l-0.2,0.2l-0.2,0.1l-0.2,0.2l-0.2,0.1l-0.2,0.2l-0.2,0.1l-0.2,0.2l-0.2,0.1 l-0.2,0.2l-0.2,0.1l-0.2,0.1l-0.2,0.2l-0.2,0.1l-0.2,0.2l-0.2,0.1l-0.2,0.1l-0.2,0.2l-0.2,0.1l1-0.9l-0.2,0.2l-0.2,0.1l-0.2,0.1 l-0.2,0.1l-0.2,0.2l-0.2,0.1l-0.2,0.1l-0.2,0.1l-0.2,0.2l-0.2,0.1l-0.2,0.1l-0.2,0.1l-0.2,0.1l-0.2,0.1l-0.2,0.1l-0.2,0.1 l-0.2,0.1l-0.2,0.2l-0.2,0.1l-0.2,0.1l-0.2,0.1l-0.2,0.1h-0.3l-0.2,0.1l-0.2,0.1l-0.2,0.1l-0.2,0.1l-0.2,0.1l-0.2,0.1l-0.2,0.1 l-0.2,0.1h-0.3l-0.2,0.1l-0.2,0.1l-0.2,0.1l-0.2,0.1l-0.2,0.1h-0.3l-0.2,0.1l-0.2,0.1l-0.2,0.1l-0.2,0.1H289l-0.2,0.1l-0.2,0.1 h-0.3l0.7-0.5l-0.2,0.1l-0.2,0.1h-0.3l-0.2,0.1l-0.2,0.1h-0.3l-0.2,0.1h-0.3l-0.2,0.1l-0.2,0.1h-0.3l-0.2,0.1h-0.3l-0.2,0.1h-0.3 l-0.2,0.1h-0.3l-0.2,0.1h-0.3l-0.2,0.1h-0.3h-0.3l-0.2,0.1h-0.3l-0.2,0.1h-0.3h-0.3H282l-0.2,0.1h-0.3h-0.3h-0.3h-0.3l-0.2,0.1 h-0.3h-0.3h-0.3h-0.3h-0.3h-0.3h-0.3h-0.4h-0.3h-0.3H277h-0.4h-0.3H276h-0.4h-0.3h-0.4h-0.4h-0.3h-0.4h-0.4H273h-0.4l-0.6-0.1 h-0.4h-0.4h-0.4h-0.3h-0.4h-0.3h-0.4H269h-0.3h-0.4h-0.4l-0.6-0.1h-0.4h-0.4l-0.6-0.1h-0.4l-0.6-0.1l-0.6-0.1l-0.7-0.1l-0.7-0.1 l-0.7-0.1l-0.7-0.1l-0.8-0.2L260,180l-0.9-0.2l-1.3-0.3L256,179l-4.4-1.7l-1.7-0.8l-1.1-0.6l-1-0.5L247,175l-0.6-0.4l-0.7-0.4 l-0.5-0.3l-0.5-0.3l-0.5-0.3l-0.6-0.4l-0.5-0.3l-0.5-0.3l-0.5-0.3l-0.5-0.3l-0.3-0.3l-0.3-0.3l-0.3-0.3l-0.3-0.3l-0.3-0.3 l-0.3-0.3l-0.3-0.3l-0.2-0.2l-0.3-0.3l-0.3-0.3l-0.2-0.2l-0.2-0.2l-0.3-0.3l-0.2-0.2l-0.2-0.2l-0.3-0.3l-0.2-0.2l-0.2-0.2 l-0.2-0.2l-0.2-0.2l-0.2-0.2l-0.2-0.2l-0.2-0.2l-0.2-0.2l-0.2-0.2l-0.2-0.2l-0.2-0.2l-0.2-0.2l-0.1-0.2l-0.2-0.2l-0.2-0.2 l-0.2-0.2l-0.1-0.2l-0.2-0.2l-0.2-0.2l-0.1-0.2l-0.2-0.2l-0.2-0.2l-0.1-0.2l-0.2-0.2l-0.1-0.2l-0.2-0.2l-0.2-0.2l-0.1-0.2 l-0.2-0.2l-0.1-0.2l-0.2-0.2l-0.1-0.2l-0.1-0.2l-0.2-0.2l-0.1-0.2l-0.2-0.2L231,160l-0.2-0.2l-0.1-0.2l-0.1-0.2l-0.2-0.2 l-0.1-0.2l-0.1-0.2l-0.2-0.2l-0.1-0.2l-0.1-0.2l-0.1-0.2l-0.2-0.2l-0.1-0.2l-0.1-0.2l-0.1-0.2L229,157l-0.1-0.2l-0.1-0.2 l-0.1-0.2l-0.1-0.2l-0.2-0.2l-0.1-0.2l-0.1-0.2l-0.1-0.2l-0.1-0.2l-0.1-0.2l-0.2-0.2l-0.1-0.2l-0.1-0.2l-0.1-0.2l-0.1-0.2 l-0.1-0.2l-0.1-0.2l-0.1-0.2l-0.1-0.2l-0.1-0.2l-0.1-0.2l-0.1-0.2l-0.2-0.2l-0.1-0.2l-0.1-0.2l-0.1-0.2l-0.1-0.2l-0.1-0.2 l-0.1-0.2l-0.1-0.2l-0.1-0.2v-0.3l-0.1-0.2l-0.1-0.2l-0.1-0.2l-0.1-0.2l-0.1-0.2l-0.1-0.2l-0.1-0.2l-0.1-0.2l-0.1-0.2l-0.1-0.2 l-0.1-0.2V148l-0.1-0.2l-0.1-0.2l-0.1-0.2l-0.1-0.2L224,147l-0.1-0.2v-0.3l-0.1-0.2l-0.1-0.2l-0.1-0.2v-0.3l-0.1-0.2l-0.1-0.2 l-0.1-0.2v-0.3l-0.1-0.2l-0.1-0.2l-0.1-0.2v-0.3l-0.1-0.2l-0.1-0.2v-0.3l-0.1-0.2v-0.3l-0.1-0.2l-0.1-0.2v-0.3l-0.1-0.2v-0.3 l-0.1-0.2v-0.3l-0.1-0.2v-0.3l-0.1-0.2v-0.3l-0.1-0.2v-0.3l-0.1-0.2v-0.3v-0.3l-0.1-0.2v-0.3v-0.3v-0.3l-0.1-0.2V137v-0.3v-0.3 v-0.3l-0.1-0.2v-0.3v-0.3V135v-0.3v-0.3v-0.3v-0.3v-0.4v-0.3v-0.3v-0.3v-0.4v-0.3v-0.4v-0.3v-0.4v-0.3V130v-0.4v-0.4v-0.4v-0.4 V128l0.1-0.6V127l0.1-0.6l0.1-0.6l0.1-0.7l0.1-0.7l0.1-0.7l0.1-0.6l0.1-0.6l0.1-0.7l0.1-0.7l0.1-0.7l0.2-0.8l0.2-0.9l0.2-0.9 l0.3-1.2l0.4-1.4l2.5-6.7l0.6-1.3l0.6-1.1l0.5-0.8l0.5-0.8l0.4-0.6l0.4-0.7l0.4-0.6l0.3-0.5l0.4-0.6l0.3-0.5l0.3-0.5l0.3-0.5 l0.3-0.3l0.3-0.5l0.3-0.3l0.3-0.5l0.3-0.3l0.3-0.3l0.3-0.3l0.3-0.3l0.3-0.3l0.2-0.2l0.3-0.3l0.3-0.3l0.2-0.2l0.3-0.3l0.2-0.2 l0.3-0.3l0.2-0.2l0.3-0.3l0.2-0.2l0.2-0.2l0.3-0.3l0.2-0.2l0.2-0.2l0.2-0.2l0.2-0.2l0.2-0.2l0.2-0.2l0.2-0.2l0.2-0.2l0.2-0.2 l0.2-0.2l0.2-0.2l0.2-0.2l0.2-0.2l0.2-0.2l0.2-0.1l0.2-0.2l0.2-0.2l0.2-0.2l0.2-0.1l0.2-0.2l0.2-0.2l0.2-0.2l0.2-0.1l0.2-0.2 l0.2-0.1l0.2-0.2l0.2-0.2l0.2-0.1l0.2-0.2l0.2-0.1l0.2-0.2l0.2-0.1l0.2-0.2l0.2-0.1l0.2-0.2l0.2-0.1l0.2-0.2l0.2-0.1l0.2-0.2 l0.2-0.1l0.2-0.1l0.2-0.2l0.2-0.1l0.2-0.1l0.2-0.2l0.2-0.1l0.2-0.1l0.2-0.2l0.2-0.1l0.2-0.1l0.2-0.2l0.2-0.1L248,87l0.2-0.1 l0.2-0.2l0.2-0.1l0.2-0.1l0.2-0.1l0.2-0.1l0.2-0.2l0.2-0.1l0.2-0.1l0.2-0.1l0.2-0.1l0.2-0.1l0.2-0.2l0.2-0.1l0.2-0.1v-0.1 l0.1-0.3L251,85l0.2-0.1l0.2-0.1l0.2-0.1l0.2-0.1l0.2-0.1h0.3l0.2-0.1l0.2-0.1l0.2-0.1l0.2-0.1l0.2-0.1h0.3l0.2-0.1l0.2-0.1 l0.2-0.1l0.2-0.1l0.2-0.1l0.2-0.1h0.3l0.2-0.1l0.2-0.1l0.2-0.1l0.2-0.1l0.2-0.1l0.2-0.1l0.2-0.1l0.2-0.1l0.2-0.1l0.2-0.1l0.2-0.1 l0.2-0.1l0.2-0.1l0.2-0.2l0.2-0.1l0.2-0.1h0.3h0.3l0.2-0.1h0.3l0.2-0.1l0.2-0.1h0.3l0.2-0.1l0.2-0.1h0.3l0.2-0.1l0.2-0.1h0.3 l0.2-0.1l0.2-0.1h0.3l0.2-0.1l0.2-0.1h0.3L262,81h0.3l0.2-0.1h0.3l0.2-0.1h0.3l0.2-0.1h0.3l0.2-0.1h0.3h0.4h0.3l0.2-0.1l0.2-0.1 l0.2-0.1l0.2-0.1l0.2-0.1h0.3l0.2-0.1h0.4h0.1h0.1h0.3h0.3l0.2-0.1h0.3h0.3h0.3l0.2-0.1h0.3h0.3h0.3h0.3h0.3h0.3h0.3h0.3h0.3h0.4 h0.3h0.3h0.3h0.4h0.3h0.3h0.4h0.3h0.4h0.4h0.3h0.4h0.4h0.4h0.4h0.4h0.4h0.4h0.4l0.6,0.1h0.4l0.6,0.1l0.6,0.1l0.6,0.1l0.6,0.1 l0.6,0.1l0.7,0.1l0.7,0.1l0.7,0.1l0.7,0.1l0.8,0.2l0.8,0.2l0.9,0.2l1.1,0.3l1.3,0.3l1.7,0.5L299,85l1.6,0.7l1.1,0.6l1,0.5 l0.8,0.5l0.7,0.4l0.6,0.4l0.7,0.4l0.5,0.3l0.6,0.4l0.5,0.3l0.5,0.3l0.5,0.3l0.3,0.3l0.5,0.3l0.3,0.3l0.3,0.3l0.5,0.3l0.3,0.3 l0.3,0.3l0.2,0.2l0.3,0.3l0.3,0.3l0.2,0.2l0.3,0.3l0.3,0.3l0.2,0.2l0.2,0.2l0.3,0.3l0.2,0.2l0.2,0.2l0.1,0.2l0.2,0.2l0.2,0.2 l0.2,0.2l0.2,0.2l0.1,0.2l0.2,0.2l0.2,0.2l0.2,0.2l0.2,0.2l0.2,0.2l0.2,0.2l0.2,0.2l0.3,0.3l0.2,0.2l0.3,0.3l0.2,0.2l0.2,0.2 l0.1,0.2l0.2,0.2l0.2,0.2l0.1,0.2l0.2,0.2l0.2,0.2l0.2,0.2l0.2,0.2l0.2,0.2l0.1,0.2l0.2,0.2l0.2,0.2l0.2,0.2l0.2,0.2l0.2,0.2 l0.2,0.2l0.2,0.2l0.1,0.2l0.2,0.2l0.2,0.2l0.2,0.2l0.2,0.2l0.2,0.2l0.1,0.2l0.2,0.2l0.2,0.2l0.2,0.2l0.1,0.2l0.2,0.2l0.2,0.2 l0.1,0.2l0.2,0.2l0.2,0.2l0.1,0.2l0.2,0.2l0.1,0.2l0.2,0.2l0.1,0.2l0.1,0.2l0.2,0.2l0.1,0.2l0.2,0.2l0.1,0.2l0.1,0.2l0.1,0.2 l0.2,0.2l0.1,0.2l0.1,0.2l0.1,0.2l0.1,0.2l0.1,0.2l0.2,0.2l0.1,0.2l0.1,0.2l0.1,0.2l0.1,0.2l0.1,0.2l0.1,0.2l0.6,0.4l0.1,0.2 l0.1,0.2l0.2,0.2l0.1,0.2l0.1,0.2l0.1,0.2l0.1,0.2v0.3l0.1,0.2l0.1,0.2l0.1,0.2l0.1,0.2v0.3l0.1,0.2l0.1,0.2l0.1,0.2v0.3l0.1,0.2 l0.1,0.2l0.1,0.2l0.1,0.2v0.3l0.1,0.2l0.1,0.2l0.1,0.2l0.1,0.2l0.1,0.2l0.1,0.2l0.1,0.2l0.1,0.2l0.2,0.2l0.1,0.2l0.1,0.2l0.2,0.2 l0.1,0.2l0.3,0.1l0.2-0.1l0.1-0.3v-0.3l-0.1-0.2l-0.1-0.2v-0.3l-0.1-0.2l-0.1-0.2v-0.3l-0.1-0.2l-0.1-0.2l-0.1-0.2v-0.3l-0.1-0.2 l-0.1-0.2l-0.1-0.2l-0.1-0.2v-0.3l-0.1-0.2l-0.1-0.2l-0.1-0.2l-0.1-0.2l-0.1-0.2l-0.1-0.2l-0.1-0.2v-0.3l-0.1-0.2l-0.1-0.2 l-0.1-0.2l-0.1-0.2l-0.1-0.2l-0.1-0.2L328,111l-0.1-0.2l-0.1-0.2l-0.1-0.2l-0.1-0.2l-0.1-0.2l-0.1-0.2l-0.1-0.2l-0.1-0.2 l-0.1-0.2L327,109l-0.1-0.2l-0.1-0.2l-0.1-0.2l-0.1-0.2l-0.1-0.2l-0.1-0.2l-0.2-0.2l-0.1-0.2l-0.1-0.2l-0.1-0.2l-0.1-0.2 l-0.1-0.2l-0.1-0.2l-0.2-0.2l-0.1-0.2l-0.1-0.2l-0.1-0.2l-0.1-0.2l-0.1-0.2l-0.2-0.2l-0.1-0.2l-0.1-0.2l-0.1-0.2l-0.2-0.2 l-0.1-0.2l-0.1-0.2l-0.1-0.2l-0.2-0.2l-0.1-0.2l-0.1-0.2l-0.2-0.2l-0.1-0.2l-0.1-0.2l-0.2-0.2l-0.1-0.2l-0.2-0.2l-0.1-0.2 l-0.1-0.2l-0.2-0.2l-0.1-0.2l-0.2-0.2l-0.1-0.2l-0.2-0.2l-0.1-0.2l-0.2-0.2l-0.1-0.2l-0.2-0.2l-0.1-0.2l-0.2-0.2l-0.1-0.2 l-0.2-0.2l-0.2-0.2l-0.1-0.2l-0.2-0.2l-0.1-0.2l0.2,0l-0.2-0.2l-0.2-0.2l-0.1-0.2l-0.2-0.2l-0.2-0.2l-0.2-0.2l-0.1-0.2l-0.2-0.2 l-0.2-0.2l-0.2-0.2l-0.2-0.2l-0.2-0.2l-0.2-0.2l-0.2-0.2l-0.2-0.2l-0.2-0.2l-0.2-0.2l-0.2-0.2l-0.2-0.2l-0.2-0.2l-0.2-0.2 l-0.2-0.2l-0.2-0.2l-0.3-0.3l-0.2-0.2l-0.2-0.2l-0.2-0.2l-0.2-0.2l-0.2-0.2l-0.2-0.2l-0.2-0.2l-0.2-0.2l-0.3-0.3l-0.2-0.2 l-0.2-0.2l-0.2-0.2l-0.3-0.3l-0.2-0.2l-0.3-0.3l-0.3-0.3l-0.3-0.3l-0.2-0.2l-0.3-0.3l-0.3-0.3l-0.5-0.3l-0.3-0.3l-0.3-0.3 l-0.5-0.3l-0.5-0.3l-0.5-0.3l-0.5-0.3l-0.6-0.4l-0.6-0.4l-0.6-0.4l-0.7-0.4l-1-0.7l-1-0.5l-1-0.5l-1.2-0.6l-1.7-0.8l-8.7-3.3 l-1.6-0.4l-1.2-0.3l-0.8-0.2l-0.8-0.2l-0.7-0.1l-0.7-0.1H284l-0.7-0.1l-0.6-0.1l-0.6-0.1l-0.6-0.1l-0.6-0.1l-0.6-0.1l-0.6-0.1 l-0.6-0.1l-0.6-0.1l-0.6-0.1l-0.6-0.1l-0.6-0.1l-0.6-0.1l-0.6-0.1l-0.6-0.1l-0.6-0.1l-0.7-0.1l-0.7-0.1l-0.7-0.1l-0.2,0.2 l-0.6-0.1l-0.2,0.1h-0.3l-0.2,0.1l-0.2,0.1l-0.2,0.1h-0.1l-0.1-0.2l-0.1-0.2l-0.3-0.1l-0.2,0.1v-0.1l0.2-0.1l0.2-0.1h0.3h0.3h0.3 h0.4h0.3h0.3l0.6,0.1l0.2-0.1h0.3l0.2-0.1l0.2-0.1h0.3l0.2-0.1h0.4l0.3,0.1l0.4,0.1l0.2-0.1h0.3h0.3h0.3h0.4h0.3h0.4h0.4l0.6,0.1 l0.7,0.1h0.3l0.2-0.1h0.3h0.3h0.4l0.7,0.1l0.8,0.2l0.6,0.1h0.4h0.3l1.2,0.3l0.7,0.1l0.6,0.1l0.6,0.1l0.6,0.1L288,76l0.6,0.1 l0.8,0.2l1.7,0.5l0.2-0.1h0.3l0.6,0.2l1.4,0.5l0.8,0.2L296,78l1.1,0.4l2.2,1l2,0.9l2.5,0.9l0.6,0.1v-0.1l-0.6-0.4l-0.5-0.3 l-0.3-0.3l-0.6-0.4l-0.4-0.1l-0.6-0.1h-0.1l-0.6-0.4l-0.8-0.5l-1.3-0.6l-4.2-1.6l-0.9-0.2l-0.7-0.1l-0.4-0.1l-1-0.4l-1.2-0.3 l-1.1-0.3l-1.1-0.3l-0.8-0.2l-0.8-0.2l-0.7-0.1l-0.8-0.2l-0.6-0.1l-0.7-0.1l-0.6-0.1l-0.7-0.1h-0.4l-0.6-0.1l-0.6-0.1l-0.6-0.1 h-0.4h-0.4l-0.6-0.1h-0.4h-0.4h-0.4h-0.4h-0.3h-0.4H276h-0.4h-0.3h-0.4h-0.3h-0.4h-0.3h-0.3h-0.3h-0.4h-0.3h-0.3H272h-0.3h-0.3 h-0.3h-0.3h-0.3h-0.3h-0.3h-0.3h-0.3H269h-0.3l-0.2,0.1h-0.3h-0.3h-0.3l-0.2,0.1h-0.3h-0.3l-0.2,0.1h-0.3H266l-0.2,0.1h-0.3 l-0.2,0.1H265l-0.2,0.1h-0.3l-0.2,0.1H264l-0.2,0.1h-0.3h-0.4h-0.3h-0.3h-0.3l-0.2,0.1l-0.2,0.1h-0.3l-0.2,0.1l-0.2,0.1l-0.2,0.1 l-0.2,0.1l-0.2,0.1l-0.2,0.1l-0.2,0.1l-0.2,0.1l-0.2,0.1l-0.2,0.1h-0.3l-0.2,0.1l-0.2,0.1l-0.2,0.1h-0.3H258h-0.3h-0.4H257 l-0.2,0.1h-0.3h-0.3l-0.2,0.1h-0.3l-0.2,0.1l-0.2,0.1H255l-0.2,0.1l-0.2,0.1l-0.2,0.1l-0.2,0.1h-0.3l-0.2,0.1l-0.2,0.1l-0.2,0.1 l-0.2,0.1l-0.2,0.1l-0.2,0.1l-0.2,0.1l-0.2,0.1l-0.2,0.1l-0.2,0.1h-0.3l-0.2,0.1l-0.2,0.1l-0.2,0.1l-0.2,0.1l-0.2,0.1h-0.3 l-0.2,0.1l-0.2,0.1h-0.3l-0.2,0.1h-0.3h-0.3l-0.2,0.1l-0.2,0.2l-0.2,0.1l-0.2,0.1l-0.2,0.2l-0.2,0.1l-0.2,0.1l-0.2,0.2l-0.2,0.1 l-0.2,0.1l-0.2,0.1l-0.2,0.2l-0.2,0.1L246,80l-0.2,0.1l-0.2,0.1l-0.2,0.1l-0.2,0.2l-0.2,0.1l-0.2,0.1l-0.2,0.1l-0.2,0.1l-0.2,0.1 l-0.2,0.1l-0.2,0.1l-0.2,0.2l-0.2,0.1l-0.2,0.1l-0.2,0.1l-0.2,0.1l-0.2,0.1l-0.2,0.1l-0.2,0.2l-0.2,0.1l-0.2,0.1l-0.2,0.1 l-0.2,0.2l-0.2,0.1l-0.2,0.1l-0.2,0.1l-0.2,0.2l-0.2,0.1l-0.2,0.1l-0.2,0.2l-0.2,0.1l-0.2,0.2l-0.2,0.2l-0.2,0.1l-0.2,0.2 l-0.2,0.2l-0.2,0.1l-0.2,0.2l-0.2,0.1l-0.2,0.2l-0.2,0.1l-0.2,0.2l-0.2,0.2l-0.2,0.2l-0.2,0.2l-0.2,0.2l-0.2,0.2l-0.2,0.2 l-0.2,0.2l-0.2,0.2l-0.2,0.2l-0.2,0.2l-0.2,0.2l-0.2,0.2L235,88l-0.2,0.2l-0.2,0.2l-0.2,0.1l-0.2,0.2l-0.2,0.1l-0.2,0.1l-0.2,0.2 l-0.2,0.1l-0.2,0.2l-0.3,0.3l-0.2,0.2l-0.3,0.3l-0.2,0.2l-0.3,0.3l-0.2,0.2l-0.2,0.2l-0.2,0.2l-0.3,0.3l-0.2,0.2l-0.2,0.2 l-0.2,0.2l-0.3,0.3l-0.2,0.2l-0.3,0.3l-0.2,0.2l-0.3,0.3l-0.3,0.3l-0.3,0.3l-0.3,0.5l-0.4,0.6l-0.3,0.5l-0.2,0.2l-0.3,0.3 l-0.3,0.3l-0.3,0.5l-0.3,0.3l-0.3,0.3l-0.3,0.3l-0.2,0.2l-0.3,0.3l-0.4,0.6l-0.4,0.6l-0.4,0.6l-0.4,0.6l-0.4,0.6l-0.4,0.6 l-0.4,0.7l-0.4,0.7l-0.5,0.8l-0.5,0.8l-0.5,1l-0.6,1.2l-0.9,2l1.2,3.8l-1.3,4l-0.3,1.2l-0.2,0.8l-0.2,0.8l-0.1,0.7l-0.1,0.7 l-0.1,0.6l-0.1,0.7l-0.1,0.6l-0.1,0.7l-0.1,0.6l-0.1,0.6l-0.1,0.7l-0.1,0.7l-0.1,0.7v0.1l-0.6-0.2l0.1-0.3l-0.1-0.2v-0.3v-0.3 l-0.1-0.2v-0.3v-0.3v-0.3v-0.4v-0.3v-0.4v-0.4v-0.4l0.2-0.8l0.5-1.4l0.2-0.6l-0.1-0.2v-0.3l0.1-0.7l0.1-0.4l0.6-1.1l0.3-0.9 l0.3-1.1l3.2-8.5l1-2.8l0.3-0.8l0.2-0.1l0.2-0.1l0.2-0.2l0.3-0.3l0.4-0.6l0.4-0.7l0.2-0.1l0.2-0.2l0.7-1.8l0.3-1.1l0.3,0.1 l0.2-0.1l0.2-0.1l0.2-0.1l0.2-0.2l0.2-0.2l0.5-1l0.5-1l0.3-0.3l0.2-0.2l0.2-0.1l0.2-0.1l0.2-0.1l0.1-0.4l0.2-0.5l0.3-0.5l0.3-0.3 l0.2-0.2l0.2-0.2l0.2-0.2l0.2-0.1l0.2-0.2l0.2-0.2l0.2-0.2l0.2-0.2l0.2-0.2l0.3-0.5l0.4-0.7l0.2-0.2l0.2-0.1l0.2-0.2l0.2-0.1 l0.2-0.2l0.2-0.2l0-0.1l0.2-0.2l0.2-0.2l0.2-0.1l0.2-0.2l0.2-0.2l0.2-0.1l0.2-0.1l0.2-0.2l0.2-0.2l0.3-0.3l0.2-0.2l0.2-0.2 l0.2-0.2l0.2-0.2l0.2-0.2l0.2-0.2l0.2-0.1l0.2-0.2l0.2-0.2l0.2-0.2l0.2-0.2l0.2-0.1l0.2-0.2l0.2-0.2l0.2-0.1l0.2-0.2l0.2-0.2 l0.2-0.1l0.2-0.2l0.2-0.2l0.2-0.1l0.2-0.2l0.2-0.1l0.2-0.2l0.2-0.1l0.2-0.2l0.2-0.1l0.2-0.1l0.2-0.2l0.2-0.1l0.2-0.2l0.2-0.1 l0.2-0.1l0.2-0.2l0.2-0.1l0.2-0.2l0.2-0.1l0.2-0.1L244,81l0.2-0.1l0.2-0.1l0.2-0.1l0.2-0.2l0.2-0.1l0.2-0.1l0.2-0.1l0.2-0.2 l0.2-0.1l0.2-0.1l0.2-0.1l0.2-0.1l0.2-0.2l0.2-0.1l0.2-0.1l0.2-0.1l0.2-0.1l0.2-0.1l0.2-0.2l0.2-0.1l0.2-0.1l0.2-0.1l0.2-0.1 l0.2-0.1l0.2-0.1l0.2-0.1l0.2-0.2l0.2-0.1l0.2-0.1l0.2-0.1l0.2-0.1l0.2-0.1l0.2-0.1l0.2-0.1L251,77l0.2-0.1l0.2-0.1l0.2-0.1 l0.2-0.1l0.2-0.1l0.2-0.1l0.2-0.1l0.2-0.1l0.2-0.1L253,76l0.2-0.1l0.2-0.1l0.2-0.1l0.2-0.1l0.2-0.1l0.2-0.1l0.2-0.1l0.2-0.1 l0.2-0.1L255,75l-1,1l0.2-0.1l0.2-0.1h0.3l0.2-0.1l0.2-0.1l0.2-0.1l0.2-0.1l0.2-0.1l0.2-0.1l0.2-0.1l0.2-0.1h0.3l0.2-0.1l0.2-0.1 l0.2-0.1l0.2-0.1l0.2-0.1h0.3l0.2-0.1l0.2-0.1l0.2-0.1l0.2-0.1l0.2-0.1h0.3l0.2-0.1L260,74h0.3l0.2-0.1l0.2-0.2l0.2-0.1l0.2-0.1 l0.2-0.1l0.8,0.2l0.2-0.1l0.2-0.1l0.2-0.1l0.2-0.1h0.3l0.2-0.1h0.4h0.3h0.3h0.3l0.2-0.1h0.3l0.2-0.1l0.2-0.2v-0.1l-0.4-0.1h-0.3 h-0.3h-0.3l0.2-0.2l0.2-0.1l0.2-0.1l0.2-0.2l0.2-0.2l0.2-0.2l0.2-0.1l0.2-0.1l0.2-0.1l0.6,0.1l0.2-0.1l0.2-0.1l0.2-0.1h0.3 l0.2-0.1l0.2-0.1h0.3l0.2-0.1l0.2-0.1h0.3l0.2-0.1h0.3l0.2-0.1l0.2-0.1h0.3l0.2-0.1h0.3h0.3l0.2-0.1h0.3h0.3L272,70h0.3h0.3h0.3 h0.3l0.2-0.1h0.3h0.3h0.3h0.4h0.3h0.3h0.3h0.3h0.4h0.3h0.4h0.3h0.4h0.3h0.4h0.4h0.4h0.4h0.4l0.6,0.1h0.4l0.6,0.1h0.4l0.6,0.1 l0.7,0.1l0.6,0.1l0.7,0.1l0.6,0.1l0.6,0.1l0.7,0.1l0.6,0.1l0.7,0.1l0.7,0.1l0.8,0.2l0.7,0.1l0.9,0.2l0.9,0.2l1.1,0.3l1.2,0.3 l1.4,0.4l2.1,0.6l6.6,2.5l2,0.9l1.5,0.7l1.1,0.6l1,0.5l0.8,0.5l0.6,0.4l0.6,0.4l0.5,0.3l0.5,0.3l0.5,0.3l0.5,0.3l0.3,0.3l0.5,0.3 l0.5,0.3l0.3,0.3l0.5,0.3l0.3,0.3l0.5,0.3l0.3,0.3l0.3,0.3l0.3,0.3l0.3,0.3l0.3,0.3l0.3,0.3l0.3,0.3l0.3,0.3l0.3,0.3l0.3,0.3 l0.3,0.3l0.2,0.2l0.3,0.3l0.2,0.2l0.3,0.3l0.3,0.3l0.2,0.2l0.2,0.2l0.3,0.3l0.2,0.2l0.2,0.2l0.3,0.3l0.2,0.2l0.2,0.2l0.2,0.2 l0.2,0.2l0.3,0.3l0.2,0.2l0.2,0.2l0.2,0.2l0.2,0.2l0.2,0.2l0.2,0.2l0.2,0.2l0.1,0.2l0.2,0.2l0.2,0.2l0.2,0.2l0.2,0.2l0.2,0.2 l0.1,0.2l0.2,0.2l0.2,0.2l0.1,0.2l0.2,0.2l0.2,0.2l0.1,0.2l0.2,0.2l0.1,0.2l0.2,0.2l0.2,0.2l0.1,0.2l0.2,0.2l0.1,0.2l0.2,0.2 l0.1,0.2l0.1,0.2L328,96l0.1,0.2l0.2,0.2l0.1,0.2l0.1,0.2l0.2,0.2l0.1,0.2l0.1,0.2l0.2,0.2l0.1,0.2l0.1,0.2l0.2,0.2l0.1,0.2 l0.1,0.2l0.1,0.2l0.1,0.2l0.2,0.2l0.1,0.2l0.1,0.2l0.1,0.2l0.1,0.2l0.2,0.2l0.1,0.2l0.1,0.2l0.1,0.2l0.1,0.2l0.1,0.2l0.1,0.2 l0.1,0.2l0.1,0.2l0.1,0.2l0.1,0.2l0.1,0.2l0.1,0.2l0.1,0.2l0.1,0.2l0.1,0.2l0.1,0.2l0.1,0.2l0.1,0.2l0.1,0.2l0.1,0.2l0.1,0.2 l0.1,0.2l0.1,0.2l0.1,0.2l0.1,0.2l0.1,0.2l0.1,0.2l0.1,0.2v0.3l0.1,0.2l0.1,0.2l0.1,0.2l0.1,0.2l0.1,0.2v0.3l0.1,0.2l0.2,0.2 l0.2,0.2l0.1,0.2l0.1,0.2l0.2,0.2l0.1,0.2l0.1,0.2l0.1,0.2l0.1,0.2l0.2,0.2l0.1,0.2l0.1,0.2l0.1,0.2l0.1,0.2v0.3l0.1,0.2l0.1,0.2 l0.1,0.2l0.1,0.2l0.1,0.2v0.3l0.1,0.2l0.1,0.2l0.1,0.2v0.3l0.1,0.2l0.1,0.2v0.3l0.1,0.2l0.1,0.2v0.3l0.1,0.2l0.1,0.2v0.3l0.1,0.2 l0.1,0.2v0.3l0.1,0.2l0.1,0.2h0.1l0.1-0.4v-0.4V115v-0.3v-0.3v-0.3l-0.1-0.2v-0.3l-0.1-0.2l-0.1-0.2l-0.1-0.2v-0.3l-0.1-0.2 l-0.1-0.2l-0.1-0.2l-0.1-0.2l-0.1-0.2l-0.1-0.2l-0.1-0.2l-0.1-0.2v-0.3l-0.1-0.2l-0.1-0.2l-0.1-0.2l-0.1-0.2l-0.1-0.2l-0.1-0.2 l-0.1-0.2l-0.1-0.2v-0.3l-0.1-0.2l-0.1-0.2v-0.3l-0.1-0.2l-0.1-0.2v-0.3v-0.3l-0.1-0.2v-0.3l-0.1-0.2l-0.1-0.2l-0.1-0.2l-0.1-0.2 l-0.1-0.2l-0.1-0.2l-0.1-0.2l-0.1-0.2l-0.1-0.2l-0.1-0.2l-0.1-0.2l-0.1-0.2l-0.1-0.2l-0.1-0.2l-0.1-0.2l-0.1-0.2l-0.1-0.2 l-0.1-0.2l-0.1-0.2l-0.2-0.2l-0.1-0.2l-0.1-0.2l-0.1-0.2l-0.1-0.2l-0.1-0.2l-0.1-0.2l-0.1-0.2l-0.1-0.2l-0.1-0.2l-0.1-0.2 l-0.2-0.2l-0.1-0.2l-0.1-0.2l-0.1-0.2l-0.1-0.2l-0.1-0.2l-0.1-0.2l-0.2-0.2l-0.1-0.2l-0.1-0.2l-0.1-0.2l-0.1-0.2l-0.1-0.2 l-0.2-0.2l-0.1-0.2l-0.1-0.2l-0.1-0.2L330,97l-0.2-0.2l-0.1-0.2l-0.1-0.2l-0.1-0.2l-0.2-0.2l-0.1-0.2l-0.1-0.2l-0.2-0.2l-0.1-0.2 l-0.1-0.2l-0.1-0.2l-0.2-0.2l-0.1-0.2l-0.1-0.2L328,94l-0.1-0.2l-0.1-0.2l-0.2-0.2l-0.1-0.2l-0.2-0.2l-0.1-0.2l-0.1-0.2l-0.2-0.2 l-0.1-0.2l-0.2-0.2l-0.1-0.2l-0.2-0.2l-0.1-0.2l-0.2-0.2l-0.1-0.2l-0.2-0.2l-0.1-0.2l-0.2-0.2l-0.1-0.2l-0.2-0.2l-0.1-0.2 l-0.2-0.2l-0.2-0.2l-0.1-0.2l-0.2-0.2l-0.1-0.2l-0.2-0.2l-0.2-0.2l-0.2-0.2l-0.1-0.2l-0.2-0.2l-0.2-0.2l-0.2-0.2l-0.1-0.2 l-0.2-0.2l-0.2-0.2l-0.2-0.2l-0.2-0.2l-0.2-0.2l-0.2-0.2l-0.2-0.2l-0.2-0.2l-0.2-0.2l-0.2-0.2L321,85l-0.2-0.2l-0.2-0.2l-0.2-0.2 l-0.2-0.2l-0.3-0.3l-0.2-0.2l-0.2-0.2l-0.2-0.2L319,83l-0.2-0.2l-0.3-0.3l-0.2-0.2L318,82l-0.3-0.3l-0.2-0.2l-0.3-0.3l-0.3-0.3 l-0.3-0.3l-0.3-0.3L316,80l-0.3-0.3l-0.5-0.3l-0.3-0.3l-0.5-0.3l-0.3-0.3l-0.5-0.3l-0.5-0.3l-0.3-0.3l-0.2-0.2l-0.5-0.3l-0.7-0.4 l-0.7-0.4l-0.3-0.3l-0.2-0.2l-0.1-0.2l-0.1-0.2l-0.1-0.2v-0.3l-0.1-0.2l-0.7-0.4l-1-0.5l-1.1-0.6l-1.2-0.6l-1.3-0.6l-1.6-0.7 l-2-0.9l-2-0.8l-0.2,0.1h-0.3h-0.1l-0.1-0.2l-5.3-2.1l0.2-0.1h0.3l0.8,0.2l1.4,0.4l0.3,0.1l0.1,0.2l0.3,0.1l0.2-0.1l0.2-0.1h0.1 l0.3,0.1h0.1l0.2,0.2l0.5,0.2l0.2-0.2l0.8,0.3l0.1,0.2h0.1h0.3h0.1l0.1,0.2l0.2,0.2l0.5,0.2l0.2-0.1l0.2-0.1l1.1,0.4l0.1,0.2 l0.4,0.1l0.5,0.2l0.1,0.2l0.6,0.2l2.4,0.9l1,0.5l1,0.5l1.1,0.6l1.3,0.6l0.5,0.3l0.6,0.4l0.7,0.4l0.5,0.3l0.3,0.3l0.2,0.2l0.1,0.2 l0.5,0.2l0.9,0.3l0.2,0.2l0.2,0.2l0.2,0.2l0.2,0.2l0.1,0.2l0.5,0.2l0.4,0.1l0.1,0.2l0.3,0.3l1.6,0.7l0.2,0.2l0.3,0.3l0.3,0.3 l0.2,0.2l0.3,0.3l0.3,0.3l0.2,0.2l0.2,0.2l0.3,0.3l0.2,0.2l0.3,0.3l0.2,0.2l0.2,0.2l0.2,0.2l0.3,0.3l0.2,0.2l0.2,0.2l0.2,0.2 l0.2,0.2l0.2,0.2l0.2,0.2l0.2,0.2l0.2,0.2l0.2,0.2l0.2,0.2l0.2,0.2l0.2,0.2l0.2,0.2l0.2,0.2l0.1,0.2l0.2,0.2l0.2,0.2l0.2,0.2 l0.2,0.2l0.1,0.2l0.2,0.2l0.2,0.2l0.1,0.2l0.2,0.2l0.2,0.2l0.1,0.2l0.2,0.2l0.2,0.2l0.1,0.2l0.2,0.2l0.2,0.2l0.1,0.2l0.2,0.2 l0.1,0.2l0.2,0.2l0.1,0.2l0.2,0.2l0.1,0.2l0.2,0.2l0.1,0.2l0.2,0.2l0.1,0.2l0.2,0.2l0.1,0.2l0.2,0.2l0.1,0.2l0.1,0.2l0.2,0.2 L330,93l0.2,0.2l0.1,0.2l0.1,0.2l0.2,0.2l0.1,0.2l0.1,0.2l0.2,0.2l0.1,0.2l0.1,0.2l0.2,0.2l0.1,0.2l0.1,0.2l0.2,0.2l0.1,0.2 L332,96l0.1,0.2l0.2,0.2l0.1,0.2l0.1,0.2l0.1,0.2l0.2,0.2l0.1,0.2l0.1,0.2l0.1,0.2l0.2,0.2l0.1,0.2l0.1,0.2l0.1,0.2l0.1,0.2 l0.1,0.2l0.2,0.2l0.1,0.2l0.1,0.2l0.1,0.2l0.1,0.2l0.1,0.2l0.2,0.2l0.1,0.2l0.1,0.2l0.1,0.2l0.1,0.2l0.1,0.2l0.1,0.2l0.1,0.2 l0.2,0.2l0.1,0.2l0.1,0.2l0.1,0.2l0.1,0.2l0.1,0.2l0.1,0.2l0.1,0.2l0.1,0.2l0.1,0.2l0.1,0.2l0.1,0.2l0.1,0.2l0.1,0.2l0.1,0.2 l0.1,0.2l0.1,0.2l0.1,0.2l0.1,0.2l0.1,0.2l0.1,0.2l0.1,0.2l0.2,0.2v0.3l0.1,0.2l0.1,0.2l0.1,0.2l0.1,0.2l0.1,0.2h0.1l0.1-0.4 l-0.1-0.2l-0.1-0.2l-0.1-0.2v-0.3l-0.1-0.2l-0.1-0.2l-0.1-0.2l-0.1-0.2v-0.3l-0.1-0.2l-0.1-0.2l-0.1-0.2l-0.1-0.2l-0.1-0.2V104 l-0.1-0.2l-0.1-0.2l-0.1-0.2l-0.1-0.2l-0.1-0.2l-0.9-1l-0.1-0.2l-0.1-0.2l-0.1-0.2l-0.1-0.2l-0.1-0.2l-0.1-0.2v-0.3l-0.1-0.2 l-0.1-0.2l-0.1-0.2l-0.1-0.2l-0.1-0.2l-0.1-0.2l-0.1-0.2l-0.1-0.2l-0.2-0.2l-0.1-0.2l-0.1-0.2l-0.1-0.2l-0.1-0.2l-0.1-0.2 l-0.1-0.2l-0.1-0.2l-0.1-0.2l-0.1-0.2l-0.1-0.2l-0.1-0.2l-0.2-0.2l-0.1-0.2l-0.1-0.2l-0.1-0.2l-0.1-0.2l-0.1-0.2l-0.1-0.2 l-0.2-0.2l-0.1-0.2l-0.1-0.2l-0.1-0.2l-0.1-0.2l-0.2-0.2l-0.1-0.2l-0.1-0.2l-0.1-0.2l-0.2-0.2l-0.1-0.2l-0.1-0.2l-0.2-0.2 l-0.1-0.2l-0.1-0.2l-0.2-0.2l-0.1-0.2l-0.1-0.2l-0.2-0.2l-0.1-0.2l-0.1-0.2l-0.2-0.2l-0.1-0.2l-0.2-0.2l-0.1-0.2l-0.2-0.2 l-0.1-0.2l-0.2-0.2l-0.1-0.2l-0.2-0.2l-0.1-0.2l-0.2-0.2l-0.1-0.2l-0.2-0.2l-0.1-0.2l-0.2-0.2l-0.2-0.2l-0.1-0.2l-0.2-0.2 l-0.1-0.2l-0.2-0.2l-0.2-0.2l-0.2-0.2l-0.1-0.2l-0.2-0.2l-0.2-0.2l-0.2-0.2l-0.1-0.2l-0.2-0.2l-0.2-0.2l-0.2-0.2l-0.2-0.2 l-0.2-0.2l-0.2-0.2l-0.2-0.2l-0.2-0.2l-0.2-0.2l-0.2-0.2l-0.2-0.2l-0.2-0.2l-0.2-0.2l-0.2-0.2l-0.2-0.2l-0.2-0.2l-0.2-0.2 l-0.3-0.3l-0.2-0.2l-0.2-0.2l-0.3-0.3l-0.2-0.2l-0.2-0.2l-0.3-0.3l-0.2-0.2l-0.3-0.3l-0.2-0.2l-0.3-0.3l-0.3-0.3l-0.2-0.2 l-0.3-0.3l-0.3-0.3L318,78l-0.2-0.2l-0.3-0.3l-0.3-0.3l-0.3-0.3l-0.3-0.3l-0.5-0.3l-0.3-0.3l-0.3-0.3l-0.5-0.3l-0.3-0.3l-0.5-0.3 l-0.2-0.2l-0.2-0.2l-0.1-0.2l-0.1-0.2l-0.1-0.2l-0.1-0.2l-0.1-0.2l-0.1-0.2l-0.3-0.3l-0.5-0.3l-0.7-0.4l-1-0.5l-0.3-0.3l-0.2-0.2 l-0.6-0.4l-0.7-0.4l-0.7-0.4l-0.8-0.5l-1-0.5l-1.2-0.6l-1.5-0.7l-3-1.3l-2.5-0.9l-3.1-1l-1.7-0.5l-1.3-0.3l-1.1-0.3l-0.9-0.2 l-0.9-0.2l-0.8-0.2l-0.8-0.2l-0.7-0.1l-0.7-0.1l-0.7-0.1l-0.7-0.1l-0.6-0.1l-0.6-0.1l-0.6-0.1l-0.6-0.1l-0.6-0.1h-0.4l-0.6-0.1 h-0.4l-0.6-0.1h-0.4h-0.1l-0.2-0.2l-0.1-0.2l-0.1-0.2v-0.3h-0.1h-0.4h-0.3h-0.4h-0.4H277h-0.4h-0.4h-0.3h-0.4h-0.3h-0.4h-0.3 h-0.4h-0.3h-0.4h-0.3h-0.3h-0.4h-0.3h-0.3h-0.3h-0.4h-0.3h-0.3h-0.3h-0.3h-0.3h-0.3h-0.4h-0.3h-0.3H268h-0.3h-0.3h-0.3h-0.3 l-0.2,0.1h-0.3H266h-0.3h-0.3h-0.3h-0.3h-0.3l-0.2,0.1H264h-0.3h-0.3l-0.2,0.1h-0.3h-0.3h-0.3l-0.2,0.1h-0.3h-0.3l-0.2,0.1H261 h-0.3l-0.2,0.1h-0.3l-0.2,0.1h-0.3h-0.3l-0.2,0.1h-0.3l-0.2,0.1h-0.3l-0.2,0.1h-0.3l-0.2,0.1h-0.3l-0.2,0.1h-0.3l-0.2,0.1h-0.3 l-0.2,0.1l-0.2,0.1h-0.3l-0.2,0.1h-0.3l-0.2,0.1l-0.2,0.1h-0.3l-0.2,0.1H254l-0.2,0.1l-0.2,0.1h-0.3l-0.2,0.1l-0.2,0.1h-0.3 l-0.2,0.1l-0.2,0.1l-0.2,0.1h-0.3l-0.2,0.1l-0.2,0.1l-0.2,0.1h-0.3l-0.2,0.1l-0.2,0.1l-0.2,0.1h-0.3l-0.2,0.1l-0.2,0.1l-0.2,0.1 l-0.2,0.1h-0.3l-0.2,0.1l-0.2,0.1l-0.2,0.1l-0.2,0.1l-0.2,0.1l-0.2,0.1h-0.3l-0.2,0.1l-0.2,0.1l-0.2,0.1l-0.2,0.1l-0.2,0.1 l-0.2,0.1l-0.2,0.1l-0.2,0.1l-0.2,0.1h-0.3l-0.2,0.1l-0.2,0.1l-0.2,0.1l-0.2,0.1l-0.2,0.1l-0.2,0.1l-0.2,0.1l-0.2,0.1l-0.2,0.1 l-0.2,0.1l-0.2,0.1l-0.2,0.1l-0.2,0.1l-0.2,0.1l-0.2,0.1l-0.2,0.1l-0.2,0.1l-0.2,0.1l-0.2,0.1l-0.2,0.1l-0.2,0.1l-0.2,0.1 l-0.2,0.1l-0.2,0.1l-0.2,0.2l-0.2,0.1l-0.2,0.1l-0.2,0.1l-0.2,0.1l-0.2,0.1l-0.2,0.1l-0.2,0.1l-0.2,0.1l-0.2,0.1l-0.2,0.2 l-0.2,0.1l-0.2,0.1l-0.2,0.1l-0.2,0.1l-0.2,0.1l-0.2,0.2l-0.2,0.1l-0.2,0.1l-0.2,0.1l-0.2,0.2l-0.2,0.1l-0.2,0.1l-0.2,0.1 l-0.2,0.2l-0.2,0.1l-0.2,0.1l-0.2,0.2l-0.2,0.1l-0.2,0.1l-0.2,0.2L234,72l-0.2,0.1l-0.2,0.2l-0.2,0.1l-0.2,0.2l-0.2,0.1l-0.2,0.1 l-0.2,0.2l-0.2,0.1l-0.2,0.2l-0.2,0.1l-0.2,0.2l-0.2,0.1l-0.2,0.2l-0.2,0.1l-0.2,0.2l-0.2,0.1l-0.2,0.2l-0.2,0.1l-0.2,0.2 l-0.2,0.1l-0.2,0.2l-0.2,0.1l-0.2,0.2l-0.2,0.2l-0.2,0.1l-0.2,0.2l-0.2,0.2l-0.2,0.1l-0.2,0.2l-0.2,0.2l-0.2,0.1l-0.2,0.2 l-0.2,0.2l-0.2,0.2l-0.2,0.2l-0.2,0.1l-0.2,0.2l-0.2,0.2l-0.2,0.2l-0.2,0.2l-0.2,0.2l-0.2,0.2l-0.2,0.2l2.6,1l-0.2,0.2l-0.2,0.2 l-0.2,0.2l-0.3,0.3l-0.2,0.2l-0.2,0.2l-0.2,0.2l-0.2,0.2l-0.2,0.2l-0.2,0.2l-0.3,0.3l-0.2,0.2l-0.2,0.2L225,83l-0.3,0.3l-0.2,0.2 L224,84l-0.2,0.2l-0.2,0.2l-0.3,0.3L223,85l-0.2,0.2l-0.3,0.3l-0.3,0.3L222,86l-0.3,0.3l-0.3,0.3l-0.3,0.3l-0.3,0.3l-0.3,0.3 l-0.3,0.3l-0.3,0.3l-0.3,0.3l-0.3,0.5l-0.3,0.3l-0.3,0.3l-0.3,0.5l-0.3,0.5l-0.3,0.3l-0.3,0.5l-0.3,0.5l-0.3,0.5l-0.4,0.6 l-0.3,0.5l-0.4,0.6l-0.4,0.6l-0.4,0.6l-0.4,0.6l-0.4,0.7l-0.4,0.7l-0.5,0.8l-0.5,0.8l-0.5,1l-0.6,1.1l-0.6,1.3l-0.5,1l-0.5,0.8 l-2.7,7.3l-0.2,0.8l-0.7,2.3l-0.4,1.6l-0.3,1.2l-0.3,1.1l-0.2,0.9l-0.2,0.8l-0.2,0.8l-0.1,0.7l-0.2,0.8l-0.1,0.6l-0.1,0.7 l-0.1,0.6l0.7,0.8l-0.1,0.6l-0.1,0.6l-0.1,0.6v0.4l-0.1,0.6v0.4l-0.1,0.6v0.4v0.4v0.4l-0.1,0.6v0.4v0.3v0.4v0.4v0.4v0.4v0.3v0.4 v0.4v0.3v0.4v0.3v0.4v0.3v0.3v0.4v0.3v0.3v0.4v0.3v0.3v0.3v0.3v0.4v0.3v0.3v0.3v0.3v0.3v0.3v0.3v0.3v0.3l0.1,0.2v0.3v0.3v0.3v0.3 v0.3l0.1,0.2v0.3v0.3v0.3v0.3l0.1,0.2v0.3v0.3l0.1,0.2v0.3v0.3l0.1,0.2v0.3l0.1,0.2v0.3v0.3l0.1,0.2v0.3l0.1,0.2v0.3l0.1,0.2v0.3 l0.1,0.2v0.3l0.1,0.2v0.3l0.1,0.2v0.3l0.1,0.2v0.3l0.1,0.2v0.3l0.1,0.2l0.1,0.2v0.3l0.1,0.2l0.1,0.2v0.3l0.1,0.2v0.3l0.1,0.2 l0.1,0.2l0.1,0.2v0.3l0.1,0.2l0.1,0.2v0.3l0.1,0.2l0.1,0.2l0.1,0.2v0.3l0.1,0.2l0.1,0.2l0.1,0.2v0.3l0.1,0.2l0.1,0.2l0.1,0.2v0.3 l0.1,0.2l0.1,0.2l0.1,0.2l0.1,0.2l0.1,0.2v0.3l0.1,0.2l0.1,0.2l0.1,0.2l0.1,0.2l0.1,0.2l0.1,0.2v0.3l0.1,0.2l0.1,0.2l0.1,0.2 l0.1,0.2l0.1,0.2l0.1,0.2l0.1,0.2l0.1,0.2l0.1,0.2l0.1,0.2l0.1,0.2l0.1,0.2v0.3l0.1,0.2l0.1,0.2l0.1,0.2l0.1,0.2l0.1,0.2l0.1,0.2 l0.1,0.2l0.1,0.2l0.1,0.2l0.1,0.2l0.1,0.2l0.1,0.2l0.1,0.2l0.1,0.2l0.1,0.2l0.1,0.2l0.1,0.2l0.2,0.2l0.1,0.2l0.1,0.2l0.1,0.2 l0.1,0.2l0.1,0.2l0.1,0.2l0.1,0.2l0.1,0.2l0.1,0.2l0.1,0.2l0.1,0.2l0.2,0.2l0.1,0.2l0.1,0.2l0.1,0.2l0.1,0.2l0.1,0.2l0.1,0.2 l0.1,0.2l0.2,0.2l0.1,0.2l0.1,0.2l0.1,0.2l0.1,0.2l0.2,0.2l0.1,0.2l0.1,0.2l0.1,0.2l0.1,0.2l0.2,0.2l0.1,0.2l0.1,0.2l0.1,0.2 l0.2,0.2l0.1,0.2l0.1,0.2l0.1,0.2l0.2,0.2l0.1,0.2l0.1,0.2l0.2,0.2l0.1,0.2l0.1,0.2l0.1,0.2l0.2,0.2l0.1,0.2l0.2,0.2l0.1,0.2 l0.1,0.2l0.2,0.2l0.1,0.2l0.1,0.2l0.2,0.2l0.1,0.2l0.2,0.2l0.1,0.2l0.1,0.2l0.2,0.2l0.1,0.2l0.2,0.2l0.1,0.2l0.2,0.2l0.1,0.2 l0.2,0.2l0.1,0.2l0.2,0.2l0.1,0.2l0.2,0.2l0.1,0.2l0.2,0.2l0.2,0.2l0.1,0.2l0.2,0.2l0.1,0.2l0.2,0.2l0.2,0.2l0.1,0.2l0.2,0.2 l0.2,0.2l0.2,0.2l0.1,0.2l0.2,0.2l0.2,0.2l0.2,0.2l0.2,0.2l0.2,0.2l0.2,0.2l0.2,0.2l0.2,0.2l0.2,0.2l0.2,0.2l0.2,0.2l0.3,0.3 l0.2,0.2l0.2,0.2l0.2,0.2l0.3,0.3l0.2,0.2l0.3,0.3l0.2,0.2l0.3,0.3l0.3,0.3l0.2,0.2l0.3,0.3l0.3,0.3l0.3,0.3l0.3,0.3l0.3,0.3 l0.3,0.3l0.3,0.3l0.3,0.3l0.5,0.3l0.3,0.3l0.5,0.3l0.3,0.3l0.5,0.3l0.5,0.3l0.3,0.3l0.5,0.3l0.5,0.3l0.5,0.3l0.5,0.3l0.5,0.3 l0.6,0.4l0.5,0.3l0.5,0.3l0.6,0.4l0.5,0.3l0.6,0.4l0.5,0.3l0.6,0.4l0.6,0.4l0.5,0.3l0.6,0.4l0.5,0.3l0.6,0.4l0.6,0.4l0.5,0.3 l0.6,0.4l0.5,0.3l0.5,0.3l0.6,0.4l0.1,0.2l0.2,0.2l0.3,0.3l0.3,0.3l0.5,0.3l0.8,0.5l1.2,0.6l1,0.5l0.5,0.3l-0.8-0.3l-2.4-1 l-1.6-0.7l-1.3-0.6l-1.1-0.6l-1-0.5l-0.8-0.5l-0.7-0.4l-0.8-0.5l-0.6-0.4l-0.7-0.4l-0.6-0.4l-0.6-0.4l-0.6-0.4l-0.6-0.4l-0.5-0.3 l-0.5-0.3l-0.6-0.4l-0.5-0.3l-0.5-0.3l-0.3-0.3l-0.5-0.3l-0.5-0.3l-0.3-0.3l-0.5-0.3l-0.3-0.3l-0.5-0.3l-0.3-0.3l-0.3-0.3 l-0.3-0.3l-0.3-0.3l-0.3-0.3l-0.3-0.3l-0.3-0.3l-0.3-0.3l-0.3-0.3l-0.3-0.3l-0.3-0.3l-0.2-0.2l-0.3-0.3l-0.3-0.3l-0.2-0.2 l-0.3-0.3l-0.2-0.2l-0.3-0.3l-0.2-0.2l-0.3-0.3l-0.2-0.2l-0.3-0.3l-0.2-0.2l-0.2-0.2l-0.3-0.3l-0.2-0.2l-0.2-0.2l-0.3-0.3 l-0.2-0.2l-0.2-0.2l-0.2-0.2l-0.2-0.2l-0.3-0.3l-0.2-0.2l-0.2-0.2l-0.2-0.2l-0.2-0.2l-0.2-0.2l-0.2-0.2l-0.2-0.2l-0.2-0.2 l-0.2-0.2l-0.2-0.2l-0.2-0.2l-0.2-0.2l-0.2-0.2l-0.2-0.2l-0.1-0.2l-0.1-0.2l-0.1-0.2l-0.1-0.2l-0.1-0.2l-0.1-0.2v-0.3l-0.1-0.2 l-0.1-0.2l-0.1-0.2l-0.1-0.2l-0.1-0.2l-0.2-0.2l-0.8-0.3h-0.3h-0.1l-0.2-0.2l-0.2-0.2l-0.1-0.2l-0.2-0.2l-0.2-0.2l-0.2-0.2 l-0.1-0.2l-0.2-0.2l-0.2-0.2l-0.1-0.2l-0.2-0.2L215,176l-0.1-0.2l-0.2-0.2l-0.2-0.2l-0.1-0.2l-0.2-0.2l-0.1-0.2l-0.2-0.2 l-0.1-0.2l-0.2-0.2l-0.1-0.2l-0.2-0.2l-0.1-0.2l-0.1-0.2l-0.2-0.2l-0.1-0.2l-0.2-0.2l-0.1-0.2l-0.1-0.2l-0.2-0.2l-0.1-0.2 l-0.1-0.2l-0.2-0.2l-0.1-0.2l-0.1-0.2l-0.2-0.2l-0.1-0.2l-0.1-0.2l-0.2-0.2l-0.1-0.2l-0.1-0.2l-0.1-0.2l-0.2-0.2l-0.1-0.2 l-0.1-0.2l-0.1-0.2l-0.1-0.2l-0.2-0.2l-0.1-0.2l-0.1-0.2l-0.1-0.2l-0.1-0.2l-0.1-0.2l-0.2-0.2l-0.1-0.2L209,167l-0.1-0.2 l-0.1-0.2l-0.1-0.2l-0.1-0.2l-0.1-0.2l-0.1-0.2l-0.2-0.2l-0.1-0.2l-0.1-0.2l-0.1-0.2l-0.1-0.2l-0.1-0.2l-0.1-0.2l-0.1-0.2 l-0.1-0.2l-0.1-0.2l-0.1-0.2l-0.1-0.2l-0.1-0.2l-0.1-0.2l-0.1-0.2l-0.1-0.2l-0.1-0.2l-0.1-0.2l-0.1-0.2l-0.1-0.2l-0.1-0.2 l-0.1-0.2l-0.1-0.2l-0.1-0.2l-0.1-0.2l-0.1-0.2l-0.1-0.2v-0.3l-0.1-0.2l-0.1-0.2l-0.1-0.2l-0.1-0.2L205,158l-0.1-0.2l-0.1-0.2 l-0.1-0.2l-0.1-0.2v-0.3l-0.1-0.2l-0.1-0.2l-0.1-0.2l-0.1-0.2l-0.1-0.2v-0.3l-0.1-0.2l-0.1-0.2l-0.1-0.2l-0.1-0.2v-0.3l-0.1-0.2 l-0.1-0.2l-0.1-0.2l-0.1-0.2v-0.3l-0.1-0.2l-0.1-0.2l-0.1-0.2v-0.3l-0.1-0.2l-0.1-0.2v-0.3l-0.1-0.2l-0.1-0.2l-0.1-0.2v-0.3 l-0.1-0.2l-0.1-0.2v-0.3l-0.1-0.2v-0.3l-0.1-0.2l-0.1-0.2V149l-0.1-0.2l-0.1-0.2v-0.3l0.2,0.7v-0.3l-0.1-0.2v-0.3l-0.1-0.2v-0.3 l-0.1-0.2v-0.3l-0.1-0.2v-0.3l-0.1-0.2v-0.3l-0.1-0.2v-0.3l-0.1-0.2v-0.3l-0.1-0.2v-0.3v-0.3l-0.1-0.2v-0.3l-0.1-0.2v-0.3v-0.3 v-0.3l-0.1-0.2v-0.3V142l-0.1-0.2v-0.3v-0.3v-0.3l-0.1-0.2v-0.3v-0.3v-0.3v-0.3v-0.3v-0.3l-0.1-0.2v-0.3v-0.3v-0.3v-0.3v-0.3 v-0.3v-0.3v-0.4v-0.3v-0.3v-0.3V135v-0.3l-0.1-0.2h-0.1l-0.1,0.3v0.3v0.4v0.3v0.3v0.4v0.3v0.3v0.3v0.3v0.4v0.3v0.3v0.3v0.3v0.3 v0.3v0.3v0.3v0.3v0.3l0.1,0.2v0.3v0.3v0.3v0.3l0.1,0.2v0.3v0.3v0.3l0.1,0.2v0.3v0.3l0.1,0.2v0.3v0.3l0.1,0.2v0.3v0.3l0.1,0.2v0.3 l0.1,0.2v0.3l0.1,0.2v0.3l0.1,0.2v0.3l0.1,0.2v0.3l0.1,0.2v0.3l0.1,0.2v0.3l0.1,0.2v0.3l0.1,0.2l0.1,0.2v0.3l0.1,0.2v0.3l0.1,0.2 l0.1,0.2v0.3l0.1,0.2l0.1,0.2v0.3l0.1,0.2l0.1,0.2v0.3l0.1,0.2l0.1,0.2l0.1,0.2v0.3l0.1,0.2l0.1,0.2l0.1,0.2v0.3l0.1,0.2l0.1,0.2 l0.1,0.2v0.3l0.1,0.2l0.1,0.2l0.1,0.2l0.1,0.2v0.3l0.1,0.2l0.1,0.2l0.1,0.2l0.1,0.2l0.1,0.2l0.1,0.2v0.3l0.1,0.2l0.1,0.2l0.1,0.2 l0.1,0.2l0.1,0.2l0.1,0.2l0.1,0.2l0.1,0.2l0.1,0.2v0.3l0.1,0.2l0.1,0.2l0.1,0.2l0.1,0.2l0.1,0.2l0.1,0.2l0.1,0.2l0.1,0.2l0.1,0.2 l0.1,0.2l0.1,0.2l0.1,0.2l0.1,0.2l0.1,0.2l0.1,0.2l0.1,0.2l0.1,0.2l0.1,0.2l0.1,0.2l0.1,0.2l0.1,0.2l0.1,0.2l0.1,0.2l0.1,0.2 l0.1,0.2l0.1,0.2l0.2,0.2l0.1,0.2l0.1,0.2l0.1,0.2l0.1,0.2l0.1,0.2l0.1,0.2l0.1,0.2l0.1,0.2l0.1,0.2l0.2,0.2l0.1,0.2l0.1,0.2 l0.1,0.2l0.1,0.2l0.1,0.2l0.2,0.2l0.1,0.2l0.1,0.2l0.1,0.2l0.1,0.2l0.2,0.2l0.1,0.2l0.1,0.2l0.1,0.2l0.1,0.2l0.2,0.2l0.1,0.2 l0.1,0.2l0.1,0.2l0.2,0.2l0.1,0.2l0.1,0.2l0.2,0.2l0.1,0.2l0.1,0.2l0.2,0.2l0.1,0.2l0.1,0.2l0.2,0.2l0.1,0.2l0.1,0.2l0.2,0.2 l0.1,0.2l0.2,0.2l0.1,0.2l0.1,0.2l0.2,0.2l0.1,0.2l0.2,0.2l0.1,0.2l0.2,0.2l0.1,0.2l0.2,0.2l0.1,0.2l0.2,0.2l0.1,0.2l0.2,0.2 l0.2,0.2l0.1,0.2l0.3,0.1l-0.4,1v0.3l0.1,0.2l0.1,0.2l0.1,0.2l0.2,0.2l0.5,0.3l0.6,0.4l0.3,0.3l0.2,0.2l0.2,0.2l0.1,0.2v0.3v0.3 l0.1,0.2l0.3,0.3l0.2,0.2l0.2,0.2l0.2,0.2l0.2,0.2l0.2,0.2l0.1,0.2l0.2,0.2l0.2,0.2l0.1,0.2l0.2,0.2l0.2,0.2l0.1,0.2l0.2,0.2 l0.2,0.2l0.2,0.2l0.1,0.2l0.2,0.2l0.3,0.3l0.2,0.2l0.3,0.3l0.6,0.2v-0.1l-0.1-0.2l-0.1-0.2l-0.2-0.2l-0.1-0.2l-0.2-0.2l-0.2-0.2 l-0.2-0.2l-0.2-0.2l-0.2-0.2l-0.2-0.2l-0.2-0.2l-0.2-0.2l-0.1-0.2l-0.2-0.2l-0.1-0.2l-0.1-0.2l-0.2-0.2l0.5,0.3l0.3,0.3l0.2,0.2 l0.2,0.2l0.2,0.2l0.2,0.2l0.2,0.2l0.2,0.2l0.2,0.2l0.2,0.2l0.2,0.2l0.2,0.2l0.4,0.1h0.3h0.3l-0.1,0.3v0.3l0.1,0.2l0.1,0.2 l0.8,0.3l0.6,0.2l0.2,0.2l0.1,0.2l-0.1,0.6l0.2,0.2h0.1l0.2-0.2l0.3,0.3l0.3,0.1l-0.2,0.2v0.1l0.6,0.4l-0.1,0.3l0.4,0.1h0.3 l0.3,0.1l-0.1,0.3v0.1l0.1,0.2l0.3,0.3l0.3,0.3l0.5,0.3l0.8,0.3l0.4,0.1l0.3,0.3l0.5,0.3l0.3,0.3l0.5,0.3l0.3,0.3l0.5,0.3 l0.5,0.3l0.3,0.3l0.5,0.3l0.3,0.3l0.4,0.1l-0.2,0.5h0.1l0.2-0.1l0.8,0.3l0.2,0.2l-0.1,0.4l0.1,0.2l0.5,0.2l0.2-0.1l0.2-0.1 l0.2-0.1l0.3,0.1l0.5,0.3l0.6,0.4l0.2,0.2v0.3l0.1,0.2l0.3,0.1l0.8,0.3l0.6,0.4l0.8,0.5l0.3,0.3l1,0.5l1.1,0.6l0.6,0.4l1,0.5 l0.6,0.4l1,0.5l2.7,1.2l2.1,0.9l0.6,0.4l-0.2,0.1l-6.2-2.3l-1.3-0.6l-1.1-0.4l-0.4-0.1l-0.1-0.2l-0.1-0.2h-0.1l-1-0.4L241,201 l-0.5-0.3l-0.6-0.2l-0.2,0.2l-0.1,0.4l0.3,0.1h0.4h0.1l0.1,0.2l0.1,0.2l0.8,0.5l1.3,0.6l1.2,0.6l1.2,0.6l0.6,0.4l0.8,0.5l1.8,0.7 l1.3,0.3l1.1,0.3l1.1,0.3l1.7,0.5l0.6,0.2l0.6,0.4l0.1,0.2v0.3l0.1,0.2v0.3l0.9,0.3l1.8,0.5l0.9,0.2l0.7,0.1l0.6,0.1l0.7,0.1h0.4 l0.6,0.1h0.4l0.6,0.1h0.4h0.4h0.4h0.4h0.3h0.4h0.4h0.4h0.4h0.4h0.4h0.4h0.4h0.4h0.4h0.4l0.6,0.1h0.4l0.6,0.1l0.6,0.1l0.7,0.1 l0.8,0.2l1.1,0.3l2.2,0.8l0.2,0.2l0.6,0.2h0.3l0.2-0.1l0.2-0.1l0.2-0.1l0.2-0.1l0.2-0.1h0.3l0.2-0.1l0.1-0.4v-0.3l-0.2-0.2 l-0.1-0.2l-0.3-0.3l-0.2-0.2l-0.1-0.2v-0.1l0.2-0.2l0.2-0.1l0.2-0.1l0.2-0.1h0.3l0.2-0.1h0.3h0.3h0.3h0.4h0.3h0.3h0.3l0.2-0.1 h0.3l0.2-0.1l0.2-0.1l0.1-0.3v-0.3v-0.3l0.3,0.1l0.2-0.1h0.3h0.3h0.3l0.2-0.1h0.3h0.3h0.3l0.2-0.1h0.3h0.3l0.2-0.1h0.3h0.3 l0.2-0.1h0.3h0.3l0.2-0.1h0.3l0.2-0.1h0.3h0.3l0.2-0.1h0.3l0.2-0.1h0.3l0.2-0.1h0.3l0.2-0.1h0.3l0.2-0.1h0.3h0.3l0.2-0.1h0.3 l0.2-0.1l0.2-0.1h0.3l0.2-0.1h0.3l0.2-0.1h0.3l0.2-0.1h0.3l0.2-0.1l0.2-0.1h0.3l0.2-0.1h0.3l0.2-0.1l0.2-0.1h0.3l0.2-0.1l0.2-0.1 h0.3l0.2-0.1l0.2-0.1h0.3l0.2-0.1l0.2-0.1h0.3l0.2-0.1l0.2-0.1h0.3l0.2-0.1l0.2-0.1l0.2-0.1h0.3l0.2-0.1l0.2-0.1l0.2-0.1h0.3 l0.2-0.1l0.2-0.1l0.2-0.1h0.3l0.2-0.1l0.2-0.1l0.2-0.1l0.2-0.1h0.3l0.2-0.1l0.2-0.1l0.2-0.1l0.2-0.1l0.2-0.1l0.2-0.1h0.3l0.2-0.1 l0.2-0.1l0.2-0.1l0.2-0.1l0.2-0.1l0.2-0.1l0.2-0.1l0.2-0.1h0.3l0.2-0.1l0.2-0.1l0.2-0.1l0.2-0.1l0.2-0.1l0.2-0.1l0.2-0.1l0.2-0.1 l0.2-0.1l0.2-0.1l0.2-0.1l0.2-0.1l0.2-0.1l0.2-0.1l0.2-0.1l0.2-0.1l0.2-0.1l0.2-0.1l0.2-0.1l0.2-0.1l0.2-0.1l0.2-0.1l0.2-0.1 l0.2-0.1l0.2-0.1l0.2-0.1l0.2-0.1l0.2-0.1l0.2-0.1l0.2-0.2l0.2-0.1l0.2-0.1l0.2-0.1l0.2-0.1l0.2-0.1l0.2-0.1l0.2-0.1l0.2-0.2 l0.2-0.1l0.2-0.1l0.2-0.1l0.2-0.1l0.2-0.1l0.2-0.2l0.2-0.1l0.2-0.1l0.2-0.1l0.2-0.2l0.2-0.1l0.2-0.1l0.2-0.1l0.2-0.2l0.2-0.1 l0.2-0.1l0.2-0.1l0.2-0.2l0.2-0.1l0.2-0.1l0.2-0.2l0.2-0.1l0.2-0.2l0.2-0.1l0.2-0.1l0.2-0.2l0.2-0.1l0.2-0.2l0.2-0.1l0.2-0.1 l0.2-0.2l0.2-0.1l0.2-0.2l0.2-0.2l0.2-0.1l0.2-0.2l0.2-0.1l0.2-0.1l0.2-0.2l0.2-0.1l0.2-0.1l0.2-0.1h0.4l0.2-0.5l0.3,0.1l0.3-0.5 l0.1-0.3l0.3,0.1l0.1-0.4v-0.3l0.3,0.1h0.3l0.2-0.1l0.2-0.1l0.2-0.2l0.2-0.2l0.2-0.2l0.2-0.2l0.2-0.2l0.3-0.3l0.2-0.2l0.2-0.2 l0.2-0.2l0.2-0.2l0.2-0.2l0.3-0.3l0.2-0.2l0.2-0.2l0.2-0.2l0.2-0.2l0.2-0.2l0.3-0.3l0.2-0.2l0.2-0.2l0.2-0.2l0.2-0.2l0.2-0.2 l0.2-0.2l0.2-0.2l0.2-0.2l0.2-0.2l0.2-0.2l0.2-0.2l0.2-0.2l0.2-0.1l0.4-0.4L325.8,183.1L325.8,183.1z M297.4,199.5 c2.8-0.7,10.1-4.7,12.8-6.4c2.1-1.3,4-2.5,6.1-4c1-0.7,1.9-1.4,2.9-2.1c0.5-0.4,1-0.7,1.5-1.1c0.3-0.2,0.4-0.3,0.7-0.5 c0.2-0.1,0.2-0.1,0.4-0.3l0.1-0.1c0,0,0.1-0.2,0.1-0.1l0.1,0.2c-0.7,0.4-2,2-2.8,2.7c-1,0.8-1.9,1.6-2.8,2.3 c-1.3,1-4.5,3.2-6,3.9c-2.2,1.1-4.1,2.2-6.4,3.2c-1.1,0.5-2.2,1-3.3,1.4c-0.6,0.2-1.2,0.3-1.7,0.6c-0.2,0.1-1.6,0.7-1.6,0.7 L297.4,199.5L297.4,199.5z M318.2,186.1c-0.6,0.9-5.8,4.5-6.9,5.2c-2.2,1.4-5,3.1-7.3,4.2c-5.9,2.7-9.5,4.1-16.1,5.5 c-5.9,1.2-11.2,2-17.4,2.5c-2.7,0.2-6.4,0.1-9.4-0.4c-3.6-0.6-6.9-2-10.6-3.4v-0.1c3.1,1.2,6.3,1,9,2.8l0.7-0.3l0.2,0.4 c2.1-1.4,6.4,0.4,9.4,0.7c2,0.2,2.6,0.1,4.3-0.5c0.6-0.2,1.4-0.4,2-0.6c0.8-0.3,1.1-0.3,2.3,0.2l0.1,0.1l1.8-1.7l1,0.5 c0.8-0.2,4-0.8,5.1-1c1.5-0.3,3.4-0.8,4.9-1.2c2.8-0.8,6.8-2.1,9.4-3.3c3.1-1.4,5.9-2.7,8.9-4.5c1.5-0.8,2.7-1.9,4.4-2.4 C315.5,188.3,317.3,186.3,318.2,186.1L318.2,186.1z M279.2,205.2l-0.7-0.1l-0.2,0.2h-0.1V205l0.3,0.1l0.6-0.1l0.2-0.1h0.3 l-0.1,0.6L279.2,205.2L279.2,205.2z M260.4,205.7c-0.7,0.4-4.7-0.5-6-0.9L260.4,205.7L260.4,205.7z M289.1,66.9 c0.8,0.3,0.6,0,1.2,0.2c0.2,0.1,0.1,0.2,0.2,0.4l-1.5-0.2L289.1,66.9L289.1,66.9z M246.8,184c-1,0.1-0.9-0.7-1.8-1.1 c-0.8-0.4-1.3-0.6-2-1.1s-2.8-2-3.2-2.5c1.1,0.5,3.3,1.9,4.3,2.7c0.5,0.4,1.6,1,2.2,1.3c0.4,0.2,0.8,0.5,1.1,0.7 c0.8,0.5,0.5,0.1,0.3,0.7l-0.4,1l-0.3-0.1l0.3-0.4l-0.6-0.6L246.8,184L246.8,184z M231.6,172.1c-0.7-1.3-5.1-4.9-4.9-6.6l5.1,6.5 L231.6,172.1L231.6,172.1z M264.1,71.5c-0.5,0.8-7.4,2.6-8.3,2.5C256.6,73.6,263.1,71.4,264.1,71.5L264.1,71.5z M213.9,166.6 c-0.1-0.3-2.4-4.7-2.8-5.5c-0.9-2-1.4-3.8-2.3-5.7c-0.7-1.6-2.9-10.5-2.8-12.2c0,0,1.2,5.6,1.3,6.2c0.5,2.1,1.2,3.9,1.8,5.9 c0.5,1.7,1.5,4,2.2,5.7c0.4,1,0.8,1.8,1.3,2.8c0.2,0.5,0.4,0.9,0.6,1.4c0.1,0.3,0.2,0.4,0.3,0.7c0.1,0.1,0.1,0.2,0.2,0.3 c0,0,0.1,0.1,0.1,0.2C213.8,166.4,214,166.5,213.9,166.6L213.9,166.6L213.9,166.6z M226.1,165.3c-1.6-1.1-4.4-6.3-5.2-8 c-1.1-2.5-2.5-6.2-3.1-8.9c-0.3-1.4-0.7-3.3-1.1-4.7c-0.2-0.7-0.4-1.7-0.5-2.4c-0.2-1.1,0.1-1.7,0-2.5c-0.4-2-0.5-2.6-0.6-4.9 c0-0.5-0.1-5.1-0.1-5.1l0.2-0.1c0.7,3.1,1,6.7,1.4,9.9c0.2,1.6,0.4,3.3,0.7,4.9c0.2,0.9,0.3,1.6,0.5,2.4c0.1,0.4,0.2,0.8,0.3,1.1 s0.1,0.2,0.1,0.6c0,0.1,0,0.2,0,0.3l0.1,0.2l0.1,0.1l-0.2,0.1l-0.9-2.1c-0.4,1.4,2.7,8.5,3.4,10c0.5,1.1,1.9,3.7,2.5,4.6 C223.9,161.3,226,164.9,226.1,165.3L226.1,165.3z M216.9,143.2h-0.2l0.8,1.7L216.9,143.2L216.9,143.2z"/><polygon class="st2" points="313.8,88.2 314.2,88.5 314.4,88.7 314.7,89 314.9,89.2 315.1,89.4 315.5,89.7 315.7,89.9 &#10;&#9;&#9;&#9;&#9;315.9,90.1 316.1,90.4 316.3,90.6 316.5,90.8 316.7,91 316.9,91.3 317.1,91.5 317.3,91.7 317.5,91.9 317.7,92.1 317.9,92.4 &#10;&#9;&#9;&#9;&#9;318.1,92.6 318.3,92.8 318.5,93 318.7,93.2 319,93.5 319,93.6 319.2,93.9 319.4,94.1 319.6,94.3 319.7,94.5 319.9,94.7 &#10;&#9;&#9;&#9;&#9;320.1,94.9 320.2,95.1 320.4,95.3 320.6,95.5 320.7,95.7 320.9,95.9 321.1,96.1 321.2,96.3 321.4,96.5 321.5,96.7 321.7,96.9 &#10;&#9;&#9;&#9;&#9;321.8,97.1 322,97.3 322.1,97.5 322.3,97.7 322.3,97.9 322.5,98.1 322.6,98.3 322.8,98.5 322.9,98.7 323,98.9 323.2,99.1 &#10;&#9;&#9;&#9;&#9;323.3,99.3 323.5,99.5 323.6,99.7 323.6,99.8 323.8,100 323.9,100.2 324,100.4 324.2,100.6 324.3,100.8 324.4,101 324.6,101.2 &#10;&#9;&#9;&#9;&#9;324.7,101.4 324.7,101.5 324.8,101.7 325,101.9 325.1,102.1 325.2,102.3 325.3,102.4 325.3,102.6 325.5,102.8 325.6,103 &#10;&#9;&#9;&#9;&#9;325.7,103.2 325.8,103.4 325.9,103.5 326.1,103.8 326.1,103.9 326.2,104.1 326.3,104.3 326.4,104.5 326.5,104.6 326.5,104.8 &#10;&#9;&#9;&#9;&#9;326.6,105 326.7,105.2 326.9,105.4 327,105.5 327.1,105.7 327.1,105.9 327.2,106.1 327.3,106.2 327.4,106.4 327.5,106.6 &#10;&#9;&#9;&#9;&#9;327.5,106.8 327.6,106.9 327.7,107.1 327.8,107.3 327.9,107.5 327.9,107.6 328,107.8 328.1,108 328.2,108.2 328.2,108.3 &#10;&#9;&#9;&#9;&#9;328.3,108.5 328.4,108.7 328.5,108.8 328.6,109 328.6,109.3 328.9,109.4 328.9,109.2 328.9,109 328.8,108.8 328.7,108.6 &#10;&#9;&#9;&#9;&#9;328.6,108.5 328.5,108.3 328.5,108 328.4,107.8 328.4,107.6 328.3,107.5 328.2,107.3 328.1,107.1 328,107 328,106.8 327.9,106.6 &#10;&#9;&#9;&#9;&#9;327.8,106.4 327.8,106.1 327.7,106 327.6,105.8 327.5,105.6 327.5,105.4 327.4,105.3 327.3,105.1 327.2,104.9 327.1,104.7 &#10;&#9;&#9;&#9;&#9;327.1,104.6 327,104.4 326.8,104.2 326.7,104 326.6,103.8 326.5,103.6 326.5,103.5 326.4,103.3 326.3,103.1 326.2,103 &#10;&#9;&#9;&#9;&#9;326.1,102.8 326.1,102.6 325.9,102.4 325.8,102.2 325.7,102 325.6,101.9 325.5,101.7 325.5,101.5 325.3,101.3 325.2,101.1 &#10;&#9;&#9;&#9;&#9;325.1,100.9 325,100.8 324.8,100.6 324.7,100.4 324.7,100.2 324.6,100 324.4,99.8 324.3,99.6 324.2,99.5 324,99.2 323.9,99.1 &#10;&#9;&#9;&#9;&#9;323.8,98.9 323.6,98.7 323.6,98.5 323.5,98.3 323.3,98.1 323.2,97.9 323,97.7 322.9,97.5 322.7,97.3 322.6,97.1 322.4,96.9 &#10;&#9;&#9;&#9;&#9;322.3,96.7 322.1,96.5 322.1,96.4 321.8,96.1 321.8,96 321.6,95.7 321.5,95.6 321.3,95.3 321.1,95.1 321,94.9 320.8,94.7 &#10;&#9;&#9;&#9;&#9;320.6,94.5 320.5,94.3 320.3,94.1 320.1,93.9 319.9,93.7 319.8,93.5 319.6,93.3 319.4,93.1 319.2,92.8 319,92.6 318.8,92.4 &#10;&#9;&#9;&#9;&#9;318.7,92.2 318.5,92 318.3,91.8 318.1,91.6 317.9,91.3 317.7,91.1 317.5,90.9 317.3,90.7 317,90.4 316.8,90.2 316.6,90 &#10;&#9;&#9;&#9;&#9;316.3,89.7 316.1,89.5 315.9,89.3 315.7,89.1 315.5,88.9 315.2,88.6 314.6,88.2 313.8,87.9 313.8,88.1 &#9;&#9;&#9;"/><path class="st2" d="M310.3,195.5l-0.2,0.1l-0.2,0.1l-0.2,0.1l-0.3,0.5l-0.1,0.3l-0.3-0.1l-0.2,0.1h-0.3h-0.3l-0.2,0.1l-0.2,0.1 l-0.2,0.1v0.1l0.5-0.1l0.1,0.2l-0.6,0.1h-0.4l-0.2,0.1l-0.2,0.1l-0.2,0.1l-0.2,0.1l-0.2,0.1l-0.2,0.2l-0.2,0.6h0.1l0.2-0.1 l0.2-0.1h0.3l0.2-0.1l0.2-0.1l0.2-0.1l0.2-0.1l0.2-0.1l0.2-0.1l0.2-0.1l0.2-0.1l0.2-0.1l0.2-0.1l0.2-0.1l0.2-0.1l0.2-0.1l0.2-0.1 l0.2-0.1l0.2-0.1l0.2-0.1l0.2-0.1l0.2-0.1l0.2-0.2l0.2-0.1l0.2-0.1l0.2-0.1l0.2-0.1l0.2-0.1l0.2-0.2l0.2-0.1l0.2-0.1l0.2-0.1 l0.2-0.1l0.2-0.2l0.2-0.1l0.2-0.1l0.2-0.2l0.2-0.1l0.2-0.1l0.2-0.2l0.2-0.1l0.2-0.1l0.2-0.2l0.2-0.1l0.2-0.2l0.2-0.1l0.2-0.2 l0.2-0.1l0.2-0.2l0.2-0.1l0.2-0.2l0.2-0.1l0.2-0.2l0.2-0.1l0.2-0.2l0.2-0.2l0.2-0.1l0.2-0.2l0.2-0.2l0.2-0.1l0.2-0.2l0.2-0.2 l0.2-0.1l0.2-0.2l0.2-0.2l0.2-0.2l0.2-0.2l0.2-0.2l0.2-0.1l0.2-0.2l0.2-0.2l0.2-0.2l0.2-0.2l0.2-0.2l0.2-0.2l0.2-0.2l0.2-0.2 l0.3-0.3l0.2-0.2l0.2-0.2l0.2-0.2l0.2-0.2l0.3-0.3l0.2-0.2l0.2-0.2l0.2-0.2l0.3-0.3l0.2-0.2l0.3-0.3l0.2-0.2l0.3-0.3l0.2-0.2 l0.3-0.3l0.2-0.2l0.3-0.3l0.3-0.3l0.1-0.3H326l-0.2,0.1l-0.3,0.3l-0.2,0.2l-0.3,0.3l-0.2,0.2l-0.3,0.3l-0.2,0.2l-0.3,0.3 l-0.2,0.2l-0.3,0.3l-0.2,0.2l-0.2,0.2l-0.2,0.2l-0.3,0.3l-0.2,0.2l-0.2,0.2l-0.2,0.2l-0.2,0.2l-0.2,0.2l-0.2,0.2l-0.2,0.2 l-0.2,0.2l-0.2,0.2l-0.2,0.2l-0.2,0.2l-0.2,0.2l-0.2,0.2l-0.2,0.2l-0.2,0.1l-0.2,0.2l-0.2,0.2l-0.2,0.2l-0.2,0.1l-0.2,0.2 l-0.2,0.2l-0.2,0.2l-0.2,0.1l-0.2,0.2l-0.2,0.2l-0.2,0.1l-0.2,0.2l-0.2,0.1l-1,0.6l-0.2,0.1l-0.2,0.2l-0.2,0.1l-0.2,0.2l-0.2,0.1 l-0.2,0.2l-0.2,0.1l-0.2,0.2l-0.2,0.1l-0.2,0.1l-0.2,0.2l-0.2,0.1l-0.2,0.2l-0.2,0.1l-0.2,0.2l-0.2,0.1l-0.2,0.1l-0.2,0.2 l-0.2,0.1l-0.2,0.1l-0.2,0.1l-0.2,0.1l-0.2,0.2l-0.2,0.1l-0.2,0.1l-0.2,0.1l-0.2,0.1L310.3,195.5L310.3,195.5z M310.9,194.8h-0.1 l-0.2,0.1l-0.2,0.2l-0.1,0.3L310.9,194.8L310.9,194.8z"/><polygon class="st2" points="231.4,194.3 232,194.6 232.5,195 233,195.3 233.5,195.6 234.1,196 234.7,196.4 235.5,196.8 &#10;&#9;&#9;&#9;&#9;236.9,197.5 237.4,197.6 237.5,197.4 237.2,197.2 236.7,196.8 236.5,196.6 235.1,195.9 234.7,195.6 234.3,195.4 233.9,195 &#10;&#9;&#9;&#9;&#9;233.5,194.8 233.1,194.5 232.4,194.1 231.6,193.8 231,193.7 231,194 &#9;&#9;&#9;"/><polygon class="st2" points="312.1,196.4 312.3,196.2 312.5,196.1 312.7,195.9 312.9,195.9 313.1,195.7 313.3,195.6 313.5,195.4 &#10;&#9;&#9;&#9;&#9;313.7,195.2 313.9,195.1 314.1,194.9 314.3,194.8 314.5,194.6 314.7,194.5 314.9,194.3 315.1,194.2 315.3,194 315.4,193.9 &#10;&#9;&#9;&#9;&#9;315.7,193.7 315.8,193.7 316.1,193.5 316.2,193.4 316.5,193.2 316.6,193.1 316.9,192.9 317,192.8 317.2,192.6 317.4,192.5 &#10;&#9;&#9;&#9;&#9;317.6,192.3 317.9,192.1 318,192 318.3,191.8 318.4,191.7 318.5,191.5 318.4,191.4 318.2,191.5 318.1,191.6 317.8,191.8 &#10;&#9;&#9;&#9;&#9;317.7,191.9 317.4,192.1 317.3,192.2 317.1,192.2 316.9,192.5 316.7,192.5 316.5,192.7 316.3,192.8 316.1,193 315.9,193.1 &#10;&#9;&#9;&#9;&#9;315.7,193.2 315.5,193.4 315.3,193.5 315.1,193.7 314.9,193.8 314.7,194 314.5,194 314.4,194.1 314.1,194.3 314,194.4 &#10;&#9;&#9;&#9;&#9;313.8,194.6 313.6,194.7 313.4,194.9 313.2,195 313,195.1 312.8,195.3 312.6,195.3 312.4,195.5 312.2,195.6 312,195.8 &#10;&#9;&#9;&#9;&#9;311.8,195.9 311.7,196 311.6,196.2 &#9;&#9;&#9;"/><polygon class="st2" points="307.9,83.7 308,83.9 308,84.1 309.3,84.7 309.6,84.9 309.9,85.2 310.3,85.5 310.5,85.7 310.7,85.9 &#10;&#9;&#9;&#9;&#9;311,86.2 312.5,86.7 312.6,86.5 311.9,86.2 311.7,86.2 311.5,85.9 311.4,85.8 311.2,85.5 311,85.3 310.8,85.1 310.6,84.9 &#10;&#9;&#9;&#9;&#9;310.3,84.6 309.8,84.3 309.4,84 308.5,83.5 307.9,83.3 307.8,83.5 &#9;&#9;&#9;"/><polygon class="st2" points="280.6,62.6 281.2,62.6 281.6,62.6 282.1,62.7 282.7,62.8 283.2,62.8 283.8,62.9 284.2,62.9 &#10;&#9;&#9;&#9;&#9;284.8,63 285.3,63 285.8,63 286.3,63.1 286.5,63 286.5,62.9 286.2,62.8 285.5,62.6 284.8,62.5 284.1,62.4 283.4,62.3 282.8,62.2 &#10;&#9;&#9;&#9;&#9;282.1,62.1 281.9,62.2 281.7,62.3 280.9,62.1 280.5,62.1 280.3,62.2 280.1,62.2 280.1,62.4 &#9;&#9;&#9;"/><polygon class="st2" points="286.8,204.6 287.1,204.6 287.4,204.5 287.7,204.5 287.9,204.4 288.2,204.4 288.5,204.3 288.8,204.3 &#10;&#9;&#9;&#9;&#9;289,204.2 289.3,204.2 289.4,204.1 289.7,204.1 289.9,204 290.2,204 290.4,203.9 290.7,203.9 290.9,203.8 291,203.7 291.3,203.7 &#10;&#9;&#9;&#9;&#9;291.5,203.6 291.7,203.5 291.8,203.3 291.3,203.1 291,203.1 290.8,203.2 290.6,203.3 290.4,203.3 290.3,203.4 290.1,203.6 &#10;&#9;&#9;&#9;&#9;289.8,203.7 289.5,203.7 289.2,203.7 288.9,203.8 288.6,203.8 288.4,203.9 288.1,203.9 287.8,203.9 287.6,204 287.3,204 &#10;&#9;&#9;&#9;&#9;287.1,204.1 286.8,204.2 286.7,204.2 286.5,204.3 286.4,204.6 286.5,204.6 &#9;&#9;&#9;"/><polygon class="st2" points="303.8,200.4 304,200.2 304.2,200.1 304.4,200 304.5,200 304.7,199.9 304.9,199.8 305.1,199.7 &#10;&#9;&#9;&#9;&#9;305.2,199.6 305.4,199.6 305.6,199.5 305.8,199.4 305.9,199.3 306.1,199.3 306.3,199.2 306.5,199.1 306.6,199 306.8,198.9 &#10;&#9;&#9;&#9;&#9;307,198.9 307.2,198.8 307.3,198.7 307.5,198.6 307.7,198.5 307.8,198.5 308,198.4 308.2,198.3 308.4,198.2 308.5,198.1 &#10;&#9;&#9;&#9;&#9;308.8,197.9 309,197.7 309,197.6 308.8,197.5 308.6,197.6 308.4,197.7 308.3,197.7 308.1,197.8 307.9,198 307.7,198.1 &#10;&#9;&#9;&#9;&#9;307.5,198.2 307.3,198.3 307.2,198.3 307,198.4 306.8,198.5 306.6,198.6 306.5,198.7 306.3,198.7 306.1,198.8 306,198.9 &#10;&#9;&#9;&#9;&#9;305.7,199.1 305.6,199.2 305.4,199.3 305.1,199.3 304.9,199.4 304.7,199.5 304.6,199.5 304.4,199.6 304.2,199.8 304,199.9 &#10;&#9;&#9;&#9;&#9;303.8,200 303.6,200.1 303.6,200.3 &#9;&#9;&#9;"/><polygon class="st2" points="324.2,186.4 324.4,186.2 324.6,186 324.8,185.9 325,185.7 325.3,185.4 325.5,185.2 325.8,184.8 &#10;&#9;&#9;&#9;&#9;326.1,184.2 326.3,183.9 326,183.8 325.8,183.8 325.7,183.9 325.5,184 325.3,184.2 325,184.5 324.7,184.9 324.4,185.5 &#10;&#9;&#9;&#9;&#9;324.1,185.9 323.9,186.4 324,186.5 &#9;&#9;&#9;"/><polygon class="st2" points="304.7,81.8 304.9,82 305.4,82.3 306.3,82.8 307,83.3 307.3,83.3 307.5,82.8 306.9,82.5 306.7,82.3 &#10;&#9;&#9;&#9;&#9;306.5,82 305.6,81.7 305.3,81.7 305.1,81.6 304.9,81.4 304.7,81.4 304.6,81.6 &#9;&#9;&#9;"/><polygon class="st2" points="292.3,203.3 292.5,203.3 292.7,203.2 293,203.1 293.3,203.1 293.6,203.1 293.9,203 294.2,203 &#10;&#9;&#9;&#9;&#9;294.5,203 294.7,202.9 294.8,202.8 295,202.7 295.2,202.5 295.3,202.4 294.9,202.3 294.6,202.3 294.3,202.3 294,202.4 &#10;&#9;&#9;&#9;&#9;293.8,202.4 293.6,202.5 293.3,202.6 293.2,202.6 293,202.7 292.8,202.8 292.6,202.9 292.5,203 292.3,203 292.1,203.1 292,203.4 &#10;&#9;&#9;&#9;&#9;292.2,203.4 &#9;&#9;&#9;"/><polygon class="st2" points="291.3,64 292.3,64.2 292.7,64.2 292.9,64.1 292.9,64 291.4,63.4 290.8,63.4 290.3,63.3 290.2,63.5 &#10;&#9;&#9;&#9;&#9;&#9;&#9;&#9;"/><polygon class="st2" points="321.7,188.8 321.9,188.6 322.1,188.4 322.3,188.3 322.5,188.1 322.8,187.9 323,187.7 323.2,187.5 &#10;&#9;&#9;&#9;&#9;323.4,186.8 323.2,186.7 322.9,187.1 322.7,187.3 322.5,187.5 322.2,187.8 322,188 321.8,188.2 321.5,188.6 321.4,188.7 &#9;&#9;&#9;"/><polygon class="st2" points="295.8,203.2 296.1,203.2 296.3,203.1 296.5,203 296.8,203 297,202.9 297.1,202.8 297.3,202.7 &#10;&#9;&#9;&#9;&#9;297.5,202.7 297.7,202.6 297.8,202.5 298,202.1 297.7,202 297.5,202.1 297.4,202.2 297.2,202.3 297,202.3 296.9,202.4 &#10;&#9;&#9;&#9;&#9;296.7,202.5 296.5,202.6 296.3,202.7 296.2,202.7 296,202.8 295.8,202.9 295.6,203 295.6,203.1 &#9;&#9;&#9;"/><polygon class="st2" points="282.2,205.4 282.5,205.4 282.8,205.4 283.1,205.4 283.2,205.3 283.4,205.2 283.6,205.1 283.6,205 &#10;&#9;&#9;&#9;&#9;283.4,204.9 283,204.9 282.5,204.9 282.2,204.9 281.9,204.9 281.8,205 281.7,205.3 &#9;&#9;&#9;"/><polygon class="st2" points="284.4,205 284.7,204.9 285,204.9 285.3,204.9 285.6,204.8 285.9,204.8 286,204.6 285.1,204.2 &#10;&#9;&#9;&#9;&#9;284.8,204.6 284.5,204.6 284.3,204.7 284.2,204.7 284.1,204.9 &#9;&#9;&#9;"/><polygon class="st2" points="303.5,199.2 303.9,199.3 304.1,199.2 304.3,199.1 304.4,199.1 304.7,199 304.8,198.8 304.8,198.6 &#10;&#9;&#9;&#9;&#9;304.4,198.5 304.2,198.5 304,198.6 303.7,198.7 303.6,198.7 303.5,199 &#9;&#9;&#9;"/><polygon class="st2" points="319.5,190.7 319.7,190.6 319.9,190.6 320.1,190.3 320.3,190.3 320.5,189.6 320.3,189.5 320.1,189.6 &#10;&#9;&#9;&#9;&#9;319.9,189.8 319.6,190.2 319.3,190.5 319.2,190.7 319.4,190.8 &#9;&#9;&#9;"/><polygon class="st2" points="221.6,185.5 221.6,185.7 221.8,185.9 221.9,186.1 222.1,186.3 222.2,186.5 222.5,186.6 222.6,186.2 &#10;&#9;&#9;&#9;&#9;222.5,186 222.3,185.8 222.2,185.7 222,185.4 221.5,185.2 221.5,185.4 &#9;&#9;&#9;"/><polygon class="st2" points="254.7,210.2 255.1,210.3 255.2,210.2 255.2,210.1 255.4,209.9 255.6,209.5 255.5,209.3 255.1,209.2 &#10;&#9;&#9;&#9;&#9;254.8,209.5 254.7,210 &#9;&#9;&#9;"/><polygon class="st2" points="325.3,164.8 325.6,164.6 325.8,163.9 325.7,163.8 325.6,163.7 325.4,163.8 325.2,163.9 324.9,164.7 &#10;&#9;&#9;&#9;&#9;325,164.8 &#9;&#9;&#9;"/><polygon class="st2" points="312.7,87.1 312.8,87.3 313,87.5 313.3,87.6 313.5,87.5 313.6,87.3 313.3,87 313,86.8 312.7,86.7 &#10;&#9;&#9;&#9;&#9;312.6,86.9 &#9;&#9;&#9;"/><polygon class="st2" points="280.5,205.7 280.8,205.7 281,205.6 281.1,205.5 281.3,205.4 281.4,205.2 281.2,205.1 280.9,205.1 &#10;&#9;&#9;&#9;&#9;280.4,205.1 280.2,205.6 &#9;&#9;&#9;"/><polygon class="st2" points="311.2,70.2 311.3,70 309.5,69.3 309.4,69.6 &#9;&#9;&#9;"/><polygon class="st2" points="299.2,201.1 299.4,201.1 299.6,201 299.7,200.9 299.9,200.8 300.1,200.7 300.2,200.7 300.4,200.6 &#10;&#9;&#9;&#9;&#9;300.6,200.5 300.6,200.4 300.4,200.3 300.2,200.4 300,200.4 299.9,200.5 299.7,200.6 299.5,200.7 299.3,200.8 299.2,200.8 &#10;&#9;&#9;&#9;&#9;299,200.9 298.9,201.2 299,201.2 &#9;&#9;&#9;"/><polygon class="st2" points="289.2,204.9 289.3,204.8 289.6,204.8 289.8,204.7 290.1,204.7 290.3,204.6 290.4,204.3 290.2,204.3 &#10;&#9;&#9;&#9;&#9;290.1,204.4 289.8,204.4 289.6,204.5 289.3,204.5 289.1,204.6 288.8,204.6 288.7,204.9 288.9,204.9 &#9;&#9;&#9;"/><polygon class="st2" points="278.2,206.4 278.5,206.5 278.8,206.5 278.9,206.4 279.1,206.3 279.2,206.1 278.8,205.9 278.5,206 &#10;&#9;&#9;&#9;&#9;278.2,206 278.1,206.2 &#9;&#9;&#9;"/><polygon class="st2" points="276.4,206.5 276.7,206.4 277,206.4 277.3,206.4 277.6,206.4 277.7,206.1 277.6,206.1 277.3,206.1 &#10;&#9;&#9;&#9;&#9;277,206.1 276.7,206.1 276.4,206.2 276.2,206.3 276.2,206.4 &#9;&#9;&#9;"/><polygon class="st2" points="229.9,193.3 230.5,193.5 230.7,193.1 229.7,192.8 229.6,193 &#9;&#9;&#9;"/><polygon class="st2" points="294.7,64.6 294.9,64.6 294.9,64.4 294.8,64.3 294.4,64.1 294,64.1 293.7,64.1 293.7,64.3 &#9;&#9;&#9;"/><polygon class="st2" points="298.1,201.7 298.3,201.7 298.5,201.6 298.6,201.3 298.5,201.2 298.2,201.1 298.1,201.1 297.9,201.2 &#10;&#9;&#9;&#9;&#9;297.7,201.6 &#9;&#9;&#9;"/><polygon class="st2" points="281.8,206 282.1,206 282.4,206 282.5,205.7 281.9,205.5 281.7,205.6 281.6,205.9 &#9;&#9;&#9;"/><polygon class="st2" points="287.7,63.3 288,63.3 288.1,62.9 288,62.9 287.4,62.8 287.3,62.9 287.2,63.1 &#9;&#9;&#9;"/><polygon class="st2" points="230.8,192.2 231.1,192.4 231.4,192.7 231.7,192.8 231.7,192.7 231.6,192.5 231.3,192.2 231,191.9 &#10;&#9;&#9;&#9;&#9;230.7,191.9 230.7,192 &#9;&#9;&#9;"/><polygon class="st2" points="226.5,190.5 226.9,190.9 227.3,191 227.4,190.8 226.7,190.3 226.4,190.2 226.4,190.4 &#9;&#9;&#9;"/><polygon class="st2" points="302.2,200.9 302.4,200.7 302.6,200.7 302.7,200.6 302.8,200.3 302.7,200.3 302.5,200.4 302.3,200.4 &#10;&#9;&#9;&#9;&#9;302.2,200.5 302,200.6 301.9,201 302,201 &#9;&#9;&#9;"/><polygon class="st2" points="302.8,199.7 303,199.8 303.2,199.7 303.3,199.4 302.8,199.2 302.7,199.6 &#9;&#9;&#9;"/><polygon class="st2" points="310.8,196.8 311,196.6 311.2,196.4 311.3,196.3 311,196.2 310.8,196.4 310.6,196.6 310.5,196.8 &#10;&#9;&#9;&#9;&#9;310.6,196.9 &#9;&#9;&#9;"/><polygon class="st2" points="301.2,200.3 301.4,200.2 301.6,200.2 301.7,199.9 301.3,199.8 301,200.1 301,200.2 &#9;&#9;&#9;"/><polygon class="st2" points="296.5,65.1 296.6,64.8 295.9,64.5 295.8,64.8 &#9;&#9;&#9;"/><polygon class="st2" points="294.4,203.5 294.7,203.5 294.9,203.4 294.9,203.3 294.4,203.1 294.3,203.2 294.2,203.4 &#9;&#9;&#9;"/><polygon class="st2" points="280,206.5 280.2,206 279.8,205.9 279.7,206.4 &#9;&#9;&#9;"/><polygon class="st2" points="229.8,191.4 230,191.6 230.1,191.6 230.2,191.4 230,191.1 229.5,191 229.4,191.1 &#9;&#9;&#9;"/><polygon class="st2" points="222.9,187.2 223.3,187.4 223.4,187.2 223.3,187.1 223.2,186.9 223,186.8 222.9,187 &#9;&#9;&#9;"/><polygon class="st2" points="280.7,206.2 280.9,206.1 281,205.9 280.7,205.8 280.6,205.9 280.4,206.2 280.6,206.3 &#9;&#9;&#9;"/><polygon class="st2" points="283,205.9 283.2,205.8 283.3,205.6 283.1,205.5 283,205.6 282.8,205.7 282.7,205.9 282.8,206 &#9;&#9;&#9;"/><polygon class="st2" points="226.1,190 226.2,189.7 225.7,189.5 225.6,189.8 &#9;&#9;&#9;"/><polygon class="st2" points="295.9,202.2 296.1,202.1 296.1,202 295.8,201.9 295.6,202.3 295.7,202.3 &#9;&#9;&#9;"/><polygon class="st2" points="320.2,76.2 320.5,76.3 320.5,76.2 320.4,76 320.1,75.9 320,76 &#9;&#9;&#9;"/><polygon class="st2" points="324.8,87.9 325.2,88 325.2,87.9 325,87.7 324.8,87.6 324.7,87.7 &#9;&#9;&#9;"/><polygon class="st2" points="314.9,78.8 315,78.6 314.6,78.4 314.5,78.7 &#9;&#9;&#9;"/><polygon class="st2" points="224.7,188.6 224.8,188.5 224.7,188.3 224.4,188.2 224.4,188.5 &#9;&#9;&#9;"/><polygon class="st2" points="312.3,76.9 312.4,76.7 311.7,76.5 311.7,76.6 &#9;&#9;&#9;"/><path class="st3" d="M326.2,118.3c1.1-0.3,2.1-0.6,3.3-0.8c0.1,0.7,0.3,1.4,0.4,2.1s0.5,0.8,1.1,0.7c1.6-0.2,2.8-1,3.5-2.4 c1.7-3.2,1.7-6.5,0.6-9.9c-0.1-0.2-0.5-0.5-0.8-0.5c-4.4,0.2-9.1,6-8.3,10.3C326,117.9,326,118,326.2,118.3L326.2,118.3z" style="fill: rgb(237, 28, 36); stroke: rgb(255, 255, 255); stroke-width: 0.5px;"/><path class="st3" d="M306.7,190.1c0.7,0.8,1.4,1.7,2.2,2.6c-0.6,0.4-1.1,0.9-1.7,1.3c-0.6,0.4-0.5,0.8-0.2,1.3 c0.9,1.3,2.1,2.1,3.7,2.1c3.6,0.1,6.6-1.4,9.2-3.8c0.2-0.2,0.2-0.7,0.1-0.9c-2.1-3.9-9.3-5.5-12.9-3 C307,189.8,306.9,189.9,306.7,190.1L306.7,190.1z" style="fill: rgb(237, 28, 36); stroke: rgb(255, 255, 255); stroke-width: 0.5px;"/><path class="st3" d="M328.2,180c0.9,0,1.7,0,2.6,0c0,0.5,0,1.1-0.1,1.6s0.2,0.7,0.7,0.8c1.2,0.1,2.3-0.2,3.1-1.1 c1.9-2.1,2.5-4.6,2.3-7.3c0-0.2-0.3-0.5-0.5-0.5c-3.3-0.7-7.9,2.7-8.2,6.1C328.2,179.6,328.2,179.7,328.2,180L328.2,180z" style="fill: rgb(237, 28, 36); stroke: rgb(255, 255, 255); stroke-width: 0.5px;"/><path class="st3" d="M340.8,165.9c0.4-0.4,0.7-0.8,1.1-1.3c0.3,0.2,0.5,0.5,0.8,0.7c0.2,0.3,0.4,0.2,0.7,0c0.6-0.6,0.9-1.2,0.8-2 c-0.2-1.8-1.2-3.2-2.7-4.3c-0.1-0.1-0.3-0.1-0.4,0c-1.8,1.4-2,5.1-0.5,6.7C340.6,165.8,340.7,165.8,340.8,165.9L340.8,165.9z" style="fill: rgb(237, 28, 36); stroke: rgb(255, 255, 255); stroke-width: 0.5px;"/><path class="st3" d="M344.6,151.4c0.2-0.3,0.4-0.5,0.7-0.8c0.2,0.2,0.3,0.3,0.5,0.5s0.3,0.1,0.4,0c0.4-0.3,0.6-0.8,0.5-1.3 c-0.2-1.1-0.8-2-1.7-2.7c-0.1,0-0.2,0-0.3,0c-1.1,0.9-1.3,3.2-0.3,4.2C344.5,151.3,344.5,151.3,344.6,151.4L344.6,151.4z" style="fill: rgb(237, 28, 36); stroke: rgb(255, 255, 255); stroke-width: 0.5px;"/><path class="st3" d="M321.8,104.3c-0.6,0.4-1.1,0.8-1.6,1.2c-1,0.8-1,1.1-0.1,2c1.4,1.4,3.1,1.9,5,1.9c2.9,0,5.5-1.2,7.7-3 c0.2-0.2,0.3-0.8,0.1-1c-2.9-3.7-6.4-5.7-11.2-4.7c-1.4,0.3-1.7,1-0.9,2.2C321.1,103.3,321.4,103.8,321.8,104.3L321.8,104.3z" style="fill: rgb(237, 28, 36); stroke: rgb(255, 255, 255); stroke-width: 0.5px;"/><path class="st3" d="M345.7,113.9c0.7,0,1.1,0,1.6-0.1c1.3-0.1,1.7-0.4,1.4-1.7c-0.2-0.9-0.7-2-1.4-2.6c-3-2.7-6.5-3.3-10.3-2.6 c-0.2,0-0.5,0.5-0.5,0.7c0,3.2,3.1,7.9,6.1,9.1c0.8,0.3,1.7,0.4,2.6,0.5s1.2-0.4,1.1-1.2C346.1,115.3,345.9,114.7,345.7,113.9 L345.7,113.9z" style="fill: rgb(237, 28, 36); stroke: rgb(255, 255, 255); stroke-width: 0.5px;"/><path class="st3" d="M332,94c-0.4-0.4-0.6-0.7-0.8-0.9c-1.4-1.2-2.7-0.9-2.9,1c-0.2,1.4-0.1,2.9,0.2,4.3c0.9,3,3.2,4.9,5.8,6.4 c0.2,0.1,0.8-0.1,1-0.3c2.3-3.1,2.5-8.3,0.5-11.6c-0.1-0.2-0.3-0.4-0.4-0.6c-1.1-1.3-1.9-1.2-2.6,0.4 C332.6,92.9,332.4,93.3,332,94L332,94z" style="fill: rgb(237, 28, 36); stroke: rgb(255, 255, 255); stroke-width: 0.5px;"/><path class="st3" d="M345.8,98.5c0.1-0.6,0.3-1.2,0.4-1.8c0.2-0.9-0.2-1.4-1.1-1.5c-0.4,0-0.8,0-1.1,0c-4.3,0.9-7.9,6-7.2,10.2 c4.7,1.2,9.1-0.9,11.7-4.2c1-1.2,0.5-2.2-1-2.5C346.9,98.7,346.4,98.6,345.8,98.5L345.8,98.5z" style="fill: rgb(237, 28, 36); stroke: rgb(255, 255, 255); stroke-width: 0.5px;"/><path class="st3" d="M342.3,142.1c0.5-0.1,1-0.3,1.6-0.4c0.1,0.3,0.1,0.7,0.2,1s0.2,0.4,0.5,0.4c0.8-0.1,1.4-0.5,1.7-1.2 c0.8-1.6,0.8-3.2,0.3-4.9c0-0.1-0.2-0.2-0.4-0.2c-2.2,0.1-4.4,2.9-4.1,5C342.2,142,342.2,142,342.3,142.1L342.3,142.1z" style="fill: rgb(237, 28, 36); stroke: rgb(255, 255, 255); stroke-width: 0.5px;"/><path class="st3" d="M340.1,135.3c-0.3,0.2-0.5,0.4-0.8,0.6c-0.5,0.4-0.5,0.6-0.1,1c0.7,0.7,1.5,0.9,2.4,0.9 c1.4,0,2.7-0.6,3.8-1.5c0.1-0.1,0.1-0.4,0.1-0.5c-1.4-1.8-3.1-2.8-5.5-2.3c-0.7,0.1-0.8,0.5-0.4,1.1 C339.8,134.8,340,135,340.1,135.3L340.1,135.3z" style="fill: rgb(237, 28, 36); stroke: rgb(255, 255, 255); stroke-width: 0.5px;"/><path class="st3" d="M351.9,140c0.3,0,0.6,0,0.8,0c0.7-0.1,0.8-0.2,0.7-0.9c-0.1-0.5-0.4-1-0.7-1.3c-1.4-1.3-3.2-1.6-5.1-1.3 c-0.1,0-0.2,0.2-0.2,0.3c0,1.6,1.5,3.9,3,4.4c0.4,0.2,0.8,0.2,1.3,0.2c0.4,0.1,0.6-0.2,0.5-0.6C352,140.7,351.9,140.4,351.9,140 L351.9,140z" style="fill: rgb(237, 28, 36); stroke: rgb(255, 255, 255); stroke-width: 0.5px;"/><path class="st3" d="M345.1,130.2c-0.2-0.2-0.3-0.4-0.4-0.5c-0.7-0.6-1.3-0.4-1.4,0.5c-0.1,0.7-0.1,1.4,0.1,2.1 c0.4,1.5,1.6,2.4,2.9,3.1c0.1,0.1,0.4,0,0.5-0.1c1.1-1.5,1.2-4.1,0.2-5.7c-0.1-0.1-0.1-0.2-0.2-0.3c-0.6-0.6-0.9-0.6-1.3,0.2 C345.4,129.7,345.3,129.9,345.1,130.2L345.1,130.2z" style="fill: rgb(237, 28, 36); stroke: rgb(255, 255, 255); stroke-width: 0.5px;"/><path class="st3" d="M351.9,132.4c0.1-0.3,0.1-0.6,0.2-0.9c0.1-0.4-0.1-0.7-0.6-0.7c-0.2,0-0.4,0-0.6,0c-2.1,0.4-3.9,2.9-3.5,5 c2.3,0.6,4.5-0.4,5.7-2.1c0.5-0.6,0.3-1.1-0.5-1.2C352.4,132.5,352.2,132.5,351.9,132.4L351.9,132.4z" style="fill: rgb(237, 28, 36); stroke: rgb(255, 255, 255); stroke-width: 0.5px;"/><path class="st3" d="M300.3,101.2c1.4-1,2.8-2,4.4-3.1c0.6,0.9,1.2,1.9,1.8,2.9c0.5,1,1.2,1,2.1,0.5c2.2-1.3,3.6-3.1,3.9-5.6 c0.6-5.7-1.3-10.7-4.8-15.1c-0.2-0.3-1-0.4-1.4-0.3c-6.5,2.8-10.1,14-6.5,20.1C299.8,100.7,300,100.8,300.3,101.2L300.3,101.2z" style="fill: rgb(237, 28, 36); stroke: rgb(255, 255, 255); stroke-width: 0.5px;"/><path class="st3" d="M285.8,82.7c-0.6,1-1.2,1.8-1.7,2.6c-1,1.7-0.8,2.3,1,3.1c2.8,1.2,5.7,1.1,8.5,0c4.4-1.6,7.5-4.8,9.7-8.8 c0.2-0.4,0-1.4-0.4-1.6c-6.4-3.9-12.8-4.8-19.4-0.6c-2,1.2-1.9,2.5,0,3.8C284.3,81.7,285,82.2,285.8,82.7L285.8,82.7z" style="fill: rgb(237, 28, 36); stroke: rgb(255, 255, 255); stroke-width: 0.5px;"/><path class="st3" d="M326.9,83.4c1-0.4,1.7-0.7,2.4-1c1.9-0.9,2.3-1.6,1-3.4c-0.9-1.3-2.2-2.5-3.6-3.1 c-5.9-2.3-11.5-1.2-16.8,2.1c-0.3,0.2-0.5,1-0.4,1.3c1.8,4.8,9.1,10,14.2,10c1.4,0,2.7-0.4,4.1-0.7c1.4-0.3,1.5-1.3,0.9-2.4 C328.2,85.3,327.6,84.4,326.9,83.4L326.9,83.4z" style="fill: rgb(237, 28, 36); stroke: rgb(255, 255, 255); stroke-width: 0.5px;"/><path class="st3" d="M295.1,61.6c-0.8-0.4-1.3-0.7-1.8-0.9c-2.8-1-4.5,0.2-3.8,3.1c0.5,2.2,1.5,4.4,2.8,6.2c3,4,7.5,5.4,12.3,6.1 c0.4,0.1,1.2-0.6,1.3-1c1.6-5.9-1.1-13.8-5.9-17.5c-0.3-0.2-0.6-0.4-1-0.6c-2.4-1.2-3.4-0.7-3.6,2 C295.3,59.6,295.3,60.4,295.1,61.6L295.1,61.6z" style="fill: rgb(237, 28, 36); stroke: rgb(255, 255, 255); stroke-width: 0.5px;"/><path class="st3" d="M318.3,60.5c-0.1-1-0.2-1.9-0.4-2.8c-0.3-1.4-1.1-2-2.5-1.6c-0.6,0.2-1.2,0.4-1.7,0.7 c-5.9,3.8-8.3,13.4-4.8,19.3c7.8-0.9,13-6.5,14.9-12.9c0.7-2.4-0.4-3.6-2.9-3.2C320,60.1,319.2,60.3,318.3,60.5L318.3,60.5z" style="fill: rgb(237, 28, 36); stroke: rgb(255, 255, 255); stroke-width: 0.5px;"/><path class="st4" d="M225.2,94.7c1.9,0.1,3.4,0.5,4.3,1.2c1,0.7,1.6,1.4,1.9,2.3c0.3,0.9,0.2,1.7-0.3,2.6 c-0.4,0.9-1.1,1.6-2.1,2.2c-0.6,0.3-1.9,0.6-4,0.8c-2.1,0.2-4.7,0.4-7.8,0.5s-6.5,0.2-10.3,0.2s-7.5,0-11.4-0.1 c0,1.6,0,3.8,0,6.7c0,2.8,0,6,0,9.6s0,7.4,0,11.4c0,4.1,0,8.1,0,12.1s0,7.9,0.1,11.7c0,3.8,0,7.1,0.1,10.1c0,3,0.1,5.4,0.1,7.4 c0.1,1.9,0.1,3.1,0.2,3.5c0.2,0.9,0.1,1.6-0.1,2.3c-0.2,0.6-0.5,1-0.9,1s-0.8-0.3-1.2-1.1s-0.7-2.1-1-4c-0.1-0.8-0.2-2.3-0.3-4.5 s-0.1-4.8-0.1-7.8s-0.1-6.3-0.1-10s0-7.4,0-11.3c0-3.9,0-7.7,0-11.5s0-7.4,0.1-10.7c0-3.3,0.1-6.3,0.1-8.9s0.1-4.7,0.1-6.1 c-2.5,0-5-0.1-7.3-0.2c-2.4-0.1-4.6-0.2-6.6-0.3c-2.1-0.1-3.9-0.3-5.6-0.4c-1.7-0.1-3-0.3-4.1-0.5c-2.9-0.5-5.3-1.1-7.3-2.1 c-2-0.9-3.6-1.8-4.8-2.7c-1.4-1.1-2.6-2.2-3.5-3.4c2.5,0.5,5.3,0.9,8.5,1.2c3.2,0.3,6.5,0.4,10.1,0.5c3.5,0.1,7.2,0.1,10.9,0 s7.4-0.2,11-0.3c3.6-0.1,7.1-0.3,10.4-0.5c3.4-0.2,6.4-0.4,9.2-0.5c2.8-0.2,5.1-0.3,7.2-0.3C222.8,94.7,224.3,94.6,225.2,94.7 L225.2,94.7z M225.9,120.8c1.8,0,3.5,0.4,5.1,1.1s3,1.7,4.2,3s2.2,2.7,2.9,4.4c0.7,1.7,1.1,3.5,1.1,5.5c0,1.9-0.4,3.8-1.1,5.5 c-0.7,1.7-1.7,3.2-2.9,4.4c-1.2,1.3-2.6,2.3-4.2,3c-1.6,0.7-3.3,1.1-5.1,1.1s-3.5-0.4-5.1-1.1c-1.6-0.7-3-1.7-4.2-3 s-2.1-2.7-2.8-4.4s-1-3.5-1-5.5c0-1.9,0.3-3.8,1-5.5s1.6-3.2,2.8-4.4c1.2-1.3,2.6-2.3,4.2-3C222.4,121.2,224.1,120.8,225.9,120.8 L225.9,120.8z M232,144.2c1.1-0.3,2-0.8,2.8-1.6s1.5-1.7,1.9-2.9c0.5-1.1,0.8-2.4,0.9-3.8c0.1-1.4,0-2.8-0.3-4.3 c-0.3-1.4-0.9-2.8-1.6-3.9c-0.7-1.2-1.6-2.2-2.5-3s-1.9-1.4-3-1.7c-1.1-0.3-2.2-0.4-3.2-0.1c-1.1,0.3-2.1,0.8-2.9,1.6 c-0.8,0.8-1.5,1.7-1.9,2.8c-0.5,1.1-0.8,2.4-0.9,3.7c-0.1,1.4,0,2.8,0.4,4.3s0.9,2.8,1.6,4c0.7,1.2,1.5,2.2,2.5,3s2,1.3,3,1.7 S230.9,144.5,232,144.2L232,144.2z M264.9,119.3c2.3-0.4,4.1-0.2,5.4,0.5c1.3,0.8,2.2,1.9,2.7,3.3c0.4,1.4,0.4,3,0,4.7 c-0.4,1.8-1.2,3.4-2.4,4.9c-0.9,1.2-2,2.2-3.3,3s-2.7,1.4-4.1,1.8c-1.4,0.4-2.9,0.6-4.4,0.7c-1.5,0.1-2.8,0-4.1-0.3 c0.3,0.8,0.8,1.8,1.6,3.1c0.8,1.3,1.8,2.6,3.1,4.1c1.3,1.4,2.9,2.8,4.9,4.1c1.9,1.3,4.2,2.3,6.9,3c2.7,0.7,5.7,1.1,9.2,1 s7.4-0.8,11.8-2.1c0.5-0.4,0.9-0.6,1.2-0.7c0.3-0.1,0.5,0,0.6,0.1s0.1,0.3,0,0.6s-0.2,0.5-0.5,0.8c-0.2,0.3-0.8,0.9-1.7,1.8 s-2,1.8-3.4,2.9c-1.4,1-3,2-4.8,3c-1.8,0.9-3.7,1.6-5.7,2s-4.1,0.4-6.3,0c-2.2-0.4-4.4-1.4-6.6-3s-4.3-4-6.4-7 c-2.1-3.1-4-7.1-5.8-12.2c0,1.5,0.1,2.8,0.1,3.9c0,1.1,0,1.9-0.1,2.4c-0.2,1.7-0.4,3.3-0.8,4.7c-0.4,1.4-0.9,2.5-1.5,3.4 s-1.3,1.5-2.1,1.9s-1.6,0.4-2.5,0c-0.5-0.2-0.9-1.2-1.3-3.1c-0.4-1.9-0.7-4.4-1-7.3c-0.2-3-0.3-6.4-0.3-10.2s0.2-7.6,0.6-11.5 c0.4-3.9,1-7.7,1.8-11.4c0.8-3.7,1.9-7,3.3-10c1.4-2.9,3.1-5.3,5.1-7c2-1.8,4.4-2.7,7.3-2.7c1.6,0,2.6,0.6,3.1,1.9 c0.5,1.2,0.6,2.9,0.3,4.9c-0.3,2-0.9,4.3-1.8,6.9s-1.9,5.2-3.1,7.9c-1.2,2.7-2.4,5.3-3.7,7.8c-1.3,2.5-2.4,4.8-3.5,6.7v1.3 c0.6-1,1.3-2.1,2.1-3.2s1.7-2.1,2.7-3.1s2.1-1.8,3.3-2.5C262.3,120,263.6,119.5,264.9,119.3L264.9,119.3z M261.6,94.6 c-1.2,0-2.2,0.4-3.1,1.2c-0.9,0.8-1.6,1.9-2.3,3.3c-0.6,1.4-1.2,3.1-1.6,5c-0.4,1.9-0.8,4-1,6.2c-0.3,2.2-0.4,4.5-0.6,6.9 c-0.1,2.4-0.2,4.7-0.3,7.1c1.1-2.1,2.2-4.3,3.3-6.6c1.1-2.3,2.1-4.5,3-6.7s1.7-4.3,2.4-6.2c0.7-2,1.2-3.7,1.4-5.2 c0.3-1.5,0.3-2.7,0.1-3.6C262.9,95,262.4,94.6,261.6,94.6L261.6,94.6z M263.1,130.8c0.4-0.9,0.6-1.9,0.7-2.9c0.1-1,0-1.8-0.3-2.5 s-0.8-1.1-1.5-1.3c-0.7-0.2-1.6,0-2.7,0.6c-0.9,0.5-1.7,1.1-2.3,2c-0.7,0.9-1.3,1.8-1.8,2.7c-0.5,1-1,1.9-1.3,2.8 c-0.4,0.9-0.7,1.7-0.9,2.4c0,0.3,0,0.5,0,0.8s0,0.5,0,0.8l0.5,0.1c0.7,0.2,1.5,0.1,2.4-0.1c0.9-0.2,1.9-0.5,2.8-1 c1-0.5,1.8-1.1,2.6-1.8C262.1,132.5,262.7,131.7,263.1,130.8L263.1,130.8z M305.4,139c1,4.4,1.3,8.2,1,11.4s-1,5.8-2.1,7.9 c-1.1,2.1-2.6,3.7-4.3,4.8c-1.8,1.1-3.7,1.8-5.7,2.1s-4.1,0.3-6.2-0.1c-2.1-0.4-4-1.1-5.8-2s-3-2-3.7-3.1c-0.7-1.2-1.1-2.4-1-3.7 c0-1.3,0.4-2.6,1.1-4s1.6-2.8,2.8-4.2c1.1-1.4,2.4-2.8,3.9-4.2s3-2.7,4.5-3.9c0.8-0.7,1.5-1.2,2-1.5s0.8-0.5,1.1-0.6 c0.2-0.1,0.4-0.1,0.4,0s0,0.3-0.1,0.5c-0.3,0.5-0.8,1.3-1.7,2.3l3.1-2.1c0.1,0,0,0.2-0.5,0.7c-0.4,0.5-0.9,1.1-1.5,1.7 c-0.7,0.7-1.5,1.5-2.3,2.4c-1.4,0.7-2.7,1.6-4,2.6c-1.3,1.1-2.3,2.2-3.2,3.4c-0.9,1.2-1.5,2.4-2,3.6c-0.4,1.2-0.5,2.3-0.3,3.3 s0.9,1.8,1.9,2.4c1,0.6,2.5,0.9,4.4,0.9c2,0,3.7-0.3,5.1-1c1.4-0.6,2.5-1.6,3.3-2.7c0.8-1.2,1.5-2.5,1.9-4.1s0.7-3.3,0.9-5.1 c0.2-1.8,0.2-3.7,0.1-5.7s-0.1-4-0.3-6c-0.9,1.7-1.9,3.2-3,4.6c-1,1.1-2.1,2.2-3.4,3.1c-1.3,0.9-2.8,1.4-4.4,1.4 c-2.5,0-4.5-0.6-5.9-1.8s-2.3-2.8-2.7-4.8c-0.4-2-0.2-4.3,0.3-6.7c0.6-2.5,1.6-5,3.1-7.6c0.6-1,1.1-1.6,1.7-2 c0.5-0.4,1-0.4,1.3-0.3c0.4,0.2,0.6,0.6,0.7,1.4c0.1,0.7-0.1,1.7-0.5,2.9c-0.8,2.4-1,4.4-0.8,6s0.7,3,1.5,4 c0.7,1,1.6,1.7,2.6,2.2s1.8,0.7,2.5,0.7c1.3,0,2.3-0.4,3.1-1.2c0.8-0.8,1.5-1.9,2.1-3.1c0.6-1.2,1-2.6,1.3-4s0.6-2.8,0.9-4 s0.6-2.3,0.9-3.1c0.3-0.8,0.7-1.2,1.2-1.2c0.3,0,0.7,0.3,1,0.8s0.7,1.2,0.9,2c0.3,0.8,0.6,1.8,0.8,2.9c0.3,1.1,0.5,2.2,0.7,3.3 C304.6,132.7,305,135.7,305.4,139L305.4,139z M323.9,120.8c1.8,0,3.5,0.4,5.1,1.1s3,1.7,4.2,3s2.2,2.7,2.9,4.4 c0.7,1.7,1.1,3.5,1.1,5.5c0,1.9-0.4,3.8-1.1,5.5s-1.7,3.2-2.9,4.4c-1.2,1.3-2.6,2.3-4.2,3s-3.3,1.1-5.1,1.1 c-1.8,0-3.5-0.4-5.1-1.1c-1.6-0.7-3-1.7-4.2-3s-2.1-2.7-2.8-4.4c-0.7-1.7-1-3.5-1-5.5c0-1.9,0.3-3.8,1-5.5s1.6-3.2,2.8-4.4 c1.2-1.3,2.6-2.3,4.2-3C320.4,121.2,322.1,120.8,323.9,120.8L323.9,120.8z M330,144.2c1.1-0.3,2-0.8,2.8-1.6s1.5-1.7,1.9-2.9 c0.5-1.1,0.8-2.4,0.9-3.8c0.1-1.4,0-2.8-0.3-4.3c-0.3-1.4-0.9-2.8-1.6-3.9c-0.7-1.2-1.6-2.2-2.5-3s-1.9-1.4-3-1.7 c-1.1-0.3-2.2-0.4-3.2-0.1c-1.1,0.3-2.1,0.8-2.9,1.6c-0.8,0.8-1.5,1.7-1.9,2.8c-0.5,1.1-0.8,2.4-0.9,3.7c-0.1,1.4,0,2.8,0.4,4.3 c0.3,1.4,0.9,2.8,1.6,4s1.5,2.2,2.5,3s2,1.3,3,1.7S328.9,144.5,330,144.2L330,144.2z" style="fill: rgb(0, 0, 0);"/><path class="st4" d="M217.3,169.7c0-0.7-0.2-1.4-0.7-2c-0.2-0.3-0.5-0.5-0.8-0.7s-0.8-0.4-1.3-0.6s-1.1-0.3-1.8-0.5 c-0.7-0.1-1.5-0.2-2.5-0.2c-0.9,0-1.8,0.1-2.7,0.3s-1.7,0.4-2.4,0.7s-1.4,0.7-1.9,1.1c-0.5,0.4-0.9,0.8-1.1,1.3 c-0.2,0.5-0.3,0.9-0.2,1.4s0.4,1,1,1.5c0.5,0.5,1.3,1,2.4,1.4c1,0.4,2.3,0.9,4,1.2c1.5,0.3,2.8,0.7,4,1c1.2,0.4,2.3,0.8,3.1,1.3 c0.9,0.5,1.5,1.1,2,1.8s0.7,1.6,0.7,2.6s-0.2,1.9-0.7,2.7s-1.1,1.4-1.9,1.9c-0.8,0.5-1.7,0.8-2.8,1.1c-1.1,0.2-2.3,0.3-3.6,0.3 s-2.5-0.1-3.7-0.4c-1.2-0.2-2.3-0.6-3.2-1s-1.7-1-2.3-1.6s-0.8-1.3-0.8-2c0-0.4,0.1-0.7,0.3-1c0.2-0.2,0.4-0.4,0.7-0.5 s0.6-0.1,0.9-0.1c0.3,0,0.6,0.1,0.9,0.3c0.2,0.1,0.4,0.4,0.5,0.7s0.1,0.6,0.1,1c-0.1,0.3-0.2,0.6-0.5,0.9 c-0.3,0.3-0.6,0.5-1.1,0.6c0.2,0.3,0.5,0.6,1.1,0.9c0.5,0.3,1.2,0.6,1.9,0.8s1.5,0.4,2.3,0.6c0.8,0.1,1.5,0.2,2.2,0.2 c1.1,0,2.2-0.2,3.2-0.5s1.8-0.7,2.5-1.2s1.1-1.1,1.3-1.7c0.2-0.6,0.2-1.3-0.1-2s-1-1.3-2-2c-1-0.6-2.4-1.2-4.2-1.7 c-1.7-0.5-3.2-0.9-4.5-1.2c-1.3-0.4-2.4-0.7-3.3-1.2c-0.9-0.4-1.6-1-2-1.6c-0.5-0.6-0.7-1.5-0.7-2.5c0-0.7,0.2-1.3,0.5-1.9 c0.3-0.6,0.8-1.1,1.3-1.5c0.6-0.5,1.2-0.8,2-1.2c0.7-0.3,1.5-0.6,2.3-0.8s1.6-0.4,2.5-0.5c0.8-0.1,1.6-0.2,2.4-0.2 c1.1,0,2.2,0.1,3.1,0.3c0.9,0.2,1.7,0.5,2.4,0.8c0.7,0.4,1.2,0.8,1.6,1.2c0.4,0.5,0.6,1,0.7,1.5c0.1,0.5,0.1,1-0.1,1.3 c-0.1,0.4-0.3,0.7-0.5,0.9s-0.5,0.4-0.8,0.5s-0.6,0.2-0.9,0.2c-0.2,0-0.4,0-0.6-0.1c-0.2-0.1-0.4-0.2-0.5-0.3s-0.2-0.3-0.3-0.5 s-0.1-0.4-0.1-0.5s0-0.4,0.1-0.6c0.1-0.2,0.2-0.3,0.3-0.5c0.1-0.1,0.3-0.3,0.5-0.3c0.2-0.1,0.4-0.1,0.7-0.1c0.2,0,0.3,0,0.5,0.1 s0.4,0.1,0.5,0.2C216.9,169.5,217.1,169.6,217.3,169.7L217.3,169.7z M233.2,178.7c0.2,0,0.2,0.1,0.2,0.3c0,0,0,0.1-0.1,0.3 s-0.2,0.3-0.4,0.6c-0.2,0.2-0.4,0.5-0.7,0.8s-0.5,0.5-0.8,0.7s-0.6,0.4-1,0.6c-0.4,0.2-0.7,0.2-1.2,0.2c-0.4,0-0.8-0.1-1.1-0.3 s-0.5-0.5-0.7-0.8s-0.3-0.7-0.4-1c-0.1-0.4-0.2-0.7-0.3-1s-0.1-0.6-0.2-0.8c0-0.2-0.1-0.3-0.2-0.3c-0.2,0.8-0.4,1.5-0.7,2.2 c-0.1,0.3-0.3,0.5-0.4,0.8c-0.2,0.3-0.3,0.5-0.5,0.7s-0.4,0.4-0.6,0.5c-0.2,0.1-0.4,0.2-0.7,0.2c-0.4,0-0.8-0.1-1.1-0.3 s-0.6-0.5-0.9-0.9c-0.3-0.4-0.5-0.8-0.6-1.3c-0.2-0.5-0.3-1-0.4-1.5c-0.1-0.5-0.2-1-0.2-1.6c0-0.5,0-1,0-1.5 c0-0.4,0.1-0.8,0.3-1.1s0.4-0.6,0.6-0.7c0.2-0.2,0.4-0.2,0.6-0.2c0.2,0,0.3,0.1,0.3,0.3c0,0.4,0,0.8,0.1,1.3 c0,0.5,0.1,0.9,0.2,1.4c0.1,0.5,0.2,0.9,0.3,1.4c0.1,0.4,0.3,0.8,0.4,1.2c0.1,0.3,0.3,0.6,0.5,0.8s0.4,0.3,0.6,0.3 c0.4,0,0.7-0.2,1-0.5s0.5-0.7,0.7-1.2s0.3-1,0.5-1.6c0.1-0.6,0.2-1.1,0.4-1.6c0.1-0.5,0.2-0.9,0.3-1.2s0.2-0.5,0.4-0.5 c0.3,0,0.5,0.2,0.7,0.6c0.2,0.4,0.4,0.8,0.5,1.4c0.2,0.6,0.3,1.2,0.4,1.8c0.1,0.7,0.3,1.3,0.5,1.8c0.2,0.6,0.4,1,0.6,1.4 c0.2,0.4,0.5,0.6,0.8,0.6c0.2,0,0.5-0.1,0.7-0.2c0.2-0.1,0.4-0.2,0.5-0.3c0.2-0.1,0.3-0.3,0.5-0.5l0.5-0.7l0.1-0.1 C233.1,178.7,233.1,178.7,233.2,178.7L233.2,178.7z M237.6,178.7c0.1,0.1,0.3,0.4,0.4,0.7c0.2,0.3,0.3,0.7,0.4,1.2 c0.1,0.4,0,0.9-0.1,1.4c-0.2,0.5-0.5,1-1,1.4s-1.1,0.7-1.6,0.8s-1,0-1.4-0.1s-0.8-0.4-1.1-0.7s-0.6-0.6-0.8-0.9 c-0.1-0.1-0.1-0.2-0.1-0.3s0.1-0.1,0.1-0.1c0.1,0,0.1,0,0.2,0c0.1,0,0.1,0.1,0.2,0.2c0.2,0.4,0.4,0.6,0.6,0.8 c0.2,0.1,0.4,0.2,0.6,0.2c0.2,0,0.4,0,0.5-0.1s0.2-0.1,0.3-0.2c0,0,0.1-0.1,0.2-0.2c0.1-0.1,0.2-0.2,0.3-0.4s0.2-0.4,0.2-0.7 s0-0.6-0.1-1.1s-0.4-0.9-0.7-1.3c-0.3-0.4-0.6-0.8-1-1.1l-0.6,0.8c-0.1,0.1-0.2,0.2-0.4,0.1c-0.1-0.1-0.2-0.2-0.1-0.4l0.6-1 c-0.2-0.2-0.4-0.4-0.6-0.6c-0.2-0.2-0.3-0.4-0.4-0.6c-0.2-0.3-0.3-0.7-0.4-1.1c-0.1-0.4-0.1-0.8,0.1-1.2c0.1-0.4,0.4-0.7,0.8-0.9 c0.4-0.3,1.1-0.4,2-0.4c0.5,0,0.8,0.1,1,0.3s0.3,0.4,0.3,0.7s-0.1,0.6-0.3,1s-0.4,0.8-0.6,1.3c0.2,0.2,0.4,0.4,0.6,0.7 c0.2,0.2,0.4,0.5,0.6,0.7c0.2,0.2,0.4,0.4,0.5,0.6C237.3,178.4,237.5,178.6,237.6,178.7L237.6,178.7z M234.9,173.4 c-0.2,0-0.4,0.1-0.5,0.2c-0.1,0.1-0.2,0.3-0.2,0.6c0,0.2,0.1,0.5,0.2,0.8c0.1,0.3,0.3,0.6,0.6,0.8c0.2-0.3,0.4-0.7,0.5-1 s0.2-0.5,0.2-0.8c0-0.2,0-0.4-0.1-0.5C235.4,173.4,235.2,173.4,234.9,173.4L234.9,173.4z M243.1,179c0.3-0.6,0.6-1.3,0.9-2 c0.3-0.7,0.7-1.4,1-1.9c0.3-0.6,0.7-1.1,1-1.5s0.6-0.6,0.8-0.6c0.3,0,0.5,0.2,0.7,0.6c0.2,0.4,0.4,0.8,0.5,1.4 c0.1,0.6,0.3,1.2,0.4,1.8c0.1,0.7,0.3,1.3,0.5,1.8c0.2,0.6,0.4,1,0.6,1.4c0.2,0.4,0.5,0.6,0.8,0.6c0.2,0,0.5-0.1,0.7-0.2 c0.2-0.1,0.4-0.2,0.5-0.3c0.2-0.1,0.3-0.3,0.5-0.5c0.1-0.1,0.2-0.2,0.3-0.3s0.1-0.2,0.2-0.3c0.1-0.1,0.1-0.1,0.1-0.1 s0-0.1,0.1-0.1s0.1,0,0.2,0c0.1,0,0.1,0,0.2,0.1c0.1,0,0.1,0.1,0.1,0.2c0,0,0,0.1-0.1,0.3s-0.2,0.3-0.4,0.6 c-0.2,0.2-0.4,0.5-0.7,0.8s-0.5,0.5-0.8,0.7s-0.7,0.4-1,0.6c-0.4,0.2-0.8,0.2-1.2,0.2s-0.8-0.1-1.2-0.4c-0.3-0.3-0.6-0.6-0.8-1 s-0.4-0.8-0.6-1.3c-0.2-0.5-0.3-0.9-0.4-1.3c-0.1-0.4-0.2-0.7-0.3-1s-0.2-0.4-0.2-0.4c-0.2,0-0.3,0.1-0.5,0.3s-0.3,0.6-0.5,1 s-0.3,0.8-0.5,1.3c-0.1,0.5-0.3,0.9-0.4,1.3c-0.1,0.4-0.2,0.8-0.3,1.1s-0.1,0.5-0.1,0.5c-0.1,0.5-0.2,0.9-0.3,1.3 c-0.1,0.4-0.3,0.7-0.5,0.9s-0.4,0.4-0.6,0.5c-0.2,0.1-0.5,0.1-0.7,0c-0.1,0-0.3-0.4-0.4-1c-0.1-0.6-0.2-1.4-0.3-2.3 c-0.1-0.9-0.1-2-0.1-3.2s0.1-2.4,0.2-3.6c0.1-1.2,0.3-2.4,0.6-3.6c0.3-1.2,0.6-2.2,1-3.1c0.4-0.9,1-1.6,1.6-2.2 c0.6-0.6,1.4-0.8,2.3-0.8c0.5,0,0.8,0.2,1,0.6c0.2,0.4,0.2,0.9,0.1,1.5c-0.1,0.6-0.3,1.3-0.6,2.1s-0.6,1.6-1,2.5 c-0.4,0.8-0.8,1.6-1.2,2.4c-0.4,0.8-0.8,1.5-1.1,2.1c0,0.5,0,1,0,1.4C243.1,178.1,243.1,178.6,243.1,179L243.1,179z M245.8,165.7 c-0.4,0-0.7,0.1-1,0.4c-0.3,0.3-0.5,0.6-0.7,1s-0.4,1-0.5,1.6s-0.2,1.2-0.3,1.9s-0.1,1.4-0.2,2.1c0,0.7-0.1,1.5-0.1,2.2 c0.3-0.7,0.7-1.3,1-2s0.7-1.4,0.9-2.1c0.3-0.7,0.5-1.3,0.8-2c0.2-0.6,0.4-1.2,0.4-1.6c0.1-0.5,0.1-0.8,0-1.1 C246.2,165.8,246,165.7,245.8,165.7L245.8,165.7z M256.3,171.6c-0.4,0-0.8-0.1-1.1-0.4c-0.3-0.3-0.4-0.6-0.4-1.1 c0-0.4,0.1-0.8,0.4-1c0.3-0.3,0.6-0.4,1.1-0.4c0.4,0,0.8,0.1,1.1,0.4c0.3,0.3,0.4,0.6,0.4,1s-0.1,0.8-0.4,1.1 C257.1,171.4,256.7,171.6,256.3,171.6L256.3,171.6z M261.3,178.7c0.2,0,0.3,0.1,0.3,0.3c0,0-0.1,0.1-0.2,0.3s-0.3,0.3-0.5,0.6 c-0.2,0.2-0.4,0.5-0.7,0.8c-0.3,0.3-0.6,0.5-0.9,0.7s-0.7,0.4-1.1,0.6c-0.4,0.2-0.8,0.2-1.2,0.2c-0.6,0-1-0.2-1.4-0.5 c-0.3-0.3-0.6-0.7-0.7-1.1c-0.2-0.4-0.2-0.9-0.3-1.5c0-0.5,0-1,0-1.5c0-0.4,0-0.8,0-1.1s0-0.5-0.1-0.5c-0.1,0.3-0.3,0.6-0.5,1 s-0.4,0.7-0.6,1.1c-0.2,0.3-0.4,0.6-0.5,0.9c-0.1,0.3-0.2,0.4-0.3,0.4c-0.1,0.1-0.1,0.1-0.2,0.2c-0.1,0-0.2,0-0.2,0 c-0.1,0-0.1-0.1-0.1-0.1c0-0.1,0-0.1,0.1-0.2c0.5-0.7,0.9-1.3,1.2-2.1c0.4-0.7,0.7-1.4,1-2s0.6-1.1,1-1.5 c0.3-0.4,0.7-0.6,1.2-0.6c0.2,0,0.3,0.1,0.4,0.3s0.2,0.5,0.2,0.9s0.1,0.8,0.1,1.2s0,0.9,0,1.4s0,0.9,0,1.4c0,0.4,0.1,0.8,0.1,1.2 c0.1,0.4,0.2,0.6,0.3,0.9c0.1,0.2,0.3,0.3,0.6,0.3s0.5-0.1,0.7-0.2c0.3-0.1,0.5-0.2,0.7-0.3s0.5-0.3,0.7-0.5l0.5-0.7 C261.1,178.7,261.2,178.7,261.3,178.7L261.3,178.7z M282.3,173.6c1.7,0.9,3,1.9,3.9,3.1c0.4,0.5,0.7,1,0.9,1.6 c0.2,0.6,0.3,1.2,0.2,1.9c-0.1,0.7-0.3,1.4-0.8,2.1c-0.4,0.7-1.1,1.5-2.1,2.3c-0.8,0.7-1.6,1.3-2.4,1.7s-1.6,0.7-2.3,0.9 c-0.7,0.2-1.5,0.3-2.1,0.3s-1.3-0.1-1.9-0.2c-0.6-0.1-1.2-0.3-1.7-0.6c-0.5-0.2-1-0.5-1.5-0.8c0,0.9,0,1.7,0,2.4s0,1.4,0,2 s0,1,0,1.4s0,0.6,0.1,0.7c0,0.3,0,0.6,0,0.8c-0.1,0.2-0.2,0.3-0.3,0.3c-0.1,0-0.3-0.1-0.4-0.4c-0.1-0.3-0.2-0.7-0.3-1.3 c0-0.2,0-0.5-0.1-0.9c0-0.4,0-0.9,0-1.5s0-1.2,0-1.9s0-1.5,0-2.3c-0.6-0.4-1-0.8-1.4-1.2s-0.7-0.6-0.8-0.8 c-0.3-0.3-0.6-0.5-0.9-0.8s-0.6-0.5-0.9-0.8c-0.3-0.2-0.4-0.5-0.6-0.7c-0.1-0.2-0.1-0.4,0-0.5s0.3-0.1,0.6,0 c0.3,0.1,0.6,0.3,1,0.5c0.4,0.3,0.9,0.6,1.4,1s1.1,0.8,1.7,1.3c0-1.1,0-2.1,0-3.2c0-1.1,0-2.2,0-3.2c0-1.1,0-2.1,0-3 c0-1,0-1.8,0-2.6c-0.6,0.3-1.2,0.6-1.8,0.9c-0.6,0.3-1.2,0.5-1.7,0.8c-0.6,0.2-1.1,0.4-1.7,0.6c-0.5,0.2-1.1,0.3-1.5,0.3 c-1,0.1-1.8,0.1-2.5,0c-0.7-0.2-1.3-0.4-1.8-0.7s-0.9-0.6-1.2-1c-0.3-0.4-0.5-0.8-0.7-1.1c-0.1-0.4-0.2-0.7-0.2-0.9 c0-0.3,0.1-0.4,0.2-0.5c0.1,0,0.1,0,0.2,0s0.2,0.1,0.3,0.2c0.1,0.1,0.3,0.3,0.5,0.5c0.3,0.3,0.8,0.5,1.3,0.5 c0.5,0.1,1.1,0.1,1.7,0s1.3-0.3,2-0.5s1.4-0.5,2-0.7c0.7-0.3,1.3-0.6,1.9-0.9c0.6-0.3,1.1-0.6,1.6-0.8c0.5-0.3,1-0.5,1.5-0.9 c0.5-0.3,1.1-0.6,1.8-0.9c0.6-0.3,1.3-0.5,2-0.7s1.4-0.3,2.1-0.3s1.4,0.1,2.2,0.4c0.7,0.2,1.5,0.7,2.3,1.3c0.6,0.5,1,0.9,1.3,1.3 s0.5,0.9,0.7,1.3c0.1,0.4,0.2,0.8,0.2,1.2s-0.1,0.7-0.2,1.1C283.6,172.2,283,172.9,282.3,173.6L282.3,173.6z M281.7,167.8 c-0.3-0.4-0.8-0.6-1.4-0.6s-1.3,0.2-2.2,0.5c-0.8,0.3-1.8,0.7-2.8,1.3c-1,0.5-2,1.1-3.1,1.6c0,0.5,0,1.2,0,1.8c0,0.7,0,1.3,0,2.1 c0.3,0,0.7-0.1,1.2-0.3c0.5-0.1,1-0.3,1.6-0.5s1.2-0.4,1.8-0.7c0.6-0.3,1.2-0.6,1.8-0.9c0.6-0.3,1.1-0.6,1.6-1s0.9-0.7,1.2-1.1 c0.3-0.4,0.5-0.7,0.5-1.1C282.1,168.6,282,168.2,281.7,167.8L281.7,167.8z M272.4,184.1c0.7,0.4,1.5,0.7,2.4,0.9s1.8,0.2,2.8,0.1 c1-0.1,1.9-0.3,2.8-0.6s1.8-0.7,2.5-1.3c0.7-0.5,1.3-1.2,1.8-1.9c0.5-0.8,0.7-1.6,0.7-2.6c0-0.8-0.2-1.5-0.5-2s-0.7-0.9-1.2-1.1 c-0.5-0.3-1.1-0.4-1.8-0.5c-0.7-0.1-1.4,0-2.1,0c-0.7,0.1-1.5,0.2-2.3,0.4s-1.5,0.4-2.1,0.6c-0.7,0.2-1.3,0.4-1.8,0.6 s-0.9,0.3-1.2,0.5c0,1.1,0,2.3,0,3.4C272.3,181.8,272.4,183,272.4,184.1L272.4,184.1z M302.4,178.7c0.2,0,0.3,0.1,0.3,0.3 c0,0,0,0.1-0.1,0.3s-0.2,0.3-0.4,0.6c-0.2,0.2-0.4,0.5-0.7,0.8c-0.3,0.3-0.5,0.5-0.8,0.7s-0.7,0.4-1,0.6 c-0.4,0.2-0.8,0.2-1.2,0.2c-0.4,0-0.8-0.1-1.2-0.4c-0.3-0.3-0.6-0.6-0.9-0.9c-0.2-0.3-0.4-0.7-0.6-1c-0.1-0.3-0.2-0.5-0.2-0.5 s-0.1,0.2-0.3,0.5c-0.2,0.3-0.4,0.6-0.7,1c-0.3,0.3-0.7,0.7-1.1,0.9c-0.4,0.3-0.9,0.4-1.3,0.4c-0.5,0-1-0.1-1.4-0.3 s-0.7-0.5-0.9-0.9c-0.2-0.4-0.4-0.8-0.5-1.2c-0.1-0.5-0.1-1,0-1.5s0.3-1,0.5-1.6c0.3-0.5,0.6-1,1.1-1.5s1-0.9,1.5-1.2 s1-0.4,1.5-0.5s0.9-0.1,1.3-0.1s0.7,0.1,1,0.2c0.3,0.1,0.5,0.2,0.6,0.3s0.2,0.2,0.1,0.3s-0.1,0.1-0.2,0.1s-0.2,0-0.3-0.1 c-0.1-0.1-0.3-0.1-0.5-0.2c-0.2-0.1-0.5-0.1-0.8-0.1s-0.7,0.1-1,0.2c-0.3,0.1-0.7,0.4-1,0.6c-0.3,0.3-0.6,0.6-0.8,0.9 c-0.2,0.3-0.4,0.7-0.5,1.1c-0.2,0.6-0.2,1.1-0.2,1.5s0.2,0.8,0.3,1.1c0.2,0.3,0.4,0.5,0.6,0.7s0.5,0.2,0.7,0.2 c0.4,0,0.7-0.1,1-0.4c0.3-0.2,0.5-0.5,0.7-0.9s0.3-0.7,0.4-1.1c0.1-0.4,0.2-0.8,0.3-1.1c0.1-0.4,0.2-0.6,0.3-0.9 c0.1-0.2,0.2-0.3,0.4-0.3c0.2,0,0.3,0.1,0.4,0.4c0.1,0.3,0.3,0.6,0.4,1c0.2,0.4,0.3,0.8,0.5,1.2s0.4,0.9,0.6,1.2 c0.2,0.4,0.4,0.7,0.7,1c0.3,0.3,0.5,0.4,0.9,0.4c0.2,0,0.5-0.1,0.7-0.2c0.2-0.1,0.4-0.2,0.5-0.3c0.2-0.1,0.3-0.3,0.5-0.5l0.6-0.7 C302.2,178.7,302.2,178.7,302.4,178.7L302.4,178.7z M314.7,178.7c0.2,0,0.3,0.1,0.3,0.3c0,0-0.1,0.1-0.2,0.3s-0.3,0.3-0.5,0.6 c-0.2,0.2-0.4,0.5-0.7,0.8c-0.3,0.3-0.6,0.5-0.9,0.7s-0.7,0.4-1.1,0.6c-0.4,0.2-0.8,0.2-1.2,0.2c-0.6,0-1.2-0.2-1.6-0.5 s-0.7-0.7-1-1.2s-0.4-1-0.6-1.6c-0.1-0.6-0.2-1.1-0.3-1.6c-0.1-0.5-0.1-1-0.2-1.4s-0.1-0.7-0.2-0.8s-0.2-0.2-0.3-0.2 c-0.1-0.1-0.3-0.1-0.5-0.1s-0.3-0.1-0.5-0.1s-0.3-0.1-0.4-0.1s-0.1,0-0.2-0.1c-0.1,0.3-0.2,0.6-0.4,1.1c-0.2,0.4-0.4,0.9-0.6,1.3 c-0.2,0.5-0.5,0.9-0.7,1.3c-0.3,0.4-0.5,0.8-0.7,1.1c-0.1,0.1-0.1,0.1-0.2,0.2c-0.1,0-0.1,0-0.2,0c0,0-0.1-0.1-0.1-0.2 c0-0.1,0-0.2,0.1-0.3c0.5-0.7,0.9-1.3,1.2-1.9c0.3-0.5,0.5-1,0.7-1.4s0.3-0.7,0.3-0.9c0.1-0.2,0.1-0.4,0.1-0.5 c-0.2-0.1-0.4-0.1-0.5-0.2c-0.2,0-0.3-0.1-0.3-0.2c-0.3-0.2-0.5-0.5-0.5-0.9c0-0.3,0.1-0.5,0.3-0.7c0.2-0.2,0.4-0.3,0.7-0.3 c0.3,0,0.5,0.1,0.7,0.3s0.3,0.4,0.3,0.6c0,0.1,0,0.1,0,0.2c0,0.1,0,0.2,0,0.4c0.3,0.1,0.6,0.1,1,0.2c0.4,0,0.8,0.1,1.3,0.1 c0.4,0,0.8,0.1,1.2,0.1c0.3,0.1,0.6,0.2,0.7,0.3c0.1,0.2,0.2,0.4,0.3,0.8c0.1,0.4,0.2,0.8,0.3,1.3c0.1,0.5,0.2,0.9,0.3,1.4 c0.1,0.5,0.2,0.9,0.4,1.4c0.2,0.4,0.3,0.8,0.6,1c0.2,0.3,0.5,0.4,0.8,0.4c0.2,0,0.5-0.1,0.7-0.2c0.3-0.1,0.5-0.2,0.7-0.3 s0.5-0.3,0.7-0.5l0.5-0.7l0.1-0.1C314.6,178.7,314.6,178.7,314.7,178.7L314.7,178.7z" style="fill: rgb(0, 0, 0);"/></g></g></g></svg>