<svg xmlns="http://www.w3.org/2000/svg" xmlns:xlink="http://www.w3.org/1999/xlink" viewBox="0 0 960 960"><defs><style>.cls-1,.cls-6{fill:none;}.cls-2{clip-path:url(#clip-path);}.cls-3{opacity:0;}.cls-4{fill:#fff;}.cls-5{fill:#eb6100;}.cls-6{stroke:#1e1e1e;stroke-miterlimit:10;stroke-width:50px;}</style><clipPath id="clip-path"><rect class="cls-1" width="960" height="960"/></clipPath></defs><g id="图层_2" data-name="图层 2"><g id="图层_1-2" data-name="图层 1"><g class="cls-2"><g class="cls-2"><g class="cls-3"><g class="cls-2"><rect class="cls-4" width="960" height="960"/></g></g><path class="cls-5" d="M765.34,541.25c47.33,4,84.93,41.92,89.25,89.36a98.82,98.82,0,0,1-66.81,102.72,97.31,97.31,0,0,1-45.44,4.19c-1.4-.2-2.81-.38-4.51-.61.14,1.17.21,2.1.36,3,6.42,39.28-12.55,79.92-46.66,100-56.6,33.32-127.67,5.36-146.12-57.46-2.8-9.54-3.17-19.39-4.21-29.2-3.06-29-9.14-57.18-23.18-83.1a40.29,40.29,0,0,0-6.81-9.23Q407.55,557.08,303.78,453.34a54.25,54.25,0,0,0-11.93-9"/><path class="cls-6" d="M222.19,223.2c-.43-5.69-1.09-11-1.19-16.27a98.75,98.75,0,0,1,69.39-96.5C348.34,92.11,410,131.38,417.75,191.6c1.65,12.82,2.65,25.74,4.68,38.5,5.51,34.7,19.57,65.68,41.61,93,.85,1.05,1.83,2,2.78,2.95C518.7,378,570.38,430,622.54,481.64c26.51,26.22,57.89,44.3,94.6,52.52a359,359,0,0,0,48.2,7.09c47.33,4,84.93,41.92,89.25,89.36a98.82,98.82,0,0,1-66.81,102.72,97.31,97.31,0,0,1-45.44,4.19c-1.4-.2-2.81-.38-4.51-.61.13,1.17.21,2.1.36,3,6.42,39.28-12.55,79.92-46.67,100-56.59,33.32-127.66,5.36-146.11-57.46-2.8-9.54-3.17-19.39-4.21-29.2-3.06-29-9.14-57.18-23.18-83.1a40.59,40.59,0,0,0-6.81-9.23Q407.55,557.08,303.78,453.34a54.25,54.25,0,0,0-11.93-9c-20.61-11.63-43-18-66.11-21.77-11.76-1.91-23.79-2.2-35.52-4.23-41.63-7.18-69.86-30.92-81.1-71.61-11.14-40.33.51-75.25,32.38-102.43,22.21-18.95,48.55-25.43,77.45-21.51Z"/></g></g></g></g></svg>