<svg xmlns="http://www.w3.org/2000/svg" xmlns:xlink="http://www.w3.org/1999/xlink" viewBox="0 0 960 960"><defs><style>.cls-1,.cls-5{fill:none;}.cls-2{clip-path:url(#clip-path);}.cls-3{opacity:0;}.cls-4{fill:#fff;}.cls-5{stroke:#1e1e1e;stroke-linecap:round;stroke-miterlimit:10;stroke-width:50px;}.cls-6{fill:#eb6100;}</style><clipPath id="clip-path"><rect class="cls-1" width="960" height="960"/></clipPath></defs><g id="图层_2" data-name="图层 2"><g id="图层_1-2" data-name="图层 1"><g class="cls-2"><g class="cls-2"><g class="cls-3"><g class="cls-2"><rect class="cls-4" width="960" height="960"/></g></g><path class="cls-5" d="M269.81,240.84c-16.26-.18-29.73-11.52-34.52-27.13-2.17-7.08-6-14.48-11.11-19.66-13.1-13.19-15.72-30.85-5.1-45.09,9.92-13.31,27.71-16.27,43.59-8.39a20.41,20.41,0,0,0,14.76.75c16.22-6.24,33-2.38,41.94,10.87,9.45,14,6.72,31-6.07,44a31.55,31.55,0,0,0-7.49,14C301.17,229,287.52,241,269.81,240.84Z"/><path class="cls-5" d="M787.13,452.53c30.23.21,56-25.08,56.58-55.39.54-31-26-57.56-57.1-57.15-30.3.39-55.56,26.17-55.39,56.54S756.72,452.32,787.13,452.53Z"/><path class="cls-5" d="M794.79,161.29c34.21,1.22,53.1,18.42,55,44.27,2,27.51-16.45,47.54-56.27,52.93"/><path class="cls-5" d="M612.61,527.4c-23.09-27.78-23.39-52.8-5.34-72,18.37-19.54,45.08-20,73.9,3.11"/><path class="cls-6" d="M823.91,657.78A262.46,262.46,0,0,1,592.5,796.25h-225c-145,0-262.5-117.53-262.5-262.5"/><path class="cls-5" d="M592.5,796.25h-225c-145,0-262.5-117.52-262.5-262.5H855C855,678.73,737.48,796.25,592.5,796.25Z"/><path class="cls-5" d="M405.6,434.92h50.56a47.33,47.33,0,0,0,33.48-13.83l7.76-7.76a47.33,47.33,0,0,1,33.49-13.82h31.79a47.29,47.29,0,0,0,33.48-13.83l21.51-21.51c7.91-7.91,18.48-12.12,29.05-15.74a71.34,71.34,0,0,0,47.75-67.27c0-2.51-.14-5-.36-7.46-2.3-21.51-1.7-45.46,3.69-66.46a82.93,82.93,0,0,0-100.9-100.9c-21,5.4-44.94,6-66.45,3.7-2.44-.22-5-.37-7.47-.37a70.92,70.92,0,0,0-67.12,48c-3.62,10.57-7.83,21.14-15.74,29.05L418.61,208.2a47.29,47.29,0,0,0-13.83,33.49v31.78A47.33,47.33,0,0,1,391,307l-7.76,7.76a47.34,47.34,0,0,0-13.83,33.49v50.56"/><line class="cls-5" x1="325.39" y1="478.75" x2="602.3" y2="201.85"/><line class="cls-5" x1="605.77" y1="281.16" x2="524.98" y2="281.16"/><line class="cls-5" x1="475.67" y1="245.68" x2="475.67" y2="326.8"/><path class="cls-5" d="M203,439.46c-14.36,14.76-32,19.46-52,11.15l-13.25-13.25c-4.91-14.71-6.63-28.94,3.44-42.72,2-2.8,1.25-8.27.62-12.33-5.18-33.74,13.07-51.51,47.79-46.77a26.72,26.72,0,0,0,13.93-2.15c20.5-9.26,37.62-7.06,49.11,7q17.73,21.7-1.66,49.79l-4.38,6.38Z"/><line class="cls-5" x1="242.51" y1="440.04" x2="222.84" y2="420.36"/><path class="cls-5" d="M380,801.39V835a20,20,0,0,0,20,20H560a20,20,0,0,0,20-20V801.39"/></g></g></g></g></svg>