<svg xmlns="http://www.w3.org/2000/svg" viewBox="0 0 960 960"><defs><style>.cls-1{fill:#fff;opacity:0;}.cls-2{fill:#eb6100;}.cls-3{fill:none;stroke:#1e1e1e;stroke-linecap:round;stroke-miterlimit:10;stroke-width:50px;}</style></defs><g id="图层_2" data-name="图层 2"><g id="规范画板_线条_80px_" data-name="规范画板(线条：80px）"><rect id="透明层" class="cls-1" width="960" height="960"/><g id="供应链"><polyline class="cls-2" points="480 626.75 480 746.75 667.5 855 855 746.75"/><path class="cls-3" d="M393,480,332.5,514.92a80,80,0,0,1-80,0L145,452.85a80,80,0,0,1-40-69.28V259.44a80,80,0,0,1,40-69.28l107.5-62.07a80,80,0,0,1,80,0L440,190.16a80,80,0,0,1,40,69.28V700.56a80,80,0,0,0,40,69.28l107.5,62.07a80,80,0,0,0,80,0L815,769.84a80,80,0,0,0,40-69.28V576.43a80,80,0,0,0-40-69.28L707.5,445.08a80,80,0,0,0-80,0L567,480"/></g></g></g></svg>