<svg xmlns="http://www.w3.org/2000/svg" viewBox="0 0 960 960"><defs><style>.cls-1{fill:#fff;opacity:0;}.cls-2,.cls-4{fill:none;stroke:#1e1e1e;stroke-miterlimit:10;stroke-width:50px;}.cls-3{fill:#eb6100;}.cls-4{stroke-linecap:round;}</style></defs><g id="图层_2" data-name="图层 2"><g id="规范画板_线条_80px_" data-name="规范画板(线条：80px）"><rect id="透明层" class="cls-1" width="960" height="960"/><g id="牛奶"><path class="cls-2" d="M442.5,855H115a10,10,0,0,1-10-10V377.5a10,10,0,0,1,10-10H432.5a10,10,0,0,1,10,10Z"/><path class="cls-2" d="M630,855H442.5V367.5H620a10,10,0,0,1,10,10V480"/><path class="cls-3" d="M834.17,803.54a38.67,38.67,0,0,1-38.56,38.56H641.37a38.68,38.68,0,0,1-38.57-38.56V590.15c15.43,5.78,30.85,7.71,48.21,7.71,28.92,0,55.91-7.71,79-23.14,28.92-19.28,73.26-21.21,104.11-3.85Z"/><path class="cls-2" d="M582.27,490V786.82A68.38,68.38,0,0,0,650.45,855H786.82A68.38,68.38,0,0,0,855,786.82V490a10,10,0,0,0-10-10H592.27A10,10,0,0,0,582.27,490Z"/><polyline class="cls-2" points="442.5 367.5 539.35 227.33 628.35 372.01"/><polyline class="cls-2" points="106.65 372.01 210.32 228.43 540.46 228.43"/><path class="cls-2" d="M210.32,228.43V145a40,40,0,0,1,40-40H500.46a40,40,0,0,1,40,40v82.33"/><line class="cls-4" x1="312.95" y1="445.91" x2="442.5" y2="445.91"/><line class="cls-4" x1="384.55" y1="514.09" x2="442.5" y2="514.09"/><path class="cls-4" d="M200.49,741.14V609.91a10,10,0,0,1,17.81-6.24l47.64,59.65a10,10,0,0,0,15.62,0l47.64-59.65A10,10,0,0,1,347,609.91V741.14"/></g></g></g></svg>