<svg xmlns="http://www.w3.org/2000/svg" xmlns:xlink="http://www.w3.org/1999/xlink" viewBox="0 0 960 960"><defs><style>.cls-1,.cls-6,.cls-7{fill:none;}.cls-2{clip-path:url(#clip-path);}.cls-3{opacity:0;}.cls-4{fill:#fff;}.cls-5{fill:#eb6100;}.cls-6,.cls-7{stroke:#1e1e1e;stroke-miterlimit:10;stroke-width:50px;}.cls-7{stroke-linecap:round;}</style><clipPath id="clip-path"><rect class="cls-1" width="960" height="960"/></clipPath></defs><g id="图层_2" data-name="图层 2"><g id="图层_1-2" data-name="图层 1"><g class="cls-2"><g class="cls-2"><g class="cls-3"><g class="cls-2"><rect class="cls-4" width="960" height="960"/></g></g><path class="cls-5" d="M702.05,491.56,632.68,496,545.1,538.53l-54.72,79,18.1,29.4a23,23,0,0,0,8.16,1.52,19,19,0,0,0,10.59-3,18.86,18.86,0,0,1,10.35-3.16,17,17,0,0,1,8.91,2.5c3.16,1.95,5.39,4.53,5.39,8.91,0,31.87,1.09,65.89,30,66.36.86,0,16.09,5.82,23.36,24.73.86,2.19,2.5,2.89,4.76,2.89,4.5,0,11.33-2.89,18.6-2.89,5.43,0,0,9.22,0,29.1,0,19.69,42.69,50.2,42.69,50.2a235.66,235.66,0,0,0,1.29,31s21.06,44.76,39.88-3.63c6.06-25.59,9-40,21.45-50.86,17.19-14.92,3.79-31.41-9.38-31.41a14.32,14.32,0,0,0-2.26.16,11.54,11.54,0,0,1-1.56.12c-8.68,0-2.93-13.64-12.15-14.42-9.69-.82-22.38-20.07-36.49-26.75-7.42-3.52-14.64-13-26.17-13.48h-.66c-7.27,0-16.53,4.34-21.25,4.34-1.88,0-3-.71-3-2.62,0-22.31-2.3-38.17-2.66-44.46-.15-2.14-.78-2.77-.43-2.77s2.82,1.25,10.86,1.45h.2c7.27,0,3.79-15,11-15.63a7.23,7.23,0,0,1,.93,0c6.41,0,18.56,4.61,24.93,4.61a5.64,5.64,0,0,0,3.08-.66.57.57,0,0,1,.27-.08c3.44,0,17,33.71,24.54,33.71,3.12,0,5.23-5.74,5.23-21.87,0-6.68-3.52-18.32,0-24.73,13.71-25.08,26.52-45.59,25.43-48.48-.35-.9-4.41-1.72-9.77-1.72a50,50,0,0,0-15,2.19c-3.67,1.21,1.1,6.92-4,8.13a44.12,44.12,0,0,1-9.84,1.13c-14.93,0-25.71-7.93-20.82-15.55,6.21-9.33,28.43-4.14,30.42-22.89.9-8.67,1.68-18.44,2.27-26.76a6,6,0,0,1,5.63-5.54c14.53-1.06,16-18.36,2.42-29.42Z"/><path class="cls-5" d="M864.27,740.48l3.73-86-18.22-49.92-10.79,2a12.91,12.91,0,0,0-6.8-2c-11.05,0-21.17,15-14.84,32-52,39.84-38.63,67.73-21.68,83.59a117.7,117.7,0,0,1,14.22,16.68,50.43,50.43,0,0,1,8.2,19.22c.55,2.5,2.5,3.75,5.35,3.75,4.3,0,10.55-2.85,16.84-8.48Z"/><circle class="cls-6" cx="680.32" cy="680.34" r="175"/><path class="cls-6" d="M467.28,343.07c6.34,0,11.13,6.78,9.8,14-9.12,49.16-46.72,86-91.78,86s-82.67-36.87-91.78-86c-1.34-7.19,3.45-14,9.79-14Z"/><path class="cls-6" d="M117,343.07H279.8c6.45,0,11.29,7,9.74,14.26-10.16,47.5-47.1,82.71-91.16,82.71s-81-35.21-91.15-82.71C105.67,350.07,110.52,343.07,117,343.07Z"/><path class="cls-6" d="M574.26,443.07c-45.07,0-82.67-36.87-91.78-86-1.34-7.19,3.45-14,9.79-14h164c6.34,0,11.13,6.78,9.79,14C656.93,406.2,619.33,443.07,574.26,443.07Z"/><path class="cls-6" d="M761.4,443.07c-45.07,0-82.67-36.87-91.78-86-1.34-7.19,3.45-14,9.79-14h164c6.34,0,11.13,6.78,9.79,14C844.06,406.2,806.47,443.07,761.4,443.07Z"/><path class="cls-6" d="M109.17,347.37l91.75-209.2A60,60,0,0,1,254.58,105H705.42a60,60,0,0,1,53.66,33.17l92.09,209.2"/><line class="cls-6" x1="480.69" y1="330" x2="480.69" y2="105"/><line class="cls-6" x1="291.73" y1="330" x2="366.73" y2="105"/><line class="cls-6" x1="667.83" y1="330" x2="592.83" y2="105"/><path class="cls-6" d="M680,855H260a80,80,0,0,1-80-80V445"/><line class="cls-6" x1="780" y1="445" x2="780" y2="536.49"/><line class="cls-6" x1="574.26" y1="443.07" x2="574.26" y2="541.12"/><line class="cls-7" x1="369.33" y1="546.48" x2="262.06" y2="653.74"/><line class="cls-7" x1="349.87" y1="691.65" x2="302.78" y2="738.73"/></g></g></g></g></svg>