<svg xmlns="http://www.w3.org/2000/svg" viewBox="0 0 960 960"><defs><style>.cls-1{fill:#fff;opacity:0;}.cls-2{fill:#eb6100;}.cls-3{fill:none;stroke:#1e1e1e;stroke-linecap:round;stroke-miterlimit:10;stroke-width:50px;}</style></defs><g id="图层_2" data-name="图层 2"><g id="规范画板_线条_80px_" data-name="规范画板(线条：80px）"><rect id="透明层" class="cls-1" width="960" height="960"/><path class="cls-2" d="M231.66,328.59,180,855H405"/><path class="cls-3" d="M180,855H405L353.34,328.59a40,40,0,0,0-39.81-36.09H271.47a40,40,0,0,0-39.81,36.09Z"/><path class="cls-3" d="M291.19,239.86a69.75,69.75,0,0,1,113.1-73.13"/><path class="cls-3" d="M375.28,140A69.76,69.76,0,1,1,456.41,241.4a12.12,12.12,0,0,1-3.79.45"/><line class="cls-3" x1="105" y1="855" x2="855" y2="855"/><path class="cls-3" d="M436.3,597.53l82.8-42a10,10,0,0,1,14.52,8.92v44A10,10,0,0,0,549,616.9l93.18-59a10,10,0,0,1,15.35,8.45v42a10,10,0,0,0,15.39,8.43l91.73-58.59A10,10,0,0,1,780,566.63V855"/><line class="cls-3" x1="681.33" y1="706.27" x2="705" y2="706.27"/><line class="cls-3" x1="580.15" y1="706.27" x2="603.83" y2="706.27"/><line class="cls-3" x1="478.98" y1="706.27" x2="502.65" y2="706.27"/></g></g></svg>