<?xml version="1.0" encoding="UTF-8"?>
<svg id="_图层_2" xmlns="http://www.w3.org/2000/svg" version="1.1" viewBox="0 0 39.7 39.7">
  <!-- Generator: Adobe Illustrator 29.5.0, SVG Export Plug-In . SVG Version: 2.1.0 Build 137)  -->
  <defs>
    <style>
      .st0 {
        fill: #fff;
      }

      .st1 {
        fill: #df600e;
      }
    </style>
  </defs>
  <g id="_图层_2-2">
    <g>
      <rect id="p" class="st1" x="0" y="0" width="1.4" height="1.4" rx=".7" ry=".7"/>
      <rect id="p1" data-name="p" class="st1" x="1.4" y="0" width="1.4" height="1.4" rx=".7" ry=".7"/>
      <rect id="p2" data-name="p" class="st1" x="2.7" y="0" width="1.4" height="1.4" rx=".7" ry=".7"/>
      <rect id="p3" data-name="p" class="st1" x="4.1" y="0" width="1.4" height="1.4" rx=".7" ry=".7"/>
      <rect id="p4" data-name="p" class="st1" x="5.5" y="0" width="1.4" height="1.4" rx=".7" ry=".7"/>
      <rect id="p5" data-name="p" class="st1" x="6.8" y="0" width="1.4" height="1.4" rx=".7" ry=".7"/>
      <rect id="p6" data-name="p" class="st1" x="8.2" y="0" width="1.4" height="1.4" rx=".7" ry=".7"/>
      <rect id="p7" data-name="p" class="st1" x="13.7" y="0" width="1.4" height="1.4" rx=".7" ry=".7"/>
      <rect id="p8" data-name="p" class="st1" x="15.1" y="0" width="1.4" height="1.4" rx=".7" ry=".7"/>
      <rect id="p9" data-name="p" class="st1" x="19.2" y="0" width="1.4" height="1.4" rx=".7" ry=".7"/>
      <rect id="p10" data-name="p" class="st1" x="26" y="0" width="1.4" height="1.4" rx=".7" ry=".7"/>
      <rect id="p11" data-name="p" class="st1" x="27.4" y="0" width="1.4" height="1.4" rx=".7" ry=".7"/>
      <rect id="p12" data-name="p" class="st1" x="30.1" y="0" width="1.4" height="1.4" rx=".7" ry=".7"/>
      <rect id="p13" data-name="p" class="st1" x="31.5" y="0" width="1.4" height="1.4" rx=".7" ry=".7"/>
      <rect id="p14" data-name="p" class="st1" x="32.9" y="0" width="1.4" height="1.4" rx=".7" ry=".7"/>
      <rect id="p15" data-name="p" class="st1" x="34.2" y="0" width="1.4" height="1.4" rx=".7" ry=".7"/>
      <rect id="p16" data-name="p" class="st1" x="35.6" y="0" width="1.4" height="1.4" rx=".7" ry=".7"/>
      <rect id="p17" data-name="p" class="st1" x="37" y="0" width="1.4" height="1.4" rx=".7" ry=".7"/>
      <rect id="p18" data-name="p" class="st1" x="38.4" y="0" width="1.4" height="1.4" rx=".7" ry=".7"/>
      <rect id="p19" data-name="p" class="st1" x="0" y="1.4" width="1.4" height="1.4" rx=".7" ry=".7"/>
      <rect id="p20" data-name="p" class="st1" x="8.2" y="1.4" width="1.4" height="1.4" rx=".7" ry=".7"/>
      <rect id="p21" data-name="p" class="st1" x="11" y="1.4" width="1.4" height="1.4" rx=".7" ry=".7"/>
      <rect id="p22" data-name="p" class="st1" x="13.7" y="1.4" width="1.4" height="1.4" rx=".7" ry=".7"/>
      <rect id="p23" data-name="p" class="st1" x="17.8" y="1.4" width="1.4" height="1.4" rx=".7" ry=".7"/>
      <rect id="p24" data-name="p" class="st1" x="23.3" y="1.4" width="1.4" height="1.4" rx=".7" ry=".7"/>
      <rect id="p25" data-name="p" class="st1" x="24.7" y="1.4" width="1.4" height="1.4" rx=".7" ry=".7"/>
      <rect id="p26" data-name="p" class="st1" x="26" y="1.4" width="1.4" height="1.4" rx=".7" ry=".7"/>
      <rect id="p27" data-name="p" class="st1" x="27.4" y="1.4" width="1.4" height="1.4" rx=".7" ry=".7"/>
      <rect id="p28" data-name="p" class="st1" x="30.1" y="1.4" width="1.4" height="1.4" rx=".7" ry=".7"/>
      <rect id="p29" data-name="p" class="st1" x="38.4" y="1.4" width="1.4" height="1.4" rx=".7" ry=".7"/>
      <rect id="p30" data-name="p" class="st1" x="0" y="2.7" width="1.4" height="1.4" rx=".7" ry=".7"/>
      <rect id="p31" data-name="p" class="st1" x="2.7" y="2.7" width="1.4" height="1.4" rx=".7" ry=".7"/>
      <rect id="p32" data-name="p" class="st1" x="4.1" y="2.7" width="1.4" height="1.4" rx=".7" ry=".7"/>
      <rect id="p33" data-name="p" class="st1" x="5.5" y="2.7" width="1.4" height="1.4" rx=".7" ry=".7"/>
      <rect id="p34" data-name="p" class="st1" x="8.2" y="2.7" width="1.4" height="1.4" rx=".7" ry=".7"/>
      <rect id="p35" data-name="p" class="st1" x="12.3" y="2.7" width="1.4" height="1.4" rx=".7" ry=".7"/>
      <rect id="p36" data-name="p" class="st1" x="13.7" y="2.7" width="1.4" height="1.4" rx=".7" ry=".7"/>
      <rect id="p37" data-name="p" class="st1" x="15.1" y="2.7" width="1.4" height="1.4" rx=".7" ry=".7"/>
      <rect id="p38" data-name="p" class="st1" x="20.5" y="2.7" width="1.4" height="1.4" rx=".7" ry=".7"/>
      <rect id="p39" data-name="p" class="st1" x="24.7" y="2.7" width="1.4" height="1.4" rx=".7" ry=".7"/>
      <rect id="p40" data-name="p" class="st1" x="26" y="2.7" width="1.4" height="1.4" rx=".7" ry=".7"/>
      <rect id="p41" data-name="p" class="st1" x="30.1" y="2.7" width="1.4" height="1.4" rx=".7" ry=".7"/>
      <rect id="p42" data-name="p" class="st1" x="32.9" y="2.7" width="1.4" height="1.4" rx=".7" ry=".7"/>
      <rect id="p43" data-name="p" class="st1" x="34.2" y="2.7" width="1.4" height="1.4" rx=".7" ry=".7"/>
      <rect id="p44" data-name="p" class="st1" x="35.6" y="2.7" width="1.4" height="1.4" rx=".7" ry=".7"/>
      <rect id="p45" data-name="p" class="st1" x="38.4" y="2.7" width="1.4" height="1.4" rx=".7" ry=".7"/>
      <rect id="p46" data-name="p" class="st1" x="0" y="4.1" width="1.4" height="1.4" rx=".7" ry=".7"/>
      <rect id="p47" data-name="p" class="st1" x="2.7" y="4.1" width="1.4" height="1.4" rx=".7" ry=".7"/>
      <rect id="p48" data-name="p" class="st1" x="4.1" y="4.1" width="1.4" height="1.4" rx=".7" ry=".7"/>
      <rect id="p49" data-name="p" class="st1" x="5.5" y="4.1" width="1.4" height="1.4" rx=".7" ry=".7"/>
      <rect id="p50" data-name="p" class="st1" x="8.2" y="4.1" width="1.4" height="1.4" rx=".7" ry=".7"/>
      <rect id="p51" data-name="p" class="st1" x="15.1" y="4.1" width="1.4" height="1.4" rx=".7" ry=".7"/>
      <rect id="p52" data-name="p" class="st1" x="17.8" y="4.1" width="1.4" height="1.4" rx=".7" ry=".7"/>
      <rect id="p53" data-name="p" class="st1" x="21.9" y="4.1" width="1.4" height="1.4" rx=".7" ry=".7"/>
      <rect id="p54" data-name="p" class="st1" x="24.7" y="4.1" width="1.4" height="1.4" rx=".7" ry=".7"/>
      <rect id="p55" data-name="p" class="st1" x="30.1" y="4.1" width="1.4" height="1.4" rx=".7" ry=".7"/>
      <rect id="p56" data-name="p" class="st1" x="32.9" y="4.1" width="1.4" height="1.4" rx=".7" ry=".7"/>
      <rect id="p57" data-name="p" class="st1" x="34.2" y="4.1" width="1.4" height="1.4" rx=".7" ry=".7"/>
      <rect id="p58" data-name="p" class="st1" x="35.6" y="4.1" width="1.4" height="1.4" rx=".7" ry=".7"/>
      <rect id="p59" data-name="p" class="st1" x="38.4" y="4.1" width="1.4" height="1.4" rx=".7" ry=".7"/>
      <rect id="p60" data-name="p" class="st1" x="0" y="5.5" width="1.4" height="1.4" rx=".7" ry=".7"/>
      <rect id="p61" data-name="p" class="st1" x="2.7" y="5.5" width="1.4" height="1.4" rx=".7" ry=".7"/>
      <rect id="p62" data-name="p" class="st1" x="4.1" y="5.5" width="1.4" height="1.4" rx=".7" ry=".7"/>
      <rect id="p63" data-name="p" class="st1" x="5.5" y="5.5" width="1.4" height="1.4" rx=".7" ry=".7"/>
      <rect id="p64" data-name="p" class="st1" x="8.2" y="5.5" width="1.4" height="1.4" rx=".7" ry=".7"/>
      <rect id="p65" data-name="p" class="st1" x="11" y="5.5" width="1.4" height="1.4" rx=".7" ry=".7"/>
      <rect id="p66" data-name="p" class="st1" x="12.3" y="5.5" width="1.4" height="1.4" rx=".7" ry=".7"/>
      <rect id="p67" data-name="p" class="st1" x="13.7" y="5.5" width="1.4" height="1.4" rx=".7" ry=".7"/>
      <rect id="p68" data-name="p" class="st1" x="17.8" y="5.5" width="1.4" height="1.4" rx=".7" ry=".7"/>
      <rect id="p69" data-name="p" class="st1" x="21.9" y="5.5" width="1.4" height="1.4" rx=".7" ry=".7"/>
      <rect id="p70" data-name="p" class="st1" x="24.7" y="5.5" width="1.4" height="1.4" rx=".7" ry=".7"/>
      <rect id="p71" data-name="p" class="st1" x="26" y="5.5" width="1.4" height="1.4" rx=".7" ry=".7"/>
      <rect id="p72" data-name="p" class="st1" x="27.4" y="5.5" width="1.4" height="1.4" rx=".7" ry=".7"/>
      <rect id="p73" data-name="p" class="st1" x="30.1" y="5.5" width="1.4" height="1.4" rx=".7" ry=".7"/>
      <rect id="p74" data-name="p" class="st1" x="32.9" y="5.5" width="1.4" height="1.4" rx=".7" ry=".7"/>
      <rect id="p75" data-name="p" class="st1" x="34.2" y="5.5" width="1.4" height="1.4" rx=".7" ry=".7"/>
      <rect id="p76" data-name="p" class="st1" x="35.6" y="5.5" width="1.4" height="1.4" rx=".7" ry=".7"/>
      <rect id="p77" data-name="p" class="st1" x="38.4" y="5.5" width="1.4" height="1.4" rx=".7" ry=".7"/>
      <rect id="p78" data-name="p" class="st1" x="0" y="6.8" width="1.4" height="1.4" rx=".7" ry=".7"/>
      <rect id="p79" data-name="p" class="st1" x="8.2" y="6.8" width="1.4" height="1.4" rx=".7" ry=".7"/>
      <rect id="p80" data-name="p" class="st1" x="15.1" y="6.8" width="1.4" height="1.4" rx=".7" ry=".7"/>
      <rect id="p81" data-name="p" class="st1" x="19.2" y="6.8" width="1.4" height="1.4" rx=".7" ry=".7"/>
      <rect id="p82" data-name="p" class="st1" x="20.5" y="6.8" width="1.4" height="1.4" rx=".7" ry=".7"/>
      <rect id="p83" data-name="p" class="st1" x="21.9" y="6.8" width="1.4" height="1.4" rx=".7" ry=".7"/>
      <rect id="p84" data-name="p" class="st1" x="23.3" y="6.8" width="1.4" height="1.4" rx=".7" ry=".7"/>
      <rect id="p85" data-name="p" class="st1" x="24.7" y="6.8" width="1.4" height="1.4" rx=".7" ry=".7"/>
      <rect id="p86" data-name="p" class="st1" x="26" y="6.8" width="1.4" height="1.4" rx=".7" ry=".7"/>
      <rect id="p87" data-name="p" class="st1" x="27.4" y="6.8" width="1.4" height="1.4" rx=".7" ry=".7"/>
      <rect id="p88" data-name="p" class="st1" x="30.1" y="6.8" width="1.4" height="1.4" rx=".7" ry=".7"/>
      <rect id="p89" data-name="p" class="st1" x="38.4" y="6.8" width="1.4" height="1.4" rx=".7" ry=".7"/>
      <rect id="p90" data-name="p" class="st1" x="0" y="8.2" width="1.4" height="1.4" rx=".7" ry=".7"/>
      <rect id="p91" data-name="p" class="st1" x="1.4" y="8.2" width="1.4" height="1.4" rx=".7" ry=".7"/>
      <rect id="p92" data-name="p" class="st1" x="2.7" y="8.2" width="1.4" height="1.4" rx=".7" ry=".7"/>
      <rect id="p93" data-name="p" class="st1" x="4.1" y="8.2" width="1.4" height="1.4" rx=".7" ry=".7"/>
      <rect id="p94" data-name="p" class="st1" x="5.5" y="8.2" width="1.4" height="1.4" rx=".7" ry=".7"/>
      <rect id="p95" data-name="p" class="st1" x="6.8" y="8.2" width="1.4" height="1.4" rx=".7" ry=".7"/>
      <rect id="p96" data-name="p" class="st1" x="8.2" y="8.2" width="1.4" height="1.4" rx=".7" ry=".7"/>
      <rect id="p97" data-name="p" class="st1" x="11" y="8.2" width="1.4" height="1.4" rx=".7" ry=".7"/>
      <rect id="p98" data-name="p" class="st1" x="13.7" y="8.2" width="1.4" height="1.4" rx=".7" ry=".7"/>
      <rect id="p99" data-name="p" class="st1" x="16.4" y="8.2" width="1.4" height="1.4" rx=".7" ry=".7"/>
      <rect id="p100" data-name="p" class="st1" x="19.2" y="8.2" width="1.4" height="1.4" rx=".7" ry=".7"/>
      <rect id="p101" data-name="p" class="st1" x="21.9" y="8.2" width="1.4" height="1.4" rx=".7" ry=".7"/>
      <rect id="p102" data-name="p" class="st1" x="24.7" y="8.2" width="1.4" height="1.4" rx=".7" ry=".7"/>
      <rect id="p103" data-name="p" class="st1" x="27.4" y="8.2" width="1.4" height="1.4" rx=".7" ry=".7"/>
      <rect id="p104" data-name="p" class="st1" x="30.1" y="8.2" width="1.4" height="1.4" rx=".7" ry=".7"/>
      <rect id="p105" data-name="p" class="st1" x="31.5" y="8.2" width="1.4" height="1.4" rx=".7" ry=".7"/>
      <rect id="p106" data-name="p" class="st1" x="32.9" y="8.2" width="1.4" height="1.4" rx=".7" ry=".7"/>
      <rect id="p107" data-name="p" class="st1" x="34.2" y="8.2" width="1.4" height="1.4" rx=".7" ry=".7"/>
      <rect id="p108" data-name="p" class="st1" x="35.6" y="8.2" width="1.4" height="1.4" rx=".7" ry=".7"/>
      <rect id="p109" data-name="p" class="st1" x="37" y="8.2" width="1.4" height="1.4" rx=".7" ry=".7"/>
      <rect id="p110" data-name="p" class="st1" x="38.4" y="8.2" width="1.4" height="1.4" rx=".7" ry=".7"/>
      <rect id="p111" data-name="p" class="st1" x="13.7" y="9.6" width="1.4" height="1.4" rx=".7" ry=".7"/>
      <rect id="p112" data-name="p" class="st1" x="15.1" y="9.6" width="1.4" height="1.4" rx=".7" ry=".7"/>
      <rect id="p113" data-name="p" class="st1" x="20.5" y="9.6" width="1.4" height="1.4" rx=".7" ry=".7"/>
      <rect id="p114" data-name="p" class="st1" x="23.3" y="9.6" width="1.4" height="1.4" rx=".7" ry=".7"/>
      <rect id="p115" data-name="p" class="st1" x="26" y="9.6" width="1.4" height="1.4" rx=".7" ry=".7"/>
      <rect id="p116" data-name="p" class="st1" x="27.4" y="9.6" width="1.4" height="1.4" rx=".7" ry=".7"/>
      <rect id="p117" data-name="p" class="st1" x="0" y="11" width="1.4" height="1.4" rx=".7" ry=".7"/>
      <rect id="p118" data-name="p" class="st1" x="2.7" y="11" width="1.4" height="1.4" rx=".7" ry=".7"/>
      <rect id="p119" data-name="p" class="st1" x="5.5" y="11" width="1.4" height="1.4" rx=".7" ry=".7"/>
      <rect id="p120" data-name="p" class="st1" x="8.2" y="11" width="1.4" height="1.4" rx=".7" ry=".7"/>
      <rect id="p121" data-name="p" class="st1" x="12.3" y="11" width="1.4" height="1.4" rx=".7" ry=".7"/>
      <rect id="p122" data-name="p" class="st1" x="13.7" y="11" width="1.4" height="1.4" rx=".7" ry=".7"/>
      <rect id="p123" data-name="p" class="st1" x="16.4" y="11" width="1.4" height="1.4" rx=".7" ry=".7"/>
      <rect id="p124" data-name="p" class="st1" x="21.9" y="11" width="1.4" height="1.4" rx=".7" ry=".7"/>
      <rect id="p125" data-name="p" class="st1" x="26" y="11" width="1.4" height="1.4" rx=".7" ry=".7"/>
      <rect id="p126" data-name="p" class="st1" x="27.4" y="11" width="1.4" height="1.4" rx=".7" ry=".7"/>
      <rect id="p127" data-name="p" class="st1" x="32.9" y="11" width="1.4" height="1.4" rx=".7" ry=".7"/>
      <rect id="p128" data-name="p" class="st1" x="37" y="11" width="1.4" height="1.4" rx=".7" ry=".7"/>
      <rect id="p129" data-name="p" class="st1" x="4.1" y="12.3" width="1.4" height="1.4" rx=".7" ry=".7"/>
      <rect id="p130" data-name="p" class="st1" x="6.8" y="12.3" width="1.4" height="1.4" rx=".7" ry=".7"/>
      <rect id="p131" data-name="p" class="st1" x="9.6" y="12.3" width="1.4" height="1.4" rx=".7" ry=".7"/>
      <rect id="p132" data-name="p" class="st1" x="11" y="12.3" width="1.4" height="1.4" rx=".7" ry=".7"/>
      <rect id="p133" data-name="p" class="st1" x="13.7" y="12.3" width="1.4" height="1.4" rx=".7" ry=".7"/>
      <rect id="p134" data-name="p" class="st1" x="16.4" y="12.3" width="1.4" height="1.4" rx=".7" ry=".7"/>
      <rect id="p135" data-name="p" class="st1" x="17.8" y="12.3" width="1.4" height="1.4" rx=".7" ry=".7"/>
      <rect id="p136" data-name="p" class="st1" x="20.5" y="12.3" width="1.4" height="1.4" rx=".7" ry=".7"/>
      <rect id="p137" data-name="p" class="st1" x="21.9" y="12.3" width="1.4" height="1.4" rx=".7" ry=".7"/>
      <rect id="p138" data-name="p" class="st1" x="27.4" y="12.3" width="1.4" height="1.4" rx=".7" ry=".7"/>
      <rect id="p139" data-name="p" class="st1" x="28.8" y="12.3" width="1.4" height="1.4" rx=".7" ry=".7"/>
      <rect id="p140" data-name="p" class="st1" x="30.1" y="12.3" width="1.4" height="1.4" rx=".7" ry=".7"/>
      <rect id="p141" data-name="p" class="st1" x="34.2" y="12.3" width="1.4" height="1.4" rx=".7" ry=".7"/>
      <rect id="p142" data-name="p" class="st1" x="38.4" y="12.3" width="1.4" height="1.4" rx=".7" ry=".7"/>
      <rect id="p143" data-name="p" class="st1" x="1.4" y="13.7" width="1.4" height="1.4" rx=".7" ry=".7"/>
      <rect id="p144" data-name="p" class="st1" x="5.5" y="13.7" width="1.4" height="1.4" rx=".7" ry=".7"/>
      <rect id="p145" data-name="p" class="st1" x="8.2" y="13.7" width="1.4" height="1.4" rx=".7" ry=".7"/>
      <rect id="p146" data-name="p" class="st1" x="9.6" y="13.7" width="1.4" height="1.4" rx=".7" ry=".7"/>
      <rect id="p147" data-name="p" class="st1" x="15.1" y="13.7" width="1.4" height="1.4" rx=".7" ry=".7"/>
      <rect id="p148" data-name="p" class="st1" x="19.2" y="13.7" width="1.4" height="1.4" rx=".7" ry=".7"/>
      <rect id="p149" data-name="p" class="st1" x="20.5" y="13.7" width="1.4" height="1.4" rx=".7" ry=".7"/>
      <rect id="p150" data-name="p" class="st1" x="21.9" y="13.7" width="1.4" height="1.4" rx=".7" ry=".7"/>
      <rect id="p151" data-name="p" class="st1" x="23.3" y="13.7" width="1.4" height="1.4" rx=".7" ry=".7"/>
      <rect id="p152" data-name="p" class="st1" x="24.7" y="13.7" width="1.4" height="1.4" rx=".7" ry=".7"/>
      <rect id="p153" data-name="p" class="st1" x="32.9" y="13.7" width="1.4" height="1.4" rx=".7" ry=".7"/>
      <rect id="p154" data-name="p" class="st1" x="35.6" y="13.7" width="1.4" height="1.4" rx=".7" ry=".7"/>
      <rect id="p155" data-name="p" class="st1" x="37" y="13.7" width="1.4" height="1.4" rx=".7" ry=".7"/>
      <rect id="p156" data-name="p" class="st1" x="38.4" y="13.7" width="1.4" height="1.4" rx=".7" ry=".7"/>
      <rect id="p157" data-name="p" class="st1" x="2.7" y="15.1" width="1.4" height="1.4" rx=".7" ry=".7"/>
      <rect id="p158" data-name="p" class="st1" x="12.3" y="15.1" width="1.4" height="1.4" rx=".7" ry=".7"/>
      <rect id="p159" data-name="p" class="st1" x="17.8" y="15.1" width="1.4" height="1.4" rx=".7" ry=".7"/>
      <rect id="p160" data-name="p" class="st1" x="19.2" y="15.1" width="1.4" height="1.4" rx=".7" ry=".7"/>
      <rect id="p161" data-name="p" class="st1" x="21.9" y="15.1" width="1.4" height="1.4" rx=".7" ry=".7"/>
      <rect id="p162" data-name="p" class="st1" x="23.3" y="15.1" width="1.4" height="1.4" rx=".7" ry=".7"/>
      <rect id="p163" data-name="p" class="st1" x="27.4" y="15.1" width="1.4" height="1.4" rx=".7" ry=".7"/>
      <rect id="p164" data-name="p" class="st1" x="32.9" y="15.1" width="1.4" height="1.4" rx=".7" ry=".7"/>
      <rect id="p165" data-name="p" class="st1" x="37" y="15.1" width="1.4" height="1.4" rx=".7" ry=".7"/>
      <rect id="p166" data-name="p" class="st1" x="1.4" y="16.4" width="1.4" height="1.4" rx=".7" ry=".7"/>
      <rect id="p167" data-name="p" class="st1" x="4.1" y="16.4" width="1.4" height="1.4" rx=".7" ry=".7"/>
      <rect id="p168" data-name="p" class="st1" x="8.2" y="16.4" width="1.4" height="1.4" rx=".7" ry=".7"/>
      <rect id="p169" data-name="p" class="st1" x="11" y="16.4" width="1.4" height="1.4" rx=".7" ry=".7"/>
      <rect id="p170" data-name="p" class="st1" x="12.3" y="16.4" width="1.4" height="1.4" rx=".7" ry=".7"/>
      <rect id="p171" data-name="p" class="st1" x="13.7" y="16.4" width="1.4" height="1.4" rx=".7" ry=".7"/>
      <rect id="p172" data-name="p" class="st1" x="19.2" y="16.4" width="1.4" height="1.4" rx=".7" ry=".7"/>
      <rect id="p173" data-name="p" class="st1" x="20.5" y="16.4" width="1.4" height="1.4" rx=".7" ry=".7"/>
      <rect id="p174" data-name="p" class="st1" x="21.9" y="16.4" width="1.4" height="1.4" rx=".7" ry=".7"/>
      <rect id="p175" data-name="p" class="st1" x="26" y="16.4" width="1.4" height="1.4" rx=".7" ry=".7"/>
      <rect id="p176" data-name="p" class="st1" x="27.4" y="16.4" width="1.4" height="1.4" rx=".7" ry=".7"/>
      <rect id="p177" data-name="p" class="st1" x="28.8" y="16.4" width="1.4" height="1.4" rx=".7" ry=".7"/>
      <rect id="p178" data-name="p" class="st1" x="30.1" y="16.4" width="1.4" height="1.4" rx=".7" ry=".7"/>
      <rect id="p179" data-name="p" class="st1" x="34.2" y="16.4" width="1.4" height="1.4" rx=".7" ry=".7"/>
      <rect id="p180" data-name="p" class="st1" x="37" y="16.4" width="1.4" height="1.4" rx=".7" ry=".7"/>
      <rect id="p181" data-name="p" class="st1" x="38.4" y="16.4" width="1.4" height="1.4" rx=".7" ry=".7"/>
      <rect id="p182" data-name="p" class="st1" x="1.4" y="17.8" width="1.4" height="1.4" rx=".7" ry=".7"/>
      <rect id="p183" data-name="p" class="st1" x="2.7" y="17.8" width="1.4" height="1.4" rx=".7" ry=".7"/>
      <rect id="p184" data-name="p" class="st1" x="4.1" y="17.8" width="1.4" height="1.4" rx=".7" ry=".7"/>
      <rect id="p185" data-name="p" class="st1" x="6.8" y="17.8" width="1.4" height="1.4" rx=".7" ry=".7"/>
      <rect id="p186" data-name="p" class="st1" x="15.1" y="17.8" width="1.4" height="1.4" rx=".7" ry=".7"/>
      <rect id="p187" data-name="p" class="st1" x="19.2" y="17.8" width="1.4" height="1.4" rx=".7" ry=".7"/>
      <rect id="p188" data-name="p" class="st1" x="20.5" y="17.8" width="1.4" height="1.4" rx=".7" ry=".7"/>
      <rect id="p189" data-name="p" class="st1" x="23.3" y="17.8" width="1.4" height="1.4" rx=".7" ry=".7"/>
      <rect id="p190" data-name="p" class="st1" x="24.7" y="17.8" width="1.4" height="1.4" rx=".7" ry=".7"/>
      <rect id="p191" data-name="p" class="st1" x="28.8" y="17.8" width="1.4" height="1.4" rx=".7" ry=".7"/>
      <rect id="p192" data-name="p" class="st1" x="30.1" y="17.8" width="1.4" height="1.4" rx=".7" ry=".7"/>
      <rect id="p193" data-name="p" class="st1" x="34.2" y="17.8" width="1.4" height="1.4" rx=".7" ry=".7"/>
      <rect id="p194" data-name="p" class="st1" x="38.4" y="17.8" width="1.4" height="1.4" rx=".7" ry=".7"/>
      <rect id="p195" data-name="p" class="st1" x="2.7" y="19.2" width="1.4" height="1.4" rx=".7" ry=".7"/>
      <rect id="p196" data-name="p" class="st1" x="4.1" y="19.2" width="1.4" height="1.4" rx=".7" ry=".7"/>
      <rect id="p197" data-name="p" class="st1" x="5.5" y="19.2" width="1.4" height="1.4" rx=".7" ry=".7"/>
      <rect id="p198" data-name="p" class="st1" x="6.8" y="19.2" width="1.4" height="1.4" rx=".7" ry=".7"/>
      <rect id="p199" data-name="p" class="st1" x="8.2" y="19.2" width="1.4" height="1.4" rx=".7" ry=".7"/>
      <rect id="p200" data-name="p" class="st1" x="13.7" y="19.2" width="1.4" height="1.4" rx=".7" ry=".7"/>
      <rect id="p201" data-name="p" class="st1" x="15.1" y="19.2" width="1.4" height="1.4" rx=".7" ry=".7"/>
      <rect id="p202" data-name="p" class="st1" x="16.4" y="19.2" width="1.4" height="1.4" rx=".7" ry=".7"/>
      <rect id="p203" data-name="p" class="st1" x="17.8" y="19.2" width="1.4" height="1.4" rx=".7" ry=".7"/>
      <rect id="p204" data-name="p" class="st1" x="21.9" y="19.2" width="1.4" height="1.4" rx=".7" ry=".7"/>
      <rect id="p205" data-name="p" class="st1" x="23.3" y="19.2" width="1.4" height="1.4" rx=".7" ry=".7"/>
      <rect id="p206" data-name="p" class="st1" x="24.7" y="19.2" width="1.4" height="1.4" rx=".7" ry=".7"/>
      <rect id="p207" data-name="p" class="st1" x="28.8" y="19.2" width="1.4" height="1.4" rx=".7" ry=".7"/>
      <rect id="p208" data-name="p" class="st1" x="31.5" y="19.2" width="1.4" height="1.4" rx=".7" ry=".7"/>
      <rect id="p209" data-name="p" class="st1" x="34.2" y="19.2" width="1.4" height="1.4" rx=".7" ry=".7"/>
      <rect id="p210" data-name="p" class="st1" x="37" y="19.2" width="1.4" height="1.4" rx=".7" ry=".7"/>
      <rect id="p211" data-name="p" class="st1" x="38.4" y="19.2" width="1.4" height="1.4" rx=".7" ry=".7"/>
      <rect id="p212" data-name="p" class="st1" x="0" y="20.5" width="1.4" height="1.4" rx=".7" ry=".7"/>
      <rect id="p213" data-name="p" class="st1" x="5.5" y="20.5" width="1.4" height="1.4" rx=".7" ry=".7"/>
      <rect id="p214" data-name="p" class="st1" x="6.8" y="20.5" width="1.4" height="1.4" rx=".7" ry=".7"/>
      <rect id="p215" data-name="p" class="st1" x="9.6" y="20.5" width="1.4" height="1.4" rx=".7" ry=".7"/>
      <rect id="p216" data-name="p" class="st1" x="11" y="20.5" width="1.4" height="1.4" rx=".7" ry=".7"/>
      <rect id="p217" data-name="p" class="st1" x="15.1" y="20.5" width="1.4" height="1.4" rx=".7" ry=".7"/>
      <rect id="p218" data-name="p" class="st1" x="21.9" y="20.5" width="1.4" height="1.4" rx=".7" ry=".7"/>
      <rect id="p219" data-name="p" class="st1" x="23.3" y="20.5" width="1.4" height="1.4" rx=".7" ry=".7"/>
      <rect id="p220" data-name="p" class="st1" x="24.7" y="20.5" width="1.4" height="1.4" rx=".7" ry=".7"/>
      <rect id="p221" data-name="p" class="st1" x="26" y="20.5" width="1.4" height="1.4" rx=".7" ry=".7"/>
      <rect id="p222" data-name="p" class="st1" x="27.4" y="20.5" width="1.4" height="1.4" rx=".7" ry=".7"/>
      <rect id="p223" data-name="p" class="st1" x="28.8" y="20.5" width="1.4" height="1.4" rx=".7" ry=".7"/>
      <rect id="p224" data-name="p" class="st1" x="30.1" y="20.5" width="1.4" height="1.4" rx=".7" ry=".7"/>
      <rect id="p225" data-name="p" class="st1" x="31.5" y="20.5" width="1.4" height="1.4" rx=".7" ry=".7"/>
      <rect id="p226" data-name="p" class="st1" x="34.2" y="20.5" width="1.4" height="1.4" rx=".7" ry=".7"/>
      <rect id="p227" data-name="p" class="st1" x="37" y="20.5" width="1.4" height="1.4" rx=".7" ry=".7"/>
      <rect id="p228" data-name="p" class="st1" x="0" y="21.9" width="1.4" height="1.4" rx=".7" ry=".7"/>
      <rect id="p229" data-name="p" class="st1" x="8.2" y="21.9" width="1.4" height="1.4" rx=".7" ry=".7"/>
      <rect id="p230" data-name="p" class="st1" x="23.3" y="21.9" width="1.4" height="1.4" rx=".7" ry=".7"/>
      <rect id="p231" data-name="p" class="st1" x="24.7" y="21.9" width="1.4" height="1.4" rx=".7" ry=".7"/>
      <rect id="p232" data-name="p" class="st1" x="26" y="21.9" width="1.4" height="1.4" rx=".7" ry=".7"/>
      <rect id="p233" data-name="p" class="st1" x="27.4" y="21.9" width="1.4" height="1.4" rx=".7" ry=".7"/>
      <rect id="p234" data-name="p" class="st1" x="28.8" y="21.9" width="1.4" height="1.4" rx=".7" ry=".7"/>
      <rect id="p235" data-name="p" class="st1" x="30.1" y="21.9" width="1.4" height="1.4" rx=".7" ry=".7"/>
      <rect id="p236" data-name="p" class="st1" x="31.5" y="21.9" width="1.4" height="1.4" rx=".7" ry=".7"/>
      <rect id="p237" data-name="p" class="st1" x="34.2" y="21.9" width="1.4" height="1.4" rx=".7" ry=".7"/>
      <rect id="p238" data-name="p" class="st1" x="37" y="21.9" width="1.4" height="1.4" rx=".7" ry=".7"/>
      <rect id="p239" data-name="p" class="st1" x="38.4" y="21.9" width="1.4" height="1.4" rx=".7" ry=".7"/>
      <rect id="p240" data-name="p" class="st1" x="2.7" y="23.3" width="1.4" height="1.4" rx=".7" ry=".7"/>
      <rect id="p241" data-name="p" class="st1" x="5.5" y="23.3" width="1.4" height="1.4" rx=".7" ry=".7"/>
      <rect id="p242" data-name="p" class="st1" x="6.8" y="23.3" width="1.4" height="1.4" rx=".7" ry=".7"/>
      <rect id="p243" data-name="p" class="st1" x="9.6" y="23.3" width="1.4" height="1.4" rx=".7" ry=".7"/>
      <rect id="p244" data-name="p" class="st1" x="11" y="23.3" width="1.4" height="1.4" rx=".7" ry=".7"/>
      <rect id="p245" data-name="p" class="st1" x="12.3" y="23.3" width="1.4" height="1.4" rx=".7" ry=".7"/>
      <rect id="p246" data-name="p" class="st1" x="13.7" y="23.3" width="1.4" height="1.4" rx=".7" ry=".7"/>
      <rect id="p247" data-name="p" class="st1" x="17.8" y="23.3" width="1.4" height="1.4" rx=".7" ry=".7"/>
      <rect id="p248" data-name="p" class="st1" x="21.9" y="23.3" width="1.4" height="1.4" rx=".7" ry=".7"/>
      <rect id="p249" data-name="p" class="st1" x="23.3" y="23.3" width="1.4" height="1.4" rx=".7" ry=".7"/>
      <rect id="p250" data-name="p" class="st1" x="24.7" y="23.3" width="1.4" height="1.4" rx=".7" ry=".7"/>
      <rect id="p251" data-name="p" class="st1" x="27.4" y="23.3" width="1.4" height="1.4" rx=".7" ry=".7"/>
      <rect id="p252" data-name="p" class="st1" x="28.8" y="23.3" width="1.4" height="1.4" rx=".7" ry=".7"/>
      <rect id="p253" data-name="p" class="st1" x="30.1" y="23.3" width="1.4" height="1.4" rx=".7" ry=".7"/>
      <rect id="p254" data-name="p" class="st1" x="34.2" y="23.3" width="1.4" height="1.4" rx=".7" ry=".7"/>
      <rect id="p255" data-name="p" class="st1" x="35.6" y="23.3" width="1.4" height="1.4" rx=".7" ry=".7"/>
      <rect id="p256" data-name="p" class="st1" x="38.4" y="23.3" width="1.4" height="1.4" rx=".7" ry=".7"/>
      <rect id="p257" data-name="p" class="st1" x="0" y="24.7" width="1.4" height="1.4" rx=".7" ry=".7"/>
      <rect id="p258" data-name="p" class="st1" x="4.1" y="24.7" width="1.4" height="1.4" rx=".7" ry=".7"/>
      <rect id="p259" data-name="p" class="st1" x="5.5" y="24.7" width="1.4" height="1.4" rx=".7" ry=".7"/>
      <rect id="p260" data-name="p" class="st1" x="6.8" y="24.7" width="1.4" height="1.4" rx=".7" ry=".7"/>
      <rect id="p261" data-name="p" class="st1" x="8.2" y="24.7" width="1.4" height="1.4" rx=".7" ry=".7"/>
      <rect id="p262" data-name="p" class="st1" x="19.2" y="24.7" width="1.4" height="1.4" rx=".7" ry=".7"/>
      <rect id="p263" data-name="p" class="st1" x="32.9" y="24.7" width="1.4" height="1.4" rx=".7" ry=".7"/>
      <rect id="p264" data-name="p" class="st1" x="37" y="24.7" width="1.4" height="1.4" rx=".7" ry=".7"/>
      <rect id="p265" data-name="p" class="st1" x="38.4" y="24.7" width="1.4" height="1.4" rx=".7" ry=".7"/>
      <rect id="p266" data-name="p" class="st1" x="1.4" y="26" width="1.4" height="1.4" rx=".7" ry=".7"/>
      <rect id="p267" data-name="p" class="st1" x="4.1" y="26" width="1.4" height="1.4" rx=".7" ry=".7"/>
      <rect id="p268" data-name="p" class="st1" x="12.3" y="26" width="1.4" height="1.4" rx=".7" ry=".7"/>
      <rect id="p269" data-name="p" class="st1" x="13.7" y="26" width="1.4" height="1.4" rx=".7" ry=".7"/>
      <rect id="p270" data-name="p" class="st1" x="15.1" y="26" width="1.4" height="1.4" rx=".7" ry=".7"/>
      <rect id="p271" data-name="p" class="st1" x="17.8" y="26" width="1.4" height="1.4" rx=".7" ry=".7"/>
      <rect id="p272" data-name="p" class="st1" x="19.2" y="26" width="1.4" height="1.4" rx=".7" ry=".7"/>
      <rect id="p273" data-name="p" class="st1" x="20.5" y="26" width="1.4" height="1.4" rx=".7" ry=".7"/>
      <rect id="p274" data-name="p" class="st1" x="21.9" y="26" width="1.4" height="1.4" rx=".7" ry=".7"/>
      <rect id="p275" data-name="p" class="st1" x="23.3" y="26" width="1.4" height="1.4" rx=".7" ry=".7"/>
      <rect id="p276" data-name="p" class="st1" x="24.7" y="26" width="1.4" height="1.4" rx=".7" ry=".7"/>
      <rect id="p277" data-name="p" class="st1" x="27.4" y="26" width="1.4" height="1.4" rx=".7" ry=".7"/>
      <rect id="p278" data-name="p" class="st1" x="30.1" y="26" width="1.4" height="1.4" rx=".7" ry=".7"/>
      <rect id="p279" data-name="p" class="st1" x="31.5" y="26" width="1.4" height="1.4" rx=".7" ry=".7"/>
      <rect id="p280" data-name="p" class="st1" x="32.9" y="26" width="1.4" height="1.4" rx=".7" ry=".7"/>
      <rect id="p281" data-name="p" class="st1" x="34.2" y="26" width="1.4" height="1.4" rx=".7" ry=".7"/>
      <rect id="p282" data-name="p" class="st1" x="37" y="26" width="1.4" height="1.4" rx=".7" ry=".7"/>
      <rect id="p283" data-name="p" class="st1" x="0" y="27.4" width="1.4" height="1.4" rx=".7" ry=".7"/>
      <rect id="p284" data-name="p" class="st1" x="4.1" y="27.4" width="1.4" height="1.4" rx=".7" ry=".7"/>
      <rect id="p285" data-name="p" class="st1" x="5.5" y="27.4" width="1.4" height="1.4" rx=".7" ry=".7"/>
      <rect id="p286" data-name="p" class="st1" x="6.8" y="27.4" width="1.4" height="1.4" rx=".7" ry=".7"/>
      <rect id="p287" data-name="p" class="st1" x="8.2" y="27.4" width="1.4" height="1.4" rx=".7" ry=".7"/>
      <rect id="p288" data-name="p" class="st1" x="9.6" y="27.4" width="1.4" height="1.4" rx=".7" ry=".7"/>
      <rect id="p289" data-name="p" class="st1" x="11" y="27.4" width="1.4" height="1.4" rx=".7" ry=".7"/>
      <rect id="p290" data-name="p" class="st1" x="13.7" y="27.4" width="1.4" height="1.4" rx=".7" ry=".7"/>
      <rect id="p291" data-name="p" class="st1" x="15.1" y="27.4" width="1.4" height="1.4" rx=".7" ry=".7"/>
      <rect id="p292" data-name="p" class="st1" x="16.4" y="27.4" width="1.4" height="1.4" rx=".7" ry=".7"/>
      <rect id="p293" data-name="p" class="st1" x="19.2" y="27.4" width="1.4" height="1.4" rx=".7" ry=".7"/>
      <rect id="p294" data-name="p" class="st1" x="20.5" y="27.4" width="1.4" height="1.4" rx=".7" ry=".7"/>
      <rect id="p295" data-name="p" class="st1" x="21.9" y="27.4" width="1.4" height="1.4" rx=".7" ry=".7"/>
      <rect id="p296" data-name="p" class="st1" x="26" y="27.4" width="1.4" height="1.4" rx=".7" ry=".7"/>
      <rect id="p297" data-name="p" class="st1" x="27.4" y="27.4" width="1.4" height="1.4" rx=".7" ry=".7"/>
      <rect id="p298" data-name="p" class="st1" x="28.8" y="27.4" width="1.4" height="1.4" rx=".7" ry=".7"/>
      <rect id="p299" data-name="p" class="st1" x="30.1" y="27.4" width="1.4" height="1.4" rx=".7" ry=".7"/>
      <rect id="p300" data-name="p" class="st1" x="31.5" y="27.4" width="1.4" height="1.4" rx=".7" ry=".7"/>
      <rect id="p301" data-name="p" class="st1" x="32.9" y="27.4" width="1.4" height="1.4" rx=".7" ry=".7"/>
      <rect id="p302" data-name="p" class="st1" x="11" y="28.8" width="1.4" height="1.4" rx=".7" ry=".7"/>
      <rect id="p303" data-name="p" class="st1" x="13.7" y="28.8" width="1.4" height="1.4" rx=".7" ry=".7"/>
      <rect id="p304" data-name="p" class="st1" x="15.1" y="28.8" width="1.4" height="1.4" rx=".7" ry=".7"/>
      <rect id="p305" data-name="p" class="st1" x="16.4" y="28.8" width="1.4" height="1.4" rx=".7" ry=".7"/>
      <rect id="p306" data-name="p" class="st1" x="19.2" y="28.8" width="1.4" height="1.4" rx=".7" ry=".7"/>
      <rect id="p307" data-name="p" class="st1" x="20.5" y="28.8" width="1.4" height="1.4" rx=".7" ry=".7"/>
      <rect id="p308" data-name="p" class="st1" x="21.9" y="28.8" width="1.4" height="1.4" rx=".7" ry=".7"/>
      <rect id="p309" data-name="p" class="st1" x="23.3" y="28.8" width="1.4" height="1.4" rx=".7" ry=".7"/>
      <rect id="p310" data-name="p" class="st1" x="24.7" y="28.8" width="1.4" height="1.4" rx=".7" ry=".7"/>
      <rect id="p311" data-name="p" class="st1" x="26" y="28.8" width="1.4" height="1.4" rx=".7" ry=".7"/>
      <rect id="p312" data-name="p" class="st1" x="27.4" y="28.8" width="1.4" height="1.4" rx=".7" ry=".7"/>
      <rect id="p313" data-name="p" class="st1" x="32.9" y="28.8" width="1.4" height="1.4" rx=".7" ry=".7"/>
      <rect id="p314" data-name="p" class="st1" x="35.6" y="28.8" width="1.4" height="1.4" rx=".7" ry=".7"/>
      <rect id="p315" data-name="p" class="st1" x="37" y="28.8" width="1.4" height="1.4" rx=".7" ry=".7"/>
      <rect id="p316" data-name="p" class="st1" x="38.4" y="28.8" width="1.4" height="1.4" rx=".7" ry=".7"/>
      <rect id="p317" data-name="p" class="st1" x="0" y="30.1" width="1.4" height="1.4" rx=".7" ry=".7"/>
      <rect id="p318" data-name="p" class="st1" x="1.4" y="30.1" width="1.4" height="1.4" rx=".7" ry=".7"/>
      <rect id="p319" data-name="p" class="st1" x="2.7" y="30.1" width="1.4" height="1.4" rx=".7" ry=".7"/>
      <rect id="p320" data-name="p" class="st1" x="4.1" y="30.1" width="1.4" height="1.4" rx=".7" ry=".7"/>
      <rect id="p321" data-name="p" class="st1" x="5.5" y="30.1" width="1.4" height="1.4" rx=".7" ry=".7"/>
      <rect id="p322" data-name="p" class="st1" x="6.8" y="30.1" width="1.4" height="1.4" rx=".7" ry=".7"/>
      <rect id="p323" data-name="p" class="st1" x="8.2" y="30.1" width="1.4" height="1.4" rx=".7" ry=".7"/>
      <rect id="p324" data-name="p" class="st1" x="12.3" y="30.1" width="1.4" height="1.4" rx=".7" ry=".7"/>
      <rect id="p325" data-name="p" class="st1" x="15.1" y="30.1" width="1.4" height="1.4" rx=".7" ry=".7"/>
      <rect id="p326" data-name="p" class="st1" x="17.8" y="30.1" width="1.4" height="1.4" rx=".7" ry=".7"/>
      <rect id="p327" data-name="p" class="st1" x="23.3" y="30.1" width="1.4" height="1.4" rx=".7" ry=".7"/>
      <rect id="p328" data-name="p" class="st1" x="24.7" y="30.1" width="1.4" height="1.4" rx=".7" ry=".7"/>
      <rect id="p329" data-name="p" class="st1" x="26" y="30.1" width="1.4" height="1.4" rx=".7" ry=".7"/>
      <rect id="p330" data-name="p" class="st1" x="27.4" y="30.1" width="1.4" height="1.4" rx=".7" ry=".7"/>
      <rect id="p331" data-name="p" class="st1" x="30.1" y="30.1" width="1.4" height="1.4" rx=".7" ry=".7"/>
      <rect id="p332" data-name="p" class="st1" x="32.9" y="30.1" width="1.4" height="1.4" rx=".7" ry=".7"/>
      <rect id="p333" data-name="p" class="st1" x="34.2" y="30.1" width="1.4" height="1.4" rx=".7" ry=".7"/>
      <rect id="p334" data-name="p" class="st1" x="37" y="30.1" width="1.4" height="1.4" rx=".7" ry=".7"/>
      <rect id="p335" data-name="p" class="st1" x="38.4" y="30.1" width="1.4" height="1.4" rx=".7" ry=".7"/>
      <rect id="p336" data-name="p" class="st1" x="0" y="31.5" width="1.4" height="1.4" rx=".7" ry=".7"/>
      <rect id="p337" data-name="p" class="st1" x="8.2" y="31.5" width="1.4" height="1.4" rx=".7" ry=".7"/>
      <rect id="p338" data-name="p" class="st1" x="12.3" y="31.5" width="1.4" height="1.4" rx=".7" ry=".7"/>
      <rect id="p339" data-name="p" class="st1" x="13.7" y="31.5" width="1.4" height="1.4" rx=".7" ry=".7"/>
      <rect id="p340" data-name="p" class="st1" x="15.1" y="31.5" width="1.4" height="1.4" rx=".7" ry=".7"/>
      <rect id="p341" data-name="p" class="st1" x="16.4" y="31.5" width="1.4" height="1.4" rx=".7" ry=".7"/>
      <rect id="p342" data-name="p" class="st1" x="20.5" y="31.5" width="1.4" height="1.4" rx=".7" ry=".7"/>
      <rect id="p343" data-name="p" class="st1" x="23.3" y="31.5" width="1.4" height="1.4" rx=".7" ry=".7"/>
      <rect id="p344" data-name="p" class="st1" x="27.4" y="31.5" width="1.4" height="1.4" rx=".7" ry=".7"/>
      <rect id="p345" data-name="p" class="st1" x="32.9" y="31.5" width="1.4" height="1.4" rx=".7" ry=".7"/>
      <rect id="p346" data-name="p" class="st1" x="34.2" y="31.5" width="1.4" height="1.4" rx=".7" ry=".7"/>
      <rect id="p347" data-name="p" class="st1" x="0" y="32.9" width="1.4" height="1.4" rx=".7" ry=".7"/>
      <rect id="p348" data-name="p" class="st1" x="2.7" y="32.9" width="1.4" height="1.4" rx=".7" ry=".7"/>
      <rect id="p349" data-name="p" class="st1" x="4.1" y="32.9" width="1.4" height="1.4" rx=".7" ry=".7"/>
      <rect id="p350" data-name="p" class="st1" x="5.5" y="32.9" width="1.4" height="1.4" rx=".7" ry=".7"/>
      <rect id="p351" data-name="p" class="st1" x="8.2" y="32.9" width="1.4" height="1.4" rx=".7" ry=".7"/>
      <rect id="p352" data-name="p" class="st1" x="11" y="32.9" width="1.4" height="1.4" rx=".7" ry=".7"/>
      <rect id="p353" data-name="p" class="st1" x="16.4" y="32.9" width="1.4" height="1.4" rx=".7" ry=".7"/>
      <rect id="p354" data-name="p" class="st1" x="21.9" y="32.9" width="1.4" height="1.4" rx=".7" ry=".7"/>
      <rect id="p355" data-name="p" class="st1" x="23.3" y="32.9" width="1.4" height="1.4" rx=".7" ry=".7"/>
      <rect id="p356" data-name="p" class="st1" x="27.4" y="32.9" width="1.4" height="1.4" rx=".7" ry=".7"/>
      <rect id="p357" data-name="p" class="st1" x="28.8" y="32.9" width="1.4" height="1.4" rx=".7" ry=".7"/>
      <rect id="p358" data-name="p" class="st1" x="30.1" y="32.9" width="1.4" height="1.4" rx=".7" ry=".7"/>
      <rect id="p359" data-name="p" class="st1" x="31.5" y="32.9" width="1.4" height="1.4" rx=".7" ry=".7"/>
      <rect id="p360" data-name="p" class="st1" x="32.9" y="32.9" width="1.4" height="1.4" rx=".7" ry=".7"/>
      <rect id="p361" data-name="p" class="st1" x="38.4" y="32.9" width="1.4" height="1.4" rx=".7" ry=".7"/>
      <rect id="p362" data-name="p" class="st1" x="0" y="34.2" width="1.4" height="1.4" rx=".7" ry=".7"/>
      <rect id="p363" data-name="p" class="st1" x="2.7" y="34.2" width="1.4" height="1.4" rx=".7" ry=".7"/>
      <rect id="p364" data-name="p" class="st1" x="4.1" y="34.2" width="1.4" height="1.4" rx=".7" ry=".7"/>
      <rect id="p365" data-name="p" class="st1" x="5.5" y="34.2" width="1.4" height="1.4" rx=".7" ry=".7"/>
      <rect id="p366" data-name="p" class="st1" x="8.2" y="34.2" width="1.4" height="1.4" rx=".7" ry=".7"/>
      <rect id="p367" data-name="p" class="st1" x="12.3" y="34.2" width="1.4" height="1.4" rx=".7" ry=".7"/>
      <rect id="p368" data-name="p" class="st1" x="15.1" y="34.2" width="1.4" height="1.4" rx=".7" ry=".7"/>
      <rect id="p369" data-name="p" class="st1" x="16.4" y="34.2" width="1.4" height="1.4" rx=".7" ry=".7"/>
      <rect id="p370" data-name="p" class="st1" x="17.8" y="34.2" width="1.4" height="1.4" rx=".7" ry=".7"/>
      <rect id="p371" data-name="p" class="st1" x="20.5" y="34.2" width="1.4" height="1.4" rx=".7" ry=".7"/>
      <rect id="p372" data-name="p" class="st1" x="21.9" y="34.2" width="1.4" height="1.4" rx=".7" ry=".7"/>
      <rect id="p373" data-name="p" class="st1" x="23.3" y="34.2" width="1.4" height="1.4" rx=".7" ry=".7"/>
      <rect id="p374" data-name="p" class="st1" x="24.7" y="34.2" width="1.4" height="1.4" rx=".7" ry=".7"/>
      <rect id="p375" data-name="p" class="st1" x="27.4" y="34.2" width="1.4" height="1.4" rx=".7" ry=".7"/>
      <rect id="p376" data-name="p" class="st1" x="28.8" y="34.2" width="1.4" height="1.4" rx=".7" ry=".7"/>
      <rect id="p377" data-name="p" class="st1" x="31.5" y="34.2" width="1.4" height="1.4" rx=".7" ry=".7"/>
      <rect id="p378" data-name="p" class="st1" x="32.9" y="34.2" width="1.4" height="1.4" rx=".7" ry=".7"/>
      <rect id="p379" data-name="p" class="st1" x="35.6" y="34.2" width="1.4" height="1.4" rx=".7" ry=".7"/>
      <rect id="p380" data-name="p" class="st1" x="37" y="34.2" width="1.4" height="1.4" rx=".7" ry=".7"/>
      <rect id="p381" data-name="p" class="st1" x="38.4" y="34.2" width="1.4" height="1.4" rx=".7" ry=".7"/>
      <rect id="p382" data-name="p" class="st1" x="0" y="35.6" width="1.4" height="1.4" rx=".7" ry=".7"/>
      <rect id="p383" data-name="p" class="st1" x="2.7" y="35.6" width="1.4" height="1.4" rx=".7" ry=".7"/>
      <rect id="p384" data-name="p" class="st1" x="4.1" y="35.6" width="1.4" height="1.4" rx=".7" ry=".7"/>
      <rect id="p385" data-name="p" class="st1" x="5.5" y="35.6" width="1.4" height="1.4" rx=".7" ry=".7"/>
      <rect id="p386" data-name="p" class="st1" x="8.2" y="35.6" width="1.4" height="1.4" rx=".7" ry=".7"/>
      <rect id="p387" data-name="p" class="st1" x="11" y="35.6" width="1.4" height="1.4" rx=".7" ry=".7"/>
      <rect id="p388" data-name="p" class="st1" x="13.7" y="35.6" width="1.4" height="1.4" rx=".7" ry=".7"/>
      <rect id="p389" data-name="p" class="st1" x="15.1" y="35.6" width="1.4" height="1.4" rx=".7" ry=".7"/>
      <rect id="p390" data-name="p" class="st1" x="17.8" y="35.6" width="1.4" height="1.4" rx=".7" ry=".7"/>
      <rect id="p391" data-name="p" class="st1" x="21.9" y="35.6" width="1.4" height="1.4" rx=".7" ry=".7"/>
      <rect id="p392" data-name="p" class="st1" x="24.7" y="35.6" width="1.4" height="1.4" rx=".7" ry=".7"/>
      <rect id="p393" data-name="p" class="st1" x="27.4" y="35.6" width="1.4" height="1.4" rx=".7" ry=".7"/>
      <rect id="p394" data-name="p" class="st1" x="31.5" y="35.6" width="1.4" height="1.4" rx=".7" ry=".7"/>
      <rect id="p395" data-name="p" class="st1" x="32.9" y="35.6" width="1.4" height="1.4" rx=".7" ry=".7"/>
      <rect id="p396" data-name="p" class="st1" x="34.2" y="35.6" width="1.4" height="1.4" rx=".7" ry=".7"/>
      <rect id="p397" data-name="p" class="st1" x="38.4" y="35.6" width="1.4" height="1.4" rx=".7" ry=".7"/>
      <rect id="p398" data-name="p" class="st1" x="0" y="37" width="1.4" height="1.4" rx=".7" ry=".7"/>
      <rect id="p399" data-name="p" class="st1" x="8.2" y="37" width="1.4" height="1.4" rx=".7" ry=".7"/>
      <rect id="p400" data-name="p" class="st1" x="13.7" y="37" width="1.4" height="1.4" rx=".7" ry=".7"/>
      <rect id="p401" data-name="p" class="st1" x="15.1" y="37" width="1.4" height="1.4" rx=".7" ry=".7"/>
      <rect id="p402" data-name="p" class="st1" x="20.5" y="37" width="1.4" height="1.4" rx=".7" ry=".7"/>
      <rect id="p403" data-name="p" class="st1" x="23.3" y="37" width="1.4" height="1.4" rx=".7" ry=".7"/>
      <rect id="p404" data-name="p" class="st1" x="26" y="37" width="1.4" height="1.4" rx=".7" ry=".7"/>
      <rect id="p405" data-name="p" class="st1" x="27.4" y="37" width="1.4" height="1.4" rx=".7" ry=".7"/>
      <rect id="p406" data-name="p" class="st1" x="30.1" y="37" width="1.4" height="1.4" rx=".7" ry=".7"/>
      <rect id="p407" data-name="p" class="st1" x="31.5" y="37" width="1.4" height="1.4" rx=".7" ry=".7"/>
      <rect id="p408" data-name="p" class="st1" x="37" y="37" width="1.4" height="1.4" rx=".7" ry=".7"/>
      <rect id="p409" data-name="p" class="st1" x="0" y="38.4" width="1.4" height="1.4" rx=".7" ry=".7"/>
      <rect id="p410" data-name="p" class="st1" x="1.4" y="38.4" width="1.4" height="1.4" rx=".7" ry=".7"/>
      <rect id="p411" data-name="p" class="st1" x="2.7" y="38.4" width="1.4" height="1.4" rx=".7" ry=".7"/>
      <rect id="p412" data-name="p" class="st1" x="4.1" y="38.4" width="1.4" height="1.4" rx=".7" ry=".7"/>
      <rect id="p413" data-name="p" class="st1" x="5.5" y="38.4" width="1.4" height="1.4" rx=".7" ry=".7"/>
      <rect id="p414" data-name="p" class="st1" x="6.8" y="38.4" width="1.4" height="1.4" rx=".7" ry=".7"/>
      <rect id="p415" data-name="p" class="st1" x="8.2" y="38.4" width="1.4" height="1.4" rx=".7" ry=".7"/>
      <rect id="p416" data-name="p" class="st1" x="11" y="38.4" width="1.4" height="1.4" rx=".7" ry=".7"/>
      <rect id="p417" data-name="p" class="st1" x="12.3" y="38.4" width="1.4" height="1.4" rx=".7" ry=".7"/>
      <rect id="p418" data-name="p" class="st1" x="20.5" y="38.4" width="1.4" height="1.4" rx=".7" ry=".7"/>
      <rect id="p419" data-name="p" class="st1" x="21.9" y="38.4" width="1.4" height="1.4" rx=".7" ry=".7"/>
      <rect id="p420" data-name="p" class="st1" x="23.3" y="38.4" width="1.4" height="1.4" rx=".7" ry=".7"/>
      <rect id="p421" data-name="p" class="st1" x="26" y="38.4" width="1.4" height="1.4" rx=".7" ry=".7"/>
      <rect id="p422" data-name="p" class="st1" x="27.4" y="38.4" width="1.4" height="1.4" rx=".7" ry=".7"/>
      <rect id="p423" data-name="p" class="st1" x="34.2" y="38.4" width="1.4" height="1.4" rx=".7" ry=".7"/>
      <rect id="p424" data-name="p" class="st1" x="37" y="38.4" width="1.4" height="1.4" rx=".7" ry=".7"/>
      <rect id="p425" data-name="p" class="st1" x="38.4" y="38.4" width="1.4" height="1.4" rx=".7" ry=".7"/>
    </g>
    <g>
      <g>
        <rect class="st0" x="14" y="14" width="11.8" height="11.8" rx="3.4" ry="3.4"/>
        <path class="st1" d="M22.4,14.6c1.5,0,2.8,1.3,2.8,2.8v5c0,1.5-1.3,2.8-2.8,2.8h-5c-1.5,0-2.8-1.3-2.8-2.8v-5c0-1.5,1.3-2.8,2.8-2.8h5M22.4,13.4h-5c-2.2,0-4,1.8-4,4v5c0,2.2,1.8,4,4,4h5c2.2,0,4-1.8,4-4v-5c0-2.2-1.8-4-4-4h0Z"/>
      </g>
      <g id="_小红书">
        <path class="st1" d="M17.2,21.7s0,.1.5.1h1.3l-.5,1.1h-1.4s-.4,0-.4-.1l.5-1.1h0ZM19.2,16.7l-.6,1.3s-.1.3,0,.3h1l-.8,1.8s0,.2,0,.2h.6l-.4,1h-1.3s-.6,0-.3-.6.6-1.4.6-1.4h-.6s-.5-.1-.3-.7c.3-.5.9-2,.9-2h1.1,0ZM22.6,17.2v1.1h-.7v3.5h1.1v1.1h-3.9l.5-1.1h1v-3.5s-.7,0-.7,0v-1.1s2.6,0,2.6,0Z"/>
      </g>
    </g>
  </g>
</svg>