<svg xmlns="http://www.w3.org/2000/svg" xmlns:xlink="http://www.w3.org/1999/xlink" viewBox="0 0 388.89 352.18"><defs><style>.cls-1,.cls-2{fill:none;stroke:#fff;stroke-miterlimit:10;stroke-width:9px;}.cls-2{stroke-linecap:round;}.cls-3{clip-path:url(#clip-path);}.cls-4{clip-path:url(#clip-path-2);}.cls-5{fill:#fff;}.cls-6{fill:#e45828;}</style><clipPath id="clip-path" transform="translate(3.35)"><rect class="cls-1" x="154.56" y="73.3" width="76.43" height="89.51" rx="9.31" transform="translate(-3.45 230.27) rotate(-61.25)"/></clipPath><clipPath id="clip-path-2" transform="translate(3.35)"><rect class="cls-1" x="14.11" y="44.22" width="193.81" height="55.98" rx="9.62" transform="translate(48.42 -44.5) rotate(28.75)"/></clipPath></defs><g id="图层_2" data-name="图层 2"><g id="图层_1-2" data-name="图层 1"><line class="cls-2" x1="78.43" y1="347.68" x2="313.81" y2="347.68"/><g class="cls-3"><path class="cls-1" d="M181.45,53.79h44.72a8.56,8.56,0,0,1,8.56,8.56V143.3a0,0,0,0,1,0,0H172.89a0,0,0,0,1,0,0V62.35A8.56,8.56,0,0,1,181.45,53.79Z" transform="translate(22.73 229.83) rotate(-61.25)"/></g><rect class="cls-1" x="154.56" y="73.3" width="76.43" height="89.51" rx="9.31" transform="translate(-0.1 230.27) rotate(-61.25)"/><g class="cls-4"><rect class="cls-1" x="-0.54" y="72.39" width="203.19" height="54.82" rx="6.57" transform="translate(63.81 -36.31) rotate(28.75)"/></g><rect class="cls-1" x="14.11" y="44.22" width="193.81" height="55.98" rx="9.62" transform="translate(51.77 -44.5) rotate(28.75)"/><line class="cls-2" x1="7.85" y1="190.21" x2="384.39" y2="190.21"/><path class="cls-2" d="M48.29,190.21c-.43,4.44-.69,8.93-.69,13.49,0,78.36,65,141.88,145.17,141.88S338,282.06,338,203.7c0-4.56-.27-9-.7-13.49Z" transform="translate(3.35)"/><path class="cls-5" d="M192.77,213.32a50.33,50.33,0,1,0,50.33,50.33A50.38,50.38,0,0,0,192.77,213.32Zm0,98.63a48.31,48.31,0,1,1,48.31-48.3A48.31,48.31,0,0,1,192.77,312Z" transform="translate(3.35)"/><circle class="cls-6" cx="196.12" cy="263.65" r="48.3"/><path class="cls-5" d="M226,276.3a17.54,17.54,0,0,0,4.54-11.49c.08-3.84-1-6.48-2.29-10.28-1.26-3.57-2.76-7.31-.88-10,1.52-2.18,5.25-2.14,5.25-2.14a5.61,5.61,0,0,0-3-.84s.16-1.3-1.47-1.45c-2.66-.24-3.5.49-5.47.42a7.88,7.88,0,0,1-5.51-2.48c1.28,3.77,5.9,4.51,5.9,4.51s-1.42,1.39-2.15,5a83.06,83.06,0,0,0-1.06,9.08,2.52,2.52,0,0,1-5,0c-.34-2.55.08-10-.86-14.85a9.22,9.22,0,0,0-8.72-7.26c-3.4-.25-10.93.16-15.37-.51a12.94,12.94,0,0,1-7.52-4c.27,2.3,1,6.52,4.46,7.87,3.86,1.51,7.92,1.23,14,1.69,5.8.45,5.87,3.19,5.87,3.73,0,0-6,.09-11.62-.29a58.08,58.08,0,0,1-8-1c1,2.83,2.84,4.05,6.6,4.67a65.5,65.5,0,0,0,8.63.48c3.32.06,4.89,1.89,4.89,3.54,0,0-3.64,0-8.56,0a68.16,68.16,0,0,1-11.13-.78c1,3.08,3.83,4.22,6.92,4.48,2.58.21,6.36.26,9.26.34a4.11,4.11,0,0,1,3.92,3.36c-5.22,0-14.3,0-21-.39s-9.5-4.05-9.5-5.16v-.91l8.14.08a.29.29,0,0,0,.28-.38l-1.06-2.95a3.42,3.42,0,0,0-3.29-2.28l-4.22,0s.47-8.36.55-10.3c.07-1.61-1.16-3.12-5.23-4.07a10.23,10.23,0,0,0-2.78-.27c.24,2,.71,14.64.71,14.64s-4.34,0-9.86-.2a.29.29,0,0,0-.28.38l1.07,3a3.54,3.54,0,0,0,3.38,2.37l5.54-.09v.91a39.16,39.16,0,0,1-8.86,11.33c-4.9,4.53-8.18,5.72-8.18,5.72s.59.5,1.24.94a12.07,12.07,0,0,0,4.05,2c1.38.27,3.49.45,6.34-3s5.56-7.53,5.56-7.53c-.13,4.47-.64,19.68-.81,24.27a1.24,1.24,0,0,0,1.24,1.29h5.9a1.24,1.24,0,0,0,1.24-1.28l-.81-25.79c1.28,2.27,7.36,3.05,9.79,3.05h8.42c-2.07,2-10,5.56-15.26,6.45a9.57,9.57,0,0,0,8.16,1.72c3.71-.9,7.21-2.71,13.32-6.41,3.67-2.22,5.92-.58,5.92-.58-4.92,3.53-8.6,6.49-16.17,9.72a35,35,0,0,1-11.23,2.91,11.83,11.83,0,0,0,8.49,2.28c4.47-.41,9.79-2.76,17.47-8.09,3-2.12,5.34-.59,5.34-.59-4.31,3.49-9.18,8.09-18.22,11.43a41.48,41.48,0,0,1-13.08,2.29s3.2,3.12,9.33,2.92a23.06,23.06,0,0,0,6.69-1.22c3.58-1.15,7.36-2.72,13.65-7.59,3.71-2.86,5.24-1.26,5.24-1.26-5,5.39-11.63,13.42-26.41,13.4-8.59,0-17.55-.87-24,1.7a25.41,25.41,0,0,0-6,3.37c.51.56,1,1.11,1.55,1.64,9-3.19,18.22-2.18,24.8-1.35,8.92,1.11,16.11.81,22.39-2.31a27.24,27.24,0,0,0,9.35-7.59,7.15,7.15,0,0,0,1.11,4.16,10.64,10.64,0,0,0,5.24,4.44,10.53,10.53,0,0,1-2.58-10.81C221.13,281.24,223.83,278.74,226,276.3Z" transform="translate(3.35)"/></g></g></svg>