<svg xmlns="http://www.w3.org/2000/svg" xmlns:xlink="http://www.w3.org/1999/xlink" viewBox="0 0 420.14 310.78"><defs><style>.cls-1,.cls-2{fill:none;}.cls-1{stroke:#fff;stroke-miterlimit:10;stroke-width:9px;}.cls-3{fill:#e45e28;}.cls-4{fill:#fff;}.cls-5{clip-path:url(#clip-path);}.cls-6{clip-path:url(#clip-path-2);}.cls-7{clip-path:url(#clip-path-3);}</style><clipPath id="clip-path" transform="translate(0 -12.08)"><rect class="cls-1" x="187.62" y="81.65" width="73.33" height="85.88" rx="8.93" transform="translate(7.17 261.3) rotate(-61.25)"/></clipPath><clipPath id="clip-path-2" transform="translate(0 -12.08)"><path class="cls-2" d="M72.72,8.91,40.6,60.12l128.05,78.57s13.25-27,19.71-37.59,15.11-26.66,15.11-26.66L78.13,0Z"/></clipPath><clipPath id="clip-path-3" transform="translate(0 -12.08)"><rect class="cls-1" x="52.85" y="54.69" width="185.96" height="53.71" rx="9.23" transform="translate(57.2 -60.09) rotate(28.75)"/></clipPath></defs><g id="图层_2" data-name="图层 2"><g id="图层_1-2" data-name="图层 1"><path class="cls-3" d="M387.64,253H346.73a4.2,4.2,0,0,1-.51,1.1,6.73,6.73,0,0,1-3.55,2.73,22.94,22.94,0,0,1-2.63.46c-.05.7-.08,1.4-.12,2.1a6.35,6.35,0,0,1,2.6.7,5,5,0,0,1,.53.37h44.59a3.73,3.73,0,1,0,0-7.46Z" transform="translate(0 -12.08)"/><path class="cls-4" d="M416.35,189.92h-70c-3.23,0-6.47-.09-9.69,0h-.14a3.78,3.78,0,0,0-3.73,3.73v17.28a5.22,5.22,0,0,1,5,.52,20,20,0,0,1,2.44,1.81V197.37h66.27c2,0,4.06,0,6.1.06v59.32a3.73,3.73,0,0,0,7.46,0v-63.1A3.78,3.78,0,0,0,416.35,189.92Z" transform="translate(0 -12.08)"/><path class="cls-4" d="M412.62,256.75v33.73c0,4.64,0,9.28,0,13.92v.24c0,.61-.1,1.21-.11,1.82,0-.1.15-.88,0-.24,0,.13,0,.25-.08.38-.07.37-.17.74-.27,1.1s-.17.56-.27.83l-.18.47c-.14.39.13-.33.14-.32.12.2-.87,1.64-1,1.84s-.32.47-.48.71c-.3.45.15-.08.14-.17a2.43,2.43,0,0,1-.31.38,15,15,0,0,1-1.37,1.39l-.38.33c.41-.36-.26.18-.41.28a15.33,15.33,0,0,1-1.7,1s-.43.22-.45.21.88-.34.2-.09l-.82.29c-.65.21-1.3.33-2,.48-.51.11.75-.07.23,0l-.39,0c-.34,0-.69.05-1,.06h-5c-.31,0-.61,0-.91-.05l-.52,0c-.42,0,.36,0,.36,0a13.48,13.48,0,0,0-2-.46c-.32-.1-.63-.22-.94-.33-.62-.23.62.32-.13-.07a16.14,16.14,0,0,1-1.72-1c-.11-.08-.95-.73-.51-.35l-.38-.33a15,15,0,0,1-1.37-1.39c-.05-.06-.32-.34-.31-.38s.54.76.14.17c-.16-.24-.33-.47-.48-.71-.36-.56-.63-1.15-.95-1.73-.19-.35.13.31.13.32a2.92,2.92,0,0,0-.18-.46c-.11-.31-.22-.63-.31-.95s-.15-.57-.22-.85-.07-.34-.1-.5,0-.17-.05-.25c0-.29,0-.17,0,.36a4.79,4.79,0,0,1-.11-1.82v-4.79a3.73,3.73,0,0,0-7.46,0v4.38a19.81,19.81,0,0,0,1.67,8,18.26,18.26,0,0,0,14.47,10.48,40.75,40.75,0,0,0,5.3.15,21.39,21.39,0,0,0,6.8-.86,18.38,18.38,0,0,0,12.17-13,27.93,27.93,0,0,0,.52-6.51V271.77c0-4.92.09-9.86,0-14.78v-.24a3.73,3.73,0,1,0-7.46,0Z" transform="translate(0 -12.08)"/><path class="cls-4" d="M382.88,296.12a3.8,3.8,0,0,0-3.73,3.73c0,1.57,0,3.14,0,4.71,0,.55,0,1.09-.08,1.63,0,.14-.06.3-.06.28a12.26,12.26,0,0,1-.3,1.23,11.21,11.21,0,0,1-.36,1.07c-.06.16-.33.55,0,.13s-.07.13-.12.23a15,15,0,0,1-1.12,1.9,1.23,1.23,0,0,0-.1.16l-.06.06c-.25.27-.48.55-.74.82s-.52.51-.79.76l-.37.32h0a16.27,16.27,0,0,1-1.77,1.1l-.56.27c-.16.09-.19.13-.16.13-.28.09-.63.16-.8.22s-.64.18-1,.26l-.62.13-.1,0-.3,0-.52,0-.8,0H351.45c-.54,0-1.08,0-1.62-.05l-.36,0h-.05l-1-.22c-.37-.09-.73-.2-1.09-.32l-.47-.17,0,0c-.61-.33-1.23-.61-1.81-1a7.67,7.67,0,0,0-.73-.51l-.54-.49-.24-.21a5.64,5.64,0,0,1-7.77,2l-.11-.05a19.21,19.21,0,0,0,5,5.32,18,18,0,0,0,10.09,3.25c1,0,2.05,0,3.08,0h12.49a31.76,31.76,0,0,0,3.78-.1,19,19,0,0,0,10.29-4.41,18,18,0,0,0,5.59-8.9,28,28,0,0,0,.64-7.47v-2.12A3.78,3.78,0,0,0,382.88,296.12ZM370,315.31h0Z" transform="translate(0 -12.08)"/><path class="cls-4" d="M416.35,253H346.73a4.2,4.2,0,0,1-.51,1.1,6.73,6.73,0,0,1-3.55,2.73,23,23,0,0,1-2.61.46c-.06.7-.09,1.4-.13,2.1a6.26,6.26,0,0,1,2.59.7,5,5,0,0,1,.53.37h63.47c3.22,0,6.46.08,9.69,0h.14a3.73,3.73,0,1,0,0-7.46Z" transform="translate(0 -12.08)"/><path class="cls-4" d="M394,131.33H358.87a3.87,3.87,0,0,0-3.6,2.73l-7.55,19.8-12,31.55-2.77,7.24c-.88,2.31,1.37,4.72,3.6,4.72h70c3.22,0,6.47.09,9.69,0h.14c2.23,0,4.47-2.41,3.59-4.72l-7.54-19.79-12-31.55-2.76-7.25c-.7-1.81-2.55-3.26-4.59-2.6-1.77.57-3.35,2.63-2.6,4.59L398,155.84l12,31.55,2.76,7.25,3.6-4.72h-70c-3.22,0-6.47-.14-9.69,0h-.14l3.6,4.72,7.54-19.8,12-31.55,2.76-7.24-3.59,2.73H394a3.73,3.73,0,1,0,0-7.45Z" transform="translate(0 -12.08)"/><path class="cls-4" d="M394.08,104.75H358.79a3.78,3.78,0,0,0-3.73,3.73v26.57a3.78,3.78,0,0,0,3.73,3.73h35.29a3.79,3.79,0,0,0,3.73-3.73V108.48a3.73,3.73,0,0,0-7.46,0v26.57l3.73-3.72H358.79l3.73,3.72V108.48l-3.73,3.73h35.29a3.73,3.73,0,1,0,0-7.46Z" transform="translate(0 -12.08)"/><path class="cls-4" d="M388.11,158.09l5.73,14.71.82,2.09a2.85,2.85,0,0,0,3.44,2c1.32-.43,2.52-2,1.95-3.44l-5.73-14.71-.82-2.09a2.86,2.86,0,0,0-3.44-1.95c-1.32.42-2.52,2-1.95,3.44Z" transform="translate(0 -12.08)"/><path class="cls-4" d="M332.39,270.67c1.61-2.86,3.2-5.59,4.57-7.94.74-1.26,1.37-2.34,1.94-3.34h0c.77,0,1.53-.06,2.29-.15s1.6-.22,2.38-.38a25.53,25.53,0,0,0-10.13-50,34.21,34.21,0,0,0-31.1-19.73A34.57,34.57,0,0,0,271,209.34a25.49,25.49,0,0,0-31,15.91,27.31,27.31,0,0,0-15.22-5c-14.86,0-27.87,14.1-31.35,28.06a21.7,21.7,0,0,0-33.66,22.4h-3.41c1.49-20.7-2.53-34.81-6.24-44.81-4.88-13.19-19.25-29.8-44.92-36.84l-2.78-.76-1.63,2.39a83.68,83.68,0,0,0-10.15,20c-8.79-10.92-27.18-22-53.16-21.27l-2.9.09-.84,2.77c-7,22.86-4.6,42.25,7.19,57.65A98.65,98.65,0,0,0,62,270.67H4.32a4.31,4.31,0,0,0-3.39,7L35.4,321.41H345.47l34.08-43.26a4.62,4.62,0,0,0-3.64-7.48Zm-92.16-2.07,2.22-.36c6.71-1.06,13.07-2.08,14.35-9.86a25.5,25.5,0,0,0,7.18,1c.75,0,1.5-.06,2.22-.12h0c1.45,2.91,3.72,7.21,6.33,11.37H240.37Zm58,2.07,2-12.77a20,20,0,0,0,4.3,0l3,12.74Zm14.8,0-3.18-13.62.26-.05c.52-.12,1-.26,1.77-.48a34.23,34.23,0,0,0,8.9-4,27.31,27.31,0,0,0,3.26,2.54,131.41,131.41,0,0,0-10,15.64Zm-20.25,0H289.7a136.67,136.67,0,0,0-10.91-16c.33-.23.67-.45,1-.7.48-.38.93-.79,1.41-1.24s.83-.78,1.21-1.16a34.43,34.43,0,0,0,10.43,5c.59.17,1.18.32,1.77.46l.27.06h.06Zm-13.8,0a111.38,111.38,0,0,1-7.31-12.47,24.77,24.77,0,0,0,2.36-.88,147,147,0,0,1,9.41,13.35ZM332.31,260c-1.8,3.09-4,6.8-6.09,10.66h-5.94a114.29,114.29,0,0,1,8.52-12.95,27.28,27.28,0,0,0,4.14,1.22ZM264,216.43a17.24,17.24,0,0,1,6.39,1.23l5.31,2.08,2-5.35a26.29,26.29,0,0,1,49.12-.6l1.87,4.69,4.85-1.37A17.44,17.44,0,1,1,341.89,251c-.53.11-1.08.2-1.63.26s-1,.09-1.52.1l-.48,0a17.37,17.37,0,0,1-7.08-1.52c-.36-.16-.7-.35-1.16-.6s-.72-.41-1.07-.63a17.75,17.75,0,0,1-3.66-3.06l-3.38-3.77-4.08,3a26.82,26.82,0,0,1-8.39,4.07c-.37.11-.75.22-1.14.31s-.89.19-1.34.27a25.8,25.8,0,0,1-9.19,0c-.36-.06-.7-.15-1-.23l-.3-.07c-.45-.1-.9-.21-1.35-.35a26.21,26.21,0,0,1-9.45-4.93l-4.41-3.63-3.54,4.48a19.77,19.77,0,0,1-2,2.11c-.3.27-.59.55-.91.8s-.66.48-1,.74a17.63,17.63,0,0,1-5.61,2.5c-.4.09-.8.15-1.28.23s-.88.14-1.34.18a17.45,17.45,0,0,1-9.75-2.08l-.6-.44a20.43,20.43,0,0,1-8.32-16l0-1.55A17.35,17.35,0,0,1,264,216.43Zm-39.23,11.86c4.59,0,9.41,2.13,13.72,6,0,.54,0,1.08.08,1.61a25,25,0,0,0,.61,3.86A25.43,25.43,0,0,0,245,250.9a26.65,26.65,0,0,0,2.71,2.64c.39.32.82.6,1.22.9,0,.31.05.62.05.89,0,3.63,0,3.7-7.78,4.93l-.27,0c-1.39.22-2.85.45-4.38.75l-4.85.94.58,8.68H217.78l.58-8.64-4.92-.89c-1.63-.29-3.19-.53-4.66-.74a34.29,34.29,0,0,1-6.59-1.4,26.17,26.17,0,0,0-1.64-3.37v0C200.36,243.76,212.18,228.29,224.75,228.29Zm-21.92,39.25c1.46.31,3,.59,4.77.85l2.21.34-.13,1.94h-7.27A20.82,20.82,0,0,0,202.83,267.54Zm-35.48-2a13.73,13.73,0,0,1,25-7.11,13.38,13.38,0,0,1,2,4.26,13.78,13.78,0,0,1,.49,3.54,13.41,13.41,0,0,1-.74,4.4h-26A13.29,13.29,0,0,1,167.35,265.58Zm-34.09,5.09-1.13-5.28,3.24,5.28ZM96.32,220.59l.18-1a67.26,67.26,0,0,1,9.34-22c21,6.6,32.66,20.19,36.68,31,3.44,9.32,7.22,22.51,5.72,42h-3.39L114.39,221,125,270.67H112.41a90.37,90.37,0,0,1-14.15-25.61c-.54-1.48-1-3-1.37-4.47-.24-1-.44-2-.62-3l-.18-1A48.58,48.58,0,0,1,96.32,220.59Zm3.49,46.22c.79,1.27,1.64,2.55,2.55,3.86h-3l-4.88-8.33ZM47.32,245h0c-9.63-12.59-11.88-28.57-6.7-47.55,22,.16,37.16,9.7,44.17,18.87,1.18,1.53,2.25,3,3.27,4.49l0,.16c-.13.87-.27,1.74-.36,2.6a52.85,52.85,0,0,0,1.7,20.27c.47,1.73,1,3.46,1.62,5.17L64.15,226.63l25.8,44H77A91.89,91.89,0,0,1,47.32,245Zm294.23,68.38H39.32L12.09,278.75h356.7Z" transform="translate(0 -12.08)"/><g class="cls-5"><path class="cls-1" d="M213.42,62.93h42.91a8.21,8.21,0,0,1,8.21,8.21v77.67a0,0,0,0,1,0,0H205.21a0,0,0,0,1,0,0V71.15a8.21,8.21,0,0,1,8.21-8.21Z" transform="translate(29.08 248.79) rotate(-61.25)"/></g><rect class="cls-1" x="187.62" y="81.65" width="73.33" height="85.88" rx="8.93" transform="translate(7.17 249.22) rotate(-61.25)"/><g class="cls-6"><g class="cls-7"><rect class="cls-1" x="38.8" y="81.72" width="194.96" height="52.6" rx="6.3" transform="translate(68.76 -64.31) rotate(28.75)"/></g><rect class="cls-1" x="52.85" y="54.69" width="185.96" height="53.71" rx="9.23" transform="translate(57.2 -72.17) rotate(28.75)"/></g></g></g></svg>