<svg xmlns="http://www.w3.org/2000/svg" viewBox="0 0 292.32 244.58"><defs><style>.cls-1{fill:none;stroke:#EB6100;stroke-linecap:round;stroke-linejoin:round;stroke-width:9px;}.cls-2{fill:#EB6100;}</style></defs><g id="图层_2" data-name="图层 2"><g id="图层_1-2" data-name="图层 1"><path class="cls-1" d="M16.78,124.59c-2.9-4.23,5-36.16,36.52-42.14,16.9-.23,48-8.13,61.36-13.82s32.08-17.1,43.46-16.7,27.78,6,27.3,16.84c0,0-12.11-2.13-11.42,3.61s8.23,10.44,23.27,10.44,48.66,11.41,57.6,15.48,21.19,21.51,21,26.91"/><path class="cls-2" d="M283.32,131.54c-.48,3.49-10.54,85.84-81.69,104L96.78,234.36C42.45,224.1,16.08,187.06,9,131.54H283.32m0-9H9A9,9,0,0,0,.07,132.68c3.86,30.26,13.32,54.8,28.13,72.94,16,19.57,38.49,32.22,66.91,37.59a9.17,9.17,0,0,0,1.57.15l104.85,1.22h.1a8.87,8.87,0,0,0,2.24-.28A105.15,105.15,0,0,0,250,219.13,126.39,126.39,0,0,0,276.56,183a167.89,167.89,0,0,0,15.66-50.09l0-.15a9,9,0,0,0-8.92-10.23Zm0,18h0Z"/><path class="cls-1" d="M78.13,94.64s36.61-4.21,53.68-16.81"/><path class="cls-1" d="M125,4.5s25.29,20.89,25.29,29.68"/><path class="cls-1" d="M96.13,11.82S121.41,32.7,121.41,41.5"/><path class="cls-1" d="M67.28,25.53S92.57,46.42,92.57,55.22"/></g></g></svg>
