<svg xmlns="http://www.w3.org/2000/svg" xmlns:xlink="http://www.w3.org/1999/xlink" viewBox="0 0 388.89 352.18"><defs><style>.cls-1,.cls-3,.cls-5{fill:none;}.cls-2{clip-path:url(#clip-path);}.cls-3,.cls-5{stroke:#e45e28;stroke-miterlimit:10;stroke-width:9px;}.cls-3{stroke-linecap:round;}.cls-4{clip-path:url(#clip-path-2);}.cls-6{clip-path:url(#clip-path-4);}.cls-7{clip-path:url(#clip-path-5);}.cls-8{fill:#fff;}.cls-9{fill:#e35828;}</style><clipPath id="clip-path" transform="translate(0 -12.78)"><rect class="cls-1" width="388.89" height="364.96"/></clipPath><clipPath id="clip-path-2" transform="translate(0 -12.78)"><path class="cls-1" d="M170.79,84,143,134.64a9.32,9.32,0,0,0,3.68,12.64l62.15,34.1a9.33,9.33,0,0,0,12.65-3.68L249.26,127a9.31,9.31,0,0,0-3.68-12.64l-62.15-34.1A9.31,9.31,0,0,0,170.79,84"/></clipPath><clipPath id="clip-path-4" transform="translate(0 -12.78)"><path class="cls-1" d="M38.24,22.27,20.57,54.48a9.62,9.62,0,0,0,3.8,13.06L144,133.2c3.89-7.94,10.25-20.62,14.65-27.83,4.07-6.67,9-15.41,12.2-21.29L51.3,18.46a9.63,9.63,0,0,0-13.06,3.81"/></clipPath><clipPath id="clip-path-5" transform="translate(0 -12.78)"><path class="cls-1" d="M43.81,0,38.17,9.28,4.68,62.66,140.61,140.3s11.34-23.89,18.08-34.93,15.74-27.78,15.74-27.78Z"/></clipPath></defs><g id="图层_2" data-name="图层 2"><g id="图层_1-2" data-name="图层 1"><g class="cls-2"><line class="cls-3" x1="78.43" y1="347.68" x2="313.81" y2="347.68"/></g><g class="cls-4"><path class="cls-5" d="M261.27,105.74,231.52,160l-71-38.93a8.57,8.57,0,0,1-3.38-11.63l21.51-39.21a8.55,8.55,0,0,1,11.62-3.38Z" transform="translate(0 -12.78)"/></g><g class="cls-2"><path class="cls-5" d="M249.26,127l-27.8,50.68a9.31,9.31,0,0,1-12.65,3.68l-62.15-34.1A9.32,9.32,0,0,1,143,134.64L170.79,84a9.3,9.3,0,0,1,12.64-3.68l62.15,34.1A9.31,9.31,0,0,1,249.26,127Z" transform="translate(0 -12.78)"/></g><g class="cls-6"><path class="cls-5" d="M174.53,182.32,7.91,90.9A6.57,6.57,0,0,1,5.31,82L25.36,45.44a6.57,6.57,0,0,1,8.92-2.6L200.9,134.26a6.55,6.55,0,0,1,2.6,8.91l-20.05,36.55A6.57,6.57,0,0,1,174.53,182.32Z" transform="translate(0 -12.78)"/></g><g class="cls-7"><path class="cls-5" d="M177.43,151.51l-153.06-84a9.62,9.62,0,0,1-3.8-13.06L38.24,22.27a9.61,9.61,0,0,1,13.06-3.8l153.05,84a9.62,9.62,0,0,1,3.81,13.06l-17.67,32.21A9.62,9.62,0,0,1,177.43,151.51Z" transform="translate(0 -12.78)"/></g><g class="cls-2"><line class="cls-3" x1="7.85" y1="190.21" x2="384.39" y2="190.21"/><path class="cls-3" d="M51.64,203c-.43,4.44-.7,8.93-.7,13.49,0,78.36,65,141.88,145.18,141.88S341.3,294.84,341.3,216.48c0-4.56-.27-9-.7-13.49Z" transform="translate(0 -12.78)"/><path class="cls-8" d="M196.12,226.1a50.33,50.33,0,1,0,50.33,50.33,50.38,50.38,0,0,0-50.33-50.33m0,98.63a48.31,48.31,0,1,1,48.3-48.3,48.3,48.3,0,0,1-48.3,48.3" transform="translate(0 -12.78)"/><path class="cls-9" d="M244.42,276.42a48.3,48.3,0,1,1-48.3-48.3,48.3,48.3,0,0,1,48.3,48.3" transform="translate(0 -12.78)"/><path class="cls-8" d="M229.32,289.08a17.54,17.54,0,0,0,4.54-11.49c.08-3.84-1-6.48-2.3-10.29-1.25-3.57-2.75-7.3-.88-10,1.53-2.18,5.26-2.15,5.26-2.15a5.66,5.66,0,0,0-3-.83s.16-1.3-1.47-1.45c-2.67-.24-3.5.49-5.47.42a7.89,7.89,0,0,1-5.51-2.48c1.28,3.77,5.9,4.51,5.9,4.51s-1.43,1.39-2.15,5a80.77,80.77,0,0,0-1.06,9.07,2.52,2.52,0,0,1-5,0c-.34-2.55.08-10-.86-14.86a9.24,9.24,0,0,0-8.72-7.26c-3.4-.24-10.93.17-15.37-.5a12.94,12.94,0,0,1-7.52-4c.27,2.29,1,6.52,4.46,7.87,3.85,1.51,7.92,1.22,14,1.69,5.8.45,5.87,3.19,5.87,3.73,0,0-6.06.09-11.63-.29a59.85,59.85,0,0,1-8-1c.94,2.83,2.83,4,6.6,4.67a65.5,65.5,0,0,0,8.63.48c3.32.05,4.89,1.89,4.89,3.54l-8.56-.05a68.16,68.16,0,0,1-11.13-.78c1,3.08,3.82,4.22,6.92,4.48,2.58.21,6.36.26,9.26.34a4.09,4.09,0,0,1,3.91,3.36c-5.21,0-14.29,0-21-.39s-9.49-4.05-9.49-5.16v-.91l8.15.07a.27.27,0,0,0,.27-.37l-1.05-2.95a3.42,3.42,0,0,0-3.29-2.28l-4.22,0s.47-8.36.55-10.3c.06-1.62-1.17-3.12-5.24-4.08a10.36,10.36,0,0,0-2.77-.26c.24,2,.7,14.64.7,14.64s-4.33,0-9.85-.2a.28.28,0,0,0-.28.37l1.07,3a3.53,3.53,0,0,0,3.38,2.36l5.54-.08v.91a39.33,39.33,0,0,1-8.86,11.33c-4.9,4.53-8.18,5.72-8.18,5.72s.59.5,1.24.94a11.89,11.89,0,0,0,4.05,2c1.38.27,3.49.45,6.34-3s5.55-7.53,5.55-7.53c-.13,4.47-.63,19.68-.8,24.27a1.23,1.23,0,0,0,1.24,1.29h5.9a1.25,1.25,0,0,0,1.24-1.29l-.81-25.79c1.27,2.28,7.36,3.06,9.78,3.06h8.42c-2.07,2-10,5.56-15.26,6.45a9.59,9.59,0,0,0,8.16,1.72c3.72-.9,7.22-2.71,13.33-6.41,3.67-2.22,5.91-.58,5.91-.58-4.92,3.53-8.59,6.49-16.16,9.72a35.09,35.09,0,0,1-11.24,2.91,11.86,11.86,0,0,0,8.49,2.28c4.48-.41,9.8-2.76,17.48-8.09,3-2.12,5.34-.59,5.34-.59-4.31,3.49-9.18,8.09-18.22,11.43a41.19,41.19,0,0,1-13.09,2.28s3.21,3.13,9.33,2.93a22.89,22.89,0,0,0,6.7-1.23c3.57-1.14,7.36-2.72,13.65-7.58,3.7-2.86,5.24-1.26,5.24-1.26-5,5.39-11.63,13.41-26.41,13.4-8.59,0-17.55-.87-24,1.7a25.06,25.06,0,0,0-6,3.37c.5.56,1,1.11,1.55,1.64,9-3.19,18.22-2.18,24.8-1.36,8.91,1.12,16.11.82,22.39-2.3a27.24,27.24,0,0,0,9.35-7.59,7.15,7.15,0,0,0,1.11,4.16,10.64,10.64,0,0,0,5.24,4.44,10.51,10.51,0,0,1-2.58-10.81c.9-2.87,3.6-5.37,5.74-7.81" transform="translate(0 -12.78)"/></g></g></g></svg>