<svg xmlns="http://www.w3.org/2000/svg" xmlns:xlink="http://www.w3.org/1999/xlink" viewBox="0 0 387.21 274.94"><defs><style>.cls-1,.cls-4{fill:none;}.cls-2{clip-path:url(#clip-path);}.cls-3{fill:#fff;}.cls-4{stroke:#fff;stroke-linecap:round;stroke-linejoin:round;stroke-width:9px;}</style><clipPath id="clip-path"><rect class="cls-1" x="131.32" y="13.21" width="120.96" height="88.19"/></clipPath></defs><g id="图层_2" data-name="图层 2"><g id="图层_1-2" data-name="图层 1"><g class="cls-2"><path class="cls-3" d="M153.09,53.05c0,.52,0,1-.1,1.53L153.2,53a10.32,10.32,0,0,1-.63,2.38l.6-1.41a11,11,0,0,1-.75,1.45c-.14.22-.3.44-.45.66-.42.61.55-.79.56-.73a3.13,3.13,0,0,1-.38.45c-.69.79-1.45,1.5-2.21,2.23a19.87,19.87,0,0,0-4.79,6.18,16.67,16.67,0,0,0-.85,11.67,18.79,18.79,0,0,0,5,7.68c.86.85,1.76,1.66,2.58,2.55.2.22.38.45.58.67.43.47-.93-1.26-.56-.73.09.13.2.26.29.4a11,11,0,0,1,1,1.78l-.6-1.41a10.32,10.32,0,0,1,.63,2.38L153,87.64a12.05,12.05,0,0,1,0,3.06l.21-1.57a10.32,10.32,0,0,1-.63,2.38l.6-1.41A10,10,0,0,1,152.08,92c-.71,1,1-1.18.2-.26-.22.24-.43.49-.66.73-1,1-2,1.94-3,2.95a16.88,16.88,0,0,0-5,11.77,5.91,5.91,0,0,0,11.82,0c0-.51,0-1,.1-1.53l-.21,1.57a10.32,10.32,0,0,1,.63-2.38l-.6,1.41a11,11,0,0,1,.75-1.45c.14-.22.3-.44.45-.65.42-.62-.55.78-.56.72a3.79,3.79,0,0,1,.38-.45c.69-.79,1.45-1.5,2.21-2.23a19.87,19.87,0,0,0,4.79-6.18,16.67,16.67,0,0,0,.85-11.67,18.79,18.79,0,0,0-5-7.68c-.86-.85-1.76-1.66-2.58-2.55-.2-.22-.38-.45-.58-.67-.43-.47.93,1.26.56.73-.1-.13-.2-.26-.29-.4a11,11,0,0,1-1-1.78l.6,1.41a10.32,10.32,0,0,1-.63-2.38l.21,1.57a12.05,12.05,0,0,1,0-3.06l-.21,1.57a10.32,10.32,0,0,1,.63-2.38l-.6,1.41a10.54,10.54,0,0,1,1.08-1.94c.72-1-1,1.18-.19.26.22-.24.43-.49.66-.72,1-1,2-2,3-3a16.86,16.86,0,0,0,5-11.77,5.91,5.91,0,1,0-11.82,0Z"/><path class="cls-3" d="M188.44,53.05c0,.52,0,1-.1,1.53l.21-1.57a10.32,10.32,0,0,1-.63,2.38l.6-1.41a11,11,0,0,1-.75,1.45c-.14.22-.3.44-.45.66-.42.61.55-.79.56-.73a3.13,3.13,0,0,1-.38.45c-.69.79-1.45,1.5-2.21,2.23a20,20,0,0,0-4.79,6.18,16.67,16.67,0,0,0-.85,11.67,18.79,18.79,0,0,0,5,7.68c.86.85,1.76,1.66,2.58,2.55.2.22.38.45.58.67.43.47-.93-1.26-.56-.73.1.13.2.26.29.4a11,11,0,0,1,1,1.78l-.6-1.41a10.32,10.32,0,0,1,.63,2.38l-.21-1.57a12.05,12.05,0,0,1,0,3.06l.21-1.57a10.32,10.32,0,0,1-.63,2.38l.6-1.41A10.54,10.54,0,0,1,187.44,92c-.72,1,1-1.18.19-.26-.22.24-.43.49-.66.73-1,1-2,1.94-3,2.95a16.88,16.88,0,0,0-5,11.77,5.91,5.91,0,1,0,11.82,0c0-.51,0-1,.1-1.53l-.21,1.57a10.32,10.32,0,0,1,.63-2.38l-.6,1.41a11,11,0,0,1,.75-1.45c.14-.22.3-.44.45-.65.42-.62-.55.78-.56.72a3.79,3.79,0,0,1,.38-.45c.69-.79,1.45-1.5,2.21-2.23a19.87,19.87,0,0,0,4.79-6.18,16.67,16.67,0,0,0,.85-11.67,18.79,18.79,0,0,0-5-7.68c-.86-.85-1.76-1.66-2.58-2.55-.2-.22-.38-.45-.58-.67-.43-.47.93,1.26.56.73-.09-.13-.2-.26-.29-.4a11,11,0,0,1-1-1.78l.6,1.41a10.32,10.32,0,0,1-.63-2.38l.21,1.57a12.05,12.05,0,0,1,0-3.06l-.21,1.57a10.32,10.32,0,0,1,.63-2.38l-.6,1.41a10,10,0,0,1,1.09-1.94c.71-1-1,1.18-.2.26.22-.24.43-.49.66-.72,1-1,2-2,3-3a16.86,16.86,0,0,0,5-11.77,6,6,0,0,0-5.91-5.91,6,6,0,0,0-5.91,5.91Z"/><path class="cls-3" d="M223.79,53.05a13,13,0,0,1-.1,1.53L223.9,53a10.32,10.32,0,0,1-.63,2.38l.6-1.41a10,10,0,0,1-.75,1.45c-.14.22-.3.44-.45.66-.42.61.55-.79.56-.73a3.13,3.13,0,0,1-.38.45c-.69.79-1.45,1.5-2.21,2.23a20,20,0,0,0-4.79,6.18A16.67,16.67,0,0,0,215,75.89a18.79,18.79,0,0,0,5,7.68c.86.85,1.76,1.66,2.58,2.55.2.22.38.45.58.67.43.47-.93-1.26-.56-.73.1.13.2.26.29.4a11,11,0,0,1,1,1.78l-.6-1.41a10.32,10.32,0,0,1,.63,2.38l-.21-1.57a12.05,12.05,0,0,1,0,3.06l.21-1.57a10.32,10.32,0,0,1-.63,2.38l.6-1.41A10.54,10.54,0,0,1,222.79,92c-.72,1,1-1.18.19-.26-.22.24-.43.49-.66.73-1,1-2,1.94-3,2.95a16.85,16.85,0,0,0-5,11.77,5.91,5.91,0,0,0,11.82,0c0-.51,0-1,.1-1.53l-.21,1.57a10.32,10.32,0,0,1,.63-2.38l-.6,1.41a11,11,0,0,1,.75-1.45c.14-.22.3-.44.45-.65.43-.62-.55.78-.56.72a3.79,3.79,0,0,1,.38-.45c.69-.79,1.45-1.5,2.21-2.23a19.87,19.87,0,0,0,4.79-6.18,16.67,16.67,0,0,0,.85-11.67,18.79,18.79,0,0,0-5-7.68c-.86-.85-1.76-1.66-2.58-2.55-.2-.22-.38-.45-.58-.67-.43-.47.93,1.26.56.73l-.29-.4a11,11,0,0,1-1-1.78l.6,1.41a10.32,10.32,0,0,1-.63-2.38l.21,1.57a12.05,12.05,0,0,1,0-3.06L226,71.15a10.32,10.32,0,0,1,.63-2.38l-.6,1.41a10,10,0,0,1,1.09-1.94c.71-1-1,1.18-.2.26.22-.24.43-.49.66-.72,1-1,2-2,3-3a16.86,16.86,0,0,0,5-11.77,6,6,0,0,0-5.91-5.91,6,6,0,0,0-5.91,5.91Z"/></g><polygon class="cls-3" points="106.58 63.8 119.18 70.69 106.58 77.58 99.69 90.18 92.8 77.58 80.2 70.69 92.8 63.8 99.69 51.21 106.58 63.8"/><polygon class="cls-3" points="294.74 49.32 307.34 56.21 294.74 63.1 287.85 75.7 280.96 63.1 268.36 56.21 280.96 49.32 287.85 36.72 294.74 49.32"/><polygon class="cls-3" points="230.81 10.68 241.49 16.52 230.81 22.36 224.97 33.04 219.13 22.36 208.45 16.52 219.13 10.68 224.97 0 230.81 10.68"/><path class="cls-3" d="M262.59,186.24c-21,0-45-3.56-71.6-12-70.89-22.45-131.35,3.11-132,3.36l-3.86-8.94c2.59-1.12,64.41-27.27,138.78-3.71,78.28,24.82,123.89,4.83,138.51-10.89l7.14,6.63C325.85,175.51,299,186.24,262.59,186.24Z"/><line class="cls-4" x1="75.56" y1="270.44" x2="311.98" y2="270.44"/><line class="cls-4" x1="4.5" y1="112.27" x2="382.71" y2="112.27"/><path class="cls-4" d="M48.65,112.27c-.43,4.46-.7,9-.7,13.55,0,78.7,65.29,142.51,145.82,142.51s145.82-63.81,145.82-142.51c0-4.58-.27-9.09-.7-13.55Z"/></g></g></svg>