<svg xmlns="http://www.w3.org/2000/svg" viewBox="0 0 23.64 23.64"><defs><style>.cls-1{fill:none;}.cls-2{fill:#eb6202;}.cls-3{fill:#fff;}</style></defs><g id="图层_2" data-name="图层 2"><g id="_图层_2" data-name=" 图层 2"><g id="_图层_1-2" data-name=" 图层 1-2"><path class="cls-1" d="M11.82,0A11.82,11.82,0,1,0,23.64,11.82,11.83,11.83,0,0,0,11.82,0Zm0,23.15A11.34,11.34,0,1,1,23.16,11.82,11.33,11.33,0,0,1,11.82,23.15Z"/><circle class="cls-2" cx="11.82" cy="11.82" r="11.34"/><path class="cls-3" d="M19.25,14.79a4.16,4.16,0,0,0,1.07-2.7,6.33,6.33,0,0,0-.54-2.41c-.29-.84-.65-1.72-.21-2.35a1.67,1.67,0,0,1,1.23-.5,1.39,1.39,0,0,0-.71-.2s0-.31-.34-.34a8.64,8.64,0,0,0-1.28.1,1.84,1.84,0,0,1-1.29-.58,1.84,1.84,0,0,0,1.39,1.06,2.3,2.3,0,0,0-.5,1.18,19,19,0,0,0-.25,2.13.59.59,0,0,1-1.18,0c-.08-.6,0-2.35-.2-3.49A2.16,2.16,0,0,0,14.39,5c-.8-.06-2.57,0-3.61-.12A3.08,3.08,0,0,1,9,3.92c.06.54.24,1.53,1.05,1.85a11.62,11.62,0,0,0,3.28.4c1.36.1,1.38.75,1.38.87S13.3,7.06,12,7a14.27,14.27,0,0,1-1.89-.22c.22.66.67,1,1.55,1.09a14.44,14.44,0,0,0,2,.11c.78,0,1.15.44,1.15.83h-2a15.67,15.67,0,0,1-2.61-.18,1.69,1.69,0,0,0,1.62,1.05c.61,0,1.49.06,2.17.08a1,1,0,0,1,.92.79c-1.22,0-3.36,0-4.93-.09S7.76,9.47,7.76,9.21V9L9.67,9a.06.06,0,0,0,.06-.09l-.25-.69a.81.81,0,0,0-.77-.54h-1s.11-1.95.13-2.41-.27-.73-1.23-1A2.5,2.5,0,0,0,6,4.27c.06.46.17,3.44.17,3.44s-1,0-2.31,0a.07.07,0,0,0-.07.09L4,8.46A.84.84,0,0,0,4.8,9L6.1,9v.21A9.21,9.21,0,0,1,4,11.87,6.59,6.59,0,0,1,2.1,13.21a3.47,3.47,0,0,0,.29.22,2.81,2.81,0,0,0,.95.47c.33.06.82.1,1.49-.71s1.3-1.77,1.3-1.77c0,1.05-.15,4.62-.19,5.7a.29.29,0,0,0,.29.3H7.61a.29.29,0,0,0,.29-.3l-.19-6.05c.3.53,1.73.72,2.3.72h2a9.36,9.36,0,0,1-3.58,1.52,2.25,2.25,0,0,0,1.92.4,11.54,11.54,0,0,0,3.13-1.5,1.28,1.28,0,0,1,1.39-.14,17,17,0,0,1-3.8,2.28A8.21,8.21,0,0,1,8.41,15a2.75,2.75,0,0,0,2,.53,9.15,9.15,0,0,0,4.1-1.9,1.12,1.12,0,0,1,1.25-.14,13.39,13.39,0,0,1-4.28,2.68,9.88,9.88,0,0,1-3.07.54,3.12,3.12,0,0,0,2.19.69,5.66,5.66,0,0,0,1.57-.29,9.54,9.54,0,0,0,3.2-1.78c.87-.67,1.23-.3,1.23-.3-1.18,1.27-2.73,3.15-6.2,3.15-2,0-4.12-.2-5.63.4a6,6,0,0,0-1.41.79l.36.38a12.57,12.57,0,0,1,5.82-.32,9.05,9.05,0,0,0,5.26-.54A6.46,6.46,0,0,0,17,17.14a1.7,1.7,0,0,0,.26,1,2.47,2.47,0,0,0,1.23,1,2.48,2.48,0,0,1-.61-2.54,5.78,5.78,0,0,1,1.35-1.83Z"/></g></g></g></svg>