<svg xmlns="http://www.w3.org/2000/svg" viewBox="0 0 397.94 127.56"><defs><style>.cls-1,.cls-2{fill:#fff;}.cls-1{fill-rule:evenodd;}.cls-3{fill:#f6f6e0;}.cls-4{fill:#df610f;}</style></defs><g id="图层_2" data-name="图层 2"><g id="图层_1-2" data-name="图层 1"><path class="cls-1" d="M262.5,83.19l-.52.23c-.52.23-1,.49-1.56.73a7.6,7.6,0,0,1-1.64.5,4.13,4.13,0,0,1-3.44-1.37.45.45,0,0,1,0-.57,5.72,5.72,0,0,1,.65-.55,7.94,7.94,0,0,1,1.68-.76c.73-.26,1.47-.5,2.2-.77l4.83-1.84,1.72-.67a.28.28,0,0,0,.13-.41c-.18-.32-.36-.64-.56-.95-.89-1.48-1.8-2.94-2.69-4.42-.21-.35-.39-.72-.57-1.09a2.72,2.72,0,0,1-.38-1.89c-.24-.21-.48-.43-.71-.66a.25.25,0,0,1,.09-.4c1-.28,1.87-.63,2.79-1,.77-.28,1.53-.59,2.28-.92a48.67,48.67,0,0,1,7.79-2.66,42.29,42.29,0,0,1,6.43-1.07,15.17,15.17,0,0,1,3.56.09,5.49,5.49,0,0,1,1.2.27,5.31,5.31,0,0,0,2.17.32,10.28,10.28,0,0,1,1.11,0,2.3,2.3,0,0,1,1.52.72,1.88,1.88,0,0,1,.47,1.32,12.64,12.64,0,0,1-.61,3.27c-.33,1.07-.32,6.56-.33,8.2,0,3.74,0,7.47,0,11.21l-.06,12.19c0,2.13,0,4.27,0,6.4,0,1,0,2-.07,3a3.79,3.79,0,0,1-.27,1.44,2.34,2.34,0,0,1-1.47,1.38,3,3,0,0,1-2.34.08,3.39,3.39,0,0,1-1.74-1.33c-.35-.73-.79-1.43-1.15-2.17a26.51,26.51,0,0,0-2.34-3.61c-.15-.2-.38-.2-.48,0-.2.4-.39.81-.61,1.2a1,1,0,0,1-.91.53l-2.46,0-6,0a42.78,42.78,0,0,0-4.66.35c-1.22.14-2.44.29-3.67.41a5.78,5.78,0,0,1-1.1,0,1.31,1.31,0,0,1-.93-.6,8.13,8.13,0,0,0-1.1-1.31.38.38,0,0,1,.05-.45,1.46,1.46,0,0,1,.87-.42l2.57-.26a7.3,7.3,0,0,0,2.38-.59,5.7,5.7,0,0,0,1.64-1.06,105.68,105.68,0,0,0,9.15-9.3,2.49,2.49,0,0,0,.35-.5.27.27,0,0,0-.09-.22s-.16-.08-.2,0c-.35.21-.7.43-1,.67a84,84,0,0,1-7.18,4.53,54.53,54.53,0,0,1-4.94,2.51,9.29,9.29,0,0,1-1.15.42,2.26,2.26,0,0,1-2.61-1.16,1.23,1.23,0,0,1-.11-.34c0-.2-.06-.41-.08-.61a2.24,2.24,0,0,1,.62-1.81c.25-.27.53-.51.78-.78a53.87,53.87,0,0,0,4-4.69,2.78,2.78,0,0,0,.3-.53.41.41,0,0,0-.32-.56,2.61,2.61,0,0,0-1.21.13c-.23.07-.46.17-.69.25a11,11,0,0,1-2.77.54,3.38,3.38,0,0,1-1.34-.19,1.07,1.07,0,0,1-.72-.78,2.52,2.52,0,0,1,.89-2.65,6.8,6.8,0,0,1,.68-.52A11.26,11.26,0,0,0,260.44,86c.87-.92,1.75-1.84,2.62-2.77.05-.06.36-.43-.56,0m9.05-15.62-4.68,1.85c-.14,0-.31.07-.37.26.2.29.56.3.85.44a1.73,1.73,0,0,1,.93.93,7.64,7.64,0,0,1,.29.8c.17.68.34,1.35.45,2a10.72,10.72,0,0,0,.54,2.09,5.91,5.91,0,0,0,.24.61c.18-.06,3.44-1.58,4.92-2.29a4,4,0,0,0,.63-.37,2.25,2.25,0,0,0,.31-.37.45.45,0,0,0-.08-.56c-.52-.33-1.05-.64-1.57-1s-.87-.46-1.27-.74a4.09,4.09,0,0,1-.73-.65,1.32,1.32,0,0,1-.34-.9,4.22,4.22,0,0,1,.22-1.69c.09-.24.22-.74-.34-.49m4-1.31c.41.27.76.41,1.14.65a5.14,5.14,0,0,1,1.94,2,1.9,1.9,0,0,1-.15,2.19c-.38.48-.73,1-1.08,1.5a.55.55,0,0,0,.15.76c.31.21.63.39.94.58a1.14,1.14,0,0,1,.51.67,2.15,2.15,0,0,1-1.43,2.74A27.68,27.68,0,0,0,273,79.17a14.42,14.42,0,0,0-1.69,1,.37.37,0,0,0-.1.33,1.6,1.6,0,0,0,.17.46,60.53,60.53,0,0,0,4.83,8.42c.32.48.7.92,1,1.37l.08.09a.32.32,0,0,0,.52,0A10.89,10.89,0,0,0,280,86.15a8.25,8.25,0,0,1,.52-1.64,1,1,0,0,1,.41-.45,1,1,0,0,1,1.05,0,10.37,10.37,0,0,1,2.15,1.64,1,1,0,0,1,.3.65,1.7,1.7,0,0,1-.2,1.19c-.22.35-.05.17-.3.49-.59.74-1.2,1.46-1.81,2.18-.79.94-1.6,1.87-2.39,2.81-.24.28-.24.45,0,.76.84,1,1.67,2,2.53,3a10.42,10.42,0,0,0,1.08,1,6.82,6.82,0,0,0,.85.65c.31.14.92.47,1-.32a4.11,4.11,0,0,0,.08-.6c.1-2,0-25.23,0-30.68,0-.21,0-.41,0-.62a.62.62,0,0,0-.22-.42,3.73,3.73,0,0,0-1.4-.75,6.46,6.46,0,0,0-2.8-.16,31.93,31.93,0,0,0-4,.72,10.59,10.59,0,0,0-1.05.33c-.09,0-.39.15-.2.29m9.83,38.21c0-.21-.33-.38-.51-.51a25.69,25.69,0,0,1-3.86-3.73c-1-1.15-1.92-2.35-2.88-3.53-.2-.25-.4-.52-.6-.78a.32.32,0,0,0-.43,0l-.36.34a69.55,69.55,0,0,1-8.36,7.44l-.27.23a.17.17,0,0,0,0,.11.14.14,0,0,0,.15.16l3.07-.19.37,0,3.17-.38a13.24,13.24,0,0,0,2.64-.58,2.78,2.78,0,0,1,2.78.45c.36.27.7.56,1.07.82.84.59,1.7,1.16,2.54,1.73.14.1.64.46.78.54a.45.45,0,0,0,.69-.34,10.43,10.43,0,0,0,0-1.69M274.71,92a1.36,1.36,0,0,0-.14-.33c-1.42-2.3-2.7-4.69-4-7.08-.39-.73-.79-1.44-1.19-2.16l-.2-.31a.3.3,0,0,0-.51-.06c-1.08,1.07-2.16,2.13-3.15,3.28a.6.6,0,0,0-.14.21.26.26,0,0,0,0,.21.28.28,0,0,0,.21.1,5,5,0,0,1,1.34,0,2.34,2.34,0,0,1,1.58,1,3.06,3.06,0,0,1-.34,3.78,44.35,44.35,0,0,1-3.32,3.79,11.69,11.69,0,0,0-1.73,2.23.14.14,0,0,0,0,.11c.06,0,.13.12.19.11a1.93,1.93,0,0,0,.48-.08c1.46-.53,2.93-1,4.39-1.61,2-.78,4-1.69,5.94-2.67.21-.11.45-.19.55-.46"/><path class="cls-1" d="M251.24,91c-.09-3.61-.13-7.23-.3-10.83-.12-2.63-.17-5.26-.46-7.87a8,8,0,0,0-1.32-3.54c-.42-.65-.89-1.27-1.35-1.91a.39.39,0,0,1,0-.57,2.07,2.07,0,0,1,1.43-.6,20.83,20.83,0,0,1,2.86.28,4.09,4.09,0,0,1,3.28,3.28,5.11,5.11,0,0,1-.12,3.19,10.74,10.74,0,0,0-.38,2.38c-.07,1.48-.14,3-.2,4.43-.16,4.27,0,8.54.06,12.8s.18,8.62.28,12.93c0,.49.07,1,.09,1.47,0,.7,0,1.4,0,2.1a2.09,2.09,0,0,1-.27,1.06.65.65,0,0,1-.62.31,2.09,2.09,0,0,1-.36-.08,6.27,6.27,0,0,1-1.83-1.23,1.28,1.28,0,0,1-.41-.87c0-.24,0-.49,0-.73,0-1,0-1.89-.05-2.83,0-1.73-.08-3.45-.13-5.17-.07-2.67-.16-5.34-.24-8h0"/><path class="cls-1" d="M239.83,80.42c-.69-.45-1.1-.67-1.8-1.11a3.07,3.07,0,0,0-.66-.31.92.92,0,0,0-.82.13,1,1,0,0,0-.19.16,3.63,3.63,0,0,1-1.69,1l-6.12,1.87c-1.11.34-1.16.3-1.13-.9,0-1.48.1-3,.13-4.43.06-2.34.12-4.68.16-7a7,7,0,0,1,.55-2.75c.26-.6.49-1.22.71-1.84a5.29,5.29,0,0,0,.24-1,1.12,1.12,0,0,0-.07-.6,3.49,3.49,0,0,0-.83-1.21,2.26,2.26,0,0,0-1.31-.64c-.57-.05-1.14-.06-1.72-.07a.82.82,0,0,0-.66.27,4.43,4.43,0,0,1-1.14.93,42.77,42.77,0,0,1-4,2.18.36.36,0,0,0-.13.52,1.93,1.93,0,0,0,.75.61,7,7,0,0,0,1.43.39,1.18,1.18,0,0,0,1-.23,7.89,7.89,0,0,1,1.06-.61c.08,0,.28.06.29.15a2.65,2.65,0,0,1,.07.48c0,1.89-.23,3.77-.31,5.65,0,0,0,.21-.07.22s-.16-.08-.21-.12a1.55,1.55,0,0,0-1.62-.21c-.43.17-1.79.78-2.07.86s-.41.16-.59,0-.12-.35-.12-.51c0-.49,0-1,0-1.48.05-1,.11-2,.16-3.07,0-.41,0-.82,0-1.23a.85.85,0,0,0-.33-.64c-.4-.29-.8-.57-1.22-.83a2.43,2.43,0,0,0-1.29-.35c-.74,0-1.48,0-2.22,0a1.61,1.61,0,0,0-1.31.73.19.19,0,0,0,0,.25,5,5,0,0,0,.6.42,3.72,3.72,0,0,1,1.89,3.24c0,.29,0,.58,0,.87,0,.65,0,1.31,0,2q-.11,4.25-.22,8.49a6.06,6.06,0,0,0,.16,1.58,2.27,2.27,0,0,0,1.1,1.41,1.91,1.91,0,0,0,.81.28,1.09,1.09,0,0,0,1.17-.64c.32-.75.51-.77.85-.83.89-.17,1.58-.33,2.46-.49a6.87,6.87,0,0,1,.78-.08.71.71,0,0,1,.59.24,3.93,3.93,0,0,1,.74,1c.12.49-1,.69-1.25.76l-2.61.7c-2.42.63-7.79,1.93-8.67,2.13-.64.15-.36.06-1,.18a3.82,3.82,0,0,1-2.64-.18.33.33,0,0,0-.24,0c-.07,0-.29.14-.25.6a4,4,0,0,0,3.69,3.37,2.43,2.43,0,0,0,.84-.14c1.13-.36,1.36-.45,2.5-.79,2.43-.73,6.56-2.28,9-3,.07,0,.39-.14.25.11s-10.15,5.93-11.57,6.84a2.68,2.68,0,0,1-1.34.56,1,1,0,0,0-.64.33,5.32,5.32,0,0,0-.88,1.32,5.64,5.64,0,0,0-.27,1,1.79,1.79,0,0,0,0,.73,2.47,2.47,0,0,0,1,1.39.6.6,0,0,0,.6-.07c.09,0,1.11-.82,1.57-1.1,2.13-1.31,2.14-1.45,4.28-2.76a5,5,0,0,1,.5-.29c.4-.21.87.25.88.73a1.94,1.94,0,0,1-.28,1,23.91,23.91,0,0,1-2.69,3.55,17,17,0,0,1-1.64,1.65,2.66,2.66,0,0,0-.37-.07c-.08,0-.18,0-.22,0a2.79,2.79,0,0,0-.75,1.38.38.38,0,0,0,.27.36,2.21,2.21,0,0,0,.37,0,4.24,4.24,0,0,0,2.22-.63,11.4,11.4,0,0,0,1.89-1.35c.6-.56,1.56-1.35,2.15-1.92s.88-.86,1.3-1.31a1.15,1.15,0,0,1,.63-.36,11.09,11.09,0,0,1,2.82-.14,1.4,1.4,0,0,1,.35.1.66.66,0,0,1,.4.8,6.27,6.27,0,0,1-1.09,2,15.93,15.93,0,0,1-3.13,3.17,9.84,9.84,0,0,1-4,2c-.16,0-1.05.22-1.33.3a.25.25,0,0,0-.15.15.29.29,0,0,0,.06.22,3.83,3.83,0,0,0,2.57.47,12.14,12.14,0,0,0,3.21-.76,9.36,9.36,0,0,0,2.42-1.28,19.48,19.48,0,0,0,4.49-4.34,14.86,14.86,0,0,1,1.56-1.9,1.59,1.59,0,0,0,.37-.63,4.83,4.83,0,0,0,0-3.14,1.46,1.46,0,0,0-.93-.93,2.38,2.38,0,0,0-1.92,0c-.33.17-.65.34-1,.53a9.72,9.72,0,0,1-3,1.08,1.14,1.14,0,0,1-.86-.08,3.16,3.16,0,0,0,.05-.69,4.67,4.67,0,0,0-.19-.71.74.74,0,0,1,.3-.86,3.63,3.63,0,0,1,1.58-.63,19.33,19.33,0,0,1,5,0,8.19,8.19,0,0,1,1.57.28,4,4,0,0,1,3,3.39,4.7,4.7,0,0,1,0,1.35,10.19,10.19,0,0,1-1.66,4.33c-.65,1-1.34,1.87-2.05,2.77a11.22,11.22,0,0,1-2.24,2.11,9.39,9.39,0,0,1-4,1.67,19.07,19.07,0,0,1-3.83.39h-.49c-.18,0-.88.11.1.85a12.57,12.57,0,0,0,4.6,1.71,10.1,10.1,0,0,0,4.61-.18A6.43,6.43,0,0,0,230,110c.81-.75,1.61-1.53,2.36-2.34a52,52,0,0,0,3.22-4.27,12.22,12.22,0,0,0,1.77-3.61,12.63,12.63,0,0,0,0-5.23,4.56,4.56,0,0,0-1.17-2.26A9.74,9.74,0,0,0,232.84,90a10.67,10.67,0,0,0-3.38-.65c-.9,0-1.92-.09-2.82-.09-.41,0-1.75.33-1.48.15.91-.62,5.41-4.52,5.77-4.62,1.3-.36,5.13-1.22,6.45-1.5.72-.19,1.48-.28,2.19-.47s.89-.31,1-.92a1.46,1.46,0,0,0-.69-1.47m-16.17-5a16.44,16.44,0,0,1-.24,3.9c-.06.17-.27.06-.35,0a3.82,3.82,0,0,0-2,.19c-.55.17-1.1.32-1.64.52s-.68,0-.68-.43c0-1.43.08-2.86.12-4.3,0-.12,0-.25,0-.37a.43.43,0,0,1,.41-.39c.74,0,1.48,0,2.21,0s1.23-.12,1.85-.19a.25.25,0,0,1,.3.2,5,5,0,0,1,0,.87"/><path class="cls-1" d="M205.65,88c.72-1.12,1.42-2.26,2.11-3.4a20,20,0,0,0,1.36-2.84s.06-.17,0-.21-.17,0-.2.08c-.21.24-.41.49-.62.72-1,1.13-2,2.28-2.94,3.49-.59.76-1.19,1.51-1.79,2.26a4.87,4.87,0,0,1-.4.43c0-1.68,0-3.36,0-5,.63-.24,1.42-.65,2-.88a11.48,11.48,0,0,0,2.25-1.24,5,5,0,0,0,1.44-1.58,2.68,2.68,0,0,0,.38-1,1,1,0,0,0-.49-1.13,5.32,5.32,0,0,0-.61-.35c-.5-.23-1-.42-1.49-.66a1.58,1.58,0,0,0-1.65,0,7.67,7.67,0,0,1-1.52.75c-.22.08-.38,0-.38-.29s0-.74,0-1.11c0-1.79,0-3.86.13-5.71,0-.74.1-1.47.2-2.2a4.28,4.28,0,0,1,.62-2,3.06,3.06,0,0,0,.28-.73c.23-.87-.39-1.4-1.05-1.93a9.87,9.87,0,0,0-3.41-.94,3.58,3.58,0,0,0-2.61.5c-.31.18-.61.48-.33.77a9.07,9.07,0,0,1,1.12,1.25,6.81,6.81,0,0,1,.77,3c.2,4,.33,7.08.31,10.56h0a1.14,1.14,0,0,1-.57,1.09c-1.05.68-2.32,1.36-3.37,2-.79.51-1.58,1-2.37,1.53a6.52,6.52,0,0,1-2.56,1.06c-.47.09-1.55.19-1.85.22l-.23,0c-.16,0-.38.18-.13.45a3.46,3.46,0,0,0,1.73.93,10.14,10.14,0,0,0,2.75.24,24.33,24.33,0,0,0,4.45-.66c.37-.11,1.19-.4,1.56-.51,0,0,.07,0,.09.07a.1.1,0,0,1,0,.1c-.12.25-.24.5-.35.76a75.36,75.36,0,0,1-6.85,11.86,5.18,5.18,0,0,1-1.27,1.43,1,1,0,0,0-.46.55,2.74,2.74,0,0,0,.06,1.16c.1.52.19,1,.31,1.57a4.26,4.26,0,0,0,.22.69.73.73,0,0,0,.82.53,3.07,3.07,0,0,0,1.37-.69,63.37,63.37,0,0,0,5.29-4.95l1.31-1.58.06,3.61c0,1.72,0,3.45,0,5.17,0,.94,0,1.89,0,2.83,0,.25,0,.49,0,.74a1.2,1.2,0,0,0,.46.88,7.26,7.26,0,0,0,2.12,1.26,2.84,2.84,0,0,0,.42.09.81.81,0,0,0,.73-.3,1.87,1.87,0,0,0,.33-1.06c0-.69,0-1.39,0-2.09,0-.49-.06-1-.07-1.47,0-4.31-.11-8.62-.1-12.93V91.71l.31-.38c.73-1.11,1.47-2.21,2.18-3.33"/><path class="cls-1" d="M349.06,93.13a3,3,0,0,0-1.26-2.2,7.12,7.12,0,0,0-3.38-1.09,20.83,20.83,0,0,0-3.06,0,42.72,42.72,0,0,0-5.58.78c-1.75.34-3.31.69-5.37,1.24l-4.65,1.28a6.23,6.23,0,0,0-1.31.54.24.24,0,0,0-.07.36c.3.37.56.69.87,1a1,1,0,0,0,.41.28,2,2,0,0,0,.69,0c.54-.07,1.09-.2,1.63-.28s1.1-.12,1.53-.14.53.45.68.7a3.16,3.16,0,0,1,.18.75,2.87,2.87,0,0,1,.13,1.09.89.89,0,0,1-.6.8c-.86.31-1.94.62-2.79.94a7.31,7.31,0,0,0-.78.29,1.21,1.21,0,0,0-.47.37.54.54,0,0,0,.07.49l.27.42a.89.89,0,0,0,.8.43h2.25c.32,0,.63,0,.95,0a.67.67,0,0,1,.56.54,11,11,0,0,1,0,2.43.57.57,0,0,1-.46.49c-1,.31-2.26.64-3.28,1l-.57.17a.76.76,0,0,1-.66-.16,2.22,2.22,0,0,1-.65-.84c-.68-1.43-1.32-2.71-1.86-3.86a12.85,12.85,0,0,1-1-4.59,5,5,0,0,1,.34-2.25c.89-1.94,2.18-3.24,4.45-5A13.82,13.82,0,0,1,333,86.62a32.32,32.32,0,0,1,4.59-.35,6.75,6.75,0,0,0,2.07-.2,1.3,1.3,0,0,0,.8-2c-.19-.26-.41-.49-.6-.75a.91.91,0,0,1-.06-1.1c.23-.37.45-.75.67-1.13a5,5,0,0,1,.95-1.28,15.63,15.63,0,0,0,1.27-1,1.75,1.75,0,0,0,.57-1.71,3.17,3.17,0,0,0-.4-1.24,2.18,2.18,0,0,0-1.42-1.16,17.07,17.07,0,0,0-5.7,0,20.49,20.49,0,0,0-5.87,1.68c-.47.2-1.13.46-1.59.69-.14.07-.61.23-.82,0a.68.68,0,0,1,0-.69,26.05,26.05,0,0,1,2.84-2.71c1.5-1.36,3.79-2.93,5.1-3.88a12.2,12.2,0,0,1,1.84-1.09c1.17-.57,3.56-.9,4.72-1.5a5.17,5.17,0,0,0,.78-.54,1.11,1.11,0,0,0,.33-.73c.1-.68-.23-1.21-1-2.17-.39-.52-1.55-.73-2.18-.84-1.25-.23-1.47.38-2.18.63-1.05.36-3,.71-5,1.16-1,.24-6,1.19-7.3,1.5a2.37,2.37,0,0,0-.65.28c-.72.45-1.16.81-1.05,1.7.1.16.55.09.83.07a2.23,2.23,0,0,1,1.26.26c.38.2.77.39,1.15.61a3.73,3.73,0,0,0,2.89.45c.23-.05,1.54-.33,1.62-.14s-.06.62-.25.82c-2.21,2.31-4.81,4.25-6.64,6.23a7,7,0,0,0-1.32,1.67,2.39,2.39,0,0,0,.4,2.46c.27.35.57.66.86,1a24.77,24.77,0,0,1,2.61,3.7c.31.54.06,1-.58,1.62-2.13,2.2-5,5.14-5.57,5.63a4.68,4.68,0,0,0-1.28,1.88,9.62,9.62,0,0,0-.51,2.87,13.33,13.33,0,0,0,.3,3.27c.19.86.44,1.73.7,2.52a29.34,29.34,0,0,0,1.42,3.11,10.82,10.82,0,0,0,1.56,2.17,9,9,0,0,0,2,1.63c.79.39,1.23-.62,1.3-1.15s.2-.43.84-.53a44.18,44.18,0,0,1,4.87-.27,30.07,30.07,0,0,1,5.61.48,2.77,2.77,0,0,1,2,1.88,1.28,1.28,0,0,0,.78.66,2.32,2.32,0,0,0,1.5,0,2.42,2.42,0,0,0,1.07-.66c.43-.47.66-.87,1.1-1.33a8.56,8.56,0,0,0,1.84-3.22,58.36,58.36,0,0,0,2.07-6.19,32.28,32.28,0,0,0,1-6.52M329.48,79.94a7.43,7.43,0,0,1,1-.3,23.47,23.47,0,0,1,3.12-.55,5.33,5.33,0,0,1,2.1.08.7.7,0,0,1,.45.62c0,.23,0,.49,0,.72a2.2,2.2,0,0,1-.71,1.88,20.86,20.86,0,0,1-3.92,1.38,1.56,1.56,0,0,1-1.6-.38,3.56,3.56,0,0,1-.62-.86c-.18-.39-.34-.78-.49-1.21a1.17,1.17,0,0,1,.62-1.38m13.46,20a26.8,26.8,0,0,1-.92,2.6,6.15,6.15,0,0,1-1.88,2.27,1.7,1.7,0,0,1-1.2.38c-.24,0-.48,0-.71-.07-1.05-.18-2.11-.34-3.17-.42a.72.72,0,0,1-.69-.8c0-.76.06-1.68.11-2.43a.68.68,0,0,1,.69-.68c.47,0,.94,0,1.42-.07.27,0,.55,0,.83,0a1.62,1.62,0,0,0,1.52-1.12.9.9,0,0,0,0-.7,2,2,0,0,0-.28-.52,13,13,0,0,0-1.15-1.2,2.17,2.17,0,0,0-1.4-.55c-.24,0-.47,0-.71,0a.69.69,0,0,1-.6-.5,4.48,4.48,0,0,1-.06-.64c0-.31,0-.75,0-1.06a1.28,1.28,0,0,1,1-1.18,3.43,3.43,0,0,1,.46-.11,17.8,17.8,0,0,1,2.06-.24c.44,0,.87,0,1.31-.06.24,0,1.38,0,2.13,0a1.67,1.67,0,0,1,.87.33,2.37,2.37,0,0,1,.73.93,2,2,0,0,1,.16.68,14.58,14.58,0,0,1-.56,5.09"/><path class="cls-1" d="M315.12,105.89c-.11-4-.24-8.61-.32-12.57a.17.17,0,0,0,0-.06A41.66,41.66,0,0,0,319.45,85a6.74,6.74,0,0,0,.33-1.2c0-.11,0-.22-.11-.25s-.25.13-.25.13L314.73,90c0-1.21-.05-2.41-.07-3.62a16.84,16.84,0,0,1,.89-3.84A26.35,26.35,0,0,0,318.32,81c1.68-1.1.55-2.32.07-2.83a6.24,6.24,0,0,0-1-.87,1.58,1.58,0,0,0-1.68-.17,2.33,2.33,0,0,1-.33.14,54.19,54.19,0,0,0-6.46,3.36,19.52,19.52,0,0,1-3.58,1.62c-1.1.33-1.86.7-2.7,0a1,1,0,0,0-.3-.19.14.14,0,0,0-.19.08,1.9,1.9,0,0,0,.19,1.45,5.48,5.48,0,0,0,4.2,2.12,9.74,9.74,0,0,0,4-.7,2,2,0,0,0,0,.25c-1.25,2.78-3.17,7.66-4.19,9.12-.48.69-1,1.36-1.52,2a4.28,4.28,0,0,1-1.42,1.29,3.16,3.16,0,0,0-.48.36.7.7,0,0,0-.26.53c0,.24,0,.49,0,.74.06.69.25,1.84.29,2.08a5.91,5.91,0,0,0,1.11,2.41.93.93,0,0,0,.18.16.85.85,0,0,0,1.18-.11l.38-.49c.27-.38,2.17-2,4.58-4.61l.5-.6c0,.38,0,.75,0,1.13.06,1.72.1,3.45.15,5.17,0,.94,0,2.58,0,3.53l0,.74a1.24,1.24,0,0,0,.48.87,7.55,7.55,0,0,0,2.15,1.22,1.75,1.75,0,0,0,.41.08.8.8,0,0,0,.73-.31,1.8,1.8,0,0,0,.31-1.06c0-.7,0-1.4-.05-2.09,0-.5-.08-1-.09-1.48"/><path class="cls-1" d="M306.49,66.06a3.9,3.9,0,0,1,.78,1.37,5.5,5.5,0,0,0,.38.77,10.93,10.93,0,0,0,2.52,3.24.44.44,0,0,1,.11.57,5.88,5.88,0,0,1-1,1.63,3,3,0,0,0-.23.27c-.08.13,0,.28.14.23A24.48,24.48,0,0,0,312.28,73l1.44-.57a1.78,1.78,0,0,1,1.16-.09,3.46,3.46,0,0,0,1.4,0,1.59,1.59,0,0,0,.77-.32,2.86,2.86,0,0,0,.77-1.21,1.86,1.86,0,0,0-.13-1.53,9.56,9.56,0,0,0-2.84-3.12,2.19,2.19,0,0,0-1.23-.42,3.42,3.42,0,0,0-.71,0,20.5,20.5,0,0,1-2.48.13,3.94,3.94,0,0,1-2-.45,4.24,4.24,0,0,0-1-.33c-1,0-1.26.29-1.09.67a1.37,1.37,0,0,0,.19.23"/><path class="cls-1" d="M345.77,35.37C345.77,28,339.66,22,331.08,22S316.4,28,316.4,35.37v.2c0,7.36,6.11,13.33,14.68,13.33s14.69-6,14.69-13.33v-.2Zm-6.21.16c0,5-3.53,9-8.48,9s-8.47-4-8.47-9V35.4c0-4.95,3.53-9,8.47-9s8.48,4,8.48,9v.13Z"/><polygon class="cls-2" points="164.77 22.8 159.01 22.8 152.56 33.43 146.6 23.63 145.19 22.8 139.09 22.8 149.55 38.45 149.55 48.13 152.56 48.13 155.56 48.13 155.56 38.45 165.67 23.32 164.77 22.8"/><path class="cls-1" d="M178.59,23.52l-1.23-.72h-3L162,48.13h6.68L170.5,44h11.62l1.78,4.12h6.68ZM172.25,40l4.06-9.39L180.37,40Z"/><polygon class="cls-2" points="218.32 22.8 213.19 22.8 213.19 39.6 198.61 23.7 197.08 22.8 193.72 22.8 193.72 48.13 199.73 48.13 199.73 31.82 214.71 48.13 219.2 48.13 219.2 23.31 218.32 22.8"/><path class="cls-2" d="M311.25,22.8h-5.14l0,15c0,2.55-1,6.73-6,6.73s-5.87-3.82-5.87-6.73l0-14.46-.88-.51h-5.14l0,15c0,7.47,4.55,11.13,11.89,11.13,7.17,0,12-3.49,12-11.13l0-14.46Z"/><path class="cls-2" d="M397.91,23.31,397,22.8H391.9l0,15c0,2.55-1,6.73-6,6.73s-5.88-3.82-5.88-6.73l0-14.46-.87-.51H374l0,15c0,7.47,4.55,11.13,11.89,11.13,7.16,0,12-3.49,12-11.13Z"/><polygon class="cls-2" points="367.69 32.94 356.03 32.94 356.03 27.2 369.44 27.2 369.44 23.31 368.56 22.8 350.02 22.8 350.02 48.13 356.03 48.13 356.03 37.34 368.56 37.34 368.56 33.45 367.69 32.94"/><path class="cls-2" d="M251.42,34.65H239.16v4.06h6.54c-.12,3.51-3.82,5.79-7,5.79A8.6,8.6,0,0,1,230,35.57c0-5,3.53-9.14,8.67-9.14a8,8,0,0,1,6.7,3.51l1.26.14L251,28.13C248.37,23.86,243.6,22,238.79,22c-7.87,0-15,5.13-15,13.53,0,8.19,7,13.33,14.68,13.33,8.3,0,14-5.11,14-13.6v0Z"/><path class="cls-2" d="M283.28,34.65H271v4.06h6.54a4.82,4.82,0,0,1-.61,2.2,6.28,6.28,0,0,1-1.53,1.85A7.59,7.59,0,0,1,273.19,44a7.46,7.46,0,0,1-2.66.48,8.54,8.54,0,0,1-3.8-.8A8,8,0,0,1,264,41.62a8.82,8.82,0,0,1-1.64-2.87,9.59,9.59,0,0,1-.55-3.18,10.19,10.19,0,0,1,.53-3.22A9,9,0,0,1,264,29.41a8.53,8.53,0,0,1,2.72-2.15,8.35,8.35,0,0,1,3.81-.83,7.75,7.75,0,0,1,4.25,1.17,7.94,7.94,0,0,1,2.44,2.34l1.27.14,4.39-1.95a11.81,11.81,0,0,0-5-4.52A16.07,16.07,0,0,0,270.65,22a16.68,16.68,0,0,0-6.22,1.1,14.74,14.74,0,0,0-4.74,2.94,13.06,13.06,0,0,0-3.07,14.55,12.57,12.57,0,0,0,2.95,4.24,14.71,14.71,0,0,0,4.62,2.93,17.67,17.67,0,0,0,12.33,0,12.48,12.48,0,0,0,4.38-3,12.27,12.27,0,0,0,2.57-4.33,15.86,15.86,0,0,0,.84-5.16v0Z"/><path class="cls-3" d="M63.78,0a63.78,63.78,0,1,0,63.78,63.78A63.85,63.85,0,0,0,63.78,0Zm0,125A61.21,61.21,0,1,1,125,63.78,61.2,61.2,0,0,1,63.78,125Z"/><circle class="cls-4" cx="63.78" cy="63.78" r="61.21"/><path class="cls-2" d="M103.91,79.82a22.26,22.26,0,0,0,5.76-14.57c.1-4.86-1.22-8.21-2.91-13-1.59-4.52-3.49-9.26-1.12-12.66,1.94-2.77,6.67-2.72,6.67-2.72-1.2-1.05-3.81-1.06-3.81-1.06s.21-1.65-1.86-1.84c-3.38-.3-4.44.62-6.93.54a10,10,0,0,1-7-3.15c1.63,4.78,7.49,5.72,7.49,5.72s-1.81,1.76-2.73,6.36a106.22,106.22,0,0,0-1.35,11.5,3.19,3.19,0,0,1-6.35,0c-.44-3.23.1-12.7-1.1-18.83-1-5.19-5.48-8.79-11-9.2-4.32-.31-13.86.21-19.49-.64a16.42,16.42,0,0,1-9.53-5.13c.35,2.91,1.32,8.27,5.66,10,4.88,1.92,10,1.56,17.7,2.15,7.35.56,7.44,4,7.44,4.72,0,0-7.67.12-14.73-.37A75.27,75.27,0,0,1,54.5,36.37c1.2,3.58,3.6,5.13,8.37,5.9a79.59,79.59,0,0,0,10.93.62C78,43,80,45.29,80,47.37c0,0-4.62,0-10.85-.06a86.48,86.48,0,0,1-14.11-1c1.32,3.89,4.85,5.34,8.77,5.67,3.27.27,8.06.33,11.73.43,3,.08,5,2.73,5,4.26-6.6,0-18.11,0-26.58-.5s-12-5.13-12-6.53V48.5l10.33.1a.36.36,0,0,0,.34-.48l-1.33-3.74a4.37,4.37,0,0,0-4.18-2.89l-5.34,0s.6-10.59.7-13c.08-2-1.48-4-6.64-5.16A12.89,12.89,0,0,0,32.26,23c.31,2.5.9,18.54.9,18.54s-5.5,0-12.49-.24a.36.36,0,0,0-.36.47l1.36,3.84a4.49,4.49,0,0,0,4.29,3l7-.11v1.16A50.19,50.19,0,0,1,21.74,64c-6.2,5.73-10.36,7.24-10.36,7.24s.75.64,1.57,1.2A15.45,15.45,0,0,0,18.08,75c1.76.34,4.43.57,8-3.84,3.49-4.26,7-9.54,7-9.54-.17,5.66-.81,24.93-1,30.76A1.58,1.58,0,0,0,33.71,94h7.47a1.58,1.58,0,0,0,1.58-1.63l-1-32.68c1.62,2.88,9.33,3.87,12.4,3.87H64.8c-2.62,2.59-12.69,7-19.34,8.18a12.18,12.18,0,0,0,10.35,2.17c4.71-1.14,9.14-3.43,16.88-8.12,4.65-2.82,7.5-.74,7.5-.74C74,69.54,69.3,73.28,59.7,77.39a44.53,44.53,0,0,1-14.24,3.68A15,15,0,0,0,56.22,84c5.67-.52,12.41-3.5,22.15-10.26C82.22,71,85.13,73,85.13,73,79.68,77.38,73.5,83.21,62,87.44c-5.73,2.12-11,2.65-16.58,2.9,0,0,4.07,4,11.83,3.71a29.16,29.16,0,0,0,8.49-1.56c4.52-1.44,9.32-3.44,17.29-9.6,4.69-3.63,6.64-1.6,6.64-1.6-6.36,6.83-14.74,17-33.46,17-10.89,0-22.25-1.11-30.41,2.15a32.06,32.06,0,0,0-7.59,4.27c.64.71,1.29,1.41,2,2.08,11.39-4,23.09-2.76,31.43-1.72,11.3,1.42,20.41,1,28.37-2.92a34.68,34.68,0,0,0,11.86-9.61,9.07,9.07,0,0,0,1.4,5.27,13.55,13.55,0,0,0,6.64,5.62,13.35,13.35,0,0,1-3.27-13.7C97.78,86.07,101.2,82.91,103.91,79.82Z"/></g></g></svg>