<svg xmlns="http://www.w3.org/2000/svg" xmlns:xlink="http://www.w3.org/1999/xlink" viewBox="0 0 105.86 95.68"><defs><style>.cls-1{fill:none;}.cls-2{clip-path:url(#clip-path);}.cls-3,.cls-4{fill:#fff;}.cls-3{fill-rule:evenodd;}.cls-5{fill:#eb6100;}</style><clipPath id="clip-path" transform="translate(0 0)"><rect class="cls-1" width="105.86" height="95.68"/></clipPath></defs><g id="图层_2" data-name="图层 2"><g id="图层_1-2" data-name="图层 1"><g class="cls-2"><path class="cls-3" d="M50.47,83.59l-.21.09-.64.3a3.25,3.25,0,0,1-.67.21,1.69,1.69,0,0,1-1.41-.56.19.19,0,0,1,0-.24,2,2,0,0,1,.27-.22,3,3,0,0,1,.68-.31l.9-.32,2-.75.7-.27a.12.12,0,0,0,.06-.17L51.92,81c-.37-.6-.74-1.2-1.1-1.81-.09-.14-.16-.29-.24-.44a1.1,1.1,0,0,1-.15-.77l-.29-.27a.11.11,0,0,1,0-.17c.38-.11.76-.26,1.13-.39s.63-.24.94-.38a20.93,20.93,0,0,1,3.18-1.09,18,18,0,0,1,2.63-.43,6.48,6.48,0,0,1,1.46,0,2.88,2.88,0,0,1,.49.11,2.22,2.22,0,0,0,.89.14h.45a1,1,0,0,1,.62.29.76.76,0,0,1,.19.54,5.2,5.2,0,0,1-.24,1.34A25,25,0,0,0,61.78,81c0,1.53,0,3.06,0,4.59s0,3.32,0,5c0,.88,0,1.75,0,2.62l0,1.21a1.71,1.71,0,0,1-.11.59,1,1,0,0,1-.61.57,1.25,1.25,0,0,1-.95,0,1.48,1.48,0,0,1-.71-.54c-.14-.31-.32-.59-.47-.89a11,11,0,0,0-1-1.48.11.11,0,0,0-.2,0l-.24.5a.41.41,0,0,1-.38.21l-1,0H53.6a17.55,17.55,0,0,0-1.91.15l-1.5.17a3.38,3.38,0,0,1-.45,0,.55.55,0,0,1-.38-.25,4.6,4.6,0,0,0-.45-.54.14.14,0,0,1,0-.18.61.61,0,0,1,.36-.17l1.05-.11a3,3,0,0,0,1-.24,2.48,2.48,0,0,0,.67-.43A41.9,41.9,0,0,0,55.72,88a.7.7,0,0,0,.14-.21s0-.07,0-.09a.08.08,0,0,0-.08,0l-.43.28c-.94.66-1.92,1.28-2.93,1.85a22.47,22.47,0,0,1-2,1,3.8,3.8,0,0,1-.47.18.94.94,0,0,1-1.07-.48.57.57,0,0,1,0-.14,1.87,1.87,0,0,1,0-.25,1,1,0,0,1,.26-.74c.1-.11.22-.2.32-.32A22.81,22.81,0,0,0,51,87.21l.12-.22a.17.17,0,0,0-.13-.23,1.2,1.2,0,0,0-.5,0l-.28.11a4.91,4.91,0,0,1-1.13.22,1.47,1.47,0,0,1-.55-.08.41.41,0,0,1-.29-.32,1,1,0,0,1,.36-1.08l.28-.22a4,4,0,0,0,.78-.7l1.08-1.13s.14-.18-.23,0m3.7-6.39L52.25,78s-.12,0-.15.1.23.13.35.18a.72.72,0,0,1,.38.39A3,3,0,0,1,53,79c.07.28.14.56.19.84a4.4,4.4,0,0,0,.21.85,2.72,2.72,0,0,0,.11.25c.07,0,1.4-.64,2-.93a2.26,2.26,0,0,0,.26-.16.64.64,0,0,0,.13-.15.2.2,0,0,0,0-.23L55.17,79c-.17-.1-.35-.19-.52-.3a1.82,1.82,0,0,1-.29-.27.52.52,0,0,1-.14-.36,1.65,1.65,0,0,1,.09-.7c0-.09.09-.3-.14-.2m1.64-.53c.17.11.31.17.47.26a2.14,2.14,0,0,1,.79.82.78.78,0,0,1-.06.9l-.44.61a.24.24,0,0,0,.06.32l.39.23a.47.47,0,0,1,.2.28.87.87,0,0,1-.58,1.12,10.4,10.4,0,0,0-1.87.74,4.82,4.82,0,0,0-.69.41.15.15,0,0,0,0,.13.62.62,0,0,0,.07.19,24.88,24.88,0,0,0,2,3.44c.13.2.29.38.43.56l0,0a.13.13,0,0,0,.21,0,4.37,4.37,0,0,0,.85-1.9,4,4,0,0,1,.21-.67A.42.42,0,0,1,58,84a.39.39,0,0,1,.43,0,4.76,4.76,0,0,1,.88.67.45.45,0,0,1,.12.27.73.73,0,0,1-.08.48c-.09.15,0,.08-.13.21l-.73.89c-.33.38-.66.76-1,1.15-.1.11-.1.18,0,.31l1,1.23a4.27,4.27,0,0,0,.44.41,2.19,2.19,0,0,0,.35.27c.13.06.38.19.41-.13a1,1,0,0,0,0-.25c0-.82,0-10.31,0-12.54a2.26,2.26,0,0,0,0-.26.28.28,0,0,0-.09-.17,1.59,1.59,0,0,0-.57-.31A2.64,2.64,0,0,0,58,76.12a12.63,12.63,0,0,0-1.63.29l-.44.14s-.15.06-.08.12m4,15.62c0-.08-.13-.15-.2-.21A10.4,10.4,0,0,1,58,90.56c-.4-.47-.78-1-1.17-1.44-.09-.11-.16-.22-.25-.32a.13.13,0,0,0-.17,0l-.15.14a28.25,28.25,0,0,1-3.42,3l-.11.09s0,0,0,0,0,.06.07.06l1.25-.08h.15l1.3-.16a4.44,4.44,0,0,0,1.08-.24,1.15,1.15,0,0,1,1.13.19l.44.34,1,.7.32.23a.19.19,0,0,0,.28-.15,3.89,3.89,0,0,0,0-.69m-4.37-5.08s0-.09-.05-.14c-.59-.94-1.11-1.91-1.63-2.89-.15-.3-.32-.59-.48-.88l-.08-.13a.12.12,0,0,0-.21,0c-.44.43-.89.87-1.29,1.34a.24.24,0,0,0-.06.08.09.09,0,0,0,0,.09.1.1,0,0,0,.08,0,2,2,0,0,1,.55,0,1,1,0,0,1,.64.41,1.24,1.24,0,0,1-.13,1.54,20.1,20.1,0,0,1-1.36,1.55,4.84,4.84,0,0,0-.71.91,0,0,0,0,0,0,0s0,0,.08,0a.63.63,0,0,0,.19,0c.6-.22,1.2-.43,1.8-.66.82-.32,1.63-.69,2.42-1.09.09-.05.19-.08.23-.19" transform="translate(0 0)"/><path class="cls-3" d="M45.86,86.8c0-1.48,0-3-.12-4.43-.05-1.08-.07-2.15-.19-3.22A3.16,3.16,0,0,0,45,77.7c-.17-.26-.36-.52-.55-.78a.15.15,0,0,1,0-.23.82.82,0,0,1,.58-.25,7.61,7.61,0,0,1,1.17.12,1.67,1.67,0,0,1,1.34,1.34,2,2,0,0,1-.05,1.3,4.08,4.08,0,0,0-.15,1c0,.6-.06,1.21-.08,1.81-.07,1.74,0,3.49,0,5.23s.07,3.53.11,5.29c0,.2,0,.4,0,.6s0,.57,0,.86a.92.92,0,0,1-.11.43.26.26,0,0,1-.26.13.58.58,0,0,1-.14,0,2.52,2.52,0,0,1-.75-.5.56.56,0,0,1-.17-.36c0-.1,0-.2,0-.3,0-.39,0-.77,0-1.16,0-.7,0-1.41,0-2.11,0-1.09-.07-2.18-.1-3.27h0" transform="translate(0 0)"/><path class="cls-3" d="M41.2,82.46,40.46,82a1.31,1.31,0,0,0-.27-.12.41.41,0,0,0-.34.05.46.46,0,0,0-.07.07,1.45,1.45,0,0,1-.69.39l-2.51.76c-.45.14-.47.13-.46-.36s0-1.21.06-1.82l.06-2.87A2.71,2.71,0,0,1,36.47,77c.1-.25.19-.5.28-.75a1.86,1.86,0,0,0,.1-.39.43.43,0,0,0,0-.25,1.36,1.36,0,0,0-.34-.49.86.86,0,0,0-.53-.26l-.7,0a.36.36,0,0,0-.27.12,2.18,2.18,0,0,1-.47.38,18.24,18.24,0,0,1-1.63.89.15.15,0,0,0-.06.21.75.75,0,0,0,.31.25,2.46,2.46,0,0,0,.59.16.47.47,0,0,0,.42-.09,3,3,0,0,1,.43-.25s.12,0,.12.06a1.2,1.2,0,0,1,0,.2c0,.77-.09,1.54-.13,2.31,0,0,0,.08,0,.09s-.06,0-.08,0a.65.65,0,0,0-.67-.09c-.17.07-.73.32-.84.35s-.17.07-.24,0,0-.14,0-.21,0-.4,0-.6c0-.42.05-.84.07-1.26,0-.16,0-.33,0-.5a.34.34,0,0,0-.14-.26l-.49-.34A1,1,0,0,0,31.6,76h-.91a.73.73,0,0,0-.54.3.08.08,0,0,0,0,.11l.24.17A1.53,1.53,0,0,1,31.18,78v.35c0,.27,0,.53,0,.8l-.09,3.48a2.28,2.28,0,0,0,.06.64.92.92,0,0,0,.45.58.76.76,0,0,0,.33.11.43.43,0,0,0,.48-.26c.13-.3.21-.31.35-.34l1-.2.31,0a.28.28,0,0,1,.25.1,1.73,1.73,0,0,1,.3.41c0,.2-.42.28-.51.31L33,84.18c-1,.26-3.19.79-3.55.88s-.15,0-.41.07A1.55,1.55,0,0,1,28,85.05h-.1s-.12.06-.1.25a1.64,1.64,0,0,0,1.51,1.38,1,1,0,0,0,.34-.06l1-.32c1-.3,2.69-.94,3.68-1.23,0,0,.17-.06.11,0s-4.16,2.43-4.73,2.8a1.08,1.08,0,0,1-.55.23.4.4,0,0,0-.26.14,1.76,1.76,0,0,0-.36.54,1.82,1.82,0,0,0-.11.38.61.61,0,0,0,0,.3,1,1,0,0,0,.39.57.23.23,0,0,0,.24,0l.64-.45c.88-.53.88-.59,1.76-1.13l.2-.12c.17-.08.35.11.36.3a.83.83,0,0,1-.11.43,9.52,9.52,0,0,1-1.11,1.45,7.06,7.06,0,0,1-.66.68l-.16,0a.09.09,0,0,0-.09,0,1.15,1.15,0,0,0-.3.56.14.14,0,0,0,.11.15h.15a1.71,1.71,0,0,0,.91-.25,5.21,5.21,0,0,0,.77-.56c.24-.23.64-.55.88-.78s.36-.36.53-.54a.53.53,0,0,1,.26-.15,4.42,4.42,0,0,1,1.15,0,.33.33,0,0,1,.14,0,.27.27,0,0,1,.17.33,3,3,0,0,1-.17.41,4,4,0,0,1-.28.43A6.8,6.8,0,0,1,33,92.06a3.87,3.87,0,0,1-1.64.83c-.07,0-.43.09-.54.13a.09.09,0,0,0-.07.06.14.14,0,0,0,0,.09,1.57,1.57,0,0,0,1.05.19,4.73,4.73,0,0,0,1.31-.31,4.07,4.07,0,0,0,1-.52,8.17,8.17,0,0,0,1.84-1.78,6.61,6.61,0,0,1,.63-.77.68.68,0,0,0,.15-.26,2,2,0,0,0,0-1.29.62.62,0,0,0-.38-.38,1,1,0,0,0-.78,0l-.4.22a4.15,4.15,0,0,1-1.22.44.51.51,0,0,1-.36,0,1.27,1.27,0,0,0,0-.28,1,1,0,0,0-.08-.29.31.31,0,0,1,.13-.35,1.68,1.68,0,0,1,.65-.26,8.27,8.27,0,0,1,2,0,3.55,3.55,0,0,1,.65.12A1.62,1.62,0,0,1,38.19,89a1.7,1.7,0,0,1,0,.55,4.09,4.09,0,0,1-.68,1.77c-.26.39-.54.76-.84,1.13a4.64,4.64,0,0,1-.91.86,3.73,3.73,0,0,1-1.66.68,7.44,7.44,0,0,1-1.56.16h-.2c-.08,0-.36,0,0,.34a5.16,5.16,0,0,0,1.88.7,4.11,4.11,0,0,0,1.88-.07,2.58,2.58,0,0,0,1-.58c.33-.31.66-.62,1-1a21.42,21.42,0,0,0,1.31-1.75,5,5,0,0,0,.73-1.48,5.15,5.15,0,0,0,0-2.14,1.77,1.77,0,0,0-.47-.92,4,4,0,0,0-1.36-.94A4.49,4.49,0,0,0,37,86.11c-.37,0-.79,0-1.16,0-.17,0-.71.14-.6.06.37-.25,2.21-1.85,2.36-1.89.53-.15,2.09-.5,2.64-.61.29-.08.6-.11.89-.19s.37-.13.39-.38a.6.6,0,0,0-.28-.6m-6.62-2a6,6,0,0,1-.1,1.59c0,.07-.1,0-.14,0a1.58,1.58,0,0,0-.83.08c-.22.07-.45.13-.67.21s-.28,0-.28-.17c0-.59,0-1.18,0-1.76,0,0,0-.11,0-.16a.19.19,0,0,1,.17-.16h.9l.76-.08a.1.1,0,0,1,.12.08,2.14,2.14,0,0,1,0,.36" transform="translate(0 0)"/><path class="cls-3" d="M27.22,85.56c.29-.46.58-.92.86-1.39A8.26,8.26,0,0,0,28.64,83s0-.07,0-.09-.07,0-.08,0l-.26.3c-.41.46-.82.93-1.2,1.42-.24.32-.48.62-.73.93l-.16.18c0-.69,0-1.38,0-2.07.26-.1.58-.26.82-.36a4.38,4.38,0,0,0,.92-.51,2,2,0,0,0,.59-.64,1.06,1.06,0,0,0,.15-.42.39.39,0,0,0-.2-.46,1.28,1.28,0,0,0-.25-.15c-.2-.09-.41-.17-.61-.27a.67.67,0,0,0-.67,0,4,4,0,0,1-.62.31.11.11,0,0,1-.16-.12c0-.15,0-.3,0-.45,0-.74,0-1.59,0-2.34,0-.3,0-.6.08-.9a1.7,1.7,0,0,1,.26-.8,1.54,1.54,0,0,0,.11-.3c.1-.36-.16-.57-.43-.79a4,4,0,0,0-1.39-.38,1.44,1.44,0,0,0-1.07.2c-.13.08-.25.2-.13.32a3.42,3.42,0,0,1,.45.51,2.84,2.84,0,0,1,.32,1.24c.08,1.62.13,2.9.12,4.32h0a.44.44,0,0,1-.23.45c-.43.28-.95.55-1.38.83s-.64.43-1,.63a2.63,2.63,0,0,1-1,.43c-.19,0-.64.08-.76.09l-.09,0c-.07,0-.16.07-.06.18a1.45,1.45,0,0,0,.71.38,3.87,3.87,0,0,0,1.12.1,9.67,9.67,0,0,0,1.83-.27l.63-.21,0,0a.08.08,0,0,1,0,0l-.15.31a29.9,29.9,0,0,1-2.8,4.85,2.19,2.19,0,0,1-.52.59.44.44,0,0,0-.19.22,1.15,1.15,0,0,0,0,.48l.12.64.09.28a.31.31,0,0,0,.34.22,1.35,1.35,0,0,0,.56-.28,25.94,25.94,0,0,0,2.17-2l.53-.65c0,.5,0,1,0,1.48l0,2.12v1.45a.5.5,0,0,0,.19.36,3,3,0,0,0,.87.52l.17,0a.33.33,0,0,0,.3-.12.88.88,0,0,0,.14-.44c0-.28,0-.57,0-.85s0-.41,0-.61c0-1.76,0-3.52,0-5.28v-.66l.13-.16c.3-.45.6-.9.89-1.36" transform="translate(0 0)"/><path class="cls-3" d="M85.87,87.66a1.21,1.21,0,0,0-.52-.9A2.83,2.83,0,0,0,84,86.31a7.45,7.45,0,0,0-1.25,0,16.15,16.15,0,0,0-2.28.32c-.72.13-1.36.28-2.2.5l-1.9.53a2.11,2.11,0,0,0-.54.22.09.09,0,0,0,0,.14,5,5,0,0,0,.35.43.41.41,0,0,0,.17.12.88.88,0,0,0,.28,0l.67-.12.62,0c.12,0,.22.18.28.28a1.16,1.16,0,0,1,.07.31,1.14,1.14,0,0,1,.06.45.38.38,0,0,1-.25.33c-.35.12-.79.25-1.14.38a3,3,0,0,0-.32.12.45.45,0,0,0-.19.15.2.2,0,0,0,0,.2,1.63,1.63,0,0,0,.11.17.38.38,0,0,0,.33.18h.92l.38,0a.26.26,0,0,1,.23.22,4.1,4.1,0,0,1,0,1,.23.23,0,0,1-.18.2l-1.35.39-.23.07a.32.32,0,0,1-.27-.06,1,1,0,0,1-.27-.35c-.27-.58-.53-1.1-.76-1.57A5.21,5.21,0,0,1,74.91,89a1.87,1.87,0,0,1,.13-.92,5.36,5.36,0,0,1,1.82-2,5.68,5.68,0,0,1,2.42-1,14.24,14.24,0,0,1,1.88-.14,2.58,2.58,0,0,0,.84-.08.53.53,0,0,0,.33-.82c-.08-.11-.17-.2-.24-.3a.39.39,0,0,1,0-.46c.09-.15.19-.3.27-.46a2.21,2.21,0,0,1,.39-.52c.19-.16.35-.24.52-.41a.73.73,0,0,0,.23-.7,1.27,1.27,0,0,0-.16-.51.84.84,0,0,0-.58-.47,6.58,6.58,0,0,0-2.33,0,8,8,0,0,0-2.4.69c-.19.08-.46.18-.65.28s-.25.09-.34,0a.28.28,0,0,1,0-.28,9.94,9.94,0,0,1,1.16-1.11,24.71,24.71,0,0,1,2.09-1.59,4.61,4.61,0,0,1,.75-.44c.48-.23,1.45-.37,1.93-.62a1.3,1.3,0,0,0,.31-.21.45.45,0,0,0,.14-.31c0-.27-.09-.49-.39-.88a1.68,1.68,0,0,0-.89-.35c-.51-.09-.6.16-.9.26s-1.22.29-2,.48c-.43.1-2.44.48-3,.61a.88.88,0,0,0-.26.12c-.3.18-.48.33-.43.69,0,.07.23,0,.34,0a.9.9,0,0,1,.51.1l.48.25A1.48,1.48,0,0,0,78,78c.09,0,.63-.13.66-.06s0,.26-.1.34c-.91.94-2,1.74-2.72,2.54a3.22,3.22,0,0,0-.54.69,1,1,0,0,0,.17,1,4.47,4.47,0,0,0,.35.41,9.15,9.15,0,0,1,1.06,1.51c.13.22,0,.39-.23.67-.87.9-2.06,2.1-2.28,2.3a1.85,1.85,0,0,0-.52.76,3.67,3.67,0,0,0-.21,1.18,5.53,5.53,0,0,0,.12,1.34c.08.35.18.7.29,1A10.72,10.72,0,0,0,74.64,93a4.1,4.1,0,0,0,.64.89,3.63,3.63,0,0,0,.8.66c.33.16.5-.25.53-.47s.09-.17.35-.22a18,18,0,0,1,2-.1,12.34,12.34,0,0,1,2.29.19,1.11,1.11,0,0,1,.81.77.5.5,0,0,0,.32.27A1,1,0,0,0,83,95a1,1,0,0,0,.43-.28c.18-.19.27-.35.45-.54a3.41,3.41,0,0,0,.75-1.32,22.77,22.77,0,0,0,.85-2.53,13.2,13.2,0,0,0,.4-2.66m-8-5.4a3.31,3.31,0,0,1,.42-.12,9.53,9.53,0,0,1,1.27-.23,2.09,2.09,0,0,1,.86,0,.28.28,0,0,1,.19.25c0,.1,0,.2,0,.3a.89.89,0,0,1-.29.76,8,8,0,0,1-1.61.57.62.62,0,0,1-.65-.16,1.12,1.12,0,0,1-.25-.35,4.19,4.19,0,0,1-.2-.49.47.47,0,0,1,.25-.57m5.5,8.17A8.61,8.61,0,0,1,83,91.49a2.49,2.49,0,0,1-.77.93.67.67,0,0,1-.49.16,2.58,2.58,0,0,1-.29,0c-.43-.07-.86-.14-1.3-.17a.29.29,0,0,1-.28-.33c0-.31,0-.68,0-1a.29.29,0,0,1,.29-.28l.58,0c.11,0,.22,0,.34,0a.66.66,0,0,0,.62-.46.41.41,0,0,0,0-.29.88.88,0,0,0-.12-.21,5.44,5.44,0,0,0-.47-.49.85.85,0,0,0-.57-.22h-.29a.29.29,0,0,1-.25-.2,2.46,2.46,0,0,1,0-.26c0-.13,0-.31,0-.44a.51.51,0,0,1,.42-.48l.18,0a7.89,7.89,0,0,1,.85-.09l.53,0c.1,0,.57,0,.88,0a.55.55,0,0,1,.35.14,1,1,0,0,1,.3.37.71.71,0,0,1,.06.28,5.87,5.87,0,0,1-.23,2.08" transform="translate(0 0)"/><path class="cls-3" d="M72,92.87c0-1.61-.1-3.52-.13-5.13a.08.08,0,0,0,0,0,17.26,17.26,0,0,0,1.89-3.37,3.13,3.13,0,0,0,.13-.49s0-.09,0-.11-.1.06-.1.06l-1.92,2.58,0-1.48a7.37,7.37,0,0,1,.36-1.57,10.69,10.69,0,0,0,1.13-.65c.69-.45.23-1,0-1.16a3.3,3.3,0,0,0-.41-.36.66.66,0,0,0-.69-.07l-.14.06a24.46,24.46,0,0,0-2.64,1.37,7.9,7.9,0,0,1-1.46.67c-.45.13-.76.28-1.11,0a.36.36,0,0,0-.12-.08.06.06,0,0,0-.08,0,.83.83,0,0,0,.08.6,2.24,2.24,0,0,0,1.72.86,3.92,3.92,0,0,0,1.62-.28v.1a38.85,38.85,0,0,1-1.71,3.73c-.19.28-.41.56-.62.83a1.73,1.73,0,0,1-.58.53.9.9,0,0,0-.19.15.27.27,0,0,0-.11.22c0,.1,0,.2,0,.3,0,.28.11.75.12.85a2.55,2.55,0,0,0,.45,1l.08.06A.34.34,0,0,0,68,92l.16-.19c.11-.16.89-.82,1.87-1.89l.21-.24c0,.15,0,.3,0,.46,0,.7,0,1.41.06,2.11,0,.39,0,1.06,0,1.44,0,.1,0,.2,0,.31a.51.51,0,0,0,.19.35,3,3,0,0,0,.88.5.47.47,0,0,0,.17,0,.33.33,0,0,0,.3-.12.78.78,0,0,0,.13-.44c0-.28,0-.57,0-.85s0-.4,0-.61" transform="translate(0 0)"/><path class="cls-3" d="M68.46,76.59a1.54,1.54,0,0,1,.31.56c0,.1.1.21.16.31a4.62,4.62,0,0,0,1,1.33A.17.17,0,0,1,70,79a2.39,2.39,0,0,1-.42.66l-.09.12s0,.11,0,.09a11.42,11.42,0,0,0,1.28-.45l.58-.24a.79.79,0,0,1,.48,0,1.35,1.35,0,0,0,.57,0,.7.7,0,0,0,.31-.14,1,1,0,0,0,.32-.49.78.78,0,0,0,0-.63,4,4,0,0,0-1.16-1.27.85.85,0,0,0-.51-.17,1.43,1.43,0,0,0-.29,0,8.43,8.43,0,0,1-1,.06,1.61,1.61,0,0,1-.83-.19,1.61,1.61,0,0,0-.42-.13c-.41,0-.51.12-.44.27l.08.1" transform="translate(0 0)"/><path class="cls-3" d="M84.52,64c0-3-2.5-5.45-6-5.45s-6,2.44-6,5.45v.08c0,3,2.5,5.46,6,5.46s6-2.44,6-5.46V64ZM82,64.1a3.47,3.47,0,1,1-6.93,0v0a3.47,3.47,0,1,1,6.93,0v0Z" transform="translate(0 0)"/><polygon class="cls-4" points="10.5 58.89 8.14 58.89 5.5 63.24 3.07 59.23 2.49 58.89 0 58.89 4.28 65.29 4.28 69.25 5.5 69.25 6.74 69.25 6.74 65.29 10.87 59.11 10.5 58.89"/><path class="cls-3" d="M16.15,59.19l-.5-.3H14.43l-5,10.36h2.73l.73-1.68h4.75l.73,1.68h2.74Zm-2.59,6.73,1.66-3.85,1.66,3.85Z" transform="translate(0 0)"/><polygon class="cls-4" points="32.4 58.89 30.3 58.89 30.3 65.76 24.34 59.26 23.71 58.89 22.34 58.89 22.34 69.25 24.8 69.25 24.8 62.58 30.92 69.25 32.76 69.25 32.76 59.1 32.4 58.89"/><path class="cls-4" d="M70.4,58.89H68.3l0,6.13c0,1-.4,2.75-2.45,2.75s-2.4-1.56-2.4-2.75V59.1l-.36-.21H61V65c0,3,1.86,4.55,4.86,4.55s4.9-1.43,4.9-4.55V59.1Z" transform="translate(0 0)"/><path class="cls-4" d="M105.85,59.1l-.36-.21h-2.1V65c0,1-.4,2.75-2.44,2.75S98.55,66.21,98.55,65V59.1l-.36-.21h-2.1l0,6.13c0,3,1.85,4.55,4.86,4.55s4.9-1.43,4.9-4.55Z" transform="translate(0 0)"/><polygon class="cls-4" points="93.48 63.04 88.72 63.04 88.72 60.69 94.2 60.69 94.2 59.1 93.84 58.89 86.26 58.89 86.26 69.25 88.72 69.25 88.72 64.84 93.84 64.84 93.84 63.25 93.48 63.04"/><path class="cls-4" d="M45.94,63.74h-5V65.4H43.6a2.78,2.78,0,0,1-2.88,2.37,3.52,3.52,0,0,1-3.56-3.65,3.56,3.56,0,0,1,3.55-3.74,3.26,3.26,0,0,1,2.74,1.44l.51,0,1.8-.8a5.66,5.66,0,0,0-5-2.49c-3.22,0-6.15,2.1-6.15,5.54s2.85,5.45,6,5.45c3.4,0,5.74-2.09,5.74-5.56v0Z" transform="translate(0 0)"/><path class="cls-4" d="M59,63.74H54V65.4h2.68a2,2,0,0,1-.25.9,2.69,2.69,0,0,1-.63.76,3.28,3.28,0,0,1-2,.71,3.44,3.44,0,0,1-1.55-.33,3.3,3.3,0,0,1-1.12-.85,3.79,3.79,0,0,1-.67-1.17,4,4,0,0,1-.22-1.3,4.06,4.06,0,0,1,.22-1.32,3.53,3.53,0,0,1,.66-1.2,3.36,3.36,0,0,1,1.11-.88,3.31,3.31,0,0,1,1.55-.34,3.25,3.25,0,0,1,2.74,1.44l.52,0,1.8-.8a4.87,4.87,0,0,0-2-1.84,6.61,6.61,0,0,0-2.94-.65,6.84,6.84,0,0,0-2.54.45,5.86,5.86,0,0,0-1.94,1.21A5.13,5.13,0,0,0,48.08,62a5.3,5.3,0,0,0-.43,2.13,5.37,5.37,0,0,0,.41,2.06,5.1,5.1,0,0,0,1.21,1.74,5.88,5.88,0,0,0,1.89,1.2,6.5,6.5,0,0,0,2.49.45,6.6,6.6,0,0,0,2.55-.46,4.87,4.87,0,0,0,2.84-3A6.49,6.49,0,0,0,59.39,64v0Z" transform="translate(0 0)"/><path class="cls-4" d="M52.93,0A26.07,26.07,0,1,0,79,26.06,26.09,26.09,0,0,0,52.93,0m0,51.08a25,25,0,1,1,25-25,25,25,0,0,1-25,25" transform="translate(0 0)"/><path class="cls-5" d="M77.94,26.06a25,25,0,1,1-25-25,25,25,0,0,1,25,25" transform="translate(0 0)"/><path class="cls-4" d="M69.33,32.62a9.13,9.13,0,0,0,2.35-5.95,14,14,0,0,0-1.19-5.33c-.65-1.85-1.42-3.78-.45-5.17.79-1.14,2.72-1.12,2.72-1.12a3,3,0,0,0-1.56-.43s.09-.67-.76-.75a22.66,22.66,0,0,0-2.83.22,4,4,0,0,1-2.85-1.29c.66,2,3,2.34,3,2.34a5.27,5.27,0,0,0-1.11,2.6,42.47,42.47,0,0,0-.55,4.7,1.3,1.3,0,0,1-2.6,0c-.17-1.32,0-5.19-.45-7.69A4.76,4.76,0,0,0,58.59,11c-1.76-.13-5.66.08-8-.26a6.74,6.74,0,0,1-3.89-2.1c.14,1.19.54,3.38,2.31,4.07,2,.79,4.1.64,7.23.88s3,1.65,3,1.93c0,0-3.14.05-6-.15a31.07,31.07,0,0,1-4.16-.49c.49,1.47,1.47,2.1,3.42,2.42a33.77,33.77,0,0,0,4.46.25c1.72,0,2.54,1,2.54,1.83l-4.43,0a34.11,34.11,0,0,1-5.77-.4c.54,1.59,2,2.19,3.59,2.32,1.33.11,3.29.13,4.79.18a2.12,2.12,0,0,1,2,1.74c-2.7,0-7.4,0-10.87-.21S44,20.87,44,20.29v-.47l4.22,0a.15.15,0,0,0,.14-.19l-.55-1.53A1.77,1.77,0,0,0,46.1,17l-2.19,0s.25-4.33.29-5.34c0-.83-.6-1.61-2.71-2.11a5.33,5.33,0,0,0-1.44-.13c.13,1,.37,7.58.37,7.58s-2.25,0-5.11-.1a.14.14,0,0,0-.14.19l.55,1.57a1.84,1.84,0,0,0,1.75,1.23l2.87-.05v.47a20.3,20.3,0,0,1-4.59,5.87,14.65,14.65,0,0,1-4.23,3,7.7,7.7,0,0,0,.64.49,6.29,6.29,0,0,0,2.09,1c.72.14,1.81.23,3.29-1.57s2.88-3.9,2.88-3.9c-.07,2.31-.33,10.19-.42,12.57a.64.64,0,0,0,.64.67h3a.65.65,0,0,0,.65-.67L43.92,24.4C44.58,25.58,47.73,26,49,26h4.36c-1.07,1.06-5.19,2.88-7.91,3.34a5,5,0,0,0,4.23.89c1.93-.47,3.74-1.4,6.9-3.32,1.9-1.15,3.06-.3,3.06-.3a37.38,37.38,0,0,1-8.37,5,18,18,0,0,1-5.82,1.51,6.16,6.16,0,0,0,4.4,1.18c2.32-.21,5.07-1.43,9-4.19a2.51,2.51,0,0,1,2.77-.31c-2.24,1.81-4.76,4.19-9.44,5.92a21.25,21.25,0,0,1-6.78,1.19,6.83,6.83,0,0,0,4.84,1.51,11.9,11.9,0,0,0,3.46-.63,21,21,0,0,0,7.07-3.93c1.92-1.48,2.71-.65,2.71-.65-2.59,2.79-6,7-13.67,6.94-4.45,0-9.09-.45-12.42.88a13,13,0,0,0-3.1,1.74c.26.29.52.58.8.85C39.78,42,44.56,42.5,48,42.93c4.62.58,8.34.42,11.59-1.19a14.19,14.19,0,0,0,4.85-3.93A3.66,3.66,0,0,0,65,40a5.54,5.54,0,0,0,2.71,2.3,5.45,5.45,0,0,1-1.33-5.6c.46-1.49,1.86-2.78,3-4" transform="translate(0 0)"/></g></g></g></svg>