<svg xmlns="http://www.w3.org/2000/svg" xmlns:xlink="http://www.w3.org/1999/xlink" viewBox="0 0 279.81 14.76"><defs><style>.cls-1{fill:none;}.cls-2{clip-path:url(#clip-path);}.cls-3{fill:#fff;}</style><clipPath id="clip-path" transform="translate(0 0)"><rect class="cls-1" width="279.81" height="14.76"/></clipPath></defs><g id="图层_2" data-name="图层 2"><g id="图层_1-2" data-name="图层 1"><g class="cls-2"><path class="cls-3" d="M198.8,2.09h8.73a.16.16,0,0,0,.17-.17V.79a.17.17,0,0,0-.17-.17H198.8a.18.18,0,0,0-.17.17V1.92a.17.17,0,0,0,.17.17" transform="translate(0 0)"/><path class="cls-3" d="M184.42,2.9h4.87a.17.17,0,0,0,.17-.17V1.6a.17.17,0,0,0-.17-.18h-4.87a.17.17,0,0,1-.17-.17V.17a.18.18,0,0,0-.17-.17h-1.62a.18.18,0,0,0-.17.17V1.25a.17.17,0,0,1-.17.17h-4.87a.17.17,0,0,0-.17.18V2.73a.17.17,0,0,0,.17.17h4.87a.18.18,0,0,1,.17.17v1.1a.18.18,0,0,1-.17.18H176a.17.17,0,0,0-.18.17V5.65a.18.18,0,0,0,.18.17h2.72a.16.16,0,0,1,.17.14,4,4,0,0,0,.58,1.46.11.11,0,0,1-.09.16H177a.18.18,0,0,0-.17.18V9a.18.18,0,0,0,.17.17h5.12a.18.18,0,0,1,.18.17v1.1a.18.18,0,0,1-.18.18h-5.77a.17.17,0,0,0-.17.17V12a.17.17,0,0,0,.17.17h5.77a.18.18,0,0,1,.18.18v2.25a.16.16,0,0,0,.17.17h1.64a.16.16,0,0,0,.17-.17V12.3a.18.18,0,0,1,.18-.18h5.77a.16.16,0,0,0,.17-.17v-1.2a.16.16,0,0,0-.17-.17h-5.77a.18.18,0,0,1-.18-.18V9.3a.18.18,0,0,1,.18-.17h5.12a.18.18,0,0,0,.17-.17V7.76a.18.18,0,0,0-.17-.18h-2.44a.1.1,0,0,1-.08-.16A4.26,4.26,0,0,0,187.61,6a.17.17,0,0,1,.17-.14h2.73a.18.18,0,0,0,.17-.17V4.52a.17.17,0,0,0-.17-.17h-6.09a.18.18,0,0,1-.17-.18V3.07a.18.18,0,0,1,.17-.17m.39,4.68h-3.08a.15.15,0,0,1-.14-.07A4.7,4.7,0,0,1,180.8,6a.1.1,0,0,1,.1-.13h4.74a.1.1,0,0,1,.1.13A4.7,4.7,0,0,1,185,7.51a.15.15,0,0,1-.14.07" transform="translate(0 0)"/><path class="cls-3" d="M196.82,2A5.53,5.53,0,0,0,196,.34a.16.16,0,0,0-.14-.08h-1.35a.18.18,0,0,0-.14.27,5.52,5.52,0,0,1,.7,1.55.17.17,0,0,0,.16.13h1.41a.17.17,0,0,0,.17-.21" transform="translate(0 0)"/><path class="cls-3" d="M224.39,3a9.38,9.38,0,0,0-1-2.21.18.18,0,0,0-.15-.08H222a.17.17,0,0,0-.15.26,9.21,9.21,0,0,1,.91,2.13.17.17,0,0,0,.17.12h1.32a.17.17,0,0,0,.16-.22" transform="translate(0 0)"/><path class="cls-3" d="M198.75,14.41h8.84a.17.17,0,0,0,.17-.17V8.08a.17.17,0,0,0-.17-.17h-8.84a.17.17,0,0,0-.17.17v6.16a.17.17,0,0,0,.17.17m5.47-5.09h1.64a.18.18,0,0,1,.17.17v.84a.18.18,0,0,1-.17.17h-1.64a.18.18,0,0,1-.18-.17V9.49a.18.18,0,0,1,.18-.17m0,2.53h1.64A.18.18,0,0,1,206,12v.8a.17.17,0,0,1-.17.17h-1.64a.17.17,0,0,1-.18-.17V12a.18.18,0,0,1,.18-.17m-3.74-2.53h1.64a.17.17,0,0,1,.17.17v.84a.17.17,0,0,1-.17.17h-1.64a.17.17,0,0,1-.17-.17V9.49a.17.17,0,0,1,.17-.17m0,2.53h1.64a.17.17,0,0,1,.17.17v.8a.16.16,0,0,1-.17.17h-1.64a.16.16,0,0,1-.17-.17V12a.17.17,0,0,1,.17-.17" transform="translate(0 0)"/><path class="cls-3" d="M192.92,2.89V4a.18.18,0,0,0,.18.17h3.17a.17.17,0,0,1,.16.23,9.61,9.61,0,0,1-3.7,4.29.19.19,0,0,0-.07.14v1.37a.17.17,0,0,0,.25.15,11.83,11.83,0,0,0,1.76-1.24.13.13,0,0,1,.22.1v5.29a.17.17,0,0,0,.17.17h1.41a.17.17,0,0,0,.17-.17v-6a.1.1,0,0,1,.16-.07l1.13,1a.17.17,0,0,0,.28-.13V7.87a.18.18,0,0,0-.05-.12c-.46-.44-.84-.77-1.07-1a.16.16,0,0,1,0-.22,7.08,7.08,0,0,0,1.29-3.67.17.17,0,0,0-.17-.18H193.1a.18.18,0,0,0-.18.18" transform="translate(0 0)"/><path class="cls-3" d="M206.72,3h-7.1a.17.17,0,0,0-.17.17V6.84a.17.17,0,0,0,.17.17h7.1a.17.17,0,0,0,.17-.17V3.15a.17.17,0,0,0-.17-.17M205,5.6h-3.58a.18.18,0,0,1-.17-.18V4.57a.18.18,0,0,1,.17-.18H205a.18.18,0,0,1,.17.18v.85a.18.18,0,0,1-.17.18" transform="translate(0 0)"/><path class="cls-3" d="M249.26.05h-1.41a.17.17,0,0,0-.18.17V12.4a.16.16,0,0,1-.13.17c-.31.07-.62.13-.94.18a.17.17,0,0,1-.2-.17V2.89a.18.18,0,0,0-.17-.17h-1.42a.17.17,0,0,0-.17.17v10a.17.17,0,0,1-.16.17c-.26,0-.51,0-.76.05a.17.17,0,0,0-.16.17v1.27a.17.17,0,0,0,.18.17c4.91-.37,7.16-1.27,7.64-1.48a.18.18,0,0,0,.1-.16V11.77a.18.18,0,0,0-.23-.17c-.29.1-.86.27-1.6.47a.16.16,0,0,1-.21-.16V6.61a.17.17,0,0,1,.17-.17h1.7a.18.18,0,0,0,.17-.17V5a.18.18,0,0,0-.17-.17h-1.7a.17.17,0,0,1-.17-.17V.22a.17.17,0,0,0-.18-.17" transform="translate(0 0)"/><path class="cls-3" d="M222.94,10V6.47a.17.17,0,0,0-.17-.17h-1.35a.16.16,0,0,0-.17.17v3.6h0c0,1.73.11,2.48.59,3.16,1,1.5,3.08,1.35,3.65,1.28a.17.17,0,0,0,.14-.17V13.23a.16.16,0,0,0-.17-.17c-2,0-2.52-.48-2.52-3.1" transform="translate(0 0)"/><path class="cls-3" d="M255.09,12.16a3.1,3.1,0,0,1-1-2.58V7.1a.18.18,0,0,1,.12-.17,11.2,11.2,0,0,0,3.27-1.61.55.55,0,0,0,.19-.42V3.59a.14.14,0,0,0-.23-.12,13.21,13.21,0,0,1-3.12,1.64.17.17,0,0,1-.23-.16V.23a.17.17,0,0,0-.17-.17h-1.42a.17.17,0,0,0-.17.17V9.88a4,4,0,0,0,2.12,3.95,6.87,6.87,0,0,0,3.85.64.18.18,0,0,0,.15-.18V13a.14.14,0,0,0-.14-.14,4.87,4.87,0,0,1-3.18-.7" transform="translate(0 0)"/><path class="cls-3" d="M271.11,1.78h-1.28a.18.18,0,0,0-.17.17v8.32a.17.17,0,0,0,.17.17h1.28a.17.17,0,0,0,.18-.17V2a.18.18,0,0,0-.18-.17" transform="translate(0 0)"/><path class="cls-3" d="M272.66,11.53c0,1.58-.29,1.68-2.49,1.68a.18.18,0,0,0-.17.18v1.2a.17.17,0,0,0,.17.17H272a2.07,2.07,0,0,0,2.35-2.22V.22a.17.17,0,0,0-.18-.17h-1.34a.17.17,0,0,0-.18.17Z" transform="translate(0 0)"/><path class="cls-3" d="M268.48,7.17h-1.36a.18.18,0,0,0-.15.08c-1.32,2.24-3.27,4-6.85,5.87a.16.16,0,0,0-.09.15v1.3a.16.16,0,0,0,.23.16l.82-.35a20.74,20.74,0,0,0,4.07-2.54.17.17,0,0,1,.23,0,21.31,21.31,0,0,1,1.93,2.27.19.19,0,0,0,.14.08h1.46a.17.17,0,0,0,.15-.26,17.78,17.78,0,0,0-2.5-3.21.18.18,0,0,1,0-.24,10.33,10.33,0,0,0,2.08-3.08.17.17,0,0,0-.16-.24" transform="translate(0 0)"/><path class="cls-3" d="M260.1,6.37V7.59a.17.17,0,0,0,.19.17c.49-.06,1.83-.21,3-.41a.13.13,0,0,1,.1.22,16.4,16.4,0,0,1-3.26,2.4.18.18,0,0,0-.08.15v1.42a.17.17,0,0,0,.24.16A13.8,13.8,0,0,0,267.12,5a.17.17,0,0,0-.16-.24h-1.4a.19.19,0,0,0-.15.09c-.15.29-.31.56-.48.83a.26.26,0,0,1-.11.07c-.43,0-1.38.18-2.18.25a.08.08,0,0,1-.07-.13,19.16,19.16,0,0,0,1.69-2.41.38.38,0,0,1,.32-.18h3.75a.18.18,0,0,0,.17-.17V2a.17.17,0,0,0-.17-.17h-3a.17.17,0,0,1-.16-.13,4.84,4.84,0,0,0-.77-1.51.15.15,0,0,0-.14-.07H262.9a.18.18,0,0,0-.15.27,4.21,4.21,0,0,1,.64,1.27.13.13,0,0,1-.12.17h-3.44a.17.17,0,0,0-.17.17V3.09a.18.18,0,0,0,.17.17h2.39a.11.11,0,0,1,.09.16,19.77,19.77,0,0,1-2.16,2.83.21.21,0,0,0,0,.12" transform="translate(0 0)"/><path class="cls-3" d="M278.09,10.2h1a.17.17,0,0,0,.17-.16l.32-5.88.06-3a.18.18,0,0,0-.18-.18h-1.73a.17.17,0,0,0-.17.18l.06,3,.31,5.88a.17.17,0,0,0,.17.16" transform="translate(0 0)"/><path class="cls-3" d="M278.58,11.31a1.29,1.29,0,1,0,1.23,1.29,1.27,1.27,0,0,0-1.23-1.29" transform="translate(0 0)"/><path class="cls-3" d="M217.43,1.67h-2.29a.16.16,0,0,1-.16-.12,4.79,4.79,0,0,0-.74-1.4.15.15,0,0,0-.14-.07h-1.33a.16.16,0,0,0-.14.26,4.47,4.47,0,0,1,.61,1.2.1.1,0,0,1-.1.13h-2.71a.17.17,0,0,0-.17.17V3a.17.17,0,0,0,.17.17h7a.18.18,0,0,0,.18-.17V1.84a.18.18,0,0,0-.18-.17" transform="translate(0 0)"/><path class="cls-3" d="M224.94,5.16V4a.18.18,0,0,0-.17-.17h-3.53a.17.17,0,0,1-.17-.18c0-1,0-2.06,0-3.47a.17.17,0,0,0-.17-.17h-1.35a.16.16,0,0,0-.17.17c0,1.33,0,2.47,0,3.48a.18.18,0,0,1-.17.17H218a.18.18,0,0,0-.17.17V5.16a.17.17,0,0,0,.17.17h1.08a.19.19,0,0,1,.18.19,25.61,25.61,0,0,1-.36,3.07,15.32,15.32,0,0,1-2.21,5.69.17.17,0,0,0,.14.27h1.45a.16.16,0,0,0,.14-.08,15.23,15.23,0,0,0,2.12-5.62A26.43,26.43,0,0,0,221,5.49a.17.17,0,0,1,.17-.16h3.6a.17.17,0,0,0,.17-.17" transform="translate(0 0)"/><path class="cls-3" d="M211.06,9.37a11.73,11.73,0,0,1-.94,3.38.17.17,0,0,0,.16.24h1.21a.18.18,0,0,0,.15-.08,9.58,9.58,0,0,0,1-3.51.17.17,0,0,0-.17-.19h-1.24a.17.17,0,0,0-.17.16" transform="translate(0 0)"/><path class="cls-3" d="M216.69,9.21h-1.23a.18.18,0,0,0-.17.22,15.21,15.21,0,0,1,.5,2.62.17.17,0,0,0,.17.15h1.24a.18.18,0,0,0,.17-.18,14.61,14.61,0,0,0-.52-2.69.17.17,0,0,0-.16-.12" transform="translate(0 0)"/><path class="cls-3" d="M217.06,8.32V4.14a.17.17,0,0,0-.17-.17H211a.17.17,0,0,0-.17.17V8.32a.18.18,0,0,0,.17.17h2a.17.17,0,0,1,.17.17v4c0,.3,0,.52-.45.54h-.88a.17.17,0,0,0-.17.17v1a.18.18,0,0,0,.16.18l1.6,0c.84,0,1.43-.55,1.43-1.82V8.66a.18.18,0,0,1,.18-.17h1.91a.18.18,0,0,0,.17-.17m-4.33-2.81h2.4a.18.18,0,0,1,.17.17V6.77a.18.18,0,0,1-.17.18h-2.4a.18.18,0,0,1-.17-.18V5.68a.18.18,0,0,1,.17-.17" transform="translate(0 0)"/><path class="cls-3" d="M234.67.05H233a.17.17,0,0,0-.16.11,14.09,14.09,0,0,1-.67,1.52.19.19,0,0,1-.15.09h-4.74a.18.18,0,0,0-.18.17V3.22a.17.17,0,0,0,.18.17h3.58a.18.18,0,0,1,.15.27,13.77,13.77,0,0,1-4.27,4.14.15.15,0,0,0-.09.14V9.67a.18.18,0,0,0,.25.16A11,11,0,0,0,229,8.43a.11.11,0,0,1,.18.09v6a.16.16,0,0,0,.17.17h1.58a.17.17,0,0,0,.17-.17V6.76a.78.78,0,0,1,.19-.51c.19-.21.36-.42.51-.61a20.37,20.37,0,0,0,1.5-2.16.16.16,0,0,1,.15-.09h8a.16.16,0,0,0,.17-.17V1.94a.17.17,0,0,0-.17-.17h-7.07a.13.13,0,0,1-.12-.19,11.6,11.6,0,0,0,.52-1.31.16.16,0,0,0-.16-.22" transform="translate(0 0)"/><path class="cls-3" d="M237.9,8.73h3a.17.17,0,0,0,.17-.17V7.28a.17.17,0,0,0-.17-.17h-3a.18.18,0,0,1-.18-.17V4.42a.16.16,0,0,0-.17-.17H236a.17.17,0,0,0-.17.17V6.94a.18.18,0,0,1-.17.17h-3a.18.18,0,0,0-.17.17V8.56a.18.18,0,0,0,.17.17h3a.18.18,0,0,1,.17.17v3.42a.18.18,0,0,1-.17.17H232a.18.18,0,0,0-.17.17v1.28a.18.18,0,0,0,.17.17h9.48a.17.17,0,0,0,.17-.17V12.66a.17.17,0,0,0-.17-.17h-3.6a.18.18,0,0,1-.18-.17V8.9a.18.18,0,0,1,.18-.17" transform="translate(0 0)"/><path class="cls-3" d="M2,9v4.1a.29.29,0,0,1-.29.3H.29a.29.29,0,0,1-.29-.3V2.57a.29.29,0,0,1,.29-.3H1.73a.29.29,0,0,1,.29.3v4a.3.3,0,0,0,.29.3H7.45a.3.3,0,0,0,.29-.3v-4A.29.29,0,0,1,8,2.27H9.47a.29.29,0,0,1,.29.3V13.13a.29.29,0,0,1-.29.3H8a.29.29,0,0,1-.29-.3V9a.29.29,0,0,0-.29-.3H2.31A.29.29,0,0,0,2,9" transform="translate(0 0)"/><path class="cls-3" d="M23.38,13.43H21.77a.28.28,0,0,1-.26-.18l-1-2.33a.28.28,0,0,0-.26-.18H15.17a.3.3,0,0,0-.27.17l-1,2.35a.3.3,0,0,1-.27.17H12.07a.23.23,0,0,1-.2-.32L16.71,2.36A.3.3,0,0,1,17,2.19h1.51a.3.3,0,0,1,.26.17l4.83,10.75a.22.22,0,0,1-.19.32M17.5,5,15.82,8.77A.16.16,0,0,0,16,9h3.48a.17.17,0,0,0,.14-.23L17.88,5a.21.21,0,0,0-.38,0" transform="translate(0 0)"/><path class="cls-3" d="M29.76,9.84h-2a.3.3,0,0,0-.29.31v3a.29.29,0,0,1-.29.3H25.75a.29.29,0,0,1-.29-.3V2.57a.29.29,0,0,1,.29-.3H30c2.68,0,4.37,1.46,4.37,3.75,0,2.52-2.07,3.82-4.6,3.82m.07-5.79H27.77a.3.3,0,0,0-.29.31V7.77a.29.29,0,0,0,.29.3h2.06c1.52,0,2.48-.81,2.48-2s-1-2-2.48-2" transform="translate(0 0)"/><path class="cls-3" d="M40.62,9.84h-2a.3.3,0,0,0-.29.31v3a.29.29,0,0,1-.29.3H36.6a.29.29,0,0,1-.29-.3V2.57a.29.29,0,0,1,.29-.3h4.25c2.67,0,4.36,1.46,4.36,3.75,0,2.52-2.07,3.82-4.59,3.82m.06-5.79H38.62a.3.3,0,0,0-.29.31V7.77a.29.29,0,0,0,.29.3h2.06c1.53,0,2.48-.81,2.48-2s-1-2-2.48-2" transform="translate(0 0)"/><path class="cls-3" d="M49.54,2.57V13.13a.29.29,0,0,1-.29.3H47.81a.29.29,0,0,1-.29-.3V2.57a.29.29,0,0,1,.29-.3h1.44a.29.29,0,0,1,.29.3" transform="translate(0 0)"/><path class="cls-3" d="M61,2.27h1.41a.29.29,0,0,1,.29.3V13.13a.29.29,0,0,1-.29.3H61.32a.55.55,0,0,1-.44-.21l-6-7.31a.19.19,0,0,0-.34.13v7.09a.29.29,0,0,1-.29.3H52.9a.29.29,0,0,1-.29-.3V2.57a.29.29,0,0,1,.29-.3h1.31a.58.58,0,0,1,.44.21l5.76,7.09a.19.19,0,0,0,.34-.13V2.57a.29.29,0,0,1,.29-.3" transform="translate(0 0)"/><path class="cls-3" d="M131.69,2.27h1.4a.29.29,0,0,1,.29.3V13.13a.29.29,0,0,1-.29.3H132a.55.55,0,0,1-.44-.21l-6-7.38a.16.16,0,0,0-.28.11v7.18a.29.29,0,0,1-.29.3h-1.41a.29.29,0,0,1-.29-.3V2.57a.29.29,0,0,1,.29-.3h1.31a.58.58,0,0,1,.44.21l5.82,7.16a.16.16,0,0,0,.29-.11v-7a.29.29,0,0,1,.29-.3" transform="translate(0 0)"/><path class="cls-3" d="M73.93,4H67.77a.18.18,0,0,0-.17.18V6.75a.17.17,0,0,0,.17.17h5.65a.3.3,0,0,1,.29.31V8.38a.3.3,0,0,1-.29.3H67.77a.18.18,0,0,0-.17.18V11.5a.18.18,0,0,0,.17.18H74a.29.29,0,0,1,.29.3v1.15a.29.29,0,0,1-.29.3H65.87a.29.29,0,0,1-.29-.3V2.57a.29.29,0,0,1,.29-.3h8.06a.29.29,0,0,1,.29.3V3.72a.29.29,0,0,1-.29.3" transform="translate(0 0)"/><path class="cls-3" d="M81.25,7c2.43.57,3.7,1.42,3.7,3.28,0,2.11-1.69,3.35-4.11,3.35A7.2,7.2,0,0,1,76.29,12a.32.32,0,0,1,0-.44l.83-1a.27.27,0,0,1,.39,0,5.28,5.28,0,0,0,3.42,1.27c1.25,0,2-.55,2-1.42s-.46-1.24-2.6-1.72c-2.44-.57-3.82-1.28-3.82-3.35s1.64-3.25,3.92-3.25a6.52,6.52,0,0,1,3.93,1.22.31.31,0,0,1,.06.43l-.74,1a.28.28,0,0,1-.39.07,5.14,5.14,0,0,0-2.89-1c-1.18,0-1.87.59-1.87,1.34S79.05,6.45,81.25,7" transform="translate(0 0)"/><path class="cls-3" d="M91.6,7c2.43.57,3.69,1.42,3.69,3.28,0,2.11-1.69,3.35-4.1,3.35A7.18,7.18,0,0,1,86.64,12a.31.31,0,0,1,0-.44l.83-1a.27.27,0,0,1,.39,0,5.28,5.28,0,0,0,3.42,1.27c1.25,0,2-.55,2-1.42s-.46-1.24-2.59-1.72c-2.45-.57-3.83-1.28-3.83-3.35s1.65-3.25,3.93-3.25a6.52,6.52,0,0,1,3.93,1.22.31.31,0,0,1,.06.43l-.74,1a.28.28,0,0,1-.39.07,5.14,5.14,0,0,0-2.89-1c-1.19,0-1.88.59-1.88,1.34S89.4,6.45,91.6,7" transform="translate(0 0)"/><path class="cls-3" d="M104.74,2.57V13.13a.29.29,0,0,1-.29.3h-1.67a.29.29,0,0,1-.29-.3V2.57a.29.29,0,0,1,.29-.3h1.67a.29.29,0,0,1,.29.3" transform="translate(0 0)"/><path class="cls-3" d="M112.24,7c2.44.57,3.7,1.42,3.7,3.28,0,2.11-1.69,3.35-4.11,3.35A7.2,7.2,0,0,1,107.28,12a.31.31,0,0,1,0-.44l.82-1a.28.28,0,0,1,.4,0,5.27,5.27,0,0,0,3.41,1.27c1.25,0,2-.55,2-1.42s-.46-1.24-2.6-1.72c-2.44-.57-3.82-1.28-3.82-3.35s1.64-3.25,3.92-3.25a6.52,6.52,0,0,1,3.93,1.22.3.3,0,0,1,.06.43l-.73,1a.3.3,0,0,1-.4.07,5.09,5.09,0,0,0-2.89-1c-1.18,0-1.87.59-1.87,1.34S110,6.45,112.24,7" transform="translate(0 0)"/><path class="cls-3" d="M141.71,13.62a5.78,5.78,0,1,1,6-5.79,5.81,5.81,0,0,1-6,5.79m0-9.74a3.83,3.83,0,0,0-3.88,4,3.88,3.88,0,0,0,3.91,4,3.83,3.83,0,0,0,3.88-3.95,3.88,3.88,0,0,0-3.91-4" transform="translate(0 0)"/><path class="cls-3" d="M156.63,2.24h1.3a.29.29,0,0,1,.27.2l2.61,7.65a.16.16,0,0,0,.3,0l2.52-7.62a.29.29,0,0,1,.28-.2h1.49a.3.3,0,0,1,.27.41l-3.79,10.64a.29.29,0,0,1-.27.19h-1.34a.29.29,0,0,1-.27-.2l-2.48-7a.29.29,0,0,0-.55,0l-2.48,7.05a.29.29,0,0,1-.27.2h-1.34a.29.29,0,0,1-.27-.19L148.82,2.68a.3.3,0,0,1,.27-.41h1.56a.29.29,0,0,1,.28.2l2.52,7.62a.16.16,0,0,0,.3,0l2.61-7.65a.29.29,0,0,1,.27-.2" transform="translate(0 0)"/><path class="cls-3" d="M169,5.1,169,2.94a.28.28,0,0,1,.28-.3h1.63a.3.3,0,0,1,.29.3l-.06,2.16-.33,4.42a.29.29,0,0,1-.29.27h-.85a.29.29,0,0,1-.29-.27Z" transform="translate(0 0)"/><path class="cls-3" d="M171.24,11.87a1.19,1.19,0,1,1-1.18-1.19,1.18,1.18,0,0,1,1.18,1.19" transform="translate(0 0)"/></g></g></g></svg>